<svg width="21" height="16" viewBox="0 0 21 16" fill="none" xmlns="http://www.w3.org/2000/svg">
<path d="M16.2185 2.89555L18.3802 0.733878L17.6463 0L15.3507 2.29558C13.9157 1.38523 12.2419 0.733878 10.3802 0.733878C4.15207 0.733878 0 8 0 8C0 8 1.6956 10.9625 4.54185 13.1045L2.38017 15.2661L3.11405 16L5.40963 13.7044C6.84469 14.6148 8.51849 15.2661 10.3802 15.2661C16.6083 15.2661 20.7603 8 20.7603 8C20.7603 8 19.0647 5.0375 16.2185 2.89555ZM1.2259 7.99896C2.26962 6.42118 5.7392 1.7719 10.3802 1.7719C11.9305 1.7719 13.3479 2.29973 14.5924 3.05385L12.9233 4.72298C12.2206 4.17646 11.3393 3.84793 10.3802 3.84793C8.08719 3.84793 6.2281 5.70702 6.2281 8C6.2281 8.95913 6.55664 9.8404 7.10315 10.5431L5.2887 12.3576C3.27806 10.8789 1.83573 8.91761 1.2259 7.99896ZM13.4942 8C13.4942 9.71688 12.0971 11.1141 10.3802 11.1141C9.70858 11.1141 9.08784 10.8981 8.57869 10.5354L12.9155 6.19852C13.2783 6.70767 13.4942 7.3284 13.4942 8ZM7.26612 8C7.26612 6.28312 8.66329 4.88595 10.3802 4.88595C11.0518 4.88595 11.6725 5.10186 12.1817 5.46464L7.84482 9.80148C7.48203 9.29233 7.26612 8.6716 7.26612 8ZM10.3802 14.2281C8.8299 14.2281 7.41248 13.7003 6.1679 12.9462L7.83703 11.277C8.53977 11.8235 9.42105 12.1521 10.3802 12.1521C12.6732 12.1521 14.5322 10.293 14.5322 8C14.5322 7.04087 14.2037 6.1596 13.6572 5.45686L15.4717 3.6424C17.4818 5.12106 18.9241 7.08239 19.5339 8.00156C18.4907 9.57882 15.0211 14.2281 10.3802 14.2281Z"/>
</svg>
