<svg width="21" height="20" viewBox="0 0 21 20" fill="none" xmlns="http://www.w3.org/2000/svg">
<path d="M9.25 5H11.25V7H9.25V5ZM10.25 15C10.8 15 11.25 14.55 11.25 14V10C11.25 9.45 10.8 9 10.25 9C9.7 9 9.25 9.45 9.25 10V14C9.25 14.55 9.7 15 10.25 15ZM10.25 0C4.73 0 0.25 4.48 0.25 10C0.25 15.52 4.73 20 10.25 20C15.77 20 20.25 15.52 20.25 10C20.25 4.48 15.77 0 10.25 0ZM10.25 18C5.84 18 2.25 14.41 2.25 10C2.25 5.59 5.84 2 10.25 2C14.66 2 18.25 5.59 18.25 10C18.25 14.41 14.66 18 10.25 18Z" fill="#CD1A1A"/>
</svg>
