<svg width="20" height="20" viewBox="0 0 22 22" data-testid="icon-warning" id="icon"><g fill="#6C6C6C"><path stroke="none" d="M1.30771 15.3846L9.07694 1.92308C10 0.384615 12.2308 0.384615 13.0769 1.92308L20.8462 15.3846C21.7692 16.9231 20.6154 18.8462 18.8462 18.8462H3.30771C1.53848 18.8462 0.384632 16.9231 1.30771 15.3846ZM11.0769 13.6154C10.2308 13.6154 9.61539 14.3077 9.61539 15.0769C9.61539 15.8462 10.3077 16.5385 11.0769 16.5385C11.8462 16.5385 12.5385 15.9231 12.5385 15.0769C12.5385 14.2308 11.8462 13.6154 11.0769 13.6154ZM10.3077 12.0769H11.9231C12.0769 12.0769 12.3077 11.8462 12.3077 11.6154L12.5385 6.15385C12.5385 5.92308 12.3846 5.76923 12.1539 5.69231H10.0769C9.84616 5.69231 9.69232 5.92308 9.69232 6.15385L9.92309 11.6923C9.92309 11.9231 10.0769 12.0769 10.3077 12.0769Z"></path></g></svg>