<svg width="39" height="47" viewBox="0 0 39 47" fill="none" xmlns="http://www.w3.org/2000/svg">
<g filter="url(#filter0_d_5_6490)">
<mask id="path-1-outside-1_5_6490" maskUnits="userSpaceOnUse" x="-6.30975" y="-2.44937" width="53.6675" height="53.6675" fill="black">
<rect fill="white" x="-6.30975" y="-2.44937" width="53.6675" height="53.6675"/>
<path d="M29.1431 36.1177C29.5126 36.5103 29.8934 36.7666 30.2855 36.8866C30.6862 36.9987 31.0717 37.0063 31.4418 36.9094C31.8128 36.796 32.1302 36.5968 32.3939 36.3118C32.6664 36.0189 32.8504 35.6717 32.946 35.2701C33.0416 34.8685 33.0148 34.4273 32.8655 33.9466L23.7387 4.35941C23.5319 3.70973 23.2385 3.20905 22.8585 2.85737C22.4794 2.48914 22.0586 2.28469 21.596 2.24402C21.1343 2.18681 20.6928 2.30074 20.2714 2.58582C19.8499 2.8709 19.4979 3.33799 19.2152 3.98708L7.1604 32.335C6.94294 32.8464 6.86003 33.3234 6.91169 33.7659C6.94679 34.2075 7.08464 34.588 7.32523 34.9076C7.55712 35.2349 7.85603 35.4704 8.22196 35.6139C8.57918 35.7652 8.9629 35.806 9.37312 35.736C9.7755 35.6574 10.1726 35.4416 10.5643 35.0886L20.0294 26.6073C20.2035 26.4504 20.369 26.459 20.5259 26.6331L29.1431 36.1177Z"/>
</mask>
<path d="M29.1431 36.1177C29.5126 36.5103 29.8934 36.7666 30.2855 36.8866C30.6862 36.9987 31.0717 37.0063 31.4418 36.9094C31.8128 36.796 32.1302 36.5968 32.3939 36.3118C32.6664 36.0189 32.8504 35.6717 32.946 35.2701C33.0416 34.8685 33.0148 34.4273 32.8655 33.9466L23.7387 4.35941C23.5319 3.70973 23.2385 3.20905 22.8585 2.85737C22.4794 2.48914 22.0586 2.28469 21.596 2.24402C21.1343 2.18681 20.6928 2.30074 20.2714 2.58582C19.8499 2.8709 19.4979 3.33799 19.2152 3.98708L7.1604 32.335C6.94294 32.8464 6.86003 33.3234 6.91169 33.7659C6.94679 34.2075 7.08464 34.588 7.32523 34.9076C7.55712 35.2349 7.85603 35.4704 8.22196 35.6139C8.57918 35.7652 8.9629 35.806 9.37312 35.736C9.7755 35.6574 10.1726 35.4416 10.5643 35.0886L20.0294 26.6073C20.2035 26.4504 20.369 26.459 20.5259 26.6331L29.1431 36.1177Z" fill="black"/>
<path d="M29.1431 36.1177L27.6867 37.4885L27.6747 37.4756L27.6628 37.4626L29.1431 36.1177ZM30.2855 36.8866L29.7466 38.8126L29.7233 38.8061L29.7002 38.799L30.2855 36.8866ZM31.4418 36.9094L32.0267 38.822L31.9877 38.8339L31.9483 38.8442L31.4418 36.9094ZM32.3939 36.3118L30.9261 34.9533L30.9297 34.9494L32.3939 36.3118ZM32.8655 33.9466L30.9554 34.5395L30.9544 34.5361L32.8655 33.9466ZM23.7387 4.35941L25.6445 3.75273L25.6472 3.76129L25.6499 3.76988L23.7387 4.35941ZM22.8585 2.85737L21.5 4.32519L21.4824 4.30883L21.4651 4.29204L22.8585 2.85737ZM21.596 2.24402L21.4209 4.23634L21.3854 4.23322L21.35 4.22884L21.596 2.24402ZM19.2152 3.98708L17.3747 3.20442L17.3781 3.19642L17.3815 3.18846L19.2152 3.98708ZM7.1604 32.335L5.31987 31.5524L5.3199 31.5524L7.1604 32.335ZM6.91169 33.7659L8.8982 33.534L8.90247 33.5706L8.9054 33.6074L6.91169 33.7659ZM7.32523 34.9076L8.92296 33.7045L8.94046 33.7278L8.95729 33.7515L7.32523 34.9076ZM8.22196 35.6139L8.95217 33.752L8.97732 33.7618L9.0022 33.7724L8.22196 35.6139ZM9.37312 35.736L9.75669 37.6989L9.73299 37.7035L9.70918 37.7076L9.37312 35.736ZM10.5643 35.0886L9.22552 33.6028L9.22964 33.5991L10.5643 35.0886ZM20.0294 26.6073L21.3682 28.0931L21.3641 28.0968L20.0294 26.6073ZM20.5259 26.6331L19.0456 27.978L19.0401 27.9719L20.5259 26.6331ZM29.1431 36.1177L30.5994 34.7469C30.8035 34.9638 30.8999 34.9831 30.8707 34.9741L30.2855 36.8866L29.7002 38.799C28.8869 38.5502 28.2217 38.0569 27.6867 37.4885L29.1431 36.1177ZM30.2855 36.8866L30.8244 34.9606C30.8749 34.9747 30.9036 34.9766 30.9146 34.9768C30.9246 34.977 30.9297 34.9761 30.9353 34.9746L31.4418 36.9094L31.9483 38.8442C31.2054 39.0387 30.458 39.0117 29.7466 38.8126L30.2855 36.8866ZM31.4418 36.9094L30.8569 34.9969C30.8895 34.9869 30.9023 34.979 30.9261 34.9533L32.3939 36.3118L33.8618 37.6703C33.3581 38.2145 32.7361 38.605 32.0267 38.822L31.4418 36.9094ZM32.3939 36.3118L30.9297 34.9494C30.9589 34.918 30.9821 34.8836 31.0004 34.8071L32.946 35.2701L34.8917 35.7332C34.7187 36.4599 34.3739 37.1198 33.8582 37.6742L32.3939 36.3118ZM32.946 35.2701L31.0004 34.8071C30.9965 34.8234 31.0217 34.7528 30.9555 34.5395L32.8655 33.9466L34.7756 33.3537C35.0079 34.1019 35.0867 34.9136 34.8917 35.7332L32.946 35.2701ZM32.8655 33.9466L30.9544 34.5361L21.8276 4.94894L23.7387 4.35941L25.6499 3.76988L34.7767 33.3571L32.8655 33.9466ZM23.7387 4.35941L21.833 4.96609C21.6988 4.54472 21.5582 4.37905 21.5 4.32519L22.8585 2.85737L24.217 1.38955C24.9188 2.03906 25.365 2.87474 25.6445 3.75273L23.7387 4.35941ZM22.8585 2.85737L21.4651 4.29204C21.4087 4.23726 21.3806 4.22483 21.3846 4.22681C21.3861 4.22753 21.3917 4.23001 21.4004 4.23242C21.4091 4.23484 21.4165 4.23595 21.4209 4.23634L21.596 2.24402L21.7712 0.251708C22.7546 0.338165 23.5911 0.780808 24.252 1.4227L22.8585 2.85737ZM21.596 2.24402L21.35 4.22884C21.3543 4.22937 21.3645 4.23017 21.3789 4.22927C21.3933 4.22836 21.407 4.22604 21.4183 4.22313C21.4294 4.22027 21.4337 4.21799 21.4306 4.21944C21.4271 4.22103 21.4142 4.22734 21.392 4.24238L20.2714 2.58582L19.1507 0.929255C19.9325 0.400413 20.8537 0.136725 21.842 0.259209L21.596 2.24402ZM20.2714 2.58582L21.392 4.24238C21.3851 4.24705 21.237 4.35363 21.0488 4.78571L19.2152 3.98708L17.3815 3.18846C17.7588 2.32234 18.3148 1.49475 19.1507 0.929255L20.2714 2.58582ZM19.2152 3.98708L21.0557 4.76974L9.0009 33.1177L7.1604 32.335L5.3199 31.5524L17.3747 3.20442L19.2152 3.98708ZM7.1604 32.335L9.00093 33.1176C8.88618 33.3875 8.89565 33.5122 8.8982 33.534L6.91169 33.7659L4.92518 33.9978C4.82442 33.1346 4.9997 32.3054 5.31987 31.5524L7.1604 32.335ZM6.91169 33.7659L8.9054 33.6074C8.91009 33.6664 8.91935 33.6945 8.92184 33.7013C8.92325 33.7052 8.9239 33.7062 8.92345 33.7054C8.92299 33.7045 8.9226 33.7041 8.92296 33.7045L7.32523 34.9076L5.72751 36.1106C5.23423 35.4555 4.97983 34.7025 4.91798 33.9243L6.91169 33.7659ZM7.32523 34.9076L8.95729 33.7515C8.96334 33.7601 8.96667 33.7636 8.96672 33.7636C8.9668 33.7637 8.96631 33.7632 8.96522 33.7622C8.96414 33.7612 8.96268 33.7599 8.96088 33.7585C8.95704 33.7555 8.9533 33.7531 8.95048 33.7515C8.94772 33.7499 8.94786 33.7503 8.95217 33.752L8.22196 35.6139L7.49175 37.4758C6.75494 37.1869 6.1455 36.7022 5.69318 36.0636L7.32523 34.9076ZM8.22196 35.6139L9.0022 33.7724C9.0024 33.7724 9.00036 33.7716 8.99669 33.7706C8.99301 33.7697 8.99006 33.7692 8.98868 33.7691C8.98738 33.769 8.98982 33.7693 8.99689 33.7691C9.00406 33.7688 9.01722 33.7678 9.03705 33.7645L9.37312 35.736L9.70918 37.7076C8.95067 37.8369 8.17674 37.7668 7.44171 37.4554L8.22196 35.6139ZM9.37312 35.736L8.98954 33.7732C8.94793 33.7813 9.02735 33.7813 9.22553 33.6028L10.5643 35.0886L11.9031 36.5744C11.3178 37.1018 10.6031 37.5335 9.75669 37.6989L9.37312 35.736ZM10.5643 35.0886L9.22964 33.5991L18.6947 25.1178L20.0294 26.6073L21.3641 28.0968L11.899 36.5781L10.5643 35.0886ZM20.0294 26.6073L18.6906 25.1215C19.0067 24.8367 19.5887 24.4572 20.388 24.4988C21.1873 24.5404 21.7269 24.9782 22.0117 25.2943L20.5259 26.6331L19.0401 27.9719C19.168 28.1139 19.5464 28.4604 20.1802 28.4934C20.8139 28.5264 21.2262 28.221 21.3682 28.0931L20.0294 26.6073ZM20.5259 26.6331L22.0062 25.2882L30.6234 34.7728L29.1431 36.1177L27.6628 37.4626L19.0456 27.978L20.5259 26.6331Z" fill="white" mask="url(#path-1-outside-1_5_6490)"/>
</g>
<defs>
<filter id="filter0_d_5_6490" x="0.896729" y="0.229584" width="38.1052" height="46.7473" filterUnits="userSpaceOnUse" color-interpolation-filters="sRGB">
<feFlood flood-opacity="0" result="BackgroundImageFix"/>
<feColorMatrix in="SourceAlpha" type="matrix" values="0 0 0 0 0 0 0 0 0 0 0 0 0 0 0 0 0 0 127 0" result="hardAlpha"/>
<feOffset dy="4"/>
<feGaussianBlur stdDeviation="2"/>
<feComposite in2="hardAlpha" operator="out"/>
<feColorMatrix type="matrix" values="0 0 0 0 0 0 0 0 0 0 0 0 0 0 0 0 0 0 0.25 0"/>
<feBlend mode="normal" in2="BackgroundImageFix" result="effect1_dropShadow_5_6490"/>
<feBlend mode="normal" in="SourceGraphic" in2="effect1_dropShadow_5_6490" result="shape"/>
</filter>
</defs>
</svg>
