<svg width="24" height="24" viewBox="0 0 24 24" fill="none" xmlns="http://www.w3.org/2000/svg">
    <path d="M11 22V19H4V17H20V19H13V22H11ZM9 11.5C9.28333 11.5 9.521 11.404 9.713 11.212C9.905 11.02 10.0007 10.7827 10 10.5C9.99933 10.2173 9.90333 9.98 9.712 9.788C9.52067 9.596 9.28333 9.5 9 9.5C8.71667 9.5 8.47933 9.596 8.288 9.788C8.09667 9.98 8.00067 10.2173 8 10.5C7.99933 10.7827 8.09533 11.0203 8.288 11.213C8.48067 11.4057 8.718 11.5013 9 11.5ZM15 11.5C15.2833 11.5 15.521 11.404 15.713 11.212C15.905 11.02 16.0007 10.7827 16 10.5C15.9993 10.2173 15.9033 9.98 15.712 9.788C15.5207 9.596 15.2833 9.5 15 9.5C14.7167 9.5 14.4793 9.596 14.288 9.788C14.0967 9.98 14.0007 10.2173 14 10.5C13.9993 10.7827 14.0953 11.0203 14.288 11.213C14.4807 11.4057 14.718 11.5013 15 11.5ZM5 8.6L6.925 3H17.075L19 8.6V16H17V14H7V16H5V8.6ZM7.65 7H16.35L15.65 5H8.35L7.65 7Z" fill="#333333"/>
    </svg>
    