<svg width="24" height="24" viewBox="0 0 24 24" fill="none" xmlns="http://www.w3.org/2000/svg">
    <path d="M2 2H3.301C4.487 2 5.08 2 5.481 2.371C5.883 2.743 5.961 3.363 6.118 4.604L7.246 13.529C7.455 15.183 7.559 16.009 8.095 16.505C8.631 17 9.421 17 11.002 17H21" stroke="#333333" stroke-width="1.5" stroke-linecap="round" stroke-linejoin="round"/>
    <path d="M10.5 21C11.3284 21 12 20.3284 12 19.5C12 18.6716 11.3284 18 10.5 18C9.67157 18 9 18.6716 9 19.5C9 20.3284 9.67157 21 10.5 21Z" stroke="#333333" stroke-width="1.5" stroke-linecap="round" stroke-linejoin="round"/>
    <path d="M17.5 21C18.3284 21 19 20.3284 19 19.5C19 18.6716 18.3284 18 17.5 18C16.6716 18 16 18.6716 16 19.5C16 20.3284 16.6716 21 17.5 21Z" stroke="#333333" stroke-width="1.5" stroke-linecap="round" stroke-linejoin="round"/>
    <path d="M20 14H14C13.057 14 12.586 14 12.293 13.634C12 13.268 12 12.678 12 11.5C12 10.322 12 9.732 12.293 9.366C12.586 9 13.057 9 14 9H20C20.943 9 21.414 9 21.707 9.366C22 9.732 22 10.322 22 11.5C22 12.678 22 13.268 21.707 13.634C21.414 14 20.943 14 20 14ZM18 9H12C11.057 9 10.586 9 10.293 8.634C10 8.268 10 7.679 10 6.5C10 5.321 10 4.732 10.293 4.366C10.586 4 11.057 4 12 4H18C18.943 4 19.414 4 19.707 4.366C20 4.732 20 5.321 20 6.5C20 7.679 20 8.268 19.707 8.634C19.414 9 18.943 9 18 9Z" stroke="#333333" stroke-width="1.5" stroke-linecap="round" stroke-linejoin="round"/>
    </svg>
    