<svg width="16" height="12" viewBox="0 0 16 12" fill="none" xmlns="http://www.w3.org/2000/svg">
<path d="M0 11.4545V0.54541H1.45455V7.81814H7.27273V1.99996H13.0909C13.8909 1.99996 14.5758 2.2848 15.1455 2.8545C15.7152 3.4242 16 4.10905 16 4.90905V11.4545H14.5455V9.27268H1.45455V11.4545H0ZM4.36364 7.09087C3.75758 7.09087 3.24242 6.87874 2.81818 6.4545C2.39394 6.03026 2.18182 5.51511 2.18182 4.90905C2.18182 4.30299 2.39394 3.78783 2.81818 3.36359C3.24242 2.93935 3.75758 2.72723 4.36364 2.72723C4.9697 2.72723 5.48485 2.93935 5.90909 3.36359C6.33333 3.78783 6.54545 4.30299 6.54545 4.90905C6.54545 5.51511 6.33333 6.03026 5.90909 6.4545C5.48485 6.87874 4.9697 7.09087 4.36364 7.09087ZM8.72727 7.81814H14.5455V4.90905C14.5455 4.50905 14.4029 4.1665 14.1178 3.88141C13.8327 3.59632 13.4904 3.45402 13.0909 3.4545H8.72727V7.81814ZM4.36364 5.63632C4.5697 5.63632 4.74255 5.5665 4.88218 5.42686C5.02182 5.28723 5.09139 5.11462 5.09091 4.90905C5.09091 4.70299 5.02109 4.53014 4.88145 4.3905C4.74182 4.25086 4.56921 4.18129 4.36364 4.18177C4.15758 4.18177 3.98473 4.25159 3.84509 4.39123C3.70545 4.53086 3.63588 4.70347 3.63636 4.90905C3.63636 5.11511 3.70618 5.28796 3.84582 5.42759C3.98545 5.56723 4.15806 5.6368 4.36364 5.63632Z" fill="#1A1919"/>
</svg>
