<svg width="24" height="24" viewBox="0 0 24 24" fill="none" xmlns="http://www.w3.org/2000/svg">
    <path d="M21.041 11.14C21.183 11.14 21.317 11.197 21.421 11.303L22.697 12.579C22.7481 12.6293 22.7887 12.6892 22.8164 12.7553C22.8441 12.8214 22.8584 12.8923 22.8584 12.964C22.8584 13.0357 22.8441 13.1066 22.8164 13.1727C22.7887 13.2388 22.7481 13.2987 22.697 13.349L21.697 14.349L19.651 12.303L20.651 11.303C20.7553 11.2007 20.8949 11.1423 21.041 11.14ZM19.063 12.88L21.109 14.932L15.063 21H13V18.937L19.063 12.88ZM12 5.688L7 10.188V18H11V20H5V12H2L12 3L19.459 9.713L17 12.172V10.188L12 5.688Z" fill="#333333"/>
    </svg>
    