<svg width="16" height="16" viewBox="0 0 16 16" fill="none" xmlns="http://www.w3.org/2000/svg">
<path d="M9.2431 2.55375L8.64099 3.3976L8.3437 3.80075C8.51806 3.77446 8.69242 3.74691 8.86678 3.72062C10.8236 6.36362 11.9965 8.60222 11.9965 9.74906C11.9965 12.0916 10.204 13.9971 8 13.9971C5.79604 13.9971 4.00351 12.0916 4.00351 9.74906C4.00351 8.46825 5.46613 5.82651 7.84822 2.78161L8.59834 1.72867C8.58204 1.70864 8.56573 1.68735 8.54942 1.66732C8.21325 1.24915 8 1 8 1C8 1 7.78675 1.24915 7.45058 1.66732C6.15103 3.28743 3 7.44786 3 9.75031C3 12.6487 5.24034 15 8 15C10.7597 15 13 12.6487 13 9.75031C13 7.79342 10.7233 4.49311 9.24185 2.55375H9.2431Z"/>
</svg>
