<svg width="17" height="17" viewBox="0 0 17 17" fill="none" xmlns="http://www.w3.org/2000/svg">
    <path d="M15.0354 2.95654H11.4604C10.6932 2.95654 9.94321 3.17686 9.2979 3.59248L8.5354 4.08154L7.7729 3.59248C7.12823 3.17694 6.37739 2.95613 5.6104 2.95654H2.0354C1.75884 2.95654 1.5354 3.17998 1.5354 3.45654V12.3315C1.5354 12.6081 1.75884 12.8315 2.0354 12.8315H5.6104C6.37759 12.8315 7.12759 13.0519 7.7729 13.4675L8.46665 13.9144C8.48696 13.9269 8.5104 13.9347 8.53384 13.9347C8.55728 13.9347 8.58071 13.9284 8.60103 13.9144L9.29478 13.4675C9.94165 13.0519 10.6932 12.8315 11.4604 12.8315H15.0354C15.312 12.8315 15.5354 12.6081 15.5354 12.3315V3.45654C15.5354 3.17998 15.312 2.95654 15.0354 2.95654ZM5.6104 11.7065H2.6604V4.08154H5.6104C6.16353 4.08154 6.70103 4.23936 7.16509 4.53779L7.92759 5.02686L8.0354 5.09717V12.3159C7.29165 11.9159 6.4604 11.7065 5.6104 11.7065ZM14.4104 11.7065H11.4604C10.6104 11.7065 9.77915 11.9159 9.0354 12.3159V5.09717L9.14321 5.02686L9.90571 4.53779C10.3698 4.23936 10.9073 4.08154 11.4604 4.08154H14.4104V11.7065ZM6.73696 6.08154H3.83384C3.7729 6.08154 3.7229 6.13467 3.7229 6.19873V6.90186C3.7229 6.96592 3.7729 7.01904 3.83384 7.01904H6.7354C6.79634 7.01904 6.84634 6.96592 6.84634 6.90186V6.19873C6.8479 6.13467 6.7979 6.08154 6.73696 6.08154ZM10.2229 6.19873V6.90186C10.2229 6.96592 10.2729 7.01904 10.3338 7.01904H13.2354C13.2963 7.01904 13.3463 6.96592 13.3463 6.90186V6.19873C13.3463 6.13467 13.2963 6.08154 13.2354 6.08154H10.3338C10.2729 6.08154 10.2229 6.13467 10.2229 6.19873ZM6.73696 8.26904H3.83384C3.7729 8.26904 3.7229 8.32217 3.7229 8.38623V9.08936C3.7229 9.15342 3.7729 9.20654 3.83384 9.20654H6.7354C6.79634 9.20654 6.84634 9.15342 6.84634 9.08936V8.38623C6.8479 8.32217 6.7979 8.26904 6.73696 8.26904ZM13.237 8.26904H10.3338C10.2729 8.26904 10.2229 8.32217 10.2229 8.38623V9.08936C10.2229 9.15342 10.2729 9.20654 10.3338 9.20654H13.2354C13.2963 9.20654 13.3463 9.15342 13.3463 9.08936V8.38623C13.3479 8.32217 13.2979 8.26904 13.237 8.26904Z" fill="white"/>
    </svg>
    