<svg width="16" height="16" viewBox="0 0 16 16" fill="none" xmlns="http://www.w3.org/2000/svg">
<g id="carbon:send-alt-filled">
<path id="Vector" d="M13.8555 2.14562C13.788 2.07845 13.7028 2.03195 13.6098 2.01158C13.5168 1.99121 13.4199 1.99781 13.3305 2.03062L2.33049 6.03062C2.23562 6.0666 2.15395 6.13059 2.09631 6.21409C2.03868 6.2976 2.00781 6.39666 2.00781 6.49812C2.00781 6.59958 2.03868 6.69864 2.09631 6.78214C2.15395 6.86564 2.23562 6.92963 2.33049 6.96562L6.62549 8.68062L9.79549 5.50062L10.5005 6.20562L7.31549 9.39062L9.03549 13.6856C9.07254 13.7787 9.13667 13.8584 9.21958 13.9146C9.30249 13.9707 9.40035 14.0007 9.50049 14.0006C9.60153 13.9985 9.69957 13.9659 9.78169 13.907C9.86381 13.8481 9.92615 13.7657 9.96049 13.6706L13.9605 2.67062C13.9946 2.58216 14.0028 2.48583 13.9842 2.39288C13.9656 2.29993 13.921 2.21417 13.8555 2.14562Z" fill="white"/>
</g>
</svg>
