<svg width="24" height="24" viewBox="0 0 24 24" fill="none" xmlns="http://www.w3.org/2000/svg">
    <path d="M7.431 3L3 8.064V21H21V8.064L16.569 3H7.431ZM7.0905 1.5H16.9095C17.0162 1.49992 17.1218 1.52263 17.219 1.5666C17.3163 1.61058 17.4031 1.67481 17.4735 1.755L22.314 7.2885C22.4337 7.42506 22.4998 7.60041 22.5 7.782V21.75C22.5 21.9489 22.421 22.1397 22.2803 22.2803C22.1397 22.421 21.9489 22.5 21.75 22.5H2.25C2.05109 22.5 1.86032 22.421 1.71967 22.2803C1.57902 22.1397 1.5 21.9489 1.5 21.75V7.782C1.49985 7.59989 1.56596 7.42395 1.686 7.287L6.525 1.758C6.59534 1.67707 6.68221 1.61217 6.77977 1.56766C6.87732 1.52315 6.98328 1.50008 7.0905 1.5Z" fill="#333333"/>
    <path d="M1.5 7.5H22.5V9H1.5V7.5Z" fill="#333333"/>
    <path d="M10.5 7.6845V15H13.5V7.6845L12.33 3H11.67L10.5 7.6845ZM10.5 1.5H13.5L15 7.5V15.75C15 15.9489 14.921 16.1397 14.7803 16.2803C14.6397 16.421 14.4489 16.5 14.25 16.5H9.75C9.55109 16.5 9.36032 16.421 9.21967 16.2803C9.07902 16.1397 9 15.9489 9 15.75V7.5L10.5 1.5Z" fill="#333333"/>
    </svg>
    