<svg width="16" height="13" viewBox="0 0 16 13" fill="none" xmlns="http://www.w3.org/2000/svg">
<path d="M15.3333 5.98372H16V0.650391H14.6667V4.75039C13.86 5.00372 13.3333 5.71706 13.3333 6.65706C13.3333 7.59706 13.86 8.31039 14.6667 8.55706V11.3237H1.33333V8.55706C2.14667 8.30372 2.66667 7.59039 2.66667 6.65706C2.66667 5.72372 2.14 5.00372 1.33333 4.75039V1.98372H13.8666V0.650391H0V1.26372V5.98372H0.666667C1.10667 5.98372 1.33333 6.21039 1.33333 6.65039C1.33333 7.09039 1.10667 7.31706 0.666667 7.31706H0V12.6504H16V7.31706H15.3333C14.9 7.31706 14.6667 7.08372 14.6667 6.65039C14.6667 6.21706 14.9 5.98372 15.3333 5.98372Z" fill="#1A1919"/>
</svg>
