<svg width="14" height="18" viewBox="0 0 14 18" fill="none" xmlns="http://www.w3.org/2000/svg">
<g id="Layer_1" clip-path="url(#clip0_3061_12460)">
<path id="Vector" d="M9.72334 16.5L9.33368 18.0007H4.66701L4.27734 16.5H9.72334Z" fill="#292929"/>
<path id="Vector_2" d="M7 0C3.13367 0 0 3.02175 0 6.75C0 8.613 0.784 10.3005 2.051 11.5222C2.70667 12.1545 3.11033 13.0252 3.11033 13.9882V14.625C3.11033 15.039 3.458 15.3743 3.88733 15.3743H10.1103C10.5397 15.3743 10.8873 15.0367 10.8873 14.6227V13.9882C10.8873 13.0252 11.291 12.1522 11.9467 11.5222C13.2137 10.3005 13.9977 8.613 13.9977 6.75C14 3.02175 10.8663 0 7 0ZM10.85 10.4602C9.90033 11.3737 9.366 12.582 9.33567 13.8735H7.58333H6.41667H4.66433C4.634 12.582 4.09967 11.3737 3.15 10.4602C2.121 9.47025 1.55633 8.15175 1.55633 6.75C1.55633 3.85425 3.99933 1.50075 7 1.50075C10.0007 1.50075 12.4437 3.8565 12.4437 6.75C12.4437 8.15175 11.8767 9.47025 10.8477 10.4602H10.85Z" fill="#292929"/>
</g>
<defs>
<clipPath id="clip0_3061_12460">
<rect width="14" height="18" fill="white"/>
</clipPath>
</defs>
</svg>
