<svg width="21" height="22" viewBox="0 0 21 22" fill="none" xmlns="http://www.w3.org/2000/svg">
<path d="M8.81326 12.2441C8.66044 12.3996 8.47579 12.4773 8.25929 12.4773C8.04279 12.4773 7.85814 12.3996 7.70532 12.2441C7.5525 12.0885 7.47609 11.9007 7.47609 11.6804C7.47609 11.4601 7.5525 11.2722 7.70532 11.1167C7.85814 10.9612 8.04279 10.8834 8.25929 10.8834C8.47579 10.8834 8.66044 10.9612 8.81326 11.1167C8.96608 11.2722 9.04249 11.4601 9.04249 11.6804C9.04249 11.9007 8.96608 12.0885 8.81326 12.2441Z" fill="black"/>
<path d="M8.85147 10.0087H7.70532C7.70532 9.42559 7.75307 9.02064 7.84859 8.79387C7.9441 8.56709 8.21472 8.25933 8.66044 7.87058C8.83873 7.68916 8.99155 7.51098 9.1189 7.33604C9.24625 7.1611 9.30993 6.96349 9.30993 6.7432C9.30993 6.50994 9.22397 6.29613 9.05204 6.10175C8.88012 5.90738 8.62224 5.81019 8.27839 5.81019C7.93455 5.81019 7.67348 5.9171 7.49519 6.13091C7.3169 6.34472 7.19592 6.56178 7.13224 6.78207L6.0625 6.35444C6.21532 5.9009 6.48276 5.51538 6.86481 5.1979C7.24686 4.88042 7.71805 4.72168 8.27839 4.72168C8.87694 4.72168 9.39589 4.8869 9.83525 5.21734C10.2746 5.54778 10.4943 6.04344 10.4943 6.70432C10.4943 7.01532 10.4179 7.30689 10.2651 7.57901C10.1122 7.85114 9.92121 8.10383 9.69198 8.33708C9.28446 8.75175 9.04249 9.03684 8.96608 9.19234C8.88967 9.34784 8.85147 9.61997 8.85147 10.0087Z" fill="black"/>
<path fill-rule="evenodd" clip-rule="evenodd" d="M6.07471 15.5213H14.9356V14.5732H7.83727C7.2817 14.9374 6.6923 15.2552 6.07471 15.5213ZM10.8332 11.7244H14.9356V10.7764H11.4543C11.2629 11.103 11.0555 11.4193 10.8332 11.7244ZM12.632 7.93533H14.9356V6.9873H12.836C12.7814 7.30806 12.7132 7.62427 12.632 7.93533Z" fill="black"/>
<path d="M16.3892 17.6057L16.8284 16.5801L16.8025 1.3066L5.50502 1.3066L4.40396 1.3066L3.29687 1.3066L3.29688 0.291992L17.9096 0.291993L17.9355 17.6057L16.3892 17.6057Z" fill="black"/>
<path d="M19.3576 21.2686L18.7473 20.1604H4.0136V2.50233V1.40017V0.291992H3V21.2686H19.3576Z" fill="black"/>
</svg>
