<svg width="108" height="108" viewBox="0 0 108 108" fill="none" xmlns="http://www.w3.org/2000/svg">
<path d="M54 101.228L26.7438 62.6282C26.6113 62.4339 26.5008 62.2612 26.4125 62.0669C22.3704 56.4755 20.25 49.9126 20.25 43.0906C20.25 24.9131 35.3801 10.125 54 10.125C72.6199 10.125 87.75 24.9131 87.75 43.1122C87.75 49.9342 85.6075 56.4971 81.5875 62.0885C81.4992 62.2828 81.3888 62.4555 81.2562 62.6498L54 101.25V101.228ZM32.332 59.1525L54 89.8297L76.0214 58.548C79.3567 54.0144 81.1237 48.6604 81.1237 43.1122C81.1237 28.4968 68.9534 16.6015 54 16.6015C39.0466 16.6015 26.8763 28.4968 26.8763 43.1122C26.8763 48.6604 28.6433 54.0144 31.9786 58.548L32.332 59.1525Z" fill="black"/>
<path d="M54 64.125C42.8485 64.125 33.75 55.0498 33.75 43.875C33.75 32.7002 42.8252 23.625 54 23.625C65.1748 23.625 74.25 32.7002 74.25 43.875C74.25 55.0498 65.1748 64.125 54 64.125ZM54 30.6472C46.6979 30.6472 40.7488 36.5962 40.7488 43.8983C40.7488 51.2005 46.6979 57.1495 54 57.1495C61.3021 57.1495 67.2512 51.2005 67.2512 43.8983C67.2512 36.5962 61.3021 30.6472 54 30.6472Z" fill="black"/>
</svg>
