<svg width="16" height="16" viewBox="0 0 16 16" fill="none" xmlns="http://www.w3.org/2000/svg">
<g id="ic:outline-mode-night">
<path id="Vector" d="M6.33333 2.66536C9.27333 2.66536 11.6667 5.0587 11.6667 7.9987C11.6667 10.9387 9.27333 13.332 6.33333 13.332C6.10667 13.332 5.88 13.3187 5.66 13.2854C6.93333 11.8454 7.66667 9.96536 7.66667 7.9987C7.66667 6.03203 6.93333 4.15203 5.66 2.71203C5.88 2.6787 6.10667 2.66536 6.33333 2.66536ZM6.33333 1.33203C5.12 1.33203 3.98 1.66536 3 2.23203C4.99333 3.38536 6.33333 5.53203 6.33333 7.9987C6.33333 10.4654 4.99333 12.612 3 13.7654C3.98 14.332 5.12 14.6654 6.33333 14.6654C10.0133 14.6654 13 11.6787 13 7.9987C13 4.3187 10.0133 1.33203 6.33333 1.33203Z" fill="#333333"/>
</g>
</svg>
