<svg width="16" height="18" viewBox="0 0 16 18" fill="none" xmlns="http://www.w3.org/2000/svg">
<g clip-path="url(#clip0_335_7295)">
<path d="M8.14137 3.09863H7.00171V10.4625C6.01876 10.7327 5.29224 11.6799 5.29224 12.8122C5.29224 14.154 6.31223 15.2407 7.57154 15.2407C8.83086 15.2407 9.85085 14.154 9.85085 12.8122C9.85085 11.6814 9.12432 10.7327 8.14137 10.4625V3.09863ZM8.71119 12.8122C8.71119 13.4815 8.19977 14.0265 7.57154 14.0265C6.94331 14.0265 6.43189 13.4815 6.43189 12.8122C6.43189 12.1428 6.94331 11.5979 7.57154 11.5979C8.19977 11.5979 8.71119 12.1428 8.71119 12.8122Z" fill="#1A1919"/>
<path d="M10.9904 9.56772V0.670044H9.87068V1.71433V2.66223L9.85073 10.0292L10.1385 10.3737C10.6969 11.0431 11.0032 11.9052 11.0032 12.7992C11.0032 14.815 9.46325 16.4558 7.57143 16.4558C5.67961 16.4558 4.13965 14.815 4.13965 12.7992C4.13965 11.9052 4.44736 11.0431 5.00436 10.3737L5.29213 10.0292V1.88433H8.16975C8.35636 2.08317 8.54298 2.282 8.73103 2.48236V1.88433V0.670044H4.15247V9.56772C3.43592 10.4283 3 11.5592 3 12.7992C3 15.4889 5.0471 17.67 7.57143 17.67C10.0958 17.67 12.1429 15.4889 12.1429 12.7992C12.1429 11.5592 11.7069 10.4283 10.9904 9.56772Z" fill="#1A1919"/>
</g>
<defs>
<clipPath id="clip0_335_7295">
<rect width="16" height="17" fill="white" transform="translate(0 0.670044)"/>
</clipPath>
</defs>
</svg>
