<svg width="80" height="80" viewBox="0 0 80 80" fill="none" xmlns="http://www.w3.org/2000/svg">
    <g clip-path="url(#clip0_2099_9197)">
    <path fill-rule="evenodd" clip-rule="evenodd" d="M40 80C62.0914 80 80 62.0914 80 40C80 17.9086 62.0914 0 40 0C17.9086 0 0 17.9086 0 40C0 62.0914 17.9086 80 40 80ZM34.6667 18C34.6667 15.4227 36.756 13.3333 39.3333 13.3333C41.9107 13.3333 44 15.4227 44 18V46C44 48.5773 41.9107 50.6667 39.3333 50.6667C36.756 50.6667 34.6667 48.5773 34.6667 46V18ZM44 62C44 64.5773 41.9107 66.6667 39.3333 66.6667C36.756 66.6667 34.6667 64.5773 34.6667 62C34.6667 59.4227 36.756 57.3333 39.3333 57.3333C41.9107 57.3333 44 59.4227 44 62Z" fill="#F35454"/>
    </g>
    <defs>
    <clipPath id="clip0_2099_9197">
    <rect width="80" height="80" fill="white"/>
    </clipPath>
    </defs>
    </svg>
    