<svg width="16" height="16" viewBox="0 0 16 16" fill="none" xmlns="http://www.w3.org/2000/svg">
<path d="M6.33333 2.66634C9.27333 2.66634 11.6667 5.05967 11.6667 7.99967C11.6667 10.9397 9.27333 13.333 6.33333 13.333C6.10667 13.333 5.88 13.3197 5.66 13.2863C6.93333 11.8463 7.66667 9.96634 7.66667 7.99967C7.66667 6.03301 6.93333 4.15301 5.66 2.71301C5.88 2.67967 6.10667 2.66634 6.33333 2.66634ZM6.33333 1.33301C5.12 1.33301 3.98 1.66634 3 2.23301C4.99333 3.38634 6.33333 5.53301 6.33333 7.99967C6.33333 10.4663 4.99333 12.613 3 13.7663C3.98 14.333 5.12 14.6663 6.33333 14.6663C10.0133 14.6663 13 11.6797 13 7.99967C13 4.31967 10.0133 1.33301 6.33333 1.33301Z" fill="#333333"/>
</svg>
