<svg width="16" height="16" viewBox="0 0 16 16" fill="none" xmlns="http://www.w3.org/2000/svg">
<path d="M12.1571 3.94735C11.3305 2.54676 10.1569 1.38279 8.74959 0.567664L8.49922 0.422852L8.24884 0.567664C6.81757 1.39366 5.62909 2.58205 4.80299 4.01326C3.97689 5.44448 3.5423 7.06802 3.54297 8.72054C3.54297 8.8282 3.54484 8.93754 3.5485 9.04554C3.59825 10.5098 4.15822 11.7419 5.16788 12.6086C5.9405 13.2719 6.93156 13.6768 7.99934 13.7734V15.5005H8.99934V7.50048H7.99922V12.767C6.30972 12.5713 4.62819 11.3778 4.54784 9.01154C4.54453 8.91482 4.54284 8.81691 4.54284 8.72054C4.54583 7.29365 4.91025 5.89078 5.60209 4.64283C6.29393 3.39488 7.29065 2.34254 8.49922 1.58401C9.70777 2.34255 10.7045 3.3949 11.3963 4.64285C12.0881 5.8908 12.4525 7.29366 12.4555 8.72054C12.4555 8.81691 12.4538 8.91482 12.4505 9.01157C12.3862 10.9045 11.2971 12.0468 9.99909 12.5283V13.5867C10.6727 13.3957 11.2973 13.0622 11.8306 12.6085C12.8402 11.7418 13.4002 10.5097 13.4499 9.04551C13.4536 8.93751 13.4555 8.82816 13.4555 8.72051C13.4564 7.04211 13.0081 5.39405 12.1571 3.94735Z" fill="#333333"/>
</svg>
