<svg width="18" height="18" viewBox="0 0 18 18" fill="none" xmlns="http://www.w3.org/2000/svg">
<g id="ph:fan">
<path id="Vector" d="M16.3818 9.49249C16.2114 8.85622 15.8945 8.26867 15.4563 7.77689C15.0181 7.28512 14.4708 6.90278 13.8583 6.6605C13.2458 6.41822 12.5851 6.32273 11.929 6.38166C11.273 6.4406 10.6399 6.65234 10.0804 6.99991L11.2328 2.39866C11.2614 2.28435 11.2534 2.16394 11.2098 2.05443C11.1663 1.94492 11.0895 1.85185 10.9902 1.78835C10.5118 1.48626 9.97751 1.28349 9.41912 1.1921C8.86074 1.10072 8.28968 1.1226 7.73992 1.25643C7.19017 1.39026 6.67295 1.6333 6.21905 1.97111C5.76514 2.30892 5.38383 2.73458 5.09779 3.22277C4.81176 3.71096 4.62685 4.25169 4.55407 4.8128C4.48129 5.37391 4.52212 5.94393 4.67414 6.48894C4.82616 7.03395 5.08626 7.54281 5.43896 7.98524C5.79166 8.42767 6.22975 8.79463 6.72717 9.06429L2.166 10.3672C2.05269 10.3995 1.95236 10.4665 1.87919 10.5588C1.80602 10.6512 1.7637 10.7642 1.75819 10.8819C1.7149 11.8423 2.00093 12.7887 2.56893 13.5643C3.13692 14.34 3.9528 14.8984 4.88147 15.147C5.23965 15.2432 5.60888 15.2921 5.97975 15.2926C6.54489 15.2911 7.10399 15.1762 7.62392 14.9547C8.14385 14.7332 8.61404 14.4096 9.00665 14.0031C9.39926 13.5966 9.70629 13.1154 9.90956 12.5881C10.1128 12.0608 10.2082 11.498 10.1901 10.9332L13.5988 14.2323C13.6836 14.3143 13.792 14.3676 13.9087 14.3846C14.0254 14.4016 14.1445 14.3815 14.2492 14.3272C15.1021 13.8847 15.7784 13.1642 16.1662 12.2851C16.554 11.4059 16.63 10.4207 16.3818 9.49249ZM7.87397 9.0003C7.87397 8.7778 7.93995 8.56029 8.06357 8.37529C8.18718 8.19028 8.36288 8.04609 8.56845 7.96094C8.77402 7.87579 9.00022 7.85351 9.21845 7.89692C9.43667 7.94033 9.63713 8.04748 9.79446 8.20481C9.9518 8.36214 10.0589 8.5626 10.1024 8.78083C10.1458 8.99906 10.1235 9.22526 10.0383 9.43082C9.95319 9.63639 9.80899 9.81209 9.62399 9.93571C9.43898 10.0593 9.22147 10.1253 8.99897 10.1253C8.7006 10.1253 8.41445 10.0068 8.20347 9.7958C7.9925 9.58482 7.87397 9.29867 7.87397 9.0003ZM5.62397 5.34405C5.62379 4.82275 5.75534 4.30986 6.00641 3.853C6.25748 3.39614 6.61992 3.01013 7.06007 2.73082C7.50023 2.4515 8.00383 2.28794 8.52411 2.25531C9.04439 2.22269 9.56448 2.32207 10.0361 2.54421L8.9828 6.7503C8.57977 6.75333 8.18496 6.86455 7.83962 7.07235C7.49429 7.28014 7.2111 7.57688 7.01967 7.93155C6.59 7.65056 6.23729 7.26672 5.99356 6.81487C5.74983 6.36302 5.62279 5.85745 5.62397 5.34405ZM7.52241 13.7513C7.07105 14.0121 6.56111 14.1546 6.03995 14.1656C5.51878 14.1767 5.00328 14.0558 4.54131 13.8143C4.07935 13.5728 3.68589 13.2185 3.39749 12.7842C3.10908 12.35 2.93508 11.8499 2.89163 11.3305L7.06186 10.1394C7.26013 10.4771 7.54313 10.7573 7.88287 10.9521C8.22261 11.1469 8.60732 11.2497 8.99897 11.2503H9.06295C9.03465 11.7625 8.87893 12.2595 8.60991 12.6962C8.34089 13.133 7.96708 13.4956 7.52241 13.7513ZM14.9875 12.1341C14.7599 12.5289 14.4478 12.8685 14.0734 13.1284L10.9572 10.1126C11.1566 9.76239 11.258 9.36489 11.2507 8.96192C11.2434 8.55894 11.1277 8.16537 10.9157 7.82257C11.5107 7.52222 12.1867 7.42203 12.8432 7.53692C13.4997 7.65181 14.1015 7.97563 14.5592 8.46018C15.0168 8.94473 15.3057 9.5641 15.3828 10.2261C15.46 10.8881 15.3213 11.5573 14.9875 12.1341Z" fill="#333333"/>
</g>
</svg>
