<svg width="25" height="25" viewBox="0 0 25 25" fill="none" xmlns="http://www.w3.org/2000/svg">
<g clip-path="url(#clip0_1272_4306)">
<path fill-rule="evenodd" clip-rule="evenodd" d="M12.4102 0H13.3842H13.8926L13.3842 0.813291V6.25682V13.3293H2.6546H0.537911L2.06975 11.2541H2.6546H5.26615H11.4363V2.1064V2.07521V0H11.4385H12.4102ZM0 0.0281875H9.51047V9.54774H0V0.0281875ZM1.94798 7.47013H7.56473V2.1034H1.94798V7.47013ZM15.4893 9.54774V0.0281875H24.9998V9.54774H15.4893ZM17.4351 7.47013H23.0518V2.1034H17.4351V7.47013ZM0 25.0001H9.51047V15.4805H0V25.0001ZM1.94573 17.5581H7.56248V22.9249H1.94573V17.5581ZM24.9998 25.0001H15.4893V15.4805H24.9998V25.0001ZM23.0518 17.5581H17.4351V22.9249H23.0518V17.5581ZM17.4351 11.3226H15.4893V13.3977H17.4351V11.3226ZM19.2706 11.3226H21.2163V13.3977H19.2706V11.3226ZM24.9978 11.3226H23.0521V13.3977H24.9978V11.3226Z" fill="white"/>
</g>
<defs>
<clipPath id="clip0_1272_4306">
<rect width="25" height="25" fill="white"/>
</clipPath>
</defs>
</svg>
