<svg width="24" height="24" viewBox="0 0 24 24" fill="none" xmlns="http://www.w3.org/2000/svg">
    <g clip-path="url(#clip0_2268_39903)">
    <path fill-rule="evenodd" clip-rule="evenodd" d="M15.5 7C15.5 6.86739 15.5527 6.74021 15.6464 6.64645C15.7402 6.55268 15.8674 6.5 16 6.5H18C18.1326 6.5 18.2598 6.55268 18.3536 6.64645C18.4473 6.74021 18.5 6.86739 18.5 7V8H20C20.1326 8 20.2598 8.05268 20.3536 8.14645C20.4473 8.24021 20.5 8.36739 20.5 8.5V11.5H22V12.5H20.5V15.5C20.5 15.6326 20.4473 15.7598 20.3536 15.8536C20.2598 15.9473 20.1326 16 20 16H18.5V17C18.5 17.1326 18.4473 17.2598 18.3536 17.3536C18.2598 17.4473 18.1326 17.5 18 17.5H16C15.8674 17.5 15.7402 17.4473 15.6464 17.3536C15.5527 17.2598 15.5 17.1326 15.5 17V12.5H8.5V17C8.5 17.1326 8.44732 17.2598 8.35355 17.3536C8.25979 17.4473 8.13261 17.5 8 17.5H6C5.86739 17.5 5.74021 17.4473 5.64645 17.3536C5.55268 17.2598 5.5 17.1326 5.5 17V16H4C3.86739 16 3.74021 15.9473 3.64645 15.8536C3.55268 15.7598 3.5 15.6326 3.5 15.5V12.5H2V11.5H3.5V8.5C3.5 8.36739 3.55268 8.24021 3.64645 8.14645C3.74021 8.05268 3.86739 8 4 8H5.5V7C5.5 6.86739 5.55268 6.74021 5.64645 6.64645C5.74021 6.55268 5.86739 6.5 6 6.5H8C8.13261 6.5 8.25979 6.55268 8.35355 6.64645C8.44732 6.74021 8.5 6.86739 8.5 7V11.5H15.5V7ZM6.5 16.5H7.5V7.5H6.5V16.5ZM5.5 9H4.5V15H5.5V9ZM18.5 15V9H19.5V15H18.5ZM17.5 7.5V16.5H16.5V7.5H17.5Z" fill="#333333"/>
    </g>
    <defs>
    <clipPath id="clip0_2268_39903">
    <rect width="24" height="24" fill="white"/>
    </clipPath>
    </defs>
    </svg>
    