<svg width="21" height="18" viewBox="0 0 21 18" fill="none" xmlns="http://www.w3.org/2000/svg">
<g clip-path="url(#clip0_4660_6211)">
<path d="M20.135 0.890779C19.08 0.876713 13.8195 0.904844 10.5492 2.70525C9.5365 2.19185 6.54052 0.96814 0.893168 0.890779C0.647019 0.883746 0.429002 0.989238 0.260214 1.15099C0.0914267 1.31978 0 1.5378 0 1.77691V15.512C0 15.7582 0.105492 15.9902 0.281313 16.159C0.464166 16.3278 0.703282 16.4122 0.949431 16.3911C1.65975 16.3349 5.4434 16.1028 10.3523 17.5375L10.5703 17.6008L10.7813 17.5234C10.7813 17.5234 13.1021 16.7146 16.7733 16.4614V15.0478C13.4679 15.2588 11.2173 15.8988 10.5281 16.1239C7.02579 15.1252 4.12123 14.9283 2.36303 14.9283C1.98326 14.9283 1.65975 14.9353 1.39953 14.9494V2.31141C7.54622 2.47316 10.1413 4.08368 10.1624 4.09774L10.5352 4.34389L10.9149 4.10478C13.4749 2.51536 17.8704 2.31141 19.5794 2.29031V16.4192L20.9859 16.4333V1.76988C21 1.29165 20.6062 0.890779 20.135 0.890779Z" fill="black"/>
</g>
<defs>
<clipPath id="clip0_4660_6211">
<rect width="21" height="16.7029" fill="white" transform="translate(0 0.890747)"/>
</clipPath>
</defs>
</svg>
