<svg width="24" height="24" viewBox="0 0 24 24" fill="none" xmlns="http://www.w3.org/2000/svg">
    <path d="M19.9237 12.102C20.3877 11.438 18.5877 9.206 18.0737 8.812C17.6047 8.452 16.9997 8.274 15.7897 7.918C14.5797 7.562 13.2867 7 11.9997 7C10.7127 7 9.41869 7.562 8.20969 7.918C7.00069 8.274 6.39469 8.453 5.92569 8.812C5.41169 9.206 3.61169 11.439 4.07569 12.102C4.96369 13.373 19.1407 13.223 19.9237 12.102Z" fill="white" stroke="#333333" stroke-width="1.5" stroke-linecap="round" stroke-linejoin="round"/>
    <path d="M9 13C9 13.7956 9.31607 14.5587 9.87868 15.1213C10.4413 15.6839 11.2044 16 12 16C12.7956 16 13.5587 15.6839 14.1213 15.1213C14.6839 14.5587 15 13.7956 15 13M12 20V22ZM15 19L17 20.5ZM9 19L7 20.5ZM12 7V2Z" fill="white"/>
    <path d="M9 13C9 13.7956 9.31607 14.5587 9.87868 15.1213C10.4413 15.6839 11.2044 16 12 16C12.7956 16 13.5587 15.6839 14.1213 15.1213C14.6839 14.5587 15 13.7956 15 13M12 20V22M15 19L17 20.5M9 19L7 20.5M12 7V2" stroke="#333333" stroke-width="1.5" stroke-linecap="round" stroke-linejoin="round"/>
    </svg>
    