<svg width="20" height="20" viewBox="0 0 20 20" fill="#ffffff" xmlns="http://www.w3.org/2000/svg">
<g id="Group 6178">
<path id="Vector" d="M19.9982 4.28533V4.08175C19.9982 2.61581 18.6036 1.42844 17.1411 1.42844H15.6607V0.662434C15.6607 0.296395 15.3625 0 14.9982 0C14.6339 0 14.3357 0.296395 14.3357 0.662434V1.42844H5.6625V0.662434C5.6625 0.296395 5.36429 0 5 0C4.63571 0 4.3375 0.296395 4.3375 0.662434V1.42844H2.85714C1.39107 1.42844 0 2.61581 0 4.08175V17.3466C0 18.809 1.39107 20 2.85714 20H17.1429C18.6054 20 20 18.8108 20 17.3466V5.71556H2.85536V7.85823C3.09286 7.62075 3.33214 7.38148 3.56964 7.14401H18.4679V17.3466C18.4679 18.0805 17.875 18.5716 17.1411 18.5716H2.85536C2.12321 18.5716 1.52857 18.0805 1.52857 17.3466V4.08175C1.52857 3.34789 2.12321 2.85689 2.85536 2.85689H17.1411C17.875 2.85689 18.4679 3.34789 18.4679 4.08175V4.28533H19.9982Z" />
</g>
</svg>
