<svg width="31" height="29" viewBox="0 0 31 29" fill="none" xmlns="http://www.w3.org/2000/svg">
<path d="M15.8049 0.0908813C7.1241 0.0908813 0.80191 5.83081 0.80191 13.7162C0.80191 20.8747 6.20996 26.08 13.5952 26.0425C14.4325 26.0425 14.7 26.0425 15.5002 26.0027V22.9052H15.2676C15.1536 23.2874 14.393 23.4797 13.4416 23.4797C9.02215 23.4797 5.94014 19.4608 5.94014 13.7185C5.94014 7.02195 9.82463 2.69824 15.8026 2.69824C21.6642 2.69824 25.2835 6.98443 25.2835 13.953C25.2835 21.4937 20.4849 26.9288 14.3511 27.0062L14.3883 28.7272C24.0972 28.7272 30.3799 22.9099 30.3799 13.9554C30.3869 5.6784 24.5229 0.0908813 15.8049 0.0908813Z" fill="#FDFDFD"/>
</svg>
