<svg width="55" height="56" viewBox="0 0 55 56" fill="none" xmlns="http://www.w3.org/2000/svg">
<g id="Calendar" clip-path="url(#clip0_2892_10271)">
<g id="Group 6178">
<path id="Vector" d="M54.9951 12.2847V11.7248C54.9951 7.69349 51.1598 4.42822 47.1379 4.42822H43.067V2.32169C43.067 1.31509 42.2469 0.5 41.2451 0.5C40.2433 0.5 39.4232 1.31509 39.4232 2.32169V4.42822H15.5719V2.32169C15.5719 1.31509 14.7518 0.5 13.75 0.5C12.7482 0.5 11.9281 1.31509 11.9281 2.32169V4.42822H7.85714C3.82545 4.42822 0 7.69349 0 11.7248V48.2033C0 52.2248 3.82545 55.5 7.85714 55.5H47.1429C51.1647 55.5 55 52.2297 55 48.2033L54.9975 41.189L54.9951 34.1746L55 16.2178H7.85223V22.1101C8.50536 21.4571 9.16339 20.7991 9.81652 20.146H50.7866V34.1746V41.189V48.2033C50.7866 50.2214 49.1562 51.5718 47.1379 51.5718H7.85223C5.83884 51.5718 4.20357 50.2214 4.20357 48.2033V11.7248C4.20357 9.7067 5.83884 8.35644 7.85223 8.35644H47.1379C49.1562 8.35644 50.7866 9.7067 50.7866 11.7248V12.2847H54.9951Z" fill="#292929"/>
</g>
<path id="+" d="M38.144 41.396H32V38.58H38.144V32.5H41.408V38.58H47.552V41.396H41.408V47.476H38.144V41.396Z" fill="#292929"/>
</g>
<defs>
<clipPath id="clip0_2892_10271">
<rect width="55" height="55" fill="white" transform="translate(0 0.5)"/>
</clipPath>
</defs>
</svg>
