<svg width="81" height="81" viewBox="0 0 81 81" fill="none" xmlns="http://www.w3.org/2000/svg">
<mask id="mask0_3088_18196" style="mask-type:alpha" maskUnits="userSpaceOnUse" x="0" y="0" width="81" height="81">
<rect x="0.5" y="0.5" width="80" height="80" fill="#D9D9D9"/>
</mask>
<g mask="url(#mask0_3088_18196)">
<path d="M40.5 73.8333C34.6111 73.8333 29.8056 72.9027 26.0834 71.0416C22.3611 69.1805 20.5 66.7777 20.5 63.8333C20.5 62.5 20.9028 61.2638 21.7084 60.125C22.5139 58.9861 23.6389 58 25.0834 57.1666L30.3334 62.0833C29.8334 62.3055 29.2917 62.5555 28.7084 62.8333C28.125 63.1111 27.6667 63.4444 27.3334 63.8333C28.0556 64.7222 29.7222 65.5 32.3334 66.1666C34.9445 66.8333 37.6667 67.1666 40.5 67.1666C43.3334 67.1666 46.0695 66.8333 48.7084 66.1666C51.3472 65.5 53.0278 64.7222 53.75 63.8333C53.3611 63.3888 52.8611 63.0277 52.25 62.75C51.6389 62.4722 51.0556 62.2222 50.5 62L55.6667 57C57.2222 57.8888 58.4167 58.9027 59.25 60.0416C60.0834 61.1805 60.5 62.4444 60.5 63.8333C60.5 66.7777 58.6389 69.1805 54.9167 71.0416C51.1945 72.9027 46.3889 73.8333 40.5 73.8333ZM40.5834 55.5C46.0834 51.4444 50.2222 47.375 53 43.2916C55.7778 39.2083 57.1667 35.1111 57.1667 31C57.1667 25.3333 55.3611 21.0555 51.75 18.1666C48.1389 15.2777 44.3889 13.8333 40.5 13.8333C36.6111 13.8333 32.8611 15.2777 29.25 18.1666C25.6389 21.0555 23.8334 25.3333 23.8334 31C23.8334 34.7222 25.1945 38.5972 27.9167 42.625C30.6389 46.6527 34.8611 50.9444 40.5834 55.5ZM40.5 63.8333C32.6667 58.0555 26.8195 52.4444 22.9584 47C19.0972 41.5555 17.1667 36.2222 17.1667 31C17.1667 27.0555 17.875 23.5972 19.2917 20.625C20.7084 17.6527 22.5278 15.1666 24.75 13.1666C26.9722 11.1666 29.4722 9.66663 32.25 8.66663C35.0278 7.66663 37.7778 7.16663 40.5 7.16663C43.2222 7.16663 45.9722 7.66663 48.75 8.66663C51.5278 9.66663 54.0278 11.1666 56.25 13.1666C58.4722 15.1666 60.2917 17.6527 61.7084 20.625C63.125 23.5972 63.8334 27.0555 63.8334 31C63.8334 36.2222 61.9028 41.5555 58.0417 47C54.1806 52.4444 48.3334 58.0555 40.5 63.8333ZM40.5 37.1666C42.3334 37.1666 43.9028 36.5138 45.2084 35.2083C46.5139 33.9027 47.1667 32.3333 47.1667 30.5C47.1667 28.6666 46.5139 27.0972 45.2084 25.7916C43.9028 24.4861 42.3334 23.8333 40.5 23.8333C38.6667 23.8333 37.0972 24.4861 35.7917 25.7916C34.4861 27.0972 33.8334 28.6666 33.8334 30.5C33.8334 32.3333 34.4861 33.9027 35.7917 35.2083C37.0972 36.5138 38.6667 37.1666 40.5 37.1666Z" fill="#1C1B1F"/>
</g>
</svg>
