<svg width="24" height="24" viewBox="0 0 24 24" fill="none" xmlns="http://www.w3.org/2000/svg">
    <g clip-path="url(#clip0_2268_39851)">
    <path d="M23.9828 5.77112V5.73649H8.70641C9.14398 4.23539 10.5897 3.12942 12.3078 3.12942C13.3138 3.12942 14.2275 3.5103 14.9011 4.12744H17.0525C16.113 2.56116 14.3391 1.5 12.3078 1.5C9.63947 1.5 7.413 3.32902 6.94325 5.73649H3.42551L3.4298 7.36591C4.5 7.36591 4.5 7.36591 5.14362 7.36591H6.85531V18.8065H8.57128V7.36591H15.4352V18.8065H17.1511V7.36591H22.2862V20.4359H1.71597V5.78741H0V22.0714H1.71597V22.0653H24V5.77112H23.9828Z" fill="black"/>
    </g>
    <defs>
    <clipPath id="clip0_2268_39851">
    <rect width="24" height="24" fill="white"/>
    </clipPath>
    </defs>
    </svg>
    