<svg width="19" height="19" viewBox="0 0 19 19" fill="none" xmlns="http://www.w3.org/2000/svg">
    <path d="M16.8179 12.618L13.4279 9.2355C13.4988 8.89003 13.534 8.53818 13.5329 8.1855C13.5326 7.21849 13.2886 6.26715 12.8233 5.41942C12.3581 4.57168 11.6866 3.85491 10.871 3.33536C10.0555 2.81581 9.12206 2.51024 8.15713 2.44691C7.19219 2.38357 6.22686 2.56451 5.35037 2.973C5.23932 3.02373 5.14233 3.1008 5.06783 3.19752C4.99333 3.29424 4.94357 3.40769 4.92287 3.528C4.90224 3.64679 4.91056 3.7688 4.94712 3.8837C4.98367 3.99859 5.04739 4.10297 5.13287 4.188L8.39536 7.443L7.04537 8.793L3.79037 5.5305C3.70462 5.44636 3.59991 5.38404 3.48505 5.3488C3.37019 5.31356 3.24855 5.30643 3.13037 5.328C3.0108 5.34795 2.89785 5.39658 2.8012 5.46972C2.70454 5.54287 2.62705 5.63836 2.57537 5.748C2.16551 6.62738 1.98473 7.59614 2.04983 8.56415C2.11494 9.53217 2.42383 10.468 2.94775 11.2846C3.47167 12.1011 4.19362 12.7719 5.04642 13.2345C5.89923 13.6972 6.85518 13.9366 7.82537 13.9305C8.17804 13.9316 8.5299 13.8965 8.87537 13.8255L12.2579 17.2155C12.3276 17.2858 12.4105 17.3416 12.5019 17.3797C12.5933 17.4177 12.6914 17.4374 12.7904 17.4374C12.8894 17.4374 12.9874 17.4177 13.0788 17.3797C13.1702 17.3416 13.2531 17.2858 13.3229 17.2155C13.3932 17.1458 13.449 17.0628 13.487 16.9714C13.5251 16.88 13.5447 16.782 13.5447 16.683C13.5447 16.584 13.5251 16.486 13.487 16.3946C13.449 16.3032 13.3932 16.2202 13.3229 16.1505L9.64787 12.4755C9.55603 12.3843 9.44214 12.3184 9.31729 12.2842C9.19243 12.25 9.06086 12.2488 8.93537 12.2805C8.57324 12.3775 8.20024 12.4279 7.82537 12.4305C7.2644 12.4355 6.708 12.3294 6.18822 12.1183C5.66844 11.9073 5.19554 11.5955 4.79678 11.201C4.39802 10.8064 4.08127 10.3368 3.86478 9.81927C3.64829 9.30174 3.53633 8.74649 3.53537 8.1855C3.53439 7.93427 3.55446 7.68339 3.59537 7.4355L6.53537 10.383C6.60509 10.4533 6.68804 10.5091 6.77943 10.5472C6.87083 10.5852 6.96886 10.6049 7.06787 10.6049C7.16687 10.6049 7.2649 10.5852 7.3563 10.5472C7.44769 10.5091 7.53064 10.4533 7.60037 10.383L9.98537 7.9755C10.1205 7.83565 10.1961 7.64876 10.1961 7.45425C10.1961 7.25975 10.1205 7.07285 9.98537 6.933L7.06787 3.993C7.3158 3.95251 7.56664 3.93244 7.81787 3.933C8.9444 3.93499 10.0241 4.3839 10.82 5.18118C11.6159 5.97846 12.0629 7.05897 12.0629 8.1855C12.0602 8.56037 12.0098 8.93338 11.9129 9.2955C11.8811 9.421 11.8824 9.55257 11.9166 9.67742C11.9507 9.80228 12.0166 9.91617 12.1079 10.008L15.7829 13.683C15.9241 13.8242 16.1156 13.9036 16.3154 13.9036C16.5151 13.9036 16.7066 13.8242 16.8479 13.683C16.9891 13.5418 17.0684 13.3502 17.0684 13.1505C17.0684 12.9508 16.9891 12.7592 16.8479 12.618H16.8179Z" fill="#1A1919"/>
    </svg>
    