<svg width="17" height="16" viewBox="0 0 17 16" fill="none" xmlns="http://www.w3.org/2000/svg">
<g id="Group 6180">
<path id="Vector" d="M7.79077 12.5V9.35519H9.16077C11.4181 9.35519 12.6735 8.34043 12.6735 6.52745C12.6735 4.71448 11.4181 3.62329 9.16077 3.62329H5.62256C5.74993 4.04222 5.82494 4.51067 5.82494 5.41079V12.5H7.79077ZM9.02066 5.13198C10.1359 5.13198 10.7586 5.63866 10.7586 6.52745C10.7586 7.41625 10.1373 7.92292 9.02066 7.92292H7.79077V5.80566C7.79077 5.51411 7.75256 5.32446 7.67614 5.1334H9.02066V5.13198Z" fill="currentColor"/>
<path id="Vector_2" d="M8.7234 0.160156C4.353 0.160156 0.810547 3.70261 0.810547 8.07301C0.810547 12.4434 4.05155 15.6731 8.15729 15.9632V14.8282C4.68277 14.5394 1.94277 11.6211 1.94277 8.07301C1.94277 4.33383 4.98422 1.29238 8.7234 1.29238C12.4626 1.29238 15.504 4.33383 15.504 8.07301C15.504 11.2885 13.2551 13.9861 10.2462 14.6796C9.79016 14.7847 9.71275 14.812 9.2881 14.812V14.8282V15.9632C13.3938 15.6731 16.6348 12.2523 16.6348 8.07301C16.6348 3.89368 13.0938 0.160156 8.7234 0.160156Z" fill="currentColor"/>
</g>
</svg>
