<svg width="24" height="24" viewBox="0 0 24 24" fill="none" xmlns="http://www.w3.org/2000/svg">
<g clip-path="url(#clip0_11_2736)">
<path d="M12.0011 0C5.37269 0 0 5.37269 0 12.0011C0 18.6295 4.91548 23.5278 11.1425 23.9678V22.2463C5.87282 21.8084 1.7172 17.3823 1.7172 12.0011C1.7172 6.33002 6.33002 1.7172 12.0011 1.7172C17.6721 1.7172 22.2849 6.33002 22.2849 12.0011C22.2849 16.8779 18.8742 20.9691 14.3107 22.0209C13.3328 22.2463 13.4157 22.2463 12.8575 22.2463V23.9678C19.0845 23.5278 24 18.3397 24 12.0011C24 5.66246 18.6295 0 12.0011 0Z" fill="black"/>
<path d="M8.45304 16.397C8.45304 15.9228 8.06863 15.5384 7.59444 15.5384C7.12025 15.5384 6.73584 15.9228 6.73584 16.397C6.73584 16.8712 7.12025 17.2556 7.59444 17.2556C8.06863 17.2556 8.45304 16.8712 8.45304 16.397Z" fill="black"/>
<path d="M12.0009 14.1133C12.0009 13.6391 11.6165 13.2547 11.1423 13.2547C10.6681 13.2547 10.2837 13.6391 10.2837 14.1133C10.2837 14.5875 10.6681 14.9719 11.1423 14.9719C11.6165 14.9719 12.0009 14.5875 12.0009 14.1133Z" fill="black"/>
<path d="M12.8598 10.0392C12.8598 9.56498 12.4754 9.18057 12.0012 9.18057C11.527 9.18057 11.1426 9.56498 11.1426 10.0392C11.1426 10.5134 11.527 10.8978 12.0012 10.8978C12.4754 10.8978 12.8598 10.5134 12.8598 10.0392Z" fill="black"/>
<path d="M15.3798 5.76763C15.3798 5.29344 14.9954 4.90903 14.5212 4.90903C14.047 4.90903 13.6626 5.29344 13.6626 5.76763C13.6626 6.24182 14.047 6.62623 14.5212 6.62623C14.9954 6.62623 15.3798 6.24182 15.3798 5.76763Z" fill="black"/>
<path d="M9.71085 6.62618C9.71085 6.15199 9.32644 5.76758 8.85225 5.76758C8.37806 5.76758 7.99365 6.15199 7.99365 6.62618C7.99365 7.10037 8.37806 7.48478 8.85225 7.48478C9.32644 7.48478 9.71085 7.10037 9.71085 6.62618Z" fill="black"/>
<path d="M16.5131 14.1133C16.5131 13.6391 16.1287 13.2547 15.6545 13.2547C15.1803 13.2547 14.7959 13.6391 14.7959 14.1133C14.7959 14.5875 15.1803 14.9719 15.6545 14.9719C16.1287 14.9719 16.5131 14.5875 16.5131 14.1133Z" fill="black"/>
<path d="M19.9154 11.1254C19.9154 10.6512 19.531 10.2668 19.0568 10.2668C18.5827 10.2668 18.1982 10.6512 18.1982 11.1254C18.1982 11.5995 18.5827 11.984 19.0568 11.984C19.531 11.984 19.9154 11.5995 19.9154 11.1254Z" fill="black"/>
<path d="M14.5771 17.7622C14.5771 17.288 14.1927 16.9036 13.7185 16.9036C13.2443 16.9036 12.8599 17.288 12.8599 17.7622C12.8599 18.2364 13.2443 18.6208 13.7185 18.6208C14.1927 18.6208 14.5771 18.2364 14.5771 17.7622Z" fill="black"/>
<path d="M6.26993 10.2668C6.26993 9.79261 5.88553 9.4082 5.41133 9.4082C4.93714 9.4082 4.55273 9.79261 4.55273 10.2668C4.55273 10.741 4.93714 11.1254 5.41133 11.1254C5.88553 11.1254 6.26993 10.741 6.26993 10.2668Z" fill="black"/>
</g>
<defs>
<clipPath id="clip0_11_2736">
<rect width="24" height="24" fill="white"/>
</clipPath>
</defs>
</svg>
