<svg width="23" height="23" viewBox="0 0 23 23" fill="none" xmlns="http://www.w3.org/2000/svg">
<path fill-rule="evenodd" clip-rule="evenodd" d="M11.1274 1.40039H11.891H12.2896L11.891 2.03801V6.30573V11.8505H3.47901H1.81953L3.02049 10.2236H3.47901H5.52647H10.3638V3.0518V3.02735V1.40039H10.3656H11.1274ZM1.39844 1.42227H8.85463V8.88559H1.39844V1.42227ZM2.92565 7.25674H7.32918V3.04923H2.92565V7.25674ZM13.5427 8.88559V1.42227H20.9989V8.88559H13.5427ZM15.0682 7.25674H19.4717V3.04923H15.0682V7.25674ZM1.39844 21.0002H8.85463V13.5369H1.39844V21.0002ZM2.92389 15.1658H7.32742V19.3733H2.92389V15.1658ZM20.9989 21.0002H13.5427V13.5369H20.9989V21.0002ZM19.4717 15.1658H15.0682V19.3733H19.4717V15.1658ZM15.0682 10.2771H13.5427V11.904H15.0682V10.2771ZM16.5068 10.2771H18.0322V11.904H16.5068V10.2771ZM20.9963 10.2771H19.4708V11.904H20.9963V10.2771Z"/>
</svg>
