<svg width="16" height="16" viewBox="0 0 16 16" fill="none" xmlns="http://www.w3.org/2000/svg">
<path d="M1.14277 4.93945H0V8.64115H1.14277V7.38006H2.28553V6.20051H1.14277V4.93945Z" fill="black"/>
<path d="M14.8557 4.9397V6.20076H13.7129V3.05887C13.7129 2.65748 13.5443 2.27917 13.2558 2.02542C11.026 0.0584651 8.54617 0 7.99907 0C5.43499 0 3.6037 1.28108 2.74806 2.02542C2.45522 2.27917 2.28667 2.66211 2.28809 3.06657L2.32095 12.1739C2.32381 12.8598 2.80948 13.4226 3.42943 13.4903C3.42943 13.5026 3.428 13.5149 3.428 13.5288V14.7698C3.428 15.4496 3.93939 16.0001 4.57077 16.0001C5.20215 16.0001 5.71354 15.4496 5.71354 14.7698V13.5288C5.71354 13.5211 5.71354 13.5134 5.71354 13.5057C7.2377 13.5119 8.76186 13.5165 10.286 13.5226C10.286 13.5257 10.286 13.5272 10.286 13.5288V14.7698C10.286 15.4496 10.7974 16.0001 11.4288 16.0001C12.0602 16.0001 12.5716 15.4496 12.5716 14.7698V13.5288C12.5716 13.5288 12.5716 13.5257 12.5716 13.5242C13.2101 13.4734 13.7143 12.9013 13.7143 12.2V7.38184H14.8571V8.64294H15.9999V4.94124H14.8571L14.8557 4.9397ZM3.46514 2.98044C4.21794 2.32684 5.80924 1.22877 7.99907 1.22877C8.76615 1.22877 10.7446 1.39949 12.5316 2.97582C12.5558 2.99735 12.5701 3.02811 12.5701 3.05733V3.68172H3.43229L3.42943 3.05887C3.42943 3.02811 3.44229 3.00043 3.46514 2.98044ZM3.44515 7.35263L3.43657 4.91203H7.42769V7.35263H3.44657H3.44515ZM8.56902 4.91203H12.5687V7.35263H8.56902V4.91203ZM12.4773 12.2969L3.55371 12.2646C3.50371 12.2646 3.46229 12.22 3.46229 12.1662L3.44943 8.58294H12.5687V12.1985C12.5687 12.2523 12.5273 12.2969 12.4773 12.2969Z" fill="black"/>
<path d="M5.14267 11.0711C5.45824 11.0711 5.71405 10.7957 5.71405 10.456C5.71405 10.1162 5.45824 9.84082 5.14267 9.84082C4.82711 9.84082 4.57129 10.1162 4.57129 10.456C4.57129 10.7957 4.82711 11.0711 5.14267 11.0711Z" fill="black"/>
<path d="M10.8565 11.0711C11.1721 11.0711 11.4279 10.7957 11.4279 10.456C11.4279 10.1162 11.1721 9.84082 10.8565 9.84082C10.541 9.84082 10.2852 10.1162 10.2852 10.456C10.2852 10.7957 10.541 11.0711 10.8565 11.0711Z" fill="black"/>
</svg>
