<svg width="12" height="12" viewBox="0 0 12 12" fill="none" xmlns="http://www.w3.org/2000/svg">
<g clip-path="url(#clip0_2268_41295)">
<path d="M6 6H5.6C5.59991 6.05256 5.61017 6.10463 5.63021 6.15322C5.65026 6.20182 5.67968 6.24598 5.7168 6.2832L6 6ZM6 11.2C4.62087 11.2 3.29823 10.6521 2.32304 9.67696C1.34786 8.70177 0.8 7.37913 0.8 6H0C0 7.5913 0.632141 9.11742 1.75736 10.2426C2.88258 11.3679 4.4087 12 6 12V11.2ZM11.2 6C11.2 6.68287 11.0655 7.35906 10.8042 7.98995C10.5428 8.62085 10.1598 9.19409 9.67696 9.67696C9.19409 10.1598 8.62085 10.5428 7.98995 10.8042C7.35906 11.0655 6.68287 11.2 6 11.2V12C7.5913 12 9.11742 11.3679 10.2426 10.2426C11.3679 9.11742 12 7.5913 12 6H11.2ZM6 0.8C6.68287 0.8 7.35906 0.934502 7.98995 1.19583C8.62085 1.45715 9.19409 1.84018 9.67696 2.32304C10.1598 2.80591 10.5428 3.37915 10.8042 4.01005C11.0655 4.64094 11.2 5.31713 11.2 6H12C12 4.4087 11.3679 2.88258 10.2426 1.75736C9.11742 0.632141 7.5913 0 6 0V0.8ZM6 0C4.4087 0 2.88258 0.632141 1.75736 1.75736C0.632141 2.88258 0 4.4087 0 6H0.8C0.8 4.62087 1.34786 3.29823 2.32304 2.32304C3.29823 1.34786 4.62087 0.8 6 0.8V0ZM5.6 2.4V6H6.4V2.4H5.6ZM5.7168 6.2832L8.1168 8.6832L8.6832 8.1168L6.2832 5.7168L5.7168 6.2832Z" fill="#014541"/>
</g>
<defs>
<clipPath id="clip0_2268_41295">
<rect width="12" height="12" fill="white"/>
</clipPath>
</defs>
</svg>
