<svg width="12" height="12" viewBox="0 0 12 12" fill="none" xmlns="http://www.w3.org/2000/svg">
<path d="M6 6C6.30938 6 6.57431 5.88975 6.79481 5.66925C7.01531 5.44875 7.12537 5.184 7.125 4.875C7.125 4.56562 7.01475 4.30069 6.79425 4.08019C6.57375 3.85969 6.309 3.74963 6 3.75C5.69062 3.75 5.42569 3.86025 5.20519 4.08075C4.98469 4.30125 4.87463 4.566 4.875 4.875C4.875 5.18438 4.98525 5.44931 5.20575 5.66981C5.42625 5.89031 5.691 6.00037 6 6ZM6 10.1344C7.14375 9.08438 7.99219 8.13038 8.54531 7.27238C9.09844 6.41438 9.375 5.65275 9.375 4.9875C9.375 3.96562 9.04912 3.129 8.39737 2.47762C7.74562 1.82625 6.9465 1.50037 6 1.5C5.05313 1.5 4.25381 1.82587 3.60206 2.47762C2.95031 3.12937 2.62463 3.966 2.625 4.9875C2.625 5.65312 2.90156 6.41494 3.45469 7.27294C4.00781 8.13094 4.85625 9.08475 6 10.1344ZM6 11.625C4.49062 10.3406 3.36337 9.14775 2.61825 8.04637C1.87312 6.945 1.50037 5.92537 1.5 4.9875C1.5 3.58125 1.95244 2.46094 2.85731 1.62656C3.76219 0.792187 4.80975 0.375 6 0.375C7.19062 0.375 8.23837 0.792187 9.14325 1.62656C10.0481 2.46094 10.5004 3.58125 10.5 4.9875C10.5 5.925 10.1272 6.94462 9.38175 8.04637C8.63625 9.14812 7.509 10.341 6 11.625Z"/>
</svg>
