<svg width="16" height="16" viewBox="0 0 16 16" fill="none" xmlns="http://www.w3.org/2000/svg">
<path d="M11.0269 2H8.97257V3.01278V3.51917C9.13948 3.3508 9.30638 3.18242 9.47454 3.01278H11.0231C11.5565 3.04443 11.9643 3.46094 11.9643 4.00657C11.9643 4.55221 11.5339 4.9839 11.0005 5.01429H1V6.02707H11.0018C12.0848 5.99542 12.9595 5.1067 12.9595 4.00657C12.9595 2.90644 12.1074 2.03545 11.0281 2H11.0269Z"/>
<path d="M13.0692 11.052H11.0149V10.0392V9.5328C11.1818 9.70118 11.3487 9.86955 11.5169 10.0392H13.0655C13.5988 10.0075 14.0067 9.59104 14.0067 9.0454C14.0067 8.49976 13.5762 8.06807 13.0429 8.03768H1.0332V7.0249H13.0429C14.1259 7.05655 15.0006 7.94527 15.0006 9.0454C15.0006 10.1455 14.1485 11.0165 13.0692 11.052Z"/>
<path d="M7.93267 13.0002H5.87835V11.9874V11.481C6.04525 11.6494 6.21216 11.8178 6.38032 11.9874H7.9289C8.46225 11.9558 8.8701 11.5393 8.8701 10.9936C8.8701 10.448 8.43966 10.0163 7.90631 9.98593H1.0293V8.97314H7.90631C8.98932 9.00479 9.864 9.89351 9.864 10.9936C9.864 12.0938 9.01191 12.9648 7.93267 13.0002Z"/>
</svg>
