<svg width="19" height="19" viewBox="0 0 19 19" fill="none" xmlns="http://www.w3.org/2000/svg">
    <g clip-path="url(#clip0_87_36953)">
    <path d="M13.2815 9.61509C13.645 9.29348 13.9354 8.90347 14.1342 8.46949C14.3331 8.03551 14.4362 7.56691 14.4372 7.09301V6.40071C14.436 5.48299 14.0547 4.60317 13.3768 3.95424C12.6989 3.30532 11.7798 2.94027 10.8211 2.93917H10.0979V0.862244H8.65144V2.93917H5.03537V16.7853H8.65144V18.8622H10.0979V16.7853H11.5443C12.503 16.7842 13.4221 16.4192 14.1 15.7702C14.7779 15.1213 15.1592 14.2415 15.1604 13.3238V12.6315C15.158 12.0137 14.9824 11.4079 14.6519 10.8773C14.3214 10.3467 13.8481 9.91077 13.2815 9.61509ZM6.4818 4.32378H10.8211C11.3963 4.32433 11.9479 4.54333 12.3546 4.93271C12.7614 5.32209 12.9902 5.85004 12.9907 6.40071V7.09301C12.9902 7.64368 12.7614 8.17163 12.3546 8.56101C11.9479 8.95039 11.3963 9.16939 10.8211 9.16994H6.4818V4.32378ZM13.7139 13.3238C13.7134 13.8744 13.4846 14.4024 13.0778 14.7918C12.6711 15.1812 12.1195 15.4002 11.5443 15.4007H6.4818V10.5546H11.5443C12.1195 10.5551 12.6711 10.7741 13.0778 11.1635C13.4846 11.5529 13.7134 12.0808 13.7139 12.6315V13.3238Z" fill="#1A1919"/>
    </g>
    <defs>
    <clipPath id="clip0_87_36953">
    <rect width="18" height="18" fill="white" transform="translate(0.53537 0.862244)"/>
    </clipPath>
    </defs>
    </svg>
    