<svg width="24" height="24" viewBox="0 0 24 24" fill="none" xmlns="http://www.w3.org/2000/svg">
    <path d="M21 16.5C21 16.9844 20.8867 17.4102 20.6602 17.7773C20.4336 18.1445 20.1367 18.457 19.7695 18.7148C19.4023 18.9727 18.9961 19.168 18.5508 19.3008C18.1055 19.4336 17.6719 19.5 17.25 19.5C16.8281 19.5 16.3945 19.4336 15.9492 19.3008C15.5039 19.168 15.1016 18.9766 14.7422 18.7266C14.3828 18.4766 14.0859 18.1641 13.8516 17.7891C13.6172 17.4141 13.5 16.9844 13.5 16.5C13.5 16.0234 13.6133 15.5977 13.8398 15.2227C14.0664 14.8477 14.3633 14.5352 14.7305 14.2852C15.0977 14.0352 15.5039 13.8398 15.9492 13.6992C16.3945 13.5586 16.8281 13.4922 17.25 13.5C17.6484 13.5 18.0391 13.5469 18.4219 13.6406C18.8047 13.7344 19.1641 13.8867 19.5 14.0977V2.64844L9 5.27344V19.5C9 19.9844 8.88672 20.4102 8.66016 20.7773C8.43359 21.1445 8.13672 21.457 7.76953 21.7148C7.40234 21.9727 6.99609 22.168 6.55078 22.3008C6.10547 22.4336 5.67188 22.5 5.25 22.5C4.82812 22.5 4.39453 22.4336 3.94922 22.3008C3.50391 22.168 3.10156 21.9766 2.74219 21.7266C2.38281 21.4766 2.08594 21.1641 1.85156 20.7891C1.61719 20.4141 1.5 19.9844 1.5 19.5C1.5 19.0234 1.61328 18.5977 1.83984 18.2227C2.06641 17.8477 2.36328 17.5352 2.73047 17.2852C3.09766 17.0352 3.50391 16.8398 3.94922 16.6992C4.39453 16.5586 4.82812 16.4922 5.25 16.5C5.64844 16.5 6.03906 16.5469 6.42188 16.6406C6.80469 16.7344 7.16406 16.8867 7.5 17.0977V4.10156L21 0.726562V16.5Z" fill="#333333"/>
    </svg>
    