<svg width="24" height="24" viewBox="0 0 24 24" fill="none" xmlns="http://www.w3.org/2000/svg">
<g clip-path="url(#clip0_719_51309)">
<path d="M23.9443 0.00211879H6.09054C2.73239 0.00211879 0 2.73427 0 6.09213V17.925C0 21.2743 2.72596 24 6.07554 24H17.9609C21.2912 24 24 21.2914 24 17.9614V4.45713L4.56898 4.47215V6.18643L22.2856 6.17142V17.9593C22.2856 20.3443 20.3461 22.2836 17.9609 22.2836H6.07554C3.67104 22.2836 1.71444 20.3271 1.71444 17.9229V6.08999C1.71444 3.67713 3.67747 1.71429 6.09054 1.71429H23.1492C23.5 1.71429 23.5 1.71429 23.9443 1.71429V1V0V0.00211879Z" fill="black"/>
<path d="M17.0866 12.0018C18.0317 12.0018 18.801 12.771 18.801 13.7161C18.801 14.6611 18.0317 15.4303 17.0866 15.4303C16.1415 15.4303 15.3722 14.6611 15.3722 13.7161C15.3722 12.771 16.1415 12.0018 17.0866 12.0018ZM17.0866 10.2875C15.1921 10.2875 13.6577 11.8218 13.6577 13.7161C13.6577 15.6103 15.1921 17.1446 17.0866 17.1446C18.981 17.1446 20.5155 15.6103 20.5155 13.7161C20.5155 11.8218 18.981 10.2875 17.0866 10.2875Z" fill="black"/>
</g>
<defs>
<clipPath id="clip0_719_51309">
<rect width="24" height="24" fill="white"/>
</clipPath>
</defs>
</svg>
