<svg width="20" height="20" viewBox="0 0 20 20" fill="none" xmlns="http://www.w3.org/2000/svg">
<g clip-path="url(#clip0_1322_4796)">
<path d="M2.87645 20.0018L2.88002 19.9965L2.87109 19.9982L2.87645 20.0018Z" fill="black"/>
<path d="M2.86523 20.0032L2.87416 19.9987L2.86747 19.9965L2.86523 20.0032Z" fill="black"/>
<path d="M17.1444 0H2.8574C1.27869 0 0 1.28109 0 2.86277V14.3371C0 15.8329 1.14474 17.0585 2.60559 17.1873C3.66997 15.722 2.60559 17.1873 3.66997 15.722C2.87883 15.722 2.5 15.8333 2.01625 15.4911C1.66086 15.2299 1.4287 14.8112 1.4287 14.3371V2.86277C1.4287 2.07372 2.06983 1.43138 2.8574 1.43138H17.1444C17.932 1.43138 18.5731 2.07372 18.5731 2.86277V14.3371C18.5731 15.1261 17.932 15.7685 17.1444 15.7685H14.1656L14.2888 15.722L9.99911 15.7506C8.49362 16.3804 6.98812 17.0102 5.48085 17.6418L6.19698 15.7685H4.83615L4.17359 17.1999H4.1843L3.56639 18.5131L2.87883 19.9964L9.99911 17.1999H17.1426C18.7213 17.1999 20 15.9188 20 14.3371V2.86277C20 1.28109 18.7213 0 17.1426 0H17.1444Z" fill="black"/>
<circle cx="16.0846" cy="8.91671" r="1.41666" transform="rotate(-90 16.0846 8.91671)" fill="black"/>
<circle cx="10.4167" cy="8.91671" r="1.41666" transform="rotate(-90 10.4167 8.91671)" fill="black"/>
<circle cx="4.75065" cy="8.91671" r="1.41666" transform="rotate(-90 4.75065 8.91671)" fill="black"/>
</g>
<defs>
<clipPath id="clip0_1322_4796">
<rect width="20" height="20" fill="white"/>
</clipPath>
</defs>
</svg>
