<svg width="18" height="16" viewBox="0 0 18 16" fill="none" xmlns="http://www.w3.org/2000/svg">
<g clip-path="url(#clip0_4_4564)">
<path d="M11.6814 16H0.359985V0H11.6814V16ZM1.29863 15.0219H10.7461V0.981617H1.29863V15.0219Z" fill="currentColor"/>
<path d="M6.21222 5.19863C5.1163 5.19863 4.22876 4.38003 4.22876 3.37715C4.22876 2.37427 5.12016 1.55566 6.21222 1.55566C7.30427 1.55566 8.19567 2.37427 8.19567 3.37715C8.19567 4.38003 7.30427 5.19863 6.21222 5.19863ZM6.21222 2.61524C5.75687 2.61524 5.38642 2.95544 5.38642 3.3736C5.38642 3.79177 5.75687 4.13197 6.21222 4.13197C6.66756 4.13197 7.03801 3.79177 7.03801 3.3736C7.03801 2.95544 6.66756 2.61524 6.21222 2.61524Z" fill="currentColor"/>
<path d="M8.0298 14.6427H4.39089V10.493H3.60754V7.66864C3.60754 6.35037 4.77678 5.27661 6.21228 5.27661C7.64778 5.27661 8.81701 6.35037 8.81701 7.66864V10.493H8.03366V14.6427H8.0298ZM5.54855 13.5796H6.87214V9.42988H7.65549V7.66864C7.65549 6.93863 7.0072 6.33973 6.20842 6.33973C5.40963 6.33973 4.76134 6.93508 4.76134 7.66864V9.42988H5.54469V13.5796H5.54855Z" fill="currentColor"/>
<path d="M15.5511 4.36941L14.6211 3.51183L13.695 4.36587L12.873 3.61814L14.6173 2.00574L16.373 3.6146L15.5511 4.36941Z" fill="currentColor"/>
<path d="M14.633 9.21023L12.8772 7.59783L13.6953 6.84656L14.6291 7.70414L15.5514 6.84656L16.3733 7.59429L14.633 9.21023Z" fill="currentColor"/>
</g>
<rect x="0.859985" y="0.5" width="16.28" height="15" stroke="currentColor"/>
<defs>
<clipPath id="clip0_4_4564">
<rect x="0.359985" width="17.28" height="16" fill="currentColor"/>
</clipPath>
</defs>
</svg>
