<svg width="24" height="24" viewBox="0 0 24 24" fill="none" xmlns="http://www.w3.org/2000/svg">
    <path d="M11.0007 2V7H9.00073V2H11.0007ZM7.00073 3V7H5.00073V3H7.00073ZM15.0007 3V7H13.0007V3H15.0007ZM2.92773 8H21.0007V13C21.0007 14.0609 20.5793 15.0783 19.8292 15.8284C19.079 16.5786 18.0616 17 17.0007 17H16.0677C15.5302 18.2384 14.6295 19.2844 13.4847 20H20.0007V22H3.00073V20H6.50673C5.63655 19.4574 4.90477 18.7195 4.36944 17.8448C3.83412 16.9702 3.50998 15.9828 3.42273 14.961V14.954L2.92773 8ZM16.5757 15H17.0007C17.5312 15 18.0399 14.7893 18.4149 14.4142C18.79 14.0391 19.0007 13.5304 19.0007 13V10H16.9327L16.5797 14.954V14.961L16.5757 15ZM14.9277 10H5.07473L5.41573 14.797C5.51579 15.9441 6.04214 17.012 6.89093 17.7901C7.73971 18.5682 8.84929 18.9999 10.0007 19C12.0597 19 13.8367 17.62 14.4127 15.711C14.5027 15.416 14.5577 15.124 14.5857 14.797L14.9277 10Z" fill="#333333"/>
    </svg>
    