<svg width="32" height="32" viewBox="0 0 32 32" fill="none" xmlns="http://www.w3.org/2000/svg">
<path d="M12.6665 20.7786V11.2212C12.6667 11.1016 12.6991 10.9843 12.7602 10.8815C12.8213 10.7788 12.909 10.6943 13.0139 10.6371C13.1189 10.5798 13.2374 10.5518 13.3569 10.5561C13.4764 10.5603 13.5925 10.5966 13.6932 10.6612L21.1278 15.4386C21.222 15.4989 21.2994 15.5819 21.3531 15.68C21.4067 15.7781 21.4349 15.8881 21.4349 15.9999C21.4349 16.1117 21.4067 16.2217 21.3531 16.3198C21.2994 16.4179 21.222 16.5009 21.1278 16.5612L13.6932 21.3399C13.5925 21.4045 13.4764 21.4408 13.3569 21.445C13.2374 21.4493 13.1189 21.4213 13.0139 21.364C12.909 21.3068 12.8213 21.2223 12.7602 21.1196C12.6991 21.0168 12.6667 20.8995 12.6665 20.7799V20.7786Z" fill="white"/>
<path d="M1.33301 15.9997C1.33301 7.89967 7.89967 1.33301 15.9997 1.33301C24.0997 1.33301 30.6663 7.89967 30.6663 15.9997C30.6663 24.0997 24.0997 30.6663 15.9997 30.6663C7.89967 30.6663 1.33301 24.0997 1.33301 15.9997ZM15.9997 3.33301C12.6403 3.33301 9.41845 4.66753 7.04299 7.04299C4.66753 9.41845 3.33301 12.6403 3.33301 15.9997C3.33301 19.3591 4.66753 22.5809 7.04299 24.9564C9.41845 27.3318 12.6403 28.6663 15.9997 28.6663C19.3591 28.6663 22.5809 27.3318 24.9564 24.9564C27.3318 22.5809 28.6663 19.3591 28.6663 15.9997C28.6663 12.6403 27.3318 9.41845 24.9564 7.04299C22.5809 4.66753 19.3591 3.33301 15.9997 3.33301Z" fill="white"/>
</svg>
