<svg width="20" height="19" viewBox="0 0 20 19" fill="none" xmlns="http://www.w3.org/2000/svg">
<circle cx="10.0446" cy="9.4759" r="8.55999" stroke="currentColor" stroke-width="1.31692"/>
<path d="M3.86339 7.83776H4.68515V11.5251H3.86339V7.83776ZM7.21051 11.5831C6.82773 11.5831 6.49411 11.5058 6.20965 11.3513C5.92871 11.1968 5.71098 10.9773 5.55646 10.6929C5.40194 10.4084 5.32468 10.0748 5.32468 9.69199C5.32468 9.30569 5.40194 8.96856 5.55646 8.68059C5.71098 8.39263 5.93046 8.17138 6.21492 8.01687C6.50289 7.85884 6.84002 7.77982 7.22631 7.77982C7.62315 7.77982 7.99189 7.8641 8.33253 8.03267V8.74381C8.18503 8.64899 8.02525 8.577 7.85317 8.52783C7.6846 8.47867 7.51253 8.45408 7.33694 8.45408C6.96117 8.45408 6.67321 8.56119 6.47303 8.77541C6.27286 8.98963 6.17278 9.29516 6.17278 9.69199C6.17278 10.0818 6.27286 10.3821 6.47303 10.5928C6.67321 10.8035 6.95942 10.9088 7.33167 10.9088C7.51428 10.9088 7.69514 10.8842 7.87424 10.8351C8.05685 10.7824 8.22542 10.7051 8.37994 10.6033V11.3092C8.01822 11.4918 7.62841 11.5831 7.21051 11.5831ZM10.6001 11.5831C10.2243 11.5831 9.89595 11.5058 9.61501 11.3513C9.33406 11.1933 9.11633 10.972 8.96181 10.6876C8.81081 10.3996 8.7353 10.0625 8.7353 9.67619C8.7353 9.2934 8.81081 8.95978 8.96181 8.67533C9.11633 8.38736 9.33406 8.16612 9.61501 8.0116C9.89595 7.85708 10.2243 7.77982 10.6001 7.77982C10.9758 7.77982 11.3042 7.85708 11.5851 8.0116C11.8661 8.16612 12.082 8.38736 12.233 8.67533C12.3876 8.95978 12.4648 9.2934 12.4648 9.67619C12.4648 10.0625 12.3876 10.3996 12.233 10.6876C12.082 10.972 11.8661 11.1933 11.5851 11.3513C11.3042 11.5058 10.9758 11.5831 10.6001 11.5831ZM9.57813 9.67619C9.57813 10.0765 9.66593 10.3856 9.84152 10.6033C10.0171 10.8175 10.27 10.9246 10.6001 10.9246C10.9302 10.9246 11.183 10.8175 11.3586 10.6033C11.5342 10.3856 11.622 10.0765 11.622 9.67619C11.622 9.27936 11.5342 8.97383 11.3586 8.75961C11.183 8.54539 10.9302 8.43828 10.6001 8.43828C10.27 8.43828 10.0171 8.54539 9.84152 8.75961C9.66593 8.97383 9.57813 9.27936 9.57813 9.67619ZM13.0919 8.66479C13.0919 8.47515 13.0743 8.32239 13.0392 8.2065C13.0076 8.09061 12.9497 7.9677 12.8654 7.83776H13.7872L15.4465 10.1503V7.83776H16.2367V11.5251H15.5256L13.8715 9.20736C13.8785 9.36188 13.882 9.49533 13.882 9.60771V11.5251H13.0919V8.66479Z" fill="currentColor"/>
</svg>
