<svg width="17" height="17" viewBox="0 0 17 17" fill="none" xmlns="http://www.w3.org/2000/svg">
    <g clip-path="url(#clip0_2268_37960)">
    <path d="M11.1158 12.0108C11.1158 11.6189 11.0164 11.2501 10.8417 10.9276V5.63232H1.33047V10.9279C1.15578 11.2501 1.05641 11.6192 1.05641 12.0111V12.242H0.535156V16.4414H1.47047V15.397H10.7014V16.4414H11.6367V12.242H11.1155V12.0111L11.1158 12.0108ZM9.90641 6.56889V9.9992C9.58828 9.82951 9.22547 9.73326 8.84078 9.73326H8.54828V7.17451H3.61453V9.73326H3.33109C2.94609 9.73326 2.58359 9.82982 2.26547 9.9992V6.56889H9.90609H9.90641ZM7.61297 9.73326H4.54984V8.11107H7.61297V9.73326ZM1.99141 12.0108C1.99141 11.2714 2.59234 10.6695 3.33109 10.6695H8.84047C9.57922 10.6695 10.1802 11.2711 10.1802 12.0108V12.2417H1.99141V12.0108ZM1.47047 13.1783H10.7014V14.4604H1.47047V13.1783Z" fill="white"/>
    <path d="M8.76582 0.440918V1.37717H10.1068L8.46582 3.23811H11.8627V2.30186H10.5393L12.1802 0.440918H8.76582Z" fill="white"/>
    <path d="M16.5347 2.55811H13.1203V3.49436H14.4612L12.8203 5.35529H16.2172V4.41904H14.8937L16.5347 2.55811Z" fill="white"/>
    </g>
    <defs>
    <clipPath id="clip0_2268_37960">
    <rect width="16" height="16" fill="white" transform="translate(0.535156 0.440918)"/>
    </clipPath>
    </defs>
    </svg>
    