<svg width="24" height="24" viewBox="0 0 24 24" fill="none" xmlns="http://www.w3.org/2000/svg">
    <g clip-path="url(#clip0_2268_39977)">
    <path d="M21.96 16.9453C21.5347 16.7469 21.0055 16.5 20.0355 16.5C19.0656 16.5 18.5363 16.7469 18.1112 16.9453C17.7464 17.1155 17.4583 17.25 16.821 17.25C16.1838 17.25 15.8958 17.1156 15.531 16.9453C15.1058 16.7469 14.5767 16.5 13.6067 16.5C12.6368 16.5 12.1076 16.747 11.6825 16.9453C11.3177 17.1155 11.0297 17.25 10.3925 17.25C9.75534 17.25 9.46734 17.1156 9.10266 16.9453C8.6775 16.7469 8.14838 16.5 7.17844 16.5C6.2085 16.5 5.67933 16.747 5.25417 16.9453C4.88944 17.1155 4.60139 17.25 3.96422 17.25C3.32705 17.25 3.039 17.1156 2.67427 16.9453C2.24911 16.747 1.71994 16.5 0.75 16.5V18C1.38717 18 1.67522 18.1344 2.03995 18.3047C2.46511 18.5031 2.99428 18.75 3.96422 18.75C4.93416 18.75 5.46333 18.503 5.88848 18.3047C6.25322 18.1345 6.54127 18 7.17844 18C7.81561 18 8.10361 18.1344 8.4683 18.3047C8.89345 18.5031 9.42258 18.75 10.3925 18.75C11.3625 18.75 11.8916 18.503 12.3168 18.3047C12.6815 18.1345 12.9696 18 13.6067 18C14.2439 18 14.532 18.1344 14.8967 18.3047C15.3219 18.5031 15.8511 18.75 16.821 18.75C17.791 18.75 18.3203 18.5031 18.7455 18.3047C19.1102 18.1345 19.3983 18 20.0355 18C20.6728 18 20.9609 18.1344 21.3256 18.3047C21.7508 18.5031 22.28 18.75 23.25 18.75V17.25C22.6128 17.25 22.3246 17.1156 21.96 16.9453ZM20.0355 21C19.0656 21 18.5363 21.2469 18.1112 21.4453C17.7464 21.6155 17.4583 21.75 16.821 21.75C16.1838 21.75 15.8958 21.6156 15.531 21.4453C15.1058 21.2469 14.5767 21 13.6067 21C12.6368 21 12.1076 21.247 11.6825 21.4453C11.3177 21.6155 11.0297 21.75 10.3925 21.75C9.75534 21.75 9.46734 21.6156 9.10266 21.4453C8.6775 21.2469 8.14838 21 7.17844 21C6.2085 21 5.67933 21.247 5.25417 21.4453C4.88944 21.6155 4.60139 21.75 3.96422 21.75C3.32705 21.75 3.039 21.6156 2.67427 21.4453C2.24911 21.247 1.71994 21 0.75 21V22.5C1.38717 22.5 1.67522 22.6344 2.03995 22.8047C2.46511 23.0031 2.99428 23.25 3.96422 23.25C4.93416 23.25 5.46333 23.003 5.88848 22.8047C6.25322 22.6345 6.54127 22.5 7.17844 22.5C7.81561 22.5 8.10361 22.6344 8.4683 22.8047C8.89345 23.0031 9.42258 23.25 10.3925 23.25C11.3625 23.25 11.8916 23.003 12.3168 22.8047C12.6815 22.6345 12.9696 22.5 13.6067 22.5C14.2439 22.5 14.532 22.6344 14.8967 22.8047C15.3219 23.0031 15.8511 23.25 16.821 23.25C17.791 23.25 18.3203 23.0031 18.7455 22.8047C19.1102 22.6345 19.3983 22.5 20.0355 22.5C20.6728 22.5 20.9609 22.6344 21.3256 22.8047C21.7508 23.0031 22.28 23.25 23.25 23.25V21.75C22.6128 21.75 22.3246 21.6156 21.96 21.4453C21.5347 21.2469 21.0055 21 20.0355 21ZM11.625 12.75H18.375V15.375H19.875V5.43178C19.8744 4.97654 20.0125 4.53191 20.2709 4.15711L22.6133 0.75H20.793L19.0348 3.30731C18.6042 3.932 18.374 4.67304 18.375 5.43178V7.5H11.625V5.43178C11.6244 4.97654 11.7625 4.53191 12.0209 4.15711L14.3633 0.75H12.543L10.7848 3.30731C10.3542 3.932 10.124 4.67304 10.125 5.43178V15.375H11.625V12.75ZM11.625 9H18.375V11.25H11.625V9Z" fill="#333333"/>
    </g>
    <defs>
    <clipPath id="clip0_2268_39977">
    <rect width="24" height="24" fill="white"/>
    </clipPath>
    </defs>
    </svg>
    