<svg width="16" height="16" viewBox="0 0 16 16" fill="none" xmlns="http://www.w3.org/2000/svg">
<g clip-path="url(#clip0_143_19276)">
<path d="M9.46492 6.40466H6.53418V7.20559H9.46492V6.40466Z" fill="#1A1919"/>
<path d="M8.44419 0.413339L8.00065 0L7.55712 0.413339H7.5545L0 7.42004L0.889688 8.56423L1.79639 7.91347V16H3.82304V14.8744H2.76719V6.64056L8.00196 1.97085L13.2341 6.64056V14.8744H5.91643L5.90073 10.3377C6.17418 9.99159 7.01676 9.07911 8.23223 9.19352C9.22528 9.28649 9.85592 9.99589 10.0993 10.3263L10.0836 13.304V13.1567C9.90956 13.3469 9.73424 13.5386 9.56023 13.7288H11.1276L11.1486 9.96014L11.0544 9.81139C10.8176 9.43666 9.92003 8.20238 8.32251 8.0522C6.22913 7.85626 4.99926 9.72843 4.94824 9.80852L4.85273 9.95727L4.86319 12.9436L4.86974 14.6828V14.873V15.9986H14.2494V7.91204L15.1103 8.5628L16 7.41861L8.4455 0.411907L8.44419 0.413339Z" fill="#1A1919"/>
</g>
<defs>
<clipPath id="clip0_143_19276">
<rect width="16" height="16" fill="white"/>
</clipPath>
</defs>
</svg>
