<svg width="19" height="19" viewBox="0 0 19 19" fill="none" xmlns="http://www.w3.org/2000/svg">
    <path d="M3.12521 18.6488L3.12843 18.644L3.12039 18.6456L3.12521 18.6488Z" fill="black"/>
    <path d="M3.1142 18.65L3.12223 18.646L3.11621 18.644L3.1142 18.65Z" fill="black"/>
    <path d="M15.9653 0.645905H3.10703C1.68619 0.645905 0.53537 1.79894 0.53537 3.22253V13.55C0.53537 14.8962 1.56564 15.9994 2.8804 16.1153C3.20025 15.4196 3.5201 14.7255 3.83834 14.0299C3.34169 14.2167 2.84665 14.4035 2.35 14.5887C2.03015 14.3535 1.8212 13.9767 1.8212 13.55V3.22253C1.8212 2.51235 2.39821 1.93422 3.10703 1.93422H15.9653C16.6741 1.93422 17.2511 2.51235 17.2511 3.22253V13.55C17.2511 14.2601 16.6741 14.8383 15.9653 14.8383H13.2844L13.3953 14.7964L9.53457 14.8222C8.17962 15.389 6.82468 15.9559 5.46813 16.5243L6.11265 14.8383H4.8879L4.2916 16.1266H4.30124L3.74512 17.3086L3.12632 18.6436L9.53457 16.1266H15.9637C17.3846 16.1266 18.5354 14.9735 18.5354 13.55V3.22253C18.5354 1.79894 17.3846 0.645905 15.9637 0.645905H15.9653Z" fill="black"/>
    <path d="M12.6133 10.3333C12.643 10.2385 12.6653 10.1349 12.6802 10.0225C12.6951 9.91012 12.7025 9.76613 12.7025 9.59054V7.38865C12.7025 7.21306 12.6951 7.06908 12.6802 6.9567C12.6653 6.84432 12.643 6.74072 12.6133 6.6459H15.3573V7.27276H13.5168C13.5502 7.35002 13.567 7.44308 13.567 7.55195V8.14193H15.1342V8.74771H13.567V9.42724C13.567 9.5326 13.5502 9.62566 13.5168 9.70643H15.413V10.3333H12.6133Z" fill="black"/>
    <path d="M8.36969 6.6459H9.26763L10.2883 9.27448L11.3145 6.6459H12.1734L10.6341 10.3333H9.8867L8.36969 6.6459Z" fill="black"/>
    <path d="M6.95724 6.6459H7.8273V10.3333H6.95724V6.6459Z" fill="black"/>
    <path d="M3.71252 10.3333C3.74227 10.2385 3.76458 10.1349 3.77945 10.0225C3.79432 9.91012 3.80176 9.76613 3.80176 9.59054V6.6459H4.66623V9.42198C4.66623 9.52382 4.6495 9.61513 4.61604 9.6959H6.34498V10.3333H3.71252Z" fill="black"/>
    </svg>
    