<svg width="18" height="20" viewBox="0 0 18 20" fill="none" xmlns="http://www.w3.org/2000/svg">
<path d="M16.8976 2.87838H5.80339C6.02589 2.15655 8.06781 1.25022 8.86449 1.25022C9.40457 1.25022 11.3514 1.87175 11.6762 2.25327H13.1332C12.6792 1.15529 10.1259 0 8.86449 0C7.37521 0 4.76987 1.45979 4.52046 2.87659H0.831357L0.25 4.30234H17.3928L16.8976 2.87659V2.87838Z" fill="black"/>
<path d="M9.385 5.71729H8.13257V17.3418H9.385V5.71729Z" fill="black"/>
<path d="M12.5159 5.71729H11.2634V17.3418H12.5159V5.71729Z" fill="black"/>
<path d="M6.2556 5.71729H5.00317V17.3418H6.2556V5.71729Z" fill="black"/>
<path d="M14.8109 5.71731H14.1847L14.7588 6.57706L14.0124 18.524H3.50491L2.70644 5.67969L1.45581 5.75492L2.32605 19.9999H15.1913L16.0633 5.71731H15.019H14.8109Z" fill="black"/>
</svg>
