<svg width="19" height="19" viewBox="0 0 19 19" fill="none" xmlns="http://www.w3.org/2000/svg">
    <path d="M7.2663 2.99092H6.07994V13.2264H4.51721V13.795H8.62858V13.2264H7.2663V2.99092Z" fill="#0A1714"/>
    <path d="M5.29039 15.0059H4.51721V17.0432H5.29039V15.0059Z" fill="#0A1714"/>
    <path d="M6.95952 15.0059H6.18634V17.0432H6.95952V15.0059Z" fill="#0A1714"/>
    <path d="M8.62865 15.0059H7.85547V17.0432H8.62865V15.0059Z" fill="#0A1714"/>
    <path d="M14.4499 13.7132L14.0654 16H11.5985L11.0626 12.3059H15.804L14.8426 9.82685C14.5849 9.16003 13.9549 8.73048 13.239 8.73048H12.2245C11.5576 8.73048 10.9481 9.11912 10.6535 9.7573L10.0317 11.4837H9.5899V12.3018H10.2363L10.8908 16.8141H14.7608L15.2517 13.9096L15.3335 13.4964L15.6445 13.0955L14.5808 12.9032L14.454 13.7132H14.4499ZM11.4063 10.0723C11.5535 9.7573 11.8726 9.55276 12.2204 9.55276H13.2349C13.6113 9.55276 13.9385 9.77776 14.0735 10.1255L14.6013 11.4878H10.8949L11.4063 10.0723Z" fill="#0A1714"/>
    </svg>
    