<svg width="17" height="17" viewBox="0 0 17 17" fill="none" xmlns="http://www.w3.org/2000/svg">
<path d="M12.5 4.5V12.5H4.5V4.5H12.5ZM12.5 3.5H4.5C4.23478 3.5 3.98043 3.60536 3.79289 3.79289C3.60536 3.98043 3.5 4.23478 3.5 4.5V12.5C3.5 12.7652 3.60536 13.0196 3.79289 13.2071C3.98043 13.3946 4.23478 13.5 4.5 13.5H12.5C12.7652 13.5 13.0196 13.3946 13.2071 13.2071C13.3946 13.0196 13.5 12.7652 13.5 12.5V4.5C13.5 4.23478 13.3946 3.98043 13.2071 3.79289C13.0196 3.60536 12.7652 3.5 12.5 3.5Z" fill="#014541"/>
</svg>
