<svg width="24" height="24" viewBox="0 0 24 24" fill="none" xmlns="http://www.w3.org/2000/svg">
<path d="M7.616 20.0005C7.168 20.0005 6.78667 19.8431 6.472 19.5285C6.15733 19.2138 6 18.8328 6 18.3855V6.00047H5V5.00047H9V4.23047H15V5.00047H19V6.00047H18V18.3855C18 18.8455 17.846 19.2298 17.538 19.5385C17.23 19.8471 16.8453 20.0011 16.384 20.0005H7.616ZM17 6.00047H7V18.3855C7 18.5648 7.05767 18.7121 7.173 18.8275C7.28833 18.9428 7.436 19.0005 7.616 19.0005H16.385C16.5383 19.0005 16.6793 18.9365 16.808 18.8085C16.9367 18.6805 17.0007 18.5391 17 18.3845V6.00047ZM9.808 17.0005H10.808V8.00047H9.808V17.0005ZM13.192 17.0005H14.192V8.00047H13.192V17.0005Z" fill="#333333"/>
</svg>
