<svg width="24" height="24" viewBox="0 0 40 40" fill="none" xmlns="http://www.w3.org/2000/svg"><path fill-rule="evenodd" clip-rule="evenodd" d="M0.081604 33.5614L0.081604 35.5614H20C20 34.8756 19.9633 34.2089 19.8898 33.5614C19.7932 32.71 19.633 31.8918 19.4094 31.1065C19.1624 30.2391 18.8379 29.4119 18.4359 28.6251C17.6841 27.1534 16.6611 25.8228 15.3671 24.633C12.354 21.863 8.69537 20.444 4.39137 20.376C4.28315 20.3743 4.17453 20.3735 4.0655 20.3735C3.36564 20.3735 2.69258 20.415 2.04631 20.4981C1.4004 20.5812 0.745497 20.7056 0.081604 20.8714C0.807705 21.0572 1.50812 21.2869 2.18286 21.5603C2.77045 21.7985 3.33863 22.0699 3.88726 22.3745C5.15686 23.0794 6.32217 23.9622 7.38316 25.0231C8.92868 26.5688 10.0965 28.336 10.8865 30.3246C11.1422 30.9681 11.3583 32.8715 11.5348 33.5614H0.081604ZM7.96642 22.8273C8.24956 23.0776 8.52652 23.338 8.79725 23.6087C11.0982 25.9101 12.6619 28.662 13.4724 31.8287L13.9158 33.5614H17.8754C17.4876 30.5659 16.1959 28.1119 14.0136 26.1054M7.96642 22.8273C10.2509 23.3937 12.2552 24.489 14.0136 26.1054L7.96642 22.8273ZM28.4652 33.5614C28.6505 32.8715 28.8738 30.9681 29.135 30.3246C29.9423 28.336 31.1119 26.5688 32.6438 25.0231C33.6954 23.9623 34.8538 23.0794 36.1189 22.3746C36.665 22.0702 37.231 21.7991 37.817 21.5611C38.4911 21.2873 39.1916 21.0574 39.9184 20.8714C39.2545 20.7056 38.5996 20.5812 37.9537 20.4981C37.3074 20.415 36.6344 20.3735 35.9345 20.3735C35.827 20.3735 35.7198 20.3744 35.6131 20.3762C32.5803 20.4286 29.8948 21.2252 27.5567 22.766C25.136 24.361 23.2533 26.3798 21.9086 28.8225C22.3542 29.8985 22.6869 31.0098 22.9066 32.1563C23.1267 33.3032 23.2367 34.4382 23.2367 35.5614H39.9184V33.5614H28.4652ZM26.062 33.5614L26.5337 31.8057C27.3806 28.6533 28.9473 25.9118 31.2232 23.6152C31.4643 23.372 31.7108 23.1368 31.9621 22.9101C30.7727 23.2556 29.6739 23.766 28.6572 24.436C26.7638 25.6835 25.2592 27.2055 24.1207 29.0075C24.4396 29.9104 24.6897 30.8348 24.8709 31.7798M24.8709 31.7798C24.985 32.3748 25.0727 32.9687 25.1336 33.5614H26.062M12.8231 10.6093C13.624 12.8613 14.0244 15.2502 14.0244 17.776C14.0244 18.0885 14.003 18.41 13.9602 18.7405C13.9174 19.0714 13.8752 19.3654 13.8335 19.6225C14.3689 19.9069 14.8911 20.2379 15.4 20.6154C15.48 20.6748 15.5597 20.7353 15.639 20.7969C16.2227 21.2508 16.7442 21.7156 17.2035 22.1914C17.2835 21.4077 17.4146 20.6159 17.5967 19.8158C17.6846 19.4296 17.7844 19.0415 17.8961 18.6515C18.2392 17.4536 18.6861 16.3428 19.2367 15.3193C18.426 12.7245 17.159 10.4947 15.4357 8.63001C14.7479 7.88619 14.0162 7.21677 13.2405 6.62173C12.0719 5.72531 10.8035 4.99773 9.43526 4.43896C10.2988 5.542 11.0471 6.71344 11.6802 7.95331C12.1157 8.80625 12.4966 9.69158 12.8231 10.6093ZM15.206 11.5265C15.7534 13.5279 16.0244 15.6132 16.0244 17.776C16.0244 17.8273 16.024 17.8787 16.0231 17.9302C16.3088 16.9639 16.6587 16.0412 17.0747 15.1643C16.5903 13.8256 15.9666 12.6154 15.206 11.5265ZM20.2492 25.6979C20.1691 24.469 20.2082 23.2816 20.3667 22.136C20.5097 21.1024 20.7498 20.1028 21.087 19.137C21.798 17.1011 22.8397 15.3112 24.2121 13.7673C25.5841 12.2237 27.2307 10.981 29.1519 10.0391C29.7755 9.73342 30.4154 9.47211 31.0717 9.25515C32.4378 8.80355 33.8748 8.5441 35.3826 8.4768C34.1669 9.24251 33.0756 10.0923 32.1087 11.0261C31.364 11.7454 30.6931 12.5145 30.096 13.3335C28.7239 15.2163 27.7072 17.2282 27.0459 19.3695C25.671 20.0557 24.3757 20.9714 23.1601 22.1165C22.8503 22.4083 22.5564 22.7033 22.2785 23.0015C21.4657 23.8734 20.7893 24.7722 20.2492 25.6979ZM25.3985 17.9807C25.9825 16.3188 26.765 14.7342 27.7413 13.2286C26.9975 13.7836 26.3202 14.406 25.7069 15.096C24.5684 16.3768 23.6851 17.8586 23.0602 19.5591C23.8089 18.9646 24.5883 18.4377 25.3985 17.9807Z" fill="#606060"></path></svg>