<svg width="17" height="17" viewBox="0 0 17 17" fill="none" xmlns="http://www.w3.org/2000/svg">
    <g clip-path="url(#clip0_2268_37955)">
    <path d="M3.41798 11.6172H5.08548C5.08548 9.77717 6.57798 8.28467 8.41798 8.28467C10.258 8.28467 11.7505 9.77717 11.7505 11.6172H13.418C13.418 11.3097 13.3855 11.0097 13.333 10.7147L16.533 9.54967L15.963 7.98467L12.763 9.14967C12.5355 8.74967 12.253 8.37967 11.928 8.05717L13.8805 5.26967L12.5155 4.31217L10.5605 7.10467C10.1505 6.90967 9.71298 6.76967 9.25048 6.69217V3.28467H7.58298V6.69217C7.12298 6.76967 6.68298 6.90967 6.27548 7.10467L4.32048 4.31217L2.95548 5.26967L4.90798 8.05717C4.58048 8.37967 4.30048 8.74717 4.07298 9.14967L0.872979 7.98467L0.302979 9.54967L3.50298 10.7147C3.45048 11.0072 3.41798 11.3072 3.41798 11.6172Z" fill="white"/>
    <path d="M16.533 13.2847H0.302979V14.8797H16.533V13.2847Z" fill="white"/>
    </g>
    <defs>
    <clipPath id="clip0_2268_37955">
    <rect width="16" height="16" fill="white" transform="translate(0.5354 0.440918)"/>
    </clipPath>
    </defs>
    </svg>
    