<svg width="19" height="21" viewBox="0 0 19 21" fill="none" xmlns="http://www.w3.org/2000/svg">
<g filter="url(#filter0_d_4_4541)">
<path fill-rule="evenodd" clip-rule="evenodd" d="M9.34469 5.00035C9.94657 4.99274 10.5436 5.10873 11.0989 5.34113C11.6541 5.57354 12.1558 5.91742 12.5728 6.35149C12.9898 6.78556 13.3133 7.30059 13.5232 7.86471C13.7332 8.42883 13.8252 9.03003 13.7934 9.63112C13.752 10.4067 13.5059 11.1575 13.0802 11.8071C13.0605 11.8473 13.0359 11.885 13.0071 11.9193L12.9477 11.9902C12.8494 12.124 12.7444 12.2522 12.6326 12.3746L9.82146 15.7972C9.76988 15.86 9.70503 15.9105 9.63158 15.9452C9.55813 15.9799 9.4779 15.9979 9.39666 15.9979C9.31542 15.9979 9.2352 15.9799 9.16174 15.9452C9.08829 15.9105 9.02344 15.86 8.97186 15.7972L6.08704 12.2954L6.08594 12.2943C6.02836 12.2254 5.97171 12.1558 5.91602 12.0854L5.84288 11.9957C5.81468 11.9617 5.79068 11.9244 5.7714 11.8846C5.32081 11.228 5.05704 10.4613 5.00826 9.66643C4.95947 8.87156 5.1275 8.07836 5.49441 7.37155C5.86131 6.66474 6.4133 6.07085 7.09144 5.65332C7.76957 5.23579 8.54838 5.01029 9.34469 5.0009V5.00035ZM11.0461 9.40126C11.0501 9.6204 11.0104 9.83815 10.9293 10.0418C10.8482 10.2454 10.7274 10.4308 10.5738 10.5872C10.4202 10.7436 10.237 10.8678 10.0349 10.9526C9.83282 11.0374 9.61584 11.0811 9.39666 11.0811C9.17748 11.0811 8.9605 11.0374 8.75839 10.9526C8.55628 10.8678 8.37309 10.7436 8.21953 10.5872C8.06597 10.4308 7.94511 10.2454 7.86401 10.0418C7.78292 9.83815 7.74321 9.6204 7.74721 9.40126C7.75511 8.96901 7.93236 8.55714 8.24083 8.25425C8.5493 7.95136 8.96434 7.78166 9.39666 7.78166C9.82898 7.78166 10.244 7.95136 10.5525 8.25425C10.861 8.55714 11.0382 8.96901 11.0461 9.40126Z" fill="black"/>
<path d="M9.58984 4.50391C10.1744 4.52654 10.7511 4.65348 11.292 4.87988L11.5205 4.98242C12.0482 5.23574 12.5271 5.58178 12.9336 6.00488L13.1025 6.19043C13.4858 6.63266 13.7876 7.1407 13.9922 7.69043L14.0732 7.92773C14.249 8.48584 14.3238 9.07157 14.293 9.65723V9.6582C14.247 10.5159 13.9748 11.3455 13.5068 12.0654C13.4733 12.127 13.4348 12.1855 13.3896 12.2393L13.3906 12.2402L13.3311 12.3115C13.2329 12.4435 13.1288 12.5705 13.0186 12.6924L10.208 16.1143C10.1342 16.2041 10.0458 16.2811 9.94727 16.3418L9.84473 16.3975C9.7046 16.4636 9.55143 16.498 9.39648 16.498C9.28029 16.498 9.16506 16.479 9.05566 16.4414L8.94824 16.3975C8.808 16.3312 8.68443 16.2341 8.58594 16.1143V16.1152L5.71094 12.626L5.70215 12.6152C5.64165 12.5429 5.58194 12.4695 5.52344 12.3955V12.3945L5.45508 12.3115V12.3105C5.41489 12.2616 5.3803 12.2086 5.34961 12.1533C4.91606 11.5168 4.63977 10.7882 4.54102 10.0273L4.50879 9.69727C4.45446 8.81209 4.64225 7.92873 5.05078 7.1416L5.21387 6.85156C5.61556 6.19152 6.16849 5.63431 6.8291 5.22754L7.11719 5.06348C7.65533 4.78043 8.2415 4.60362 8.84473 4.53516V4.50684L9.33789 4.5L9.58984 4.50391ZM9.39648 8.28125C9.13286 8.28129 8.87828 8.37205 8.6748 8.53613L8.59082 8.61133C8.40299 8.7959 8.2852 9.03851 8.25488 9.29785L8.24707 9.41016C8.24428 9.56273 8.27172 9.71466 8.32812 9.85645C8.38464 9.99835 8.46915 10.1283 8.57617 10.2373L8.66016 10.3145C8.74783 10.3876 8.84649 10.4469 8.95215 10.4912C9.09291 10.5502 9.24385 10.581 9.39648 10.5811C9.54923 10.5811 9.70094 10.5503 9.8418 10.4912C9.98236 10.4322 10.1099 10.346 10.2168 10.2373L10.293 10.1514C10.3644 10.0624 10.4225 9.96284 10.4648 9.85645C10.5072 9.75003 10.5337 9.63815 10.543 9.52441L10.5459 9.41016C10.541 9.14656 10.4461 8.89381 10.2783 8.69336L10.2021 8.61133C9.98717 8.40024 9.69777 8.28125 9.39648 8.28125Z" stroke="white"/>
</g>
<circle cx="9.27356" cy="9.27356" r="2.27356" fill="white"/>
<defs>
<filter id="filter0_d_4_4541" x="0" y="0" width="18.7996" height="20.9979" filterUnits="userSpaceOnUse" color-interpolation-filters="sRGB">
<feFlood flood-opacity="0" result="BackgroundImageFix"/>
<feColorMatrix in="SourceAlpha" type="matrix" values="0 0 0 0 0 0 0 0 0 0 0 0 0 0 0 0 0 0 127 0" result="hardAlpha"/>
<feOffset/>
<feGaussianBlur stdDeviation="2"/>
<feComposite in2="hardAlpha" operator="out"/>
<feColorMatrix type="matrix" values="0 0 0 0 0 0 0 0 0 0 0 0 0 0 0 0 0 0 0.25 0"/>
<feBlend mode="normal" in2="BackgroundImageFix" result="effect1_dropShadow_4_4541"/>
<feBlend mode="normal" in="SourceGraphic" in2="effect1_dropShadow_4_4541" result="shape"/>
</filter>
</defs>
</svg>
