<svg width="16" height="18" viewBox="0 0 16 18" fill="none" xmlns="http://www.w3.org/2000/svg">
<g clip-path="url(#clip0_331_5397)">
<path d="M1.14277 6.13843H0V10.0715H1.14277V8.73157H2.28553V7.4783H1.14277V6.13843Z" fill="#1A1919"/>
<path d="M14.8557 6.13833V7.4782H13.7129V4.13994C13.7129 3.71347 13.5443 3.31151 13.2558 3.0419C11.026 0.952012 8.54617 0.889893 7.99907 0.889893C5.43499 0.889893 3.6037 2.25104 2.74806 3.0419C2.45522 3.31151 2.28667 3.71838 2.28809 4.14812L2.32095 13.8247C2.32381 14.5534 2.80948 15.1515 3.42943 15.2234C3.42943 15.2364 3.428 15.2495 3.428 15.2642V16.5829C3.428 17.3051 3.93939 17.8901 4.57077 17.8901C5.20215 17.8901 5.71354 17.3051 5.71354 16.5829V15.2642C5.71354 15.256 5.71354 15.2479 5.71354 15.2397C7.2377 15.2462 8.76187 15.2512 10.286 15.2577C10.286 15.261 10.286 15.2626 10.286 15.2642V16.5829C10.286 17.3051 10.7974 17.8901 11.4288 17.8901C12.0602 17.8901 12.5716 17.3051 12.5716 16.5829V15.2642C12.5716 15.2642 12.5716 15.261 12.5716 15.2593C13.2101 15.2054 13.7143 14.5975 13.7143 13.8524V8.7331H14.8571V10.073H15.9999V6.13996H14.8571L14.8557 6.13833ZM3.46514 4.05661C4.21794 3.36216 5.80924 2.19546 7.99907 2.19546C8.76615 2.19546 10.7446 2.37685 12.5316 4.0517C12.5558 4.07458 12.5701 4.10726 12.5701 4.13831V4.80172H3.43229L3.42943 4.13994C3.42943 4.10726 3.44229 4.07785 3.46514 4.05661ZM3.44515 8.70206L3.43658 6.10892H7.42769V8.70206H3.44657H3.44515ZM8.56902 6.10892H12.5687V8.70206H8.56902V6.10892ZM12.4773 13.9554L3.55371 13.9211C3.50371 13.9211 3.46229 13.8737 3.46229 13.8165L3.44943 10.0093H12.5687V13.8508C12.5687 13.908 12.5273 13.9554 12.4773 13.9554Z" fill="#1A1919"/>
<path d="M5.14243 12.6533C5.45799 12.6533 5.71381 12.3606 5.71381 11.9997C5.71381 11.6387 5.45799 11.3461 5.14243 11.3461C4.82686 11.3461 4.57104 11.6387 4.57104 11.9997C4.57104 12.3606 4.82686 12.6533 5.14243 12.6533Z" fill="black"/>
<path d="M10.8563 12.6533C11.1719 12.6533 11.4277 12.3606 11.4277 11.9997C11.4277 11.6387 11.1719 11.3461 10.8563 11.3461C10.5407 11.3461 10.2849 11.6387 10.2849 11.9997C10.2849 12.3606 10.5407 12.6533 10.8563 12.6533Z" fill="black"/>
</g>
<defs>
<clipPath id="clip0_331_5397">
<rect width="16" height="17" fill="white" transform="translate(0 0.890015)"/>
</clipPath>
</defs>
</svg>
