<svg width="20" height="21" viewBox="0 0 20 21" fill="none" xmlns="http://www.w3.org/2000/svg">
<path d="M8.97895 15.3799V11.8978H10.4959C12.9955 11.8978 14.3855 10.7741 14.3855 8.76666C14.3855 6.75918 12.9955 5.55093 10.4959 5.55093H6.57812C6.71917 6.0148 6.80222 6.53352 6.80222 7.5302V15.3799H8.97895ZM10.3408 7.22148C11.5757 7.22148 12.2652 7.78251 12.2652 8.76666C12.2652 9.75081 11.5772 10.3118 10.3408 10.3118H8.97895V7.96743C8.97895 7.6446 8.93664 7.43461 8.85201 7.22305H10.3408V7.22148Z" />
<path d="M10.0115 1.71628C5.17225 1.71628 1.24976 5.63877 1.24976 10.478C1.24976 15.3173 4.83845 18.8934 9.38466 19.2147V17.9579C5.53739 17.6382 2.50345 14.4068 2.50345 10.478C2.50345 6.33771 5.87119 2.96997 10.0115 2.96997C14.1518 2.96997 17.5196 6.33771 17.5196 10.478C17.5196 14.0385 15.0294 17.0254 11.6977 17.7933C11.3436 17.4392 10.991 17.0866 10.6368 16.7324V17.9579V19.2147C15.183 18.8934 18.7717 15.1057 18.7717 10.478C18.7717 5.85033 14.8508 1.71628 10.0115 1.71628Z" />
</svg>
