<svg width="20" height="20" viewBox="0 0 20 20" fill="none" xmlns="http://www.w3.org/2000/svg">
<g id="Layer_1">
<path id="Vector" d="M19.155 13.2198L19.495 8.08977C19.53 7.58477 19.35 7.08477 19.005 6.71477C18.66 6.34477 18.17 6.13477 17.665 6.13477H15.765C15.26 6.13477 14.77 6.34477 14.425 6.71477C14.08 7.08477 13.9 7.58477 13.935 8.08977L14.275 13.2198H15.345V16.9048L14.98 17.8148H16.26V12.3048H15.13L14.845 8.03477C14.83 7.77977 14.915 7.53477 15.09 7.34477C15.265 7.15477 15.505 7.05477 15.76 7.05477H17.66C17.915 7.05477 18.155 7.15977 18.33 7.34477C18.505 7.52977 18.595 7.77477 18.575 8.03477L18.29 12.3048H17.16V17.8148H18.44L18.075 16.9048V13.2198H19.145H19.155Z" fill="#014541"/>
<path id="Vector_2" d="M16.7148 5.215C17.4748 5.215 18.0948 4.595 18.0948 3.835V3.375C18.0948 2.615 17.4748 2 16.7148 2C15.9548 2 15.3398 2.615 15.3398 3.375V3.835C15.3398 4.595 15.9598 5.215 16.7148 5.215ZM16.2548 3.375C16.2548 3.12 16.4598 2.915 16.7148 2.915C16.9698 2.915 17.1748 3.12 17.1748 3.375V3.835C17.1748 4.09 16.9698 4.295 16.7148 4.295C16.4598 4.295 16.2548 4.09 16.2548 3.835V3.375Z" fill="#014541"/>
<path id="Vector_3" d="M3.22453 13.6797C2.97453 13.6797 2.76953 13.8847 2.76953 14.1347V14.5997C2.76953 14.8547 2.97453 15.0597 3.22453 15.0597H4.03953C4.28953 15.0597 4.49453 14.8547 4.49453 14.6047V14.1347C4.49453 13.8847 4.28953 13.6797 4.03953 13.6797H3.22453Z" fill="#014541"/>
<path id="Vector_4" d="M10.1093 13.6797C9.8593 13.6797 9.6543 13.8847 9.6543 14.1347V14.5997C9.6543 14.8547 9.8593 15.0597 10.1093 15.0597H10.9243C11.1743 15.0597 11.3793 14.8547 11.3793 14.6047V14.1347C11.3793 13.8847 11.1743 13.6797 10.9243 13.6797H10.1093Z" fill="#014541"/>
<path id="Vector_5" d="M12.9455 13.2189H11.6705L12.1255 13.8189V15.9739H8.86047L8.31047 15.0539H5.84047L5.29047 15.9739H2.02547V13.7889C2.02547 13.5439 2.12047 13.3139 2.29547 13.1389L2.91547 12.4689L4.25047 12.9139C4.86047 13.1189 5.49547 13.2189 6.13547 13.2189H8.02047C8.66047 13.2189 9.29547 13.1139 9.90547 12.9139L10.3705 12.7589L10.0055 11.9139L9.61547 12.0439C9.10047 12.2139 8.56047 12.3039 8.02047 12.3039H6.13547C5.59047 12.3039 5.05547 12.2189 4.54047 12.0439L3.28047 11.6239L4.17047 9.54891H9.99047L11.1755 12.3039H13.0455V11.3839H11.7755L10.5955 8.62891H3.55547L2.37547 11.3839H1.10547V12.3039H1.83547L1.64547 12.4939C1.29547 12.8389 1.10547 13.2989 1.10547 13.7889V16.4339V17.2089C1.10547 17.5439 1.37547 17.8139 1.71047 17.8139H2.33547C2.67047 17.8139 2.94047 17.5439 2.94047 17.2089V16.8939H11.2055V17.2089C11.2055 17.5439 11.4755 17.8139 11.8105 17.8139H12.4355C12.7705 17.8139 13.0405 17.5439 13.0405 17.2089V16.4339V13.7889C13.0405 13.5889 13.0005 13.3989 12.9405 13.2189H12.9455Z" fill="#014541"/>
</g>
</svg>
