<svg width="44" height="43" viewBox="0 0 44 43" fill="none" xmlns="http://www.w3.org/2000/svg">
<path fill-rule="evenodd" clip-rule="evenodd" d="M20.5374 0.0403179L19.5001 0.147818C14.4664 0.65038 9.39507 3.24651 5.96582 7.07888C2.17376 11.3171 0.24682 16.5765 0.424195 22.1799C0.733258 31.8576 7.38482 40.0518 16.8206 42.3846C19.5988 43.0554 22.4824 43.1681 25.3044 42.716C28.1264 42.2639 30.8306 41.256 33.2601 39.7508C38.0379 36.7739 41.4575 32.042 42.7846 26.5713C43.2468 24.6874 43.3543 23.7279 43.3543 21.5C43.3543 19.2721 43.2468 18.3126 42.7846 16.4287C40.6561 7.73463 33.4966 1.33838 24.5875 0.172005C23.8243 0.0725679 21.0481 -0.0161196 20.5374 0.0403179ZM24.1924 4.20057C26.0485 4.43852 27.8527 4.98059 29.5325 5.80501C31.4084 6.71876 32.7038 7.64863 34.2276 9.17244C35.6256 10.5202 36.7666 12.1112 37.595 13.8675C38.7909 16.3266 39.3311 18.6996 39.3311 21.5C39.3679 24.1736 38.7595 26.8167 37.5574 29.2051C37.0951 30.1484 36.1626 31.6614 35.7272 32.1748L35.5794 32.3494L23.3163 20.0837L11.0506 7.82063L11.2253 7.67282C11.7386 7.23744 13.2516 6.30488 14.1949 5.84263C17.2888 4.30967 20.7707 3.73778 24.1924 4.20057ZM20.5025 22.9351L32.7575 35.1928L32.5774 35.3353C31.6402 36.0274 30.6458 36.6388 29.6051 37.1628C27.9211 37.9868 26.1198 38.5453 24.265 38.8183C23.1255 38.9929 20.6745 38.9929 19.535 38.8183C14.2998 38.0228 9.88151 35.1659 7.09995 30.7746C6.41576 29.6402 5.84504 28.4411 5.39607 27.1948C4.34307 24.0922 4.16729 20.759 4.88813 17.5628C5.44123 15.2517 6.44193 13.0713 7.83363 11.1451C8.02176 10.8898 8.19107 10.6801 8.21257 10.6801C8.23138 10.6801 13.7623 16.1949 20.5025 22.9351Z" />
</svg>
