<svg width="84" height="66" viewBox="0 0 84 66" fill="none" xmlns="http://www.w3.org/2000/svg">
<path fill-rule="evenodd" clip-rule="evenodd" d="M41.5 6.19999C37.1624 6.1992 32.9004 7.33611 29.1394 9.49724C25.3785 11.6584 22.2502 14.7681 20.0667 18.5161C17.8832 22.2641 16.7209 26.5193 16.6959 30.8569C16.6709 35.1944 17.7839 39.4627 19.924 43.2357C21.3705 41.3558 23.23 39.8337 25.3586 38.7871C27.4872 37.7405 29.828 37.1975 32.2 37.2H50.8C53.172 37.1975 55.5128 37.7405 57.6414 38.7871C59.7701 39.8337 61.6295 41.3558 63.076 43.2357C65.2161 39.4627 66.3291 35.1944 66.3041 30.8569C66.2791 26.5193 65.1168 22.2641 62.9333 18.5161C60.7498 14.7681 57.6215 11.6584 53.8606 9.49724C50.0996 7.33611 45.8376 6.1992 41.5 6.19999ZM66.1233 49.8356C70.2681 44.4322 72.51 37.81 72.5 31C72.5 13.8787 58.6213 0 41.5 0C24.3787 0 10.5 13.8787 10.5 31C10.4898 37.81 12.7317 44.4323 16.8767 49.8356L16.8612 49.8914L17.9617 51.1717C20.8692 54.5708 24.4791 57.2991 28.5427 59.1685C32.6064 61.0379 37.027 62.0039 41.5 61.9999C47.7847 62.0115 53.9229 60.1025 59.0925 56.5285C61.2964 55.0058 63.2948 53.2053 65.0383 51.1717L66.1388 49.8914L66.1233 49.8356ZM41.5 12.4C39.0335 12.4 36.668 13.3798 34.9239 15.1239C33.1798 16.868 32.2 19.2335 32.2 21.7C32.2 24.1665 33.1798 26.532 34.9239 28.2761C36.668 30.0202 39.0335 31 41.5 31C43.9665 31 46.332 30.0202 48.0761 28.2761C49.8202 26.532 50.8 24.1665 50.8 21.7C50.8 19.2335 49.8202 16.868 48.0761 15.1239C46.332 13.3798 43.9665 12.4 41.5 12.4Z" fill="#717171"/>
<circle cx="65.5" cy="54" r="12" fill="black"/>
<path d="M66.912 57.568H64.96V54.624H62V52.96H64.96V50H66.912V52.96H69.872V54.624H66.912V57.568Z" fill="white"/>
</svg>
