<svg width="16" height="18" viewBox="0 0 16 18" fill="none" xmlns="http://www.w3.org/2000/svg">
<g clip-path="url(#clip0_335_7306)">
<path d="M7.06706 13.6845V10.3015H8.45413C10.7396 10.3015 12.0106 9.20992 12.0106 7.25963C12.0106 5.30933 10.7396 4.1355 8.45413 4.1355H4.87183C5.00079 4.58615 5.07673 5.09009 5.07673 6.05839V13.6845H7.06706ZM8.31227 5.75846C9.44141 5.75846 10.0719 6.30351 10.0719 7.25963C10.0719 8.21574 9.44285 8.76079 8.31227 8.76079H7.06706V6.48316C7.06706 6.16953 7.02837 5.96552 6.95099 5.75998H8.31227V5.75846Z" fill="#1A1919"/>
<path d="M8.01146 0.410034C3.5866 0.410034 0 4.2208 0 8.92221C0 13.6236 3.28139 17.0979 7.4383 17.41V16.189C3.92047 15.8784 1.14634 12.7391 1.14634 8.92221C1.14634 4.89982 4.22569 1.62802 8.01146 1.62802C11.7972 1.62802 14.8766 4.89982 14.8766 8.92221C14.8766 12.3813 12.5997 15.2831 9.55329 16.0291C9.22945 15.6851 8.90704 15.3425 8.5832 14.9984V16.189V17.41C12.7401 17.0979 16.0215 13.4181 16.0215 8.92221C16.0215 4.42633 12.4363 0.410034 8.01146 0.410034Z" fill="#1A1919"/>
</g>
<defs>
<clipPath id="clip0_335_7306">
<rect width="16" height="17" fill="white" transform="translate(0 0.410034)"/>
</clipPath>
</defs>
</svg>
