<svg width="16" height="16" viewBox="0 0 16 16" fill="none" xmlns="http://www.w3.org/2000/svg">
<g clip-path="url(#clip0_4_4556)">
<path d="M5.55923 15.1558H0.588684V9.93442H3.87802L10.4281 3.47705H13.336C14.4802 3.47705 15.4113 4.40088 15.4113 5.53597V8.69844H12.122L5.55923 15.1558ZM1.54211 14.2099H5.16515L11.7279 7.75254H14.4579V5.53597C14.4579 4.92113 13.9526 4.42296 13.336 4.42296H10.8222L4.26892 10.8803H1.54211V14.2099Z" fill="currentColor"/>
<path d="M3.8494 4.59317C2.80698 4.59317 1.96161 3.75132 1.96161 2.72028C1.96161 1.68925 2.80698 0.844238 3.8494 0.844238C4.89182 0.844238 5.73719 1.68609 5.73719 2.71713C5.73719 3.74816 4.88864 4.59002 3.8494 4.59002V4.59317ZM3.8494 1.79014C3.33455 1.79014 2.91504 2.20634 2.91504 2.71713C2.91504 3.22792 3.33455 3.64412 3.8494 3.64412C4.36425 3.64412 4.78376 3.22792 4.78376 2.71713C4.78376 2.20634 4.36425 1.79014 3.8494 1.79014Z" fill="currentColor"/>
<path d="M2.11099 10.4388L1.85992 6.82231C1.85992 5.79758 2.75297 4.96204 3.85259 4.96204C4.95222 4.96204 5.84526 5.79758 5.84526 6.82231V6.85385L5.67047 9.33842L4.72021 9.27221L4.89501 6.80655C4.88548 6.30837 4.42465 5.90794 3.85577 5.90794C3.28689 5.90794 2.82607 6.31153 2.81653 6.80655L3.0676 10.3726L2.11735 10.4388H2.11099Z" fill="currentColor"/>
</g>
<defs>
<clipPath id="clip0_4_4556">
<rect width="14.8227" height="14.3115" fill="currentColor" transform="translate(0.588684 0.844238)"/>
</clipPath>
</defs>
</svg>
