<svg width="16" height="16" viewBox="0 0 16 16" fill="none" xmlns="http://www.w3.org/2000/svg">
<g id="cil:eco">
<path id="Vector" d="M12.1571 3.94638C11.3305 2.54579 10.1569 1.38181 8.74959 0.566687L8.49922 0.421875L8.24884 0.566687C6.81757 1.39268 5.62909 2.58107 4.80299 4.01229C3.97689 5.4435 3.5423 7.06705 3.54297 8.71956C3.54297 8.82722 3.54484 8.93656 3.5485 9.04456C3.59825 10.5088 4.15822 11.7409 5.16788 12.6076C5.9405 13.2709 6.93156 13.6758 7.99934 13.7724V15.4995H8.99934V7.4995H7.99922V12.766C6.30972 12.5703 4.62819 11.3768 4.54784 9.01056C4.54453 8.91384 4.54284 8.81594 4.54284 8.71956C4.54583 7.29267 4.91025 5.8898 5.60209 4.64185C6.29393 3.3939 7.29065 2.34156 8.49922 1.58303C9.70777 2.34158 10.7045 3.39393 11.3963 4.64187C12.0881 5.88982 12.4525 7.29269 12.4555 8.71956C12.4555 8.81594 12.4538 8.91384 12.4505 9.01059C12.3862 10.9035 11.2971 12.0458 9.99909 12.5273V13.5857C10.6727 13.3948 11.2973 13.0612 11.8306 12.6076C12.8402 11.7408 13.4002 10.5088 13.4499 9.04453C13.4536 8.93653 13.4555 8.82719 13.4555 8.71953C13.4564 7.04113 13.0081 5.39307 12.1571 3.94638Z" fill="#333333"/>
</g>
</svg>
