<svg width="14" height="16" viewBox="0 0 14 16" fill="none" xmlns="http://www.w3.org/2000/svg">
<g id="Doc" clip-path="url(#clip0_1445_20590)">
<path id="Vector" d="M3.39166 12.6613H13.7157V2.45224C13.7157 1.09948 12.0452 0 10.6845 0H2.46666C1.10594 0 0 1.09948 0 2.45224V14.3134C0 15.243 0.761422 16 1.69655 16H11.4213V14.3954L10.9234 14.7278H8.07021H1.69655C1.46639 14.7278 1.27965 14.5422 1.27965 14.3134V2.45224C1.27965 1.80176 1.81236 1.27217 2.46666 1.27217H10.6831C11.3374 1.27217 12.4346 1.80176 12.4346 2.45224V11.3891H3.39166V12.6613Z" fill="#292929"/>
<path id="Vector_2" d="M9.9668 10.3036V9.15234H3.30797V10.3036H9.9668Z" fill="#292929"/>
<path id="Vector_3" d="M6.85803 7.99862C5.26136 7.99862 3.96289 6.70774 3.96289 5.1204C3.96289 3.53307 5.26136 2.24219 6.85803 2.24219C8.4547 2.24219 9.75317 3.53307 9.75317 5.1204C9.75317 6.70774 8.4547 7.99862 6.85803 7.99862ZM6.85803 3.39347C5.89974 3.39347 5.12095 4.16771 5.12095 5.1204C5.12095 6.07309 5.89974 6.84733 6.85803 6.84733C7.81632 6.84733 8.59512 6.07309 8.59512 5.1204C8.59512 4.16771 7.81632 3.39347 6.85803 3.39347Z"/>
</g>
<defs>
<clipPath id="clip0_1445_20590">
<rect width="13.7143" height="16" fill="white"/>
</clipPath>
</defs>
</svg>
