<svg width="24" height="24" viewBox="0 0 24 24" fill="none" xmlns="http://www.w3.org/2000/svg">
<g clip-path="url(#clip0_652_29402)">
<path d="M6.58532 18.9919H22.0714V3.67837C22.0714 1.64923 19.5657 0 17.5246 0H5.19999C3.15892 0 1.5 1.64923 1.5 3.67837V21.4701C1.5 22.8646 2.64213 24 4.04483 24H18.632V22.0918H13.6053H4.04483C3.69958 22.0918 3.41948 21.8133 3.41948 21.4701V3.67837C3.41948 2.70265 4.21854 1.90827 5.19999 1.90827H17.5246C18.5061 1.90827 20.152 2.70265 20.152 3.67837V17.0836H6.58532V18.9919Z" fill="#1A1919"/>
<path d="M16.4131 5.1499H6.95464L6.48779 6.93509H16.8799L16.4131 5.1499Z" fill="#1A1919"/>
<path d="M16.8799 10.364L16.4131 8.57666H6.95464L6.48779 10.364H16.8799Z" fill="#1A1919"/>
<path d="M16.8799 13.7891L16.4131 12.0039H6.95464L6.48779 13.7891H16.8799Z" fill="#1A1919"/>
</g>
<defs>
<clipPath id="clip0_652_29402">
<rect width="24" height="24" fill="white"/>
</clipPath>
</defs>
</svg>
