<svg width="19" height="17" viewBox="0 0 19 17" fill="none" xmlns="http://www.w3.org/2000/svg">
<path d="M2.68848 16.96C2.19043 16.96 1.7627 16.8545 1.40527 16.6436C1.04785 16.4326 0.772461 16.1455 0.579102 15.7822C0.385742 15.4248 0.289062 15.0234 0.289062 14.5781C0.289062 14.1504 0.40332 13.7402 0.631836 13.3477L7.45215 1.46484C7.6748 1.06641 7.9707 0.767578 8.33984 0.568359C8.70898 0.363281 9.0957 0.260742 9.5 0.260742C9.9043 0.260742 10.2881 0.363281 10.6514 0.568359C11.0205 0.767578 11.3193 1.06641 11.5479 1.46484L18.3682 13.3477C18.4795 13.541 18.5645 13.7432 18.623 13.9541C18.6816 14.165 18.7109 14.373 18.7109 14.5781C18.7109 15.0234 18.6143 15.4248 18.4209 15.7822C18.2275 16.1455 17.9521 16.4326 17.5947 16.6436C17.2373 16.8545 16.8096 16.96 16.3115 16.96H2.68848ZM9.50879 11.0801C9.96582 11.0801 10.1973 10.8398 10.2031 10.3594L10.335 5.57812C10.3408 5.34961 10.2617 5.15918 10.0977 5.00684C9.93945 4.84863 9.74023 4.76953 9.5 4.76953C9.25391 4.76953 9.05176 4.8457 8.89355 4.99805C8.74121 5.15039 8.66797 5.34082 8.67383 5.56934L8.78809 10.3594C8.7998 10.8398 9.04004 11.0801 9.50879 11.0801ZM9.50879 14.0244C9.77246 14.0244 10.001 13.9336 10.1943 13.752C10.3936 13.5703 10.4932 13.3477 10.4932 13.084C10.4932 12.8203 10.3936 12.5977 10.1943 12.416C10.001 12.2285 9.77246 12.1348 9.50879 12.1348C9.23926 12.1348 9.00781 12.2285 8.81445 12.416C8.62109 12.6035 8.52441 12.8262 8.52441 13.084C8.52441 13.3477 8.62109 13.5703 8.81445 13.752C9.01367 13.9336 9.24512 14.0244 9.50879 14.0244Z" fill="#A50E00"/>
</svg>
