<svg width="13" height="12" viewBox="0 0 13 12" fill="none" xmlns="http://www.w3.org/2000/svg">
<g id="tdesign:image">
<path id="Vector" d="M1.25 1H11.25V11H1.25V1ZM2.25 10H9.043L4.75 5.707L2.25 8.207V10ZM10.25 9.793V2H2.25V6.793L4.75 4.293L10.25 9.793ZM8.0235 3.5C7.89089 3.5 7.76371 3.55268 7.66995 3.64645C7.57618 3.74021 7.5235 3.86739 7.5235 4C7.5235 4.13261 7.57618 4.25979 7.66995 4.35355C7.76371 4.44732 7.89089 4.5 8.0235 4.5C8.15611 4.5 8.28329 4.44732 8.37705 4.35355C8.47082 4.25979 8.5235 4.13261 8.5235 4C8.5235 3.86739 8.47082 3.74021 8.37705 3.64645C8.28329 3.55268 8.15611 3.5 8.0235 3.5ZM6.5235 4C6.5235 3.60218 6.68154 3.22064 6.96284 2.93934C7.24414 2.65804 7.62568 2.5 8.0235 2.5C8.42132 2.5 8.80286 2.65804 9.08416 2.93934C9.36546 3.22064 9.5235 3.60218 9.5235 4C9.5235 4.39782 9.36546 4.77936 9.08416 5.06066C8.80286 5.34196 8.42132 5.5 8.0235 5.5C7.62568 5.5 7.24414 5.34196 6.96284 5.06066C6.68154 4.77936 6.5235 4.39782 6.5235 4Z" fill="#014541"/>
</g>
</svg>
