<svg width="21" height="20" viewBox="0 0 21 20" fill="none" xmlns="http://www.w3.org/2000/svg">
<path d="M10.5 7.39658C9.06641 7.39658 7.89648 8.5665 7.89648 10.0001C7.89648 11.4337 9.06641 12.6036 10.5 12.6036C11.9336 12.6036 13.1035 11.4337 13.1035 10.0001C13.1035 8.5665 11.9336 7.39658 10.5 7.39658ZM18.3086 10.0001C18.3086 8.92197 18.3184 7.85361 18.2578 6.77744C18.1973 5.52744 17.9121 4.41806 16.998 3.504C16.082 2.58798 14.9746 2.30478 13.7246 2.24423C12.6465 2.18369 11.5781 2.19345 10.502 2.19345C9.42383 2.19345 8.35547 2.18369 7.2793 2.24423C6.0293 2.30478 4.91992 2.58994 4.00586 3.504C3.08984 4.42001 2.80664 5.52744 2.74609 6.77744C2.68555 7.85556 2.69531 8.92392 2.69531 10.0001C2.69531 11.0763 2.68555 12.1466 2.74609 13.2227C2.80664 14.4727 3.0918 15.5821 4.00586 16.4962C4.92188 17.4122 6.0293 17.6954 7.2793 17.756C8.35742 17.8165 9.42578 17.8067 10.502 17.8067C11.5801 17.8067 12.6484 17.8165 13.7246 17.756C14.9746 17.6954 16.084 17.4102 16.998 16.4962C17.9141 15.5802 18.1973 14.4727 18.2578 13.2227C18.3203 12.1466 18.3086 11.0782 18.3086 10.0001ZM10.5 14.006C8.2832 14.006 6.49414 12.2169 6.49414 10.0001C6.49414 7.7833 8.2832 5.99423 10.5 5.99423C12.7168 5.99423 14.5059 7.7833 14.5059 10.0001C14.5059 12.2169 12.7168 14.006 10.5 14.006ZM14.6699 6.76572C14.1523 6.76572 13.7344 6.34775 13.7344 5.83017C13.7344 5.31259 14.1523 4.89462 14.6699 4.89462C15.1875 4.89462 15.6055 5.31259 15.6055 5.83017C15.6056 5.95307 15.5815 6.0748 15.5346 6.18837C15.4876 6.30195 15.4187 6.40514 15.3318 6.49205C15.2449 6.57895 15.1417 6.64786 15.0281 6.69482C14.9145 6.74178 14.7928 6.76587 14.6699 6.76572Z" fill="#333333"/>
</svg>
