<svg width="24" height="24" viewBox="0 0 24 24" fill="none" xmlns="http://www.w3.org/2000/svg">
    <path d="M18.75 1.5L17.6895 2.5605L19.629 4.5H15.8115C14.1892 4.49814 12.5816 4.80774 11.076 5.412L7.86675 6.69525C6.53886 7.22844 5.12093 7.50164 3.69 7.5H1.5V9H3.68925C5.31132 9.00176 6.91865 8.69216 8.424 8.088L11.6332 6.80475C12.9611 6.27156 14.3791 5.99836 15.81 6H19.6275L17.688 7.9395L18.75 9L22.5 5.25L18.75 1.5Z" fill="#333333"/>
    <path d="M15.75 8.25L14.6895 9.3105L16.629 11.25H14.1765C12.6474 11.2501 11.1307 11.5252 9.699 12.0623L7.7745 12.7838C6.51135 13.2574 5.17329 13.5 3.82425 13.5H1.5V15H3.82425C5.35308 15.0001 6.86947 14.7252 8.301 14.1885L10.2255 13.4662C11.4887 12.9926 12.8267 12.75 14.1757 12.75H16.6283L14.6895 14.6895L15.75 15.75L19.5 12L15.75 8.25Z" fill="#333333"/>
    <path d="M12.75 15L11.6895 16.0605L13.629 18H12.4478C11.0771 17.9998 9.71536 18.2207 8.415 18.654L7.61025 18.9225C6.463 19.305 5.26158 19.5 4.05225 19.5H1.5V21H4.05225C5.42291 21.0002 6.78464 20.7793 8.085 20.346L8.88975 20.0775C10.037 19.695 11.2384 19.5 12.4478 19.5H13.629L11.6895 21.4395L12.75 22.5L16.5 18.75L12.75 15Z" fill="#333333"/>
    </svg>
    