<svg width="16" height="18" viewBox="0 0 16 18" fill="none" xmlns="http://www.w3.org/2000/svg">
<g clip-path="url(#clip0_346_9445)">
<path d="M11.0755 9.63585L9.44126 9.38538L8.71126 7.81442C8.41983 7.18299 7.57697 7.18299 7.28554 7.81442L6.55554 9.38538L4.92126 9.63585C4.2684 9.73755 4.00983 10.5906 4.47983 11.0809L5.65983 12.3042L5.38126 14.0316C5.27126 14.7222 5.95554 15.2504 6.5084 14.9225L7.96697 14.109L9.45554 14.9225C10.0398 15.2504 10.7227 14.7222 10.6127 14.0316L10.3341 12.3042L11.5141 11.0809C11.9855 10.5906 11.727 9.73906 11.0727 9.63585H11.0755ZM9.19554 11.6606L9.47697 13.4123L7.9684 12.5835L6.51983 13.4123L6.80126 11.6606L5.60697 10.4236L7.2584 10.1671L7.9684 8.57791L8.7384 10.1671L10.3898 10.4236L9.19554 11.6606Z" fill="#1A1919"/>
<path d="M15.9986 4.0929V3.91984C15.9986 2.67368 14.8829 1.66433 13.7129 1.66433H12.5286V1.01316C12.5286 0.702001 12.29 0.450043 11.9986 0.450043C11.7071 0.450043 11.4686 0.702001 11.4686 1.01316V1.66433H4.53V1.01316C4.53 0.702001 4.29143 0.450043 4 0.450043C3.70857 0.450043 3.47 0.702001 3.47 1.01316V1.66433H2.28571C1.11286 1.66433 0 2.67368 0 3.91984V15.196C0 16.4391 1.11286 17.4516 2.28571 17.4516H13.7143C14.8843 17.4516 16 16.4407 16 15.196V5.3087H2.28429V7.13013C2.47429 6.92826 2.66571 6.72486 2.85571 6.52299H14.7743V15.196C14.7743 15.8198 14.3 16.2373 13.7129 16.2373H2.28429C1.69857 16.2373 1.22286 15.8198 1.22286 15.196V3.91984C1.22286 3.296 1.69857 2.87861 2.28429 2.87861H13.7129C14.3 2.87861 14.7743 3.296 14.7743 3.91984V4.0929H15.9986Z" fill="black"/>
</g>
<defs>
<clipPath id="clip0_346_9445">
<rect width="16" height="17" fill="white" transform="translate(0 0.450043)"/>
</clipPath>
</defs>
</svg>
