<svg width="17" height="17" viewBox="0 0 17 17" fill="none" xmlns="http://www.w3.org/2000/svg">
    <g clip-path="url(#clip0_2268_37950)">
    <path d="M12.4227 11.5894V12.3804H15.0001V13.0894L16 12.0894L15 11.0894L15.0001 11.5894H12.4227Z" fill="white"/>
    <path d="M8.43733 0.638184L8.87541 1.04644L8.8767 1.04502L16.3382 7.96548L15.4595 9.09558L14.6092 8.45284V10.5884L13.6064 10.5884V7.19701L8.43863 2.58478L3.26829 7.19701V15.3295H4.31114V16.4412H2.30943V8.45425L1.41389 9.097L0.535156 7.9669L7.99667 1.04644H7.99926L8.43733 0.638184Z" fill="white"/>
    <path d="M6.37876 15.3295H13.6064V13.6329H14.6092V16.4398H5.34495V15.3281V15.1402L5.33849 13.4225L5.32815 10.4729L5.42249 10.326C5.47289 10.2469 6.68761 8.39775 8.75523 8.59128C10.3331 8.7396 11.2196 9.9587 11.4535 10.3288L11.5465 10.4757L11.5258 14.198H9.97771L10.4946 13.6329V13.7784L10.5101 10.8374C10.2698 10.511 9.64689 9.81037 8.66606 9.71855C7.46555 9.60554 6.63334 10.5068 6.36325 10.8487L6.37876 15.3295Z" fill="white"/>
    </g>
    <defs>
    <clipPath id="clip0_2268_37950">
    <rect width="15.8031" height="15.8031" fill="white" transform="translate(0.535156 0.638184)"/>
    </clipPath>
    </defs>
    </svg>
    