<svg width="14" height="15" viewBox="0 0 14 15" fill="none" xmlns="http://www.w3.org/2000/svg">
<path d="M7.51926 3.125H6.64671V8.43134C5.89414 8.62603 5.33789 9.30853 5.33789 10.1245C5.33789 11.0913 6.11882 11.8745 7.08298 11.8745C8.04715 11.8745 8.82808 11.0913 8.82808 10.1245C8.82808 9.30962 8.27183 8.62603 7.51926 8.43134V3.125ZM7.95553 10.1245C7.95553 10.6068 7.56397 10.9995 7.08298 10.9995C6.60199 10.9995 6.21044 10.6068 6.21044 10.1245C6.21044 9.64212 6.60199 9.24946 7.08298 9.24946C7.56397 9.24946 7.95553 9.64212 7.95553 10.1245Z"/>
<path d="M9.69967 7.78656V1.375H8.84239V2.1275V2.81055L8.82712 8.11907L9.04744 8.36735C9.47499 8.84969 9.70949 9.47094 9.70949 10.1152C9.70949 11.5677 8.53046 12.75 7.08203 12.75C5.63361 12.75 4.45458 11.5677 4.45458 10.1152C4.45458 9.47094 4.69016 8.84969 5.11662 8.36735L5.33694 8.11907V2.25H7.54012C7.683 2.39328 7.82588 2.53656 7.96985 2.68093V2.25V1.375H4.46439V7.78656C3.91578 8.40672 3.58203 9.22157 3.58203 10.1152C3.58203 12.0533 5.14934 13.625 7.08203 13.625C9.01472 13.625 10.582 12.0533 10.582 10.1152C10.582 9.22157 10.2483 8.40672 9.69967 7.78656Z"/>
</svg>
