<svg width="75" height="75" viewBox="0 0 75 75" fill="none" xmlns="http://www.w3.org/2000/svg">
<path opacity="0.2" d="M15.625 65.625C13.9062 65.625 12.4354 65.0135 11.2125 63.7906C9.98958 62.5677 9.37708 61.0958 9.375 59.375V15.625C9.375 13.9062 9.9875 12.4354 11.2125 11.2125C12.4375 9.98958 13.9083 9.37708 15.625 9.375H59.375C61.0938 9.375 62.5656 9.9875 63.7906 11.2125C65.0156 12.4375 65.6271 13.9083 65.625 15.625V59.375C65.625 61.0938 65.0135 62.5656 63.7906 63.7906C62.5677 65.0156 61.0958 65.6271 59.375 65.625H15.625ZM15.625 59.375H59.375V15.625H15.625V59.375ZM18.75 53.125H56.25L44.5312 37.5L35.1562 50L28.125 40.625L18.75 53.125Z" fill="black"/>
</svg>
