<svg width="24" height="24" viewBox="0 0 24 24" fill="none" xmlns="http://www.w3.org/2000/svg">
    <g clip-path="url(#clip0_2922_1955)">
        <path
            d="M16.9187 15.7136C16.8909 15.7479 16.863 15.7843 16.833 15.8186L16.3701 16.3671L15.8214 16.83C14.2761 18.1371 12.3108 18.8571 10.2876 18.8571C5.55956 18.8571 1.71459 15.0129 1.71459 10.2857C1.71459 5.55857 5.55956 1.71429 10.2876 1.71429C15.0155 1.71429 18.8605 5.55857 18.8605 10.2857C18.8605 11.4664 18.6119 12.6257 18.149 13.695C17.8746 13.695 17.5981 13.695 17.3238 13.6929L17.9282 14.3014L19.1434 15.5164C20.0522 13.9843 20.573 12.1971 20.573 10.2879C20.5751 4.605 15.9693 0 10.2876 0C4.60582 0 0 4.605 0 10.2857C0 15.9664 4.60582 20.5714 10.2876 20.5714C12.8187 20.5714 15.1377 19.6543 16.9295 18.1371L22.7934 24L24 22.7936L16.9187 15.7136Z"
            fill="#BDBDBD" />
    </g>
    <defs>
        <clipPath id="clip0_2922_1955">
            <rect width="24" height="24" fill="white" />
        </clipPath>
    </defs>
</svg>
    