<svg width="52" height="52" viewBox="0 0 52 52" fill="none" xmlns="http://www.w3.org/2000/svg">
<path d="M7.85001 25.3199V41.1099H7.46001C6.86934 41.1086 6.29894 41.3252 5.85797 41.7182C5.41701 42.1112 5.13646 42.653 5.07001 43.2399L4.32001 49.6599C4.28043 49.9983 4.31303 50.3412 4.41565 50.666C4.51828 50.9908 4.6886 51.2902 4.91538 51.5444C5.14217 51.7986 5.42026 52.0018 5.73133 52.1406C6.04239 52.2795 6.37936 52.3508 6.72001 52.3499H43.52C43.8598 52.3494 44.1957 52.277 44.5055 52.1376C44.8154 51.9981 45.0923 51.7947 45.318 51.5406C45.5437 51.2866 45.7131 50.9877 45.8151 50.6636C45.9171 50.3395 45.9495 49.9974 45.91 49.6599L45.16 43.2399C45.0936 42.653 44.813 42.1112 44.372 41.7182C43.9311 41.3252 43.3607 41.1086 42.77 41.1099H42.38V25.5699C47.48 24.9699 51.66 23.9199 51.66 22.0899C51.66 20.9599 50.75 19.7899 44.15 18.8599C44.0187 18.8415 43.885 18.8492 43.7567 18.8825C43.6283 18.9157 43.5078 18.974 43.4019 19.0538C43.296 19.1337 43.2069 19.2336 43.1397 19.3479C43.0725 19.4622 43.0284 19.5886 43.01 19.7199C42.9916 19.8512 42.9993 19.9849 43.0326 20.1133C43.0658 20.2416 43.1241 20.3622 43.2039 20.468C43.2838 20.5739 43.3837 20.663 43.498 20.7302C43.6123 20.7975 43.7387 20.8415 43.87 20.8599C45.7355 21.0302 47.5691 21.4541 49.32 22.1199C47.0616 22.9111 44.7073 23.3954 42.32 23.5599C42.0133 19.5211 40.1964 15.746 37.2313 12.9866C34.2662 10.2272 30.3704 8.68595 26.32 8.66992H23.94C19.9283 8.68307 16.0657 10.1916 13.1069 12.9007C10.1481 15.6099 8.30582 19.3249 7.94001 23.3199C6.16059 23.13 4.411 22.7236 2.73001 22.1099C4.19623 21.5463 5.72876 21.1732 7.29001 20.9999C7.42133 20.9809 7.54762 20.9362 7.66165 20.8683C7.77569 20.8005 7.87525 20.7108 7.95465 20.6045C8.03404 20.4982 8.09171 20.3773 8.12438 20.2486C8.15704 20.12 8.16405 19.9862 8.14501 19.8549C8.12597 19.7236 8.08125 19.5973 8.0134 19.4833C7.94555 19.3692 7.85591 19.2697 7.74958 19.1903C7.64326 19.1109 7.52234 19.0532 7.39373 19.0206C7.26512 18.9879 7.13133 18.9809 7.00001 18.9999C1.16001 19.9199 0.360008 20.9999 0.360008 22.0999C0.340008 22.7899 0.340008 24.2599 7.85001 25.3199ZM43.18 43.4699L43.92 49.8899C43.9289 49.9474 43.9245 50.0061 43.9072 50.0615C43.8899 50.117 43.86 50.1678 43.82 50.2099C43.7849 50.2556 43.7393 50.2921 43.6871 50.3165C43.6348 50.3408 43.5776 50.3523 43.52 50.3499H6.72001C6.6608 50.3539 6.60152 50.3433 6.54743 50.3188C6.49335 50.2944 6.44614 50.257 6.41001 50.2099C6.36998 50.1678 6.34015 50.117 6.32281 50.0615C6.30547 50.0061 6.30109 49.9474 6.31001 49.8899L7.05001 43.4699C7.06227 43.3701 7.11083 43.2782 7.18643 43.2118C7.26203 43.1454 7.3594 43.1092 7.46001 43.1099H42.77C42.8706 43.1092 42.968 43.1454 43.0436 43.2118C43.1192 43.2782 43.1677 43.3701 43.18 43.4699ZM31.18 41.1099H19V40.5299C19 39.0438 19.5897 37.6184 20.6396 36.5666C21.6895 35.5148 23.1139 34.9226 24.6 34.9199H25.6C27.0861 34.9226 28.5105 35.5148 29.5604 36.5666C30.6103 37.6184 31.2 39.0438 31.2 40.5299L31.18 41.1099ZM23.94 10.6499H26.29C29.8446 10.6685 33.2612 12.0281 35.8568 14.4568C38.4524 16.8855 40.0356 20.2044 40.29 23.7499C36.5 24.1199 31.67 24.3599 25.96 24.3599C23.96 24.3599 21.96 24.3599 19.96 24.2699C19.6948 24.2699 19.4404 24.3753 19.2529 24.5628C19.0654 24.7504 18.96 25.0047 18.96 25.2699C18.96 25.5351 19.0654 25.7895 19.2529 25.977C19.4404 26.1646 19.6948 26.2699 19.96 26.2699C21.96 26.3299 23.96 26.3599 25.96 26.3599C28.85 26.3599 34.86 26.2899 40.34 25.7799V41.1099H33.23V40.5299C33.2274 38.5142 32.4261 36.5816 31.0017 35.1553C29.5773 33.729 27.6458 32.9252 25.63 32.9199H24.63C23.6293 32.9186 22.6382 33.1144 21.7132 33.4961C20.7882 33.8779 19.9474 34.438 19.2389 35.1447C18.5304 35.8513 17.968 36.6906 17.5839 37.6146C17.1997 38.5386 17.0013 39.5292 17 40.5299V41.1099H9.85001V25.5699C11.08 25.7099 12.47 25.8399 14.04 25.9599H14.11C14.3752 25.9692 14.6333 25.8728 14.8274 25.6918C15.0215 25.5108 15.1357 25.2601 15.145 24.9949C15.1543 24.7297 15.0578 24.4717 14.8769 24.2776C14.6959 24.0835 14.4452 23.9692 14.18 23.9599C12.56 23.8399 11.18 23.7099 9.91001 23.5599C10.2102 20.0432 11.8174 16.7667 14.4147 14.3768C17.0119 11.9869 20.4105 10.6571 23.94 10.6499Z" fill="currentColor"/>
<path d="M7.24001 12.4095C7.34376 12.4903 7.46239 12.5498 7.58915 12.5847C7.7159 12.6197 7.84829 12.6293 7.97876 12.613C8.10922 12.5968 8.23521 12.555 8.34953 12.49C8.46385 12.4251 8.56425 12.3383 8.64501 12.2345C8.72578 12.1308 8.78532 12.0121 8.82023 11.8854C8.85514 11.7586 8.86475 11.6262 8.8485 11.4958C8.83225 11.3653 8.79046 11.2393 8.72552 11.125C8.66058 11.0107 8.57376 10.9103 8.47001 10.8295L5.61001 8.60952C5.50649 8.52756 5.38777 8.46692 5.26068 8.43109C5.1336 8.39525 5.00068 8.38494 4.86959 8.40074C4.73851 8.41655 4.61185 8.45816 4.49692 8.52317C4.382 8.58818 4.28109 8.67531 4.20001 8.77952C4.03872 8.98923 3.96711 9.2543 4.00084 9.5167C4.03458 9.7791 4.17092 10.0174 4.38001 10.1795L7.24001 12.4095Z" fill="currentColor"/>
<path d="M12 8.2703C12.0839 8.43674 12.2126 8.57643 12.3716 8.67361C12.5306 8.77079 12.7136 8.8216 12.9 8.8203C13.0524 8.82093 13.2029 8.78672 13.34 8.7203C13.5773 8.60219 13.758 8.3947 13.8423 8.14344C13.9267 7.89217 13.9079 7.61769 13.79 7.3803L12.17 4.1403C12.0519 3.90302 11.8444 3.72234 11.5931 3.63796C11.3419 3.55359 11.0674 3.57241 10.83 3.6903C10.5951 3.80307 10.4135 4.00309 10.3238 4.24777C10.2342 4.49244 10.2435 4.76245 10.35 5.0003L12 8.2703Z" fill="currentColor"/>
<path d="M17.56 5.89964C17.6242 6.11222 17.7573 6.29738 17.9384 6.42594C18.1194 6.55449 18.3381 6.61912 18.56 6.60964C18.6565 6.6187 18.7535 6.6187 18.85 6.60964C18.9763 6.57189 19.0938 6.50954 19.1959 6.42619C19.298 6.34284 19.3827 6.24013 19.4449 6.12396C19.5072 6.0078 19.5459 5.88047 19.5588 5.7493C19.5716 5.61813 19.5585 5.4857 19.52 5.35964L18.43 1.84964C18.3985 1.71675 18.3402 1.59172 18.2585 1.48224C18.1769 1.37277 18.0737 1.28118 17.9553 1.21312C17.8369 1.14506 17.7058 1.10197 17.5701 1.08651C17.4344 1.07105 17.297 1.08354 17.1663 1.12322C17.0357 1.1629 16.9145 1.22893 16.8103 1.31723C16.7062 1.40553 16.6212 1.51423 16.5606 1.63663C16.5 1.75904 16.4652 1.89255 16.4582 2.02893C16.4512 2.16532 16.4723 2.30169 16.52 2.42964L17.56 5.89964Z" fill="currentColor"/>
<path d="M25.45 5.20008C25.5813 5.20008 25.7114 5.17421 25.8327 5.12396C25.954 5.0737 26.0643 5.00004 26.1571 4.90718C26.25 4.81433 26.3236 4.70409 26.3739 4.58276C26.4241 4.46144 26.45 4.3314 26.45 4.20008L26.59 0.580078C26.59 0.314862 26.4847 0.0605079 26.2971 -0.127028C26.1096 -0.314565 25.8552 -0.419922 25.59 -0.419922C25.3248 -0.419922 25.0704 -0.314565 24.8829 -0.127028C24.6954 0.0605079 24.59 0.314862 24.59 0.580078L24.45 4.20008C24.45 4.46529 24.5554 4.71965 24.7429 4.90718C24.9304 5.09472 25.1848 5.20008 25.45 5.20008Z" fill="currentColor"/>
<path d="M30.83 6.60036C30.9441 6.66648 31.0702 6.70937 31.201 6.72655C31.3318 6.74373 31.4647 6.73487 31.592 6.70048C31.7193 6.66609 31.8386 6.60685 31.943 6.52616C32.0473 6.44548 32.1347 6.34495 32.2 6.23036L34 3.09036C34.1326 2.85962 34.1681 2.58566 34.0987 2.32873C34.0294 2.07181 33.8607 1.85297 33.63 1.72036C33.3993 1.58775 33.1253 1.55224 32.8684 1.62162C32.6115 1.69101 32.3926 1.85962 32.26 2.09036L30.45 5.23036C30.3843 5.34509 30.342 5.47172 30.3255 5.60291C30.3091 5.7341 30.3188 5.86725 30.3541 5.99465C30.3895 6.12206 30.4497 6.2412 30.5314 6.34517C30.6131 6.44913 30.7146 6.53587 30.83 6.60036Z" fill="currentColor"/>
<path d="M36.76 8.75959C36.9764 8.75959 37.1869 8.68941 37.36 8.55959L40.24 6.36959C40.3444 6.28817 40.4317 6.18698 40.497 6.07181C40.5623 5.95663 40.6043 5.82972 40.6205 5.69833C40.6368 5.56693 40.627 5.43363 40.5917 5.30601C40.5565 5.1784 40.4964 5.05899 40.415 4.95459C40.3336 4.85018 40.2324 4.76284 40.1172 4.69755C40.002 4.63225 39.8751 4.59028 39.7437 4.57403C39.6123 4.55778 39.479 4.56757 39.3514 4.60284C39.2238 4.63811 39.1044 4.69817 39 4.77959L36.15 6.99959C35.954 7.16513 35.8292 7.39963 35.8013 7.65462C35.7734 7.9096 35.8445 8.16557 36 8.36959C36.09 8.48668 36.2048 8.58239 36.3362 8.64982C36.4677 8.71725 36.6124 8.75474 36.76 8.75959Z" fill="currentColor"/>
<path d="M39.32 12.0902C39.3915 12.2816 39.5199 12.4465 39.688 12.5627C39.856 12.6789 40.0557 12.7408 40.26 12.7402C40.3796 12.7447 40.4988 12.7243 40.61 12.6802L44 11.4402C44.1355 11.4059 44.2624 11.3436 44.3724 11.2572C44.4824 11.1708 44.573 11.0624 44.6385 10.9388C44.7039 10.8152 44.7427 10.6793 44.7524 10.5398C44.7621 10.4003 44.7424 10.2604 44.6946 10.129C44.6468 9.99755 44.572 9.87762 44.475 9.77692C44.378 9.67622 44.2609 9.59698 44.1314 9.54432C44.0018 9.49166 43.8627 9.46676 43.7229 9.47121C43.5832 9.47566 43.4459 9.50938 43.32 9.57018L39.92 10.8002C39.7954 10.8448 39.6809 10.9137 39.5832 11.0029C39.4854 11.0921 39.4064 11.1999 39.3505 11.3199C39.2947 11.4398 39.2633 11.5697 39.258 11.702C39.2528 11.8342 39.2739 11.9661 39.32 12.0902Z" fill="currentColor"/>
<path d="M38.57 44.21C38.0439 44.21 37.5296 44.366 37.0922 44.6583C36.6547 44.9505 36.3138 45.366 36.1125 45.852C35.9111 46.3381 35.8584 46.8729 35.9611 47.3889C36.0637 47.9049 36.3171 48.3789 36.6891 48.7509C37.0611 49.1229 37.535 49.3762 38.051 49.4789C38.567 49.5815 39.1019 49.5288 39.5879 49.3275C40.074 49.1262 40.4894 48.7852 40.7817 48.3478C41.074 47.9103 41.23 47.3961 41.23 46.87C41.23 46.1645 40.9497 45.4879 40.4509 44.9891C39.952 44.4902 39.2754 44.21 38.57 44.21ZM38.57 47.52C38.439 47.5199 38.311 47.481 38.2023 47.408C38.0935 47.335 38.009 47.2314 37.9593 47.1102C37.9097 46.989 37.8972 46.8558 37.9235 46.7275C37.9498 46.5992 38.0136 46.4816 38.1069 46.3897C38.2002 46.2978 38.3188 46.2358 38.4475 46.2114C38.5761 46.1871 38.7091 46.2016 38.8296 46.2531C38.95 46.3046 39.0523 46.3908 39.1236 46.5006C39.1949 46.6104 39.232 46.739 39.23 46.87C39.23 46.9562 39.2128 47.0415 39.1796 47.121C39.1463 47.2006 39.0975 47.2727 39.0361 47.3332C38.9747 47.3936 38.9018 47.4413 38.8218 47.4734C38.7418 47.5055 38.6562 47.5213 38.57 47.52Z" fill="currentColor"/>
<path d="M14.11 45.8701H10.89C10.6248 45.8701 10.3704 45.9755 10.1829 46.163C9.99537 46.3505 9.89001 46.6049 9.89001 46.8701C9.89001 47.1353 9.99537 47.3897 10.1829 47.5772C10.3704 47.7648 10.6248 47.8701 10.89 47.8701H14.11C14.3752 47.8701 14.6296 47.7648 14.8171 47.5772C15.0047 47.3897 15.11 47.1353 15.11 46.8701C15.11 46.6049 15.0047 46.3505 14.8171 46.163C14.6296 45.9755 14.3752 45.8701 14.11 45.8701Z" fill="currentColor"/>
<path d="M32.58 45.8701H17.38C17.1148 45.8701 16.8604 45.9755 16.6729 46.163C16.4854 46.3505 16.38 46.6049 16.38 46.8701C16.38 47.1353 16.4854 47.3897 16.6729 47.5772C16.8604 47.7648 17.1148 47.8701 17.38 47.8701H32.58C32.8452 47.8701 33.0996 47.7648 33.2871 47.5772C33.4746 47.3897 33.58 47.1353 33.58 46.8701C33.58 46.6049 33.4746 46.3505 33.2871 46.163C33.0996 45.9755 32.8452 45.8701 32.58 45.8701Z" fill="currentColor"/>
</svg>
