<svg width="16" height="18" viewBox="0 0 16 18" fill="none" xmlns="http://www.w3.org/2000/svg">
<g clip-path="url(#clip0_457_22650)">
<path d="M8.01146 0.930023C3.5866 0.930023 0 4.74079 0 9.4422C0 14.1436 3.28139 17.6179 7.43829 17.93V16.709C3.92047 16.3984 1.14634 13.2591 1.14634 9.4422C1.14634 5.41981 4.22568 2.14801 8.01146 2.14801C11.7972 2.14801 14.8766 5.41981 14.8766 9.4422C14.8766 12.9013 12.5997 15.8031 9.55329 16.5491C9.22945 16.2051 8.90704 15.8625 8.5832 15.5184V16.709V17.93C12.7401 17.6179 16.0215 13.9381 16.0215 9.4422C16.0215 4.94632 12.4363 0.930023 8.01146 0.930023Z" fill="#1A1919"/>
<path d="M11.9089 5.13666L6.59416 7.86951L4.11377 13.725L9.42848 10.9921L11.9089 5.13666ZM8.5157 9.98728C8.37958 10.1365 8.21193 10.2111 8.01132 10.2111C7.81071 10.2111 7.64162 10.1365 7.50549 9.98575C7.36937 9.83503 7.30202 9.65081 7.30202 9.43005C7.30202 9.20929 7.36937 9.02355 7.50549 8.87282C7.64162 8.72362 7.80927 8.64749 8.00988 8.64902C8.21049 8.64902 8.37958 8.72362 8.5157 8.87434C8.65183 9.02507 8.71918 9.20929 8.71918 9.43005C8.71918 9.65081 8.65183 9.83655 8.5157 9.98728Z" fill="#1A1919"/>
</g>
<defs>
<clipPath id="clip0_457_22650">
<rect width="16" height="17" fill="white" transform="translate(0 0.930023)"/>
</clipPath>
</defs>
</svg>
