<svg width="16" height="16" viewBox="0 0 16 16" fill="none" xmlns="http://www.w3.org/2000/svg">
<g clip-path="url(#clip0_322_1762)">
<path d="M10.785 13.875C9.915 14.2887 8.96337 14.5023 8.00001 14.5C4.41601 14.5 1.50001 11.584 1.50001 8C1.50001 6.4625 2.02851 5.0105 3.00001 3.846V5H4.00001V2H1.00001V3H2.42101C1.1813 4.36986 0.496427 6.15246 0.500014 8C0.500014 12.1355 3.86451 15.5 8.00001 15.5C9.11214 15.5023 10.2107 15.2556 11.215 14.778L10.785 13.875Z" fill="black"/>
<path d="M10.5 4.5C8.92 4.5 7.6245 5.7285 7.511 7.28C6.96132 6.77843 6.24412 6.50025 5.5 6.5H3.5V8.5C3.5 10.1545 4.846 11.5 6.5 11.5H7.5V13.5H8.5V9.5H9.5C11.154 9.5 12.5 8.1545 12.5 6.5V4.5H10.5ZM6.5 10.5C5.397 10.5 4.5 9.603 4.5 8.5V7.5H5.5C6.603 7.5 7.5 8.397 7.5 9.5V9.793L6.3535 8.6465L5.6465 9.3535L6.793 10.5H6.5ZM11.5 6.5C11.5 7.603 10.603 8.5 9.5 8.5H9.207L10.3535 7.3535L9.6465 6.6465L8.5 7.793V7.5C8.5 6.397 9.397 5.5 10.5 5.5H11.5V6.5Z" fill="black"/>
<path d="M15.5002 8.00002C15.5002 3.86452 12.1357 0.500016 8.00016 0.500016C6.88803 0.497701 5.7895 0.744401 4.78516 1.22202L5.21516 2.12502C6.08517 1.71132 7.0368 1.49775 8.00016 1.50002C11.5842 1.50002 14.5002 4.41602 14.5002 8.00002C14.5002 9.53752 13.9717 10.9895 13.0002 12.154V11H12.0002V14H15.0002V13H13.5792C14.8189 11.6302 15.5037 9.84755 15.5002 8.00002Z" fill="black"/>
</g>
<defs>
<clipPath id="clip0_322_1762">
<rect width="16" height="16" fill="white"/>
</clipPath>
</defs>
</svg>
