<svg width="24" height="24" viewBox="0 0 40 40" fill="none" xmlns="http://www.w3.org/2000/svg"><g clip-path="url(#clip0_4310_725)"><path d="M0.58528 39.8687C0.334462 39.8687 0.131134 39.6653 0.131134 39.4145V9.66794C0.131134 9.41713 0.334463 9.2138 0.585281 9.2138H8.75992C9.01074 9.2138 9.21407 9.01047 9.21407 8.75965V0.585006C9.21407 0.334187 9.4174 0.130859 9.66822 0.130859H30.3318C30.5826 0.130859 30.7859 0.334188 30.7859 0.585006V17.8426C30.7859 18.0934 30.9893 18.2967 31.2401 18.2967H39.4147C39.6655 18.2967 39.8689 18.5001 39.8689 18.7509V39.4145C39.8689 39.6653 39.6655 39.8687 39.4147 39.8687H23.2926C23.0418 39.8687 22.8385 39.6653 22.8385 39.4145V31.2399C22.8385 30.989 22.6351 30.7857 22.3843 30.7857H17.6157C17.3649 30.7857 17.1615 30.989 17.1615 31.2399V39.4145C17.1615 39.6653 16.9582 39.8687 16.7074 39.8687H0.58528ZM3.53712 36.0085C3.53712 36.2593 3.74045 36.4626 3.99127 36.4626H8.75992C9.01074 36.4626 9.21407 36.2593 9.21407 36.0085V31.2399C9.21407 30.989 9.01074 30.7857 8.75992 30.7857H3.99127C3.74045 30.7857 3.53712 30.989 3.53712 31.2399V36.0085ZM3.53712 26.9255C3.53712 27.1763 3.74045 27.3797 3.99127 27.3797H8.75992C9.01074 27.3797 9.21407 27.1763 9.21407 26.9255V22.1569C9.21407 21.9061 9.01074 21.7028 8.75992 21.7028H3.99127C3.74045 21.7028 3.53712 21.9061 3.53712 22.1569V26.9255ZM3.53712 17.8426C3.53712 18.0934 3.74045 18.2967 3.99127 18.2967H8.75992C9.01074 18.2967 9.21407 18.0934 9.21407 17.8426V13.074C9.21407 12.8232 9.01074 12.6198 8.75992 12.6198H3.99127C3.74045 12.6198 3.53712 12.8232 3.53712 13.074V17.8426ZM12.6201 26.9255C12.6201 27.1763 12.8234 27.3797 13.0742 27.3797H17.8429C18.0937 27.3797 18.297 27.1763 18.297 26.9255V22.1569C18.297 21.9061 18.0937 21.7028 17.8429 21.7028H13.0742C12.8234 21.7028 12.6201 21.9061 12.6201 22.1569V26.9255ZM12.6201 17.8426C12.6201 18.0934 12.8234 18.2967 13.0742 18.2967H17.8429C18.0937 18.2967 18.297 18.0934 18.297 17.8426V13.074C18.297 12.8232 18.0937 12.6198 17.8429 12.6198H13.0742C12.8234 12.6198 12.6201 12.8232 12.6201 13.074V17.8426ZM12.6201 8.75965C12.6201 9.01047 12.8234 9.2138 13.0742 9.2138H17.8429C18.0937 9.2138 18.297 9.01047 18.297 8.75965V3.99105C18.297 3.74023 18.0937 3.5369 17.8429 3.5369H13.0742C12.8234 3.5369 12.6201 3.74023 12.6201 3.99105V8.75965ZM21.703 26.9255C21.703 27.1763 21.9063 27.3797 22.1571 27.3797H26.9258C27.1766 27.3797 27.3799 27.1763 27.3799 26.9255V22.1569C27.3799 21.9061 27.1766 21.7028 26.9258 21.7028H22.1571C21.9063 21.7028 21.703 21.9061 21.703 22.1569V26.9255ZM21.703 17.8426C21.703 18.0934 21.9063 18.2967 22.1571 18.2967H26.9258C27.1766 18.2967 27.3799 18.0934 27.3799 17.8426V13.074C27.3799 12.8232 27.1766 12.6198 26.9258 12.6198H22.1571C21.9063 12.6198 21.703 12.8232 21.703 13.074V17.8426ZM21.703 8.75965C21.703 9.01047 21.9063 9.2138 22.1571 9.2138H26.9258C27.1766 9.2138 27.3799 9.01047 27.3799 8.75965V3.99105C27.3799 3.74023 27.1766 3.5369 26.9258 3.5369H22.1571C21.9063 3.5369 21.703 3.74023 21.703 3.99105V8.75965ZM30.7859 36.0085C30.7859 36.2593 30.9893 36.4626 31.2401 36.4626H36.0087C36.2596 36.4626 36.4629 36.2593 36.4629 36.0085V31.2399C36.4629 30.989 36.2596 30.7857 36.0087 30.7857H31.2401C30.9893 30.7857 30.7859 30.989 30.7859 31.2399V36.0085ZM30.7859 26.9255C30.7859 27.1763 30.9893 27.3797 31.2401 27.3797H36.0087C36.2596 27.3797 36.4629 27.1763 36.4629 26.9255V22.1569C36.4629 21.9061 36.2596 21.7028 36.0087 21.7028H31.2401C30.9893 21.7028 30.7859 21.9061 30.7859 22.1569V26.9255Z" fill="#606060"></path></g></svg>