<svg width="12" height="16" viewBox="0 0 12 16" fill="none" xmlns="http://www.w3.org/2000/svg">
<g clip-path="url(#clip0_2050_2148)">
<path d="M8.33402 14.666L8.00002 16H4.00002L3.66602 14.666H8.33402Z" fill="#FF9500"/>
<path d="M6 0C2.686 0 0 2.686 0 6C0 7.656 0.672 9.156 1.758 10.242C2.32 10.804 2.666 11.578 2.666 12.434V13C2.666 13.368 2.964 13.666 3.332 13.666H8.666C9.034 13.666 9.332 13.366 9.332 12.998V12.434C9.332 11.578 9.678 10.802 10.24 10.242C11.326 9.156 11.998 7.656 11.998 6C12 2.686 9.314 0 6 0ZM9.3 9.298C8.486 10.11 8.028 11.184 8.002 12.332H6.5H5.5H3.998C3.972 11.184 3.514 10.11 2.7 9.298C1.818 8.418 1.334 7.246 1.334 6C1.334 3.426 3.428 1.334 6 1.334C8.572 1.334 10.666 3.428 10.666 6C10.666 7.246 10.18 8.418 9.298 9.298H9.3Z" fill="#FF9500"/>
</g>
<defs>
<clipPath id="clip0_2050_2148">
<rect width="12" height="16" fill="white"/>
</clipPath>
</defs>
</svg>
