<svg width="16" height="18" viewBox="0 0 16 18" fill="none" xmlns="http://www.w3.org/2000/svg">
<g clip-path="url(#clip0_331_5397)">
<g clip-path="url(#clip1_331_5397)">
<path d="M4.39166 14.3426H14.7157V3.49552C14.7157 2.05821 13.0452 0.890015 11.6845 0.890015H3.46666C2.10594 0.890015 1 2.05821 1 3.49552V16.098C1 17.0857 1.76142 17.89 2.69655 17.89H12.4213V16.1851L11.9234 16.5383H9.07021H2.69655C2.46639 16.5383 2.27965 16.3411 2.27965 16.098V3.49552C2.27965 2.80439 2.81236 2.2417 3.46666 2.2417H11.6831C12.3374 2.2417 13.4346 2.80439 13.4346 3.49552V12.9909H4.39166V14.3426Z" fill="#1A1919"/>
<path d="M10.9666 11.8365V10.6132H4.30773V11.8365H10.9666Z" fill="#1A1919"/>
<path d="M7.8573 9.39001C6.26063 9.39001 4.96216 8.01845 4.96216 6.33191C4.96216 4.64536 6.26063 3.2738 7.8573 3.2738C9.45397 3.2738 10.7524 4.64536 10.7524 6.33191C10.7524 8.01845 9.45397 9.39001 7.8573 9.39001ZM7.8573 4.49705C6.89901 4.49705 6.12021 5.31968 6.12021 6.33191C6.12021 7.34414 6.89901 8.16677 7.8573 8.16677C8.81559 8.16677 9.59439 7.34414 9.59439 6.33191C9.59439 5.31968 8.81559 4.49705 7.8573 4.49705Z" fill="black"/>
</g>
</g>
<defs>
<clipPath id="clip0_331_5397">
<rect width="16" height="17" fill="white" transform="translate(0 0.890015)"/>
</clipPath>
<clipPath id="clip1_331_5397">
<rect width="13.7143" height="17" fill="white" transform="translate(1 0.890015)"/>
</clipPath>
</defs>
</svg>
