<svg width="45" height="54" viewBox="0 0 45 54" fill="none" xmlns="http://www.w3.org/2000/svg">
<g clip-path="url(#clip0_6872_25801)">
<path d="M36.0415 25.7291L33.7867 27.1758C33.9301 36.1817 34.0083 48.0679 34.0344 51.0004H32.2488V45.6047H28.8081V29.9127H24.7938C24.8069 26.3416 24.9502 21.0762 25.2109 17.7658L26.1232 5.97079C26.2014 4.9542 26.7358 4.05491 27.596 3.50752C28.4562 2.96012 29.4858 2.84282 30.4502 3.18169L32.3531 3.87244L33.3697 15.2504C34.0995 15.0679 34.8554 14.9376 35.6244 14.8594L34.5036 2.21723L31.2322 1.03121C29.6031 0.44472 27.8306 0.640217 26.3709 1.57861C24.9111 2.51699 23.9988 4.05491 23.8685 5.78832L22.9562 17.5833C22.7216 19.7338 22.513 27.3061 22.4348 29.9127H18.6291V21.8713H8.4763L6.65166 40.7433C6.58649 41.4341 6.61256 42.1248 6.72986 42.8025L8.18957 50.9874H0.5V53.2682H42.923V50.9874H36.3021C36.2761 47.8724 36.1848 34.8784 36.0284 25.716L36.0415 25.7291ZM21.1576 50.7788H14.3543V47.8985H21.1576V50.7788ZM26.3318 50.6094H23.4384V44.6533H26.3318V50.6094ZM26.3448 42.3724H21.1576V45.6177H12.0604V51.0134L10.4182 50.9874L8.93246 42.4376C8.85427 41.9554 8.8282 41.4732 8.88033 40.9909L10.5095 24.1912H16.0877L16.1268 42.985H18.577V32.389H26.3578V42.3855L26.3448 42.3724ZM29.955 50.7788H28.782V47.8985H29.955V50.7788Z" fill="black"/>
<path d="M37.1346 16.748H37.0955C34.3846 16.748 31.8171 17.5431 29.7578 18.9898L31.1393 20.8144C32.8076 19.6675 34.8929 19.0289 37.0955 19.0289H37.1216C39.3372 19.0289 41.4225 19.6675 43.1038 20.8405L44.4983 19.0289C42.4261 17.5561 39.8585 16.7611 37.1346 16.748Z" fill="black"/>
<path d="M37.099 24.0093H37.1121C38.1808 24.0093 39.1843 24.3482 39.9533 24.9477L41.3478 23.1361C40.1879 22.2368 38.7021 21.7285 37.1251 21.7285C35.5481 21.7285 34.0623 22.2238 32.9023 23.11L34.2839 24.9216C35.0528 24.3352 36.0433 23.9963 37.1121 23.9963L37.099 24.0093Z" fill="black"/>
</g>
<defs>
<clipPath id="clip0_6872_25801">
<rect width="44" height="52.5889" fill="white" transform="translate(0.5 0.705078)"/>
</clipPath>
</defs>
</svg>
