<svg width="24" height="24" viewBox="0 0 24 24" fill="none" xmlns="http://www.w3.org/2000/svg">
    <path d="M12.0006 3.81807C13.2158 2.75081 14.7985 2.19812 16.4139 2.27694C18.0293 2.35575 19.5507 3.05988 20.6563 4.24037C21.7618 5.42085 22.3647 6.9851 22.3376 8.6022C22.3104 10.2193 21.6552 11.7624 20.5106 12.9051L15.2866 18.1301L11.9996 21.4151L4.71963 14.1361L3.48963 12.9041C2.34852 11.7607 1.69632 10.2186 1.67071 8.6034C1.64509 6.9882 2.24806 5.42624 3.35234 4.24722C4.45662 3.0682 5.9758 2.36437 7.58922 2.2843C9.20264 2.20423 10.784 2.75418 11.9996 3.81807M15.2846 15.3031L19.0956 11.4911C19.4883 11.0984 19.7998 10.6323 20.0123 10.1192C20.2248 9.60622 20.3341 9.05636 20.3341 8.50107C20.3341 7.94578 20.2248 7.39592 20.0123 6.88289C19.7998 6.36987 19.4883 5.90372 19.0956 5.51107C18.703 5.11842 18.2368 4.80695 17.7238 4.59445C17.2108 4.38194 16.6609 4.27257 16.1056 4.27257C15.5503 4.27257 15.0005 4.38194 14.4875 4.59445C13.9744 4.80695 13.5083 5.11842 13.1156 5.51107L11.9996 6.62707L10.8826 5.51007C10.0896 4.71707 9.0141 4.27157 7.89263 4.27157C6.77117 4.27157 5.69563 4.71707 4.90263 5.51007C4.10964 6.30307 3.66414 7.3786 3.66414 8.50007C3.66414 9.62154 4.10964 10.6971 4.90263 11.4901L6.13463 12.7221L11.9996 18.5871L15.2846 15.3021" fill="#333333"/>
    </svg>
    