<svg width="24" height="24" viewBox="0 0 24 24" fill="none" xmlns="http://www.w3.org/2000/svg">
<g clip-path="url(#clip0_2455_2059)">
<path d="M21.9079 9.89093H21.3481C21.0391 9.50621 20.6517 9.18718 20.2103 8.95792L20.5624 8.606C20.8774 8.29101 20.8774 7.78006 20.5624 7.46507C20.2473 7.15017 19.7365 7.15017 19.4215 7.46507L18.9268 7.95978L18.8471 7.57764C18.4947 5.88924 16.8674 4.56665 15.1427 4.56665H8.86816C7.14331 4.56665 5.51624 5.88924 5.16384 7.57756L5.084 7.9597L4.58945 7.46507C4.2743 7.15017 3.76367 7.15017 3.44852 7.46507C3.13353 7.78006 3.13353 8.29101 3.44852 8.606L3.8006 8.95792C3.35923 9.18718 2.97184 9.50621 2.66283 9.89093H2.10299C0.9463 9.89093 0.00537109 10.8318 0.00537109 11.9884V17.3396C0.00537109 18.4962 0.9463 19.437 2.10283 19.437H3.51479C4.3804 19.437 5.12489 18.9099 5.44489 18.1598H18.5663C18.8862 18.9098 19.6304 19.437 20.496 19.437H21.908C23.0646 19.437 24.0055 18.4962 24.0055 17.3396V11.9884C24.0054 10.8318 23.0644 9.89093 21.9079 9.89093ZM18.5801 16.5464H5.43066C4.36311 16.5464 3.4945 15.6778 3.4945 14.6102V12.1094C3.4945 11.0732 4.31301 10.2245 5.33733 10.1756C5.40489 10.2927 5.48093 10.405 5.56674 10.5106C6.08012 11.1421 6.87826 11.5044 7.75672 11.5044H16.2542C17.1326 11.5044 17.9308 11.1422 18.4442 10.5106C18.5299 10.405 18.6059 10.2928 18.6735 10.1756C19.6979 10.2244 20.5164 11.0731 20.5164 12.1094V14.6102C20.5162 15.6778 19.6476 16.5464 18.5801 16.5464ZM6.62064 8.49352L6.74315 7.90726C6.93854 6.97101 7.91163 6.18006 8.86808 6.18006H15.1426C16.0989 6.18006 17.0721 6.97101 17.2676 7.90726L17.39 8.49344C17.471 8.88132 17.4007 9.23623 17.1921 9.49295C16.9835 9.7496 16.6504 9.89093 16.2542 9.89093H7.75664C7.36044 9.89093 7.02735 9.7496 6.8187 9.49295C6.61006 9.23623 6.53967 8.88132 6.62064 8.49352ZM2.10283 17.8235C1.84052 17.8235 1.61879 17.6019 1.61879 17.3396V11.9884C1.61879 11.7877 1.74889 11.6109 1.92755 11.539C1.89733 11.7248 1.88109 11.9152 1.88109 12.1094V14.6102C1.88109 15.9683 2.64804 17.1502 3.77143 17.7468C3.69644 17.7949 3.60828 17.8235 3.51479 17.8235H2.10283V17.8235ZM22.392 17.3396C22.392 17.6019 22.1702 17.8235 21.9079 17.8235H20.496C20.4025 17.8235 20.3147 17.7948 20.2399 17.7465C21.3629 17.1498 22.1297 15.9681 22.1297 14.6102V12.1094C22.1297 11.9153 22.1134 11.7248 22.0832 11.539C22.2619 11.6109 22.392 11.7876 22.392 11.9884V17.3396Z" fill="black"/>
<path d="M13.996 14.2476H10.0162C9.5706 14.2476 9.20947 14.6088 9.20947 15.0543C9.20947 15.4998 9.57068 15.8609 10.0162 15.8609H13.996C14.4416 15.8609 14.8027 15.4997 14.8027 15.0543C14.8027 14.6088 14.4416 14.2476 13.996 14.2476Z" fill="black"/>
<path d="M6.88985 14.2743L5.5587 13.9113C5.1288 13.7938 4.68541 14.0474 4.56816 14.4773C4.45098 14.9071 4.7044 15.3506 5.13422 15.4679L6.46545 15.8309C6.53648 15.8503 6.60791 15.8595 6.67813 15.8595C7.03288 15.8595 7.35805 15.6236 7.45591 15.2649C7.57317 14.8349 7.31975 14.3915 6.88985 14.2743Z" fill="black"/>
<path d="M18.4478 13.9112L17.1167 14.2742C16.6868 14.3914 16.4334 14.8348 16.5506 15.2647C16.6485 15.6235 16.9736 15.8594 17.3284 15.8594C17.3986 15.8594 17.47 15.8502 17.5411 15.8307L18.8723 15.4677C19.3021 15.3505 19.5555 14.9071 19.4384 14.4772C19.3212 14.0473 18.8778 13.794 18.4478 13.9112Z" fill="black"/>
</g>
<defs>
<clipPath id="clip0_2455_2059">
<rect width="24" height="24" fill="white"/>
</clipPath>
</defs>
</svg>
