<svg width="16" height="17" viewBox="0 0 16 17" fill="none" xmlns="http://www.w3.org/2000/svg">
<g id="Group">
<path id="Vector" d="M10.9395 9.44347L9.3253 9.21064L8.60428 7.75029C8.31644 7.16332 7.48396 7.16332 7.19611 7.75029L6.4751 9.21064L4.86093 9.44347C4.21611 9.53801 3.96072 10.331 4.42493 10.7867L5.59041 11.924L5.31527 13.5297C5.20662 14.1717 5.88248 14.6627 6.42854 14.3579L7.86916 13.6016L9.33941 14.3579C9.9165 14.6627 10.591 14.1717 10.4823 13.5297L10.2072 11.924L11.3726 10.7867C11.8383 10.331 11.5829 9.53942 10.9366 9.44347H10.9395ZM9.08261 11.3257L9.36057 12.954L7.87057 12.1836L6.43983 12.954L6.71779 11.3257L5.5382 10.1758L7.16931 9.93732L7.87057 8.46002L8.63109 9.93732L10.2622 10.1758L9.08261 11.3257Z" fill="#FDFDFD"/>
<path id="Vector_2" d="M15.8017 4.29079V4.12992C15.8017 2.9715 14.6997 2.03321 13.5441 2.03321H12.3744V1.42789C12.3744 1.13864 12.1388 0.904419 11.8509 0.904419C11.5631 0.904419 11.3275 1.13864 11.3275 1.42789V2.03321H4.4743V1.42789C4.4743 1.13864 4.23867 0.904419 3.95083 0.904419C3.66299 0.904419 3.42735 1.13864 3.42735 1.42789V2.03321H2.25764C1.09922 2.03321 6.10352e-05 2.9715 6.10352e-05 4.12992V14.6122C6.10352e-05 15.7678 1.09922 16.7089 2.25764 16.7089H13.5455C14.7011 16.7089 15.8031 15.7692 15.8031 14.6122V5.42099H2.25623V7.11418C2.44389 6.92652 2.63296 6.73744 2.82063 6.54978H14.5925V14.6122C14.5925 15.1921 14.124 15.5801 13.5441 15.5801H2.25623C1.67773 15.5801 1.20787 15.1921 1.20787 14.6122V4.12992C1.20787 3.55 1.67773 3.162 2.25623 3.162H13.5441C14.124 3.162 14.5925 3.55 14.5925 4.12992V4.29079H15.8017Z" fill="#FDFDFD"/>
</g>
</svg>
