<svg width="20" height="20" viewBox="0 0 20 20" fill="none" xmlns="http://www.w3.org/2000/svg">
    <g clip-path="url(#clip0_2268_37966)">
    <path d="M12.1426 16.2749L11.8086 17.6089H7.80856L7.47656 16.2749H12.1426Z" fill="white"/>
    <path d="M6.87995 3.97889C7.68195 3.33089 8.69995 2.94289 9.80795 2.94289C12.382 2.94289 14.474 5.03689 14.474 7.60889C14.474 8.13289 14.388 8.64289 14.222 9.12289L15.348 9.91089C15.644 9.20089 15.806 8.42489 15.806 7.60689C15.808 4.29489 13.122 1.60889 9.80795 1.60889C8.24395 1.60889 6.81995 2.20889 5.75195 3.18889L6.87995 3.97889Z" fill="white"/>
    <path d="M12.2665 12.087C11.9845 12.659 11.8245 13.287 11.8105 13.941H8.49655H7.80855C7.78255 12.793 7.32455 11.719 6.51055 10.907C5.62855 10.027 5.14455 8.85504 5.14455 7.60904C5.14455 7.44304 5.15455 7.27704 5.17055 7.11504L3.96255 6.26904C3.86455 6.69904 3.81055 7.14704 3.81055 7.60904C3.81055 9.26504 4.48255 10.765 5.56855 11.851C6.13055 12.413 6.47655 13.187 6.47655 14.043V14.609C6.47655 14.977 6.77455 15.275 7.14255 15.275H12.4765C12.8445 15.275 13.1425 14.975 13.1425 14.607V14.043C13.1425 13.625 13.2265 13.227 13.3765 12.863L12.2665 12.087Z" fill="white"/>
    <path d="M4.31161 3.46334L3.74414 4.24756L15.3017 12.6107L15.8691 11.8265L4.31161 3.46334Z" fill="white"/>
    </g>
    <defs>
    <clipPath id="clip0_2268_37966">
    <rect width="14" height="16" fill="white" transform="translate(3 1.5874)"/>
    </clipPath>
    </defs>
    </svg>
    