<svg width="16" height="13" viewBox="0 0 16 13" fill="none" xmlns="http://www.w3.org/2000/svg">
<path d="M2.90909 12.7803V11.3685H4.07273L5.50909 6.72733C5.60606 6.42145 5.78497 6.17745 6.04582 5.99533C6.30667 5.81321 6.59442 5.72192 6.90909 5.72145H9.09091C9.40606 5.72145 9.69406 5.81274 9.95491 5.99533C10.2158 6.17792 10.3944 6.42192 10.4909 6.72733L11.9273 11.3685H13.0909V12.7803H2.90909ZM5.6 11.3685H10.4L9.09091 7.13321H6.90909L5.6 11.3685ZM7.27273 4.30969V0.780273H8.72727V4.30969H7.27273ZM11.6 6.05674L10.5636 5.05086L13.1455 2.56263L14.1636 3.55086L11.6 6.05674ZM12.3636 9.25086V7.8391H16V9.25086H12.3636ZM4.4 6.05674L1.83636 3.55086L2.85455 2.56263L5.43636 5.05086L4.4 6.05674ZM0 9.25086V7.8391H3.63636V9.25086H0Z" fill="#842525"/>
</svg>
