<svg width="16" height="16" viewBox="0 0 16 16" fill="none" xmlns="http://www.w3.org/2000/svg">
<g id="mdi:car-connected" clip-path="url(#clip0_26_28772)">
<path id="Vector" d="M3.33333 9.33333H12.6667L11.6667 6.33333H4.33333L3.33333 9.33333ZM11.6667 12.6667C11.9319 12.6667 12.1862 12.5613 12.3738 12.3738C12.5613 12.1862 12.6667 11.9319 12.6667 11.6667C12.6667 11.4015 12.5613 11.1471 12.3738 10.9596C12.1862 10.772 11.9319 10.6667 11.6667 10.6667C11.4015 10.6667 11.1471 10.772 10.9596 10.9596C10.772 11.1471 10.6667 11.4015 10.6667 11.6667C10.6667 11.9319 10.772 12.1862 10.9596 12.3738C11.1471 12.5613 11.4015 12.6667 11.6667 12.6667ZM4.33333 12.6667C4.59855 12.6667 4.8529 12.5613 5.04044 12.3738C5.22798 12.1862 5.33333 11.9319 5.33333 11.6667C5.33333 11.4015 5.22798 11.1471 5.04044 10.9596C4.8529 10.772 4.59855 10.6667 4.33333 10.6667C4.06812 10.6667 3.81376 10.772 3.62623 10.9596C3.43869 11.1471 3.33333 11.4015 3.33333 11.6667C3.33333 11.9319 3.43869 12.1862 3.62623 12.3738C3.81376 12.5613 4.06812 12.6667 4.33333 12.6667ZM12.6133 6L14 10V15.3333C14 15.5101 13.9298 15.6797 13.8047 15.8047C13.6797 15.9298 13.5101 16 13.3333 16H12.6667C12.4899 16 12.3203 15.9298 12.1953 15.8047C12.0702 15.6797 12 15.5101 12 15.3333V14.6667H4V15.3333C4 15.5101 3.92976 15.6797 3.80474 15.8047C3.67971 15.9298 3.51014 16 3.33333 16H2.66667C2.48986 16 2.32029 15.9298 2.19526 15.8047C2.07024 15.6797 2 15.5101 2 15.3333V10L3.38667 6C3.52 5.61333 3.9 5.33333 4.33333 5.33333H11.6667C12.1 5.33333 12.48 5.61333 12.6133 6ZM8 0C9.41333 0 10.7667 0.573333 11.7667 1.56667L10.82 2.51333C10.0725 1.76339 9.05886 1.33925 8 1.33333C6.94667 1.33333 5.92667 1.76667 5.18 2.51333L4.24 1.56667C5.23669 0.567545 6.58875 0.00418707 8 0ZM8 2.66667C8.70667 2.66667 9.38 2.96 9.88 3.45333L8.93333 4.4C8.68667 4.15333 8.35333 4 8 4C7.66667 4 7.31333 4.15333 7.06667 4.4L6.12 3.45333C6.62 2.96 7.29333 2.66667 8 2.66667Z" fill="#333333"/>
</g>
<defs>
<clipPath id="clip0_26_28772">
<rect width="16" height="16" fill="white"/>
</clipPath>
</defs>
</svg>
