<svg width="17" height="17" viewBox="0 0 17 17" fill="none" xmlns="http://www.w3.org/2000/svg">
<g clip-path="url(#clip0_2268_37917)">
<path d="M8.50527 0.440918L8.23296 0.567111L0.92702 3.88799L0.535156 4.05404V16.4476H16.4754V4.05404L16.0835 3.88799L8.77758 0.567111L8.50527 0.440918ZM8.50527 1.89546L15.147 4.90418V15.1192H1.86351V4.90418L8.50527 1.89546ZM6.43304 5.11008V6.33216H6.7452C6.35998 6.5779 6.00797 6.90999 5.74894 7.28857V7.1026H4.42059V8.35125H5.29066C5.23088 8.60364 5.18439 8.86267 5.18439 9.14162C5.18439 9.42058 5.22424 9.67296 5.29066 9.93199H4.42059V11.1806H5.74894V10.9947C6.00797 11.3733 6.35998 11.7053 6.7452 11.9511H6.43304V13.1732H7.76139V12.3828C8.00049 12.4426 8.24624 12.4625 8.50527 12.4625C8.7643 12.4625 9.01004 12.4359 9.24915 12.3828V13.1732H10.5775V11.9511H10.2653C10.6506 11.7053 11.0026 11.3733 11.2616 10.9947V11.1806H12.59V9.93199H11.7199C11.7797 9.67961 11.8261 9.42058 11.8261 9.14162C11.8261 8.86267 11.7863 8.61028 11.7199 8.35125H12.59V7.1026H11.2616V7.28857C11.0026 6.90999 10.6506 6.5779 10.2653 6.33216H10.5775V5.11008H9.24915V5.90044C9.01004 5.84067 8.7643 5.82074 8.50527 5.82074C8.24624 5.82074 8.00049 5.84731 7.76139 5.90044V5.11008H6.43304ZM8.50527 7.14245C9.60116 7.14245 10.4978 8.03909 10.4978 9.13498C10.4978 10.2309 9.60116 11.1275 8.50527 11.1275C7.40938 11.1275 6.51274 10.2309 6.51274 9.13498C6.51274 8.03909 7.40938 7.14245 8.50527 7.14245Z" fill="white"/>
</g>
<defs>
<clipPath id="clip0_2268_37917">
<rect width="15.9402" height="16" fill="white" transform="translate(0.535156 0.440918)"/>
</clipPath>
</defs>
</svg>
