<svg width="49" height="48" viewBox="0 0 49 48" fill="none" xmlns="http://www.w3.org/2000/svg">
<g clip-path="url(#clip0_7144_2354)">
<path fill-rule="evenodd" clip-rule="evenodd" d="M22.9792 0.0450515L21.8212 0.165051C16.2022 0.726051 10.5412 3.62405 6.71319 7.90205C2.48019 12.633 0.329186 18.504 0.527186 24.759C0.872186 35.562 8.29719 44.709 18.8302 47.313C21.9314 48.0619 25.1503 48.1876 28.3005 47.683C31.4506 47.1783 34.4692 46.0532 37.1812 44.373C42.5145 41.05 46.3319 35.7678 47.8132 29.661C48.3292 27.558 48.4492 26.487 48.4492 24C48.4492 21.513 48.3292 20.442 47.8132 18.339C45.4372 8.63405 37.4452 1.49405 27.5002 0.192051C26.6482 0.0810515 23.5492 -0.0179485 22.9792 0.0450515ZM27.0592 4.68905C29.1311 4.95467 31.145 5.55977 33.0202 6.48005C35.1142 7.50005 36.5602 8.53805 38.2612 10.239C39.8217 11.7436 41.0955 13.5195 42.0202 15.48C43.3552 18.225 43.9582 20.874 43.9582 24C43.9992 26.9845 43.32 29.9349 41.9782 32.601C41.4622 33.654 40.4212 35.343 39.9352 35.916L39.7702 36.111L26.0812 22.419L12.3892 8.73005L12.5842 8.56505C13.1572 8.07905 14.8462 7.03805 15.8992 6.52205C19.3528 4.81084 23.2396 4.17245 27.0592 4.68905ZM22.9402 25.602L36.6202 39.285L36.4192 39.444C35.3729 40.2167 34.2629 40.8992 33.1012 41.484C31.2214 42.4039 29.2106 43.0273 27.1402 43.332C25.8682 43.527 23.1322 43.527 21.8602 43.332C16.0162 42.444 11.0842 39.255 7.97919 34.353C7.21545 33.0868 6.57837 31.7483 6.07719 30.357C4.90174 26.8936 4.70553 23.1729 5.51019 19.605C6.1276 17.0252 7.24465 14.5913 8.79819 12.441C9.00819 12.156 9.19719 11.922 9.22119 11.922C9.24219 11.922 15.4162 18.078 22.9402 25.602Z" fill="#292929"/>
</g>
<defs>
<clipPath id="clip0_7144_2354">
<rect width="48" height="48" fill="white" transform="translate(0.5)"/>
</clipPath>
</defs>
</svg>
