<svg width="20" height="20" viewBox="0 0 15 12" fill="none" xmlns="http://www.w3.org/2000/svg">
<path d="M3.76758 0.443359C3.87695 0.322266 4.00781 0.263672 4.16016 0.267578C4.3125 0.267578 4.44336 0.326172 4.55273 0.443359L7.50586 3.46094C7.61523 3.57422 7.66992 3.70312 7.66992 3.84766C7.66992 4.00391 7.62109 4.13086 7.52344 4.22852C7.42969 4.32227 7.30664 4.36914 7.1543 4.36914C7.00977 4.36914 6.88867 4.31836 6.79102 4.2168L5.56641 2.95703L4.62891 1.86719L4.68164 3.2207V10.75C4.68164 10.9023 4.63281 11.0273 4.53516 11.125C4.4375 11.2266 4.3125 11.2773 4.16016 11.2773C4.00391 11.2773 3.87695 11.2266 3.7793 11.125C3.68164 11.0273 3.63281 10.9023 3.63281 10.75V3.2207L3.69141 1.86719L2.74805 2.95703L1.5293 4.2168C1.42773 4.31836 1.30469 4.36914 1.16016 4.36914C1.00781 4.36914 0.882812 4.32227 0.785156 4.22852C0.691406 4.13086 0.644531 4.00391 0.644531 3.84766C0.644531 3.70312 0.699219 3.57422 0.808594 3.46094L3.76758 0.443359ZM11.2383 11.1074C11.125 11.2246 10.9922 11.2812 10.8398 11.2773C10.6914 11.2773 10.5625 11.2207 10.4531 11.1074L7.5 8.07812C7.38672 7.96875 7.33008 7.83984 7.33008 7.69141C7.33008 7.53516 7.37891 7.41016 7.47656 7.31641C7.57422 7.22266 7.69922 7.17578 7.85156 7.17578C7.99219 7.17578 8.11328 7.22461 8.21484 7.32227L9.43359 8.58203L10.377 9.67773L10.3184 8.32422V0.794922C10.3184 0.642578 10.3672 0.517578 10.4648 0.419922C10.5664 0.318359 10.6934 0.267578 10.8457 0.267578C10.998 0.267578 11.123 0.318359 11.2207 0.419922C11.3184 0.517578 11.3672 0.642578 11.3672 0.794922V8.32422L11.3145 9.67773L12.2578 8.58203L13.4766 7.32227C13.5742 7.22461 13.6953 7.17578 13.8398 7.17578C13.9922 7.17578 14.1152 7.22266 14.209 7.31641C14.3066 7.41016 14.3555 7.53516 14.3555 7.69141C14.3555 7.83984 14.3008 7.96875 14.1914 8.07812L11.2383 11.1074Z" fill="currentColor"/>
</svg>
