<svg width="16" height="17" viewBox="0 0 16 17" fill="none" xmlns="http://www.w3.org/2000/svg">
<g clip-path="url(#clip0_331_5392)">
<path d="M9.46516 6.53473H6.53442V7.33566H9.46516V6.53473Z" fill="#1A1919"/>
<path d="M8.44419 0.543344L8.00065 0.130005L7.55712 0.543344H7.5545L0 7.55005L0.889688 8.69423L1.79639 8.04347V16.13H3.82304V15.0044H2.76719V6.77057L8.00196 2.10086L13.2341 6.77057V15.0044H5.91643L5.90073 10.4677C6.17418 10.1216 7.01676 9.20911 8.23223 9.32353C9.22528 9.41649 9.85592 10.1259 10.0993 10.4563L10.0836 13.434V13.2867C9.90956 13.4769 9.73424 13.6686 9.56023 13.8588H11.1276L11.1486 10.0901L11.0544 9.94139C10.8176 9.56667 9.92003 8.33238 8.32251 8.18221C6.22913 7.98627 4.99926 9.85843 4.94824 9.93853L4.85273 10.0873L4.86319 13.0736L4.86974 14.8128V15.003V16.1286H14.2494V8.04205L15.1103 8.6928L16 7.54862L8.4455 0.541912L8.44419 0.543344Z" fill="#1A1919"/>
</g>
<defs>
<clipPath id="clip0_331_5392">
<rect width="16" height="16" fill="white" transform="translate(0 0.130005)"/>
</clipPath>
</defs>
</svg>
