<svg width="24" height="24" viewBox="0 0 24 24" fill="none" xmlns="http://www.w3.org/2000/svg">
<g clip-path="url(#clip0_125_29918)">
<path d="M24 12.6059L23.3802 11.8247L20.5212 14.093L16.7703 11.9274V7.61158L19.8046 5.20427L19.1848 4.42309L16.2293 6.76797L12.4119 4.56397V1.51276H11.4146V4.74872L7.91902 6.76691L4.96475 4.42309L4.34498 5.20427L7.37612 7.60906V11.835L3.01757 14.3515V19.2643L0 21.6583L0.619762 22.4395L3.57337 20.0962L7.71465 22.4872L11.9932 20.0169L16.2717 22.4872L20.9689 19.7753V15.0108L24 12.6059ZM8.37331 7.65613L12.0732 5.52L15.773 7.65613V11.9274L12.0724 14.064L8.37331 11.9284V7.65613ZM11.4145 19.1995L7.71465 21.3357L4.01483 19.1995V14.9273L7.71465 12.7911L11.4145 14.9273V19.1995ZM19.9716 19.1995L16.2717 21.3357L12.5719 19.1995V14.9282L16.2726 12.7916L19.9717 14.9273L19.9716 19.1995Z" fill="black"/>
</g>
<defs>
<clipPath id="clip0_125_29918">
<rect width="24" height="24" fill="white"/>
</clipPath>
</defs>
</svg>
