<svg width="24" height="24" viewBox="0 0 24 24" fill="none" xmlns="http://www.w3.org/2000/svg">
    <path d="M12.1609 12.6002L18.7234 6.03767L17.421 4.73525C15.5896 2.90384 13.1056 1.87498 10.5156 1.875C7.92558 1.87502 5.44165 2.90391 3.61025 4.73534C1.77884 6.56677 0.749982 9.05071 0.75 11.6407C0.750018 14.2307 1.77891 16.7147 3.61034 18.5461L4.91258 19.8485L11.1001 13.661L18.8144 21.3752H20.9358L12.1609 12.6002ZM10.5157 3.37517C11.6016 3.37221 12.6773 3.58465 13.6805 4.0002C14.6837 4.41575 15.5946 5.02615 16.3603 5.79608L16.6021 6.03786L13.9275 8.71245C13.0201 7.78613 12.0339 6.94039 10.98 6.18477C9.79803 5.34861 8.66258 4.76309 7.60531 4.44425C7.34218 4.36442 7.07468 4.2998 6.80412 4.2507C7.95571 3.67231 9.22702 3.37242 10.5157 3.37517ZM4.91258 17.7272L4.6708 17.4854C3.44324 16.2561 2.63348 14.6717 2.35617 12.9567C2.07886 11.2416 2.34804 9.48281 3.12561 7.92922C3.17473 8.19977 3.23935 8.46727 3.31916 8.73041C3.63791 9.78772 4.22384 10.9231 5.05967 12.1051C5.81529 13.159 6.66104 14.1451 7.58736 15.0526L4.91258 17.7272ZM8.64852 13.9912C8.09272 13.4459 7.13769 12.4454 6.28423 11.2388C5.21211 9.72308 4.10033 7.58727 4.70206 5.82711C6.45617 5.22744 8.58331 6.33036 10.0929 7.39447C11.3053 8.24914 12.3162 9.21392 12.866 9.7738L8.64852 13.9912Z" fill="#333333"/>
    </svg>
    