<svg width="18" height="21" viewBox="0 0 18 21" fill="none" xmlns="http://www.w3.org/2000/svg">
<path d="M13.1197 3.35796H4.55003V4.78653H13.1197V3.35796Z" />
<path d="M5.96431 9.07206C5.96431 10.6471 7.24645 11.9292 8.82145 11.9292C10.3965 11.9292 11.6786 10.6471 11.6786 9.07206C11.6786 7.49706 10.3965 6.21492 8.82145 6.21492C7.24645 6.21492 5.96431 7.49706 5.96431 9.07206ZM10.2804 9.07206C10.2804 9.87564 9.62681 10.531 8.82145 10.531C8.0161 10.531 7.36252 9.87742 7.36252 9.07206C7.36252 8.26671 8.0161 7.61315 8.82145 7.61315C9.62681 7.61315 10.2804 8.26671 10.2804 9.07206Z" />
<path d="M4.87675 17.6437C5.42853 15.9937 6.98746 14.8008 8.82139 14.8008C10.6553 14.8008 12.2142 15.9937 12.766 17.6437H14.3517C13.7553 15.1419 11.5035 13.2758 8.82139 13.2758C6.13925 13.2758 3.88746 15.1419 3.29103 17.6437H4.87675Z" />
<path d="M15.6411 0.5H2.00179C1.03393 0.5 0.25 1.28394 0.25 2.2518V20.5H14.5357V19.0714H1.67857V2.2518C1.67857 2.07322 1.82321 1.92857 2.00179 1.92857H15.6393C15.8179 1.92857 15.9625 2.07322 15.9625 2.2518V19.7857C15.725 20.0232 15.4857 20.2625 15.2482 20.5H17.3911V2.2518C17.3911 1.28394 16.6071 0.5 15.6393 0.5H15.6411Z" />
</svg>
