<svg width="16" height="17" viewBox="0 0 16 17" fill="none" xmlns="http://www.w3.org/2000/svg">
<path d="M2.90909 14.5204V13.1086H4.07273L5.50909 8.46741C5.60606 8.16153 5.78497 7.91753 6.04582 7.73541C6.30667 7.5533 6.59442 7.462 6.90909 7.46153H9.09091C9.40606 7.46153 9.69406 7.55283 9.95491 7.73541C10.2158 7.918 10.3944 8.162 10.4909 8.46741L11.9273 13.1086H13.0909V14.5204H2.90909ZM5.6 13.1086H10.4L9.09091 8.8733H6.90909L5.6 13.1086ZM7.27273 6.04977V2.52036H8.72727V6.04977H7.27273ZM11.6 7.79683L10.5636 6.79094L13.1455 4.30271L14.1636 5.29094L11.6 7.79683ZM12.3636 10.9909V9.57918H16V10.9909H12.3636ZM4.4 7.79683L1.83636 5.29094L2.85455 4.30271L5.43636 6.79094L4.4 7.79683ZM0 10.9909V9.57918H3.63636V10.9909H0Z" fill="#842525"/>
</svg>
