<svg width="12" height="14" viewBox="0 0 12 14" fill="none" xmlns="http://www.w3.org/2000/svg">
<path d="M2.33346 3.66667C3.06984 3.66667 3.66679 3.06971 3.66679 2.33333C3.66679 1.59695 3.06984 1 2.33346 1C1.59708 1 1.00012 1.59695 1.00012 2.33333C1.00012 3.06971 1.59708 3.66667 2.33346 3.66667Z" stroke="#1A1919" stroke-linecap="round" stroke-linejoin="round"/>
<path d="M8.33346 3.66667C9.06984 3.66667 9.66679 3.06971 9.66679 2.33333C9.66679 1.59695 9.06984 1 8.33346 1C7.59708 1 7.00012 1.59695 7.00012 2.33333C7.00012 3.06971 7.59708 3.66667 8.33346 3.66667Z" stroke="#1A1919" stroke-linecap="round" stroke-linejoin="round"/>
<path d="M0.666748 5.66675H4.00008L3.33341 13.0001H1.33341L0.666748 5.66675ZM6.66675 5.66675H10.0001L10.6667 9.33341H9.66675L9.33341 13.0001H7.33341L7.00008 9.33341H6.00008L6.66675 5.66675Z" stroke="#1A1919" stroke-linecap="round" stroke-linejoin="round"/>
</svg>
