<svg width="12" height="12" viewBox="0 0 12 12" fill="none" xmlns="http://www.w3.org/2000/svg">
<g clip-path="url(#clip0_2268_41967)">
<path d="M4.41388 0.0947952C4.32546 0.00637418 4.19915 -0.018889 4.08546 0.0190058C0.870725 1.1748 -0.790328 4.71164 0.365462 7.92006C1.52125 11.1285 5.05809 12.7895 8.26651 11.6337C9.99704 11.0085 11.3549 9.65058 11.9802 7.92006C12.037 7.75585 11.9549 7.57269 11.7907 7.51585C11.7213 7.49058 11.6455 7.49058 11.576 7.51585C8.70862 8.56427 5.53178 7.08637 4.48336 4.21269C4.03494 2.98743 4.03494 1.64216 4.48336 0.423216C4.52757 0.309532 4.49599 0.1769 4.40757 0.0947952H4.41388ZM9.69388 8.48216C10.1739 8.48216 10.6602 8.42532 11.1276 8.31164C9.75704 11.0464 6.42862 12.1516 3.68757 10.7811C0.946514 9.41058 -0.152433 6.07585 1.21809 3.34111C1.75494 2.27374 2.6202 1.40848 3.68757 0.871637C3.57388 1.33901 3.51704 1.82532 3.51704 2.30532C3.51704 5.71585 6.28336 8.47585 9.69388 8.48216Z" fill="#292929"/>
</g>
<defs>
<clipPath id="clip0_2268_41967">
<rect width="12" height="12" fill="white"/>
</clipPath>
</defs>
</svg>
