<svg width="24" height="24" viewBox="0 0 24 24" fill="none" xmlns="http://www.w3.org/2000/svg">
    <path d="M21.5183 6.95716C21.4302 6.87435 21.3234 6.81406 21.2071 6.78141C21.0907 6.74876 20.9681 6.74473 20.8498 6.76966C20.7042 6.24613 20.4566 5.75654 20.1211 5.32901C19.7857 4.90148 19.3691 4.54444 18.8953 4.27839C18.4215 4.01234 17.8998 3.84253 17.3601 3.77871C16.8205 3.7149 16.2736 3.75834 15.7508 3.90653C15.4217 3.18847 14.8934 2.57998 14.2287 2.15338C13.5639 1.72678 12.7906 1.5 12.0008 1.5C11.2109 1.5 10.4376 1.72678 9.77288 2.15338C9.10813 2.57998 8.57983 3.18847 8.25077 3.90653C7.72809 3.75815 7.18124 3.71448 6.64164 3.77804C6.10203 3.84161 5.5803 4.01115 5.10641 4.27693C4.63251 4.54271 4.2158 4.89949 3.88019 5.32679C3.54458 5.75409 3.2967 6.24347 3.15077 6.76685C3.02756 6.74156 2.89998 6.74767 2.77975 6.7846C2.65952 6.82154 2.55052 6.88812 2.46276 6.97821C2.375 7.0683 2.3113 7.17902 2.27754 7.30018C2.24377 7.42133 2.24101 7.54903 2.26952 7.67153L5.13452 19.844C5.21207 20.1731 5.39854 20.4664 5.66367 20.6762C5.92879 20.886 6.25703 21.0001 6.59514 21H17.4064C17.7445 21.0001 18.0727 20.886 18.3379 20.6762C18.603 20.4664 18.7895 20.1731 18.867 19.844L21.7311 7.67153C21.761 7.54424 21.757 7.41135 21.7197 7.28604C21.6824 7.16073 21.6129 7.04735 21.5183 6.95716ZM7.12577 5.24997C7.5544 5.24885 7.97665 5.35385 8.35483 5.5556C8.45692 5.60975 8.57015 5.63958 8.68567 5.64275C8.80119 5.64593 8.91588 5.62236 9.02079 5.5739C9.1257 5.52544 9.218 5.45339 9.29047 5.36337C9.36294 5.27336 9.41363 5.16781 9.43858 5.05497C9.5684 4.47224 9.89299 3.95118 10.3588 3.57773C10.8246 3.20429 11.4038 3.00078 12.0008 3.00078C12.5978 3.00078 13.177 3.20429 13.6428 3.57773C14.1086 3.95118 14.4331 4.47224 14.563 5.05497C14.5879 5.16781 14.6386 5.27336 14.7111 5.36337C14.7835 5.45339 14.8758 5.52544 14.9807 5.5739C15.0857 5.62236 15.2003 5.64593 15.3159 5.64275C15.4314 5.63958 15.5446 5.60975 15.6467 5.5556C15.9939 5.37145 16.3779 5.26759 16.7706 5.2517C17.1633 5.2358 17.5545 5.30827 17.9154 5.46375C18.2763 5.61924 18.5977 5.85378 18.8559 6.15006C19.114 6.44634 19.3024 6.7968 19.407 7.1756L15.792 8.20685L12.5586 6.9131C12.2011 6.77016 11.8023 6.77016 11.4448 6.9131L8.21046 8.20872L4.59452 7.1756C4.74758 6.62186 5.07808 6.13363 5.53531 5.78579C5.99255 5.43796 6.55127 5.24972 7.12577 5.24997ZM6.59514 19.5L4.02358 8.57247L7.57202 9.58591L8.89389 19.5H6.59514ZM13.5945 19.5H10.407L9.07108 9.47997L12.0008 8.3081L14.9305 9.47997L13.5945 19.5ZM17.4064 19.5H15.1076L16.4295 9.58591L19.978 8.57247L17.4064 19.5Z" fill="#333333"/>
    </svg>
    