<svg width="16" height="16" viewBox="0 0 16 16" fill="none" xmlns="http://www.w3.org/2000/svg">
<path d="M11.9508 3.69032L8.43077 0.18206C8.31586 0.0661831 8.15964 0.000698073 7.99646 5.54874e-06C7.83328 -0.000686975 7.67651 0.0634697 7.56062 0.178367L7.55692 0.18206L4.04923 3.69032H0.615385C0.452174 3.69032 0.295649 3.75516 0.180242 3.87059C0.064835 3.98602 0 4.14257 0 4.3058V15.3845C0 15.5478 0.064835 15.7043 0.180242 15.8197C0.295649 15.9352 0.452174 16 0.615385 16H15.3846C15.5478 16 15.7044 15.9352 15.8198 15.8197C15.9352 15.7043 16 15.5478 16 15.3845V4.3058C16 4.14257 15.9352 3.98602 15.8198 3.87059C15.7044 3.75516 15.5478 3.69032 15.3846 3.69032H11.9508ZM8 1.48689L10.2031 3.69032H5.79692L8 1.48689ZM14.7692 14.769H1.23077V4.92129H14.7692V14.769ZM4.92308 8.61419C4.59666 8.61419 4.28361 8.4845 4.05279 8.25365C3.82198 8.0228 3.69231 7.7097 3.69231 7.38322C3.69231 7.05675 3.82198 6.74365 4.05279 6.5128C4.28361 6.28195 4.59666 6.15226 4.92308 6.15226C5.2495 6.15226 5.56255 6.28195 5.79336 6.5128C6.02418 6.74365 6.15385 7.05675 6.15385 7.38322C6.15385 7.7097 6.02418 8.0228 5.79336 8.25365C5.56255 8.4845 5.2495 8.61419 4.92308 8.61419ZM13.5385 13.5381H4.30769L6.15385 9.84516L7.69231 12.9226L10.4615 7.38322L13.5385 13.5381Z" fill="#1A1919"/>
</svg>
