<svg width="17" height="17" viewBox="0 0 17 17" fill="none" xmlns="http://www.w3.org/2000/svg">
    <g clip-path="url(#clip0_2268_37947)">
        <path d="M9.88392 6.96387H6.98926V7.75494H9.88392V6.96387Z" fill="black" />
        <path
            d="M8.87541 1.04644L8.43733 0.638184L7.99926 1.04644H7.99667L0.535156 7.9669L1.41389 9.097L2.30943 8.45425V16.4412H4.31114V15.3295H3.26829V7.19701L8.43863 2.58478L13.6064 7.19701V15.3295H6.37876L6.36325 10.8487C6.63334 10.5068 7.46555 9.60554 8.66606 9.71855C9.64689 9.81037 10.2698 10.511 10.5101 10.8374L10.4946 13.7784V13.6329C10.3227 13.8208 10.1496 14.0101 9.97771 14.198H11.5258L11.5465 10.4757L11.4535 10.3288C11.2196 9.9587 10.3331 8.7396 8.75523 8.59127C6.68761 8.39775 5.47289 10.2469 5.42249 10.326L5.32815 10.4729L5.33849 13.4225L5.34495 15.1402V15.3281V16.4398H14.6092V8.45284L15.4595 9.09558L16.3382 7.96548L8.8767 1.04502L8.87541 1.04644Z"
            fill="#FDFDFD" />
    </g>
    <defs>
        <clipPath id="clip0_2268_37947">
            <rect width="15.8031" height="15.8031" fill="white"
                transform="translate(0.535156 0.638184)" />
        </clipPath>
    </defs>
</svg>
    