<svg width="13" height="12" viewBox="0 0 13 12" fill="none" xmlns="http://www.w3.org/2000/svg">
<g id="mdi:attachment-vertical">
<path id="Vector" d="M9 3V8.75C9 9.28043 8.78929 9.78914 8.41421 10.1642C8.03914 10.5393 7.53043 10.75 7 10.75C6.46957 10.75 5.96086 10.5393 5.58579 10.1642C5.21071 9.78914 5 9.28043 5 8.75V2.5C5 2.16848 5.1317 1.85054 5.36612 1.61612C5.60054 1.3817 5.91848 1.25 6.25 1.25C6.58152 1.25 6.89946 1.3817 7.13388 1.61612C7.3683 1.85054 7.5 2.16848 7.5 2.5V7.75C7.5 7.88261 7.44732 8.00979 7.35355 8.10355C7.25979 8.19732 7.13261 8.25 7 8.25C6.86739 8.25 6.74021 8.19732 6.64645 8.10355C6.55268 8.00979 6.5 7.88261 6.5 7.75V3H5.75V7.75C5.75 8.08152 5.8817 8.39946 6.11612 8.63388C6.35054 8.8683 6.66848 9 7 9C7.33152 9 7.64946 8.8683 7.88388 8.63388C8.1183 8.39946 8.25 8.08152 8.25 7.75V2.5C8.25 1.96957 8.03929 1.46086 7.66421 1.08579C7.28914 0.710714 6.78043 0.5 6.25 0.5C5.71957 0.5 5.21086 0.710714 4.83579 1.08579C4.46071 1.46086 4.25 1.96957 4.25 2.5V8.75C4.25 9.47935 4.53973 10.1788 5.05546 10.6945C5.57118 11.2103 6.27065 11.5 7 11.5C7.72935 11.5 8.42882 11.2103 8.94454 10.6945C9.46027 10.1788 9.75 9.47935 9.75 8.75V3H9Z" fill="#014541"/>
</g>
</svg>
