<svg width="17" height="17" viewBox="0 0 17 17" fill="none" xmlns="http://www.w3.org/2000/svg">
    <path d="M8.5367 2.44092L1.20337 8.04092L2.01004 9.10092L3.20337 8.18758V14.4409H13.87V8.18758L15.0634 9.09425L15.87 8.04092L8.5367 2.44092ZM12.5367 13.1076H4.5367V7.17425L8.5367 4.12092L12.5367 7.17425V13.1076ZM6.5367 9.77425C6.5367 10.1409 6.2367 10.4409 5.87004 10.4409C5.50337 10.4409 5.20337 10.1409 5.20337 9.77425C5.20337 9.40758 5.50337 9.10758 5.87004 9.10758C6.2367 9.10758 6.5367 9.40758 6.5367 9.77425ZM8.5367 9.10758C8.90337 9.10758 9.20337 9.40758 9.20337 9.77425C9.20337 10.1409 8.90337 10.4409 8.5367 10.4409C8.17004 10.4409 7.87004 10.1409 7.87004 9.77425C7.87004 9.40758 8.17004 9.10758 8.5367 9.10758ZM10.5367 9.77425C10.5367 9.40758 10.8367 9.10758 11.2034 9.10758C11.57 9.10758 11.87 9.40758 11.87 9.77425C11.87 10.1409 11.57 10.4409 11.2034 10.4409C10.8367 10.4409 10.5367 10.1409 10.5367 9.77425Z" fill="white"/>
    </svg>
    