<svg width="24" height="24" viewBox="0 0 24 24" fill="none"
  xmlns="http://www.w3.org/2000/svg">
  <path d="M12.0031 7.04338C9.27409 7.04338 7.05252 9.26591 7.05252 11.9961C7.05252 14.7263 9.27409 16.9488 12.0031 16.9488C14.7321 16.9488 16.9537 14.7263 16.9537 11.9961C16.9537 9.26591 14.7321 7.04338 12.0031 7.04338ZM12.0031 15.2979C10.1838 15.2979 8.70271 13.8162 8.70271 11.9961C8.70271 10.176 10.1838 8.69429 12.0031 8.69429C13.8224 8.69429 15.3035 10.176 15.3035 11.9961C15.3035 13.8162 13.8224 15.2979 12.0031 15.2979Z"/>
  <path d="M21.2545 10.4234C21.1617 9.84557 21.0049 9.27395 20.8007 8.71883L22.4653 6.12073L20.4624 4.11694L19.0288 5.02906L20.1159 6.1166L19.3526 7.31143L18.738 8.26896L19.134 9.33792C19.299 9.78573 19.4207 10.25 19.5012 10.7206L19.6889 11.8432L20.7037 12.3673L21.962 13.0194L21.141 16.086L19.726 16.022L18.5894 15.9684L17.8633 16.8433C17.7128 17.0291 17.5498 17.2024 17.3786 17.3737C17.2074 17.545 17.0321 17.7059 16.8485 17.8586L15.9739 18.585L16.0275 19.7221L16.0915 21.1377L13.0283 21.9549L12.3765 20.6961L11.8546 19.6829L10.7324 19.4951C10.2642 19.4187 9.80215 19.297 9.35041 19.1278L8.28191 18.7316L7.3248 19.3465L6.13047 20.1101L3.88414 17.8628L4.65148 16.6721L5.26618 15.7145L4.87013 14.6456C4.70512 14.1978 4.58341 13.7334 4.50297 13.2629L4.31526 12.1403L3.30039 11.6162H3.2942L2.03593 10.9641L2.8569 7.89751L4.27606 7.96561L5.41264 8.01927L6.13872 7.14428C6.2893 6.95855 6.45226 6.78522 6.62346 6.61394C6.79467 6.44266 6.97001 6.28169 7.15359 6.12898L8.02819 5.40258L7.97456 4.26553L7.90649 2.84575L10.9717 2.02442L11.6236 3.28324L12.1475 4.29854L13.2696 4.48633C13.7379 4.56268 14.1999 4.68444 14.6517 4.85366L15.7202 5.24987L16.6773 4.63491L17.8716 3.87137C18.3522 3.57008 18.8328 3.26879 19.3135 2.9675L17.8943 1.54772L17.3126 0.961658C17.3126 1.26914 17.3105 1.57868 17.3085 1.88616L15.2664 3.19862C14.7115 2.99432 14.1401 2.84369 13.5625 2.74464L12.1454 0L5.8685 1.68186L6.01289 4.76905C5.79012 4.95478 5.57353 5.15288 5.36107 5.36337C5.15067 5.57386 4.95264 5.79055 4.767 6.01548L1.68113 5.87103L0 12.1506L2.74345 13.5684C2.83627 14.1462 2.99304 14.7178 3.19725 15.2729L1.53262 17.871L6.12634 22.4667L8.72953 20.8014C9.2844 21.0057 9.85578 21.1563 10.4333 21.2554L11.8505 24L18.1274 22.3181L17.983 19.231C18.2058 19.0452 18.4224 18.8471 18.6348 18.6366C18.8473 18.4261 19.0432 18.2095 19.2289 17.9845L22.3147 18.129L24 11.8473L21.2524 10.4275L21.2545 10.4234Z"/>
</svg>
