<svg width="13" height="17" viewBox="0 0 13 17" fill="none" xmlns="http://www.w3.org/2000/svg">
<g clip-path="url(#clip0_2316_1426)">
<path d="M8.86917 15.4336L8.53517 16.7676H4.53517L4.20117 15.4336H8.86917Z" fill="#7C7C7C"/>
<path d="M6.53516 0.767578C3.22116 0.767578 0.535156 3.45358 0.535156 6.76758C0.535156 8.42358 1.20716 9.92358 2.29316 11.0096C2.85516 11.5716 3.20116 12.3456 3.20116 13.2016V13.7676C3.20116 14.1356 3.49916 14.4336 3.86716 14.4336H9.20116C9.56916 14.4336 9.86716 14.1336 9.86716 13.7656V13.2016C9.86716 12.3456 10.2132 11.5696 10.7752 11.0096C11.8612 9.92358 12.5332 8.42358 12.5332 6.76758C12.5352 3.45358 9.84916 0.767578 6.53516 0.767578ZM9.83516 10.0656C9.02116 10.8776 8.56316 11.9516 8.53716 13.0996H7.03516H6.03516H4.53316C4.50716 11.9516 4.04916 10.8776 3.23516 10.0656C2.35316 9.18558 1.86916 8.01358 1.86916 6.76758C1.86916 4.19358 3.96316 2.10158 6.53516 2.10158C9.10716 2.10158 11.2012 4.19558 11.2012 6.76758C11.2012 8.01358 10.7152 9.18558 9.83316 10.0656H9.83516Z" fill="#7C7C7C"/>
</g>
<defs>
<clipPath id="clip0_2316_1426">
<rect width="12" height="16" fill="white" transform="translate(0.535156 0.767578)"/>
</clipPath>
</defs>
</svg>
