<svg width="19" height="19" viewBox="0 0 19 19" fill="none" xmlns="http://www.w3.org/2000/svg">
    <g clip-path="url(#clip0_87_36936)">
    <path fill-rule="evenodd" clip-rule="evenodd" d="M17.2488 17.5161C16.3739 18.3652 15.3682 18.721 13.9158 18.721C11.2931 18.721 8.08139 17.083 5.12741 14.129C2.15501 11.1566 0.53537 7.95409 0.53537 5.32219C0.53537 3.73015 0.967902 2.67187 2.00777 1.73323C2.09058 1.6688 2.16419 1.6044 2.24704 1.53074C2.8636 0.978615 3.47094 0.711738 4.05071 0.720965C4.71329 0.730153 5.32985 1.10744 5.89121 1.92649L7.75931 4.6044C8.32989 5.42341 8.39428 6.39888 7.62125 7.17187L6.92188 7.88047C6.71021 8.09214 6.69184 8.26698 6.82066 8.47865C7.17957 9.05839 7.87894 9.84983 8.59673 10.5584C9.27772 11.2394 10.2808 12.1136 10.7685 12.4265C10.9802 12.5553 11.1642 12.5461 11.3759 12.3345L12.0845 11.6259C12.7641 10.9544 13.5931 10.923 14.3463 11.313C14.4498 11.3666 14.5519 11.4281 14.652 11.4971L17.3299 13.3559C18.149 13.9265 18.5354 14.5431 18.5354 15.2057C18.5354 15.234 18.5348 15.2625 18.5335 15.291L16.8352 17.2207L17.2488 17.5161ZM6.18569 13.1719C8.56912 15.5462 11.5784 17.3498 13.925 17.3038C14.9373 17.2854 15.8115 16.9357 16.4465 16.2179C16.5017 16.1535 16.5385 16.1075 16.5845 16.0431C16.833 15.767 16.9618 15.4725 16.9618 15.2057C16.9618 14.9296 16.8514 14.6995 16.5753 14.5155L13.8974 12.7302C13.6778 12.5885 13.4418 12.545 13.2146 12.6626C13.1467 12.6978 13.0796 12.7473 13.0139 12.813L12.2041 13.6228C11.5692 14.2578 10.7869 14.2118 10.1703 13.7517C9.46179 13.2179 8.34827 12.224 7.63967 11.5155C6.9403 10.8161 6.02926 9.7854 5.50473 9.0768C5.04456 8.46024 4.98935 7.68725 5.63352 7.05223L6.44334 6.24242C6.72863 5.95716 6.71021 5.63508 6.51699 5.34979L4.7317 2.67187C4.55686 2.39581 4.31759 2.29458 4.04152 2.29458C3.78383 2.29458 3.48017 2.42341 3.21329 2.66268C3.1489 2.70866 3.09365 2.75468 3.03845 2.80992C2.31143 3.43567 1.96175 4.30992 1.94334 5.32219C1.89732 7.66884 3.78383 10.7792 6.18569 13.1719Z" fill="black"/>
    </g>
    <defs>
    <clipPath id="clip0_87_36936">
    <rect width="18" height="18" fill="white" transform="translate(0.53537 0.720734)"/>
    </clipPath>
    </defs>
    </svg>
    