<svg width="21" height="22" viewBox="0 0 21 22" fill="none" xmlns="http://www.w3.org/2000/svg">
<path d="M12.1155 1.00012H6V2.33588H11.49V6.33588H15.7756L15.7622 21.0001H17V5.668C17 2.88034 15.0369 1.00012 12.1089 1.00012H12.1155ZM12.7145 5.00012V2.37217C14.611 2.5827 15.4894 3.78052 15.7157 5.00012H12.7145Z" fill="black"/>
<path d="M14 9.00012H6V10.0001H14V9.00012Z" fill="black"/>
<path d="M14 12.0001H6V13.0001H14V12.0001Z" fill="black"/>
<path d="M14 15.0001H6V16.0001H14V15.0001Z" fill="black"/>
<path d="M14 19.1344L12.7637 19.6644H4.22296V3.66437V2.33588V1.00012H3V21.0001H14V19.1344Z" fill="black"/>
</svg>
