<svg width="16" height="16" viewBox="0 0 16 16" fill="none" xmlns="http://www.w3.org/2000/svg">
<g id="material-symbols-light:traffic-jam-sharp">
<path id="Vector" d="M2.1535 14H1.3335V8.66667L2.82483 5.11534H9.38483L10.8715 8.66867V14H10.0515V12.7307H2.15416L2.1535 14ZM2.30283 8.01334H9.89883L8.96416 5.78201H3.2415L2.30283 8.01334ZM3.70816 11.1153C3.91572 11.1153 4.09105 11.046 4.23416 10.9073C4.37727 10.7682 4.44883 10.5938 4.44883 10.384C4.44883 10.1742 4.37639 9.99578 4.2315 9.84867C4.08661 9.70156 3.91016 9.62823 3.70216 9.62867C3.49416 9.62912 3.31905 9.70245 3.17683 9.84867C3.03327 9.99534 2.9615 10.1738 2.9615 10.384C2.9615 10.5942 3.03416 10.7687 3.1795 10.9073C3.32483 11.046 3.50105 11.1153 3.70816 11.1153ZM8.50283 11.1153C8.71038 11.1153 8.88594 11.046 9.0295 10.9073C9.17261 10.7682 9.24416 10.5938 9.24416 10.384C9.24416 10.1742 9.1715 9.99578 9.02616 9.84867C8.88083 9.70156 8.70461 9.62823 8.4975 9.62867C8.29039 9.62912 8.11483 9.70245 7.97083 9.84867C7.82816 9.99534 7.75683 10.1738 7.75683 10.384C7.75683 10.5942 7.82927 10.7687 7.97416 10.9073C8.11905 11.046 8.29527 11.1153 8.50283 11.1153ZM12.0002 12.102V6.90801L10.7575 3.93601H4.4375L4.71816 3.26934H11.1948L12.6668 6.76934V12.1027L12.0002 12.102ZM13.8468 10.2053V5.01067L12.6168 2.09001H6.3475L6.62816 1.42334H13.0642L14.5128 4.88467V10.2047L13.8468 10.2053Z" fill="#333333"/>
</g>
</svg>
