<svg width="49" height="48" viewBox="0 0 49 48" fill="none" xmlns="http://www.w3.org/2000/svg">
<path d="M36.3523 11.071L25.7923 0.546179C25.4476 0.198549 24.9789 0.00209422 24.4894 1.66462e-05C23.9998 -0.00206093 23.5295 0.190409 23.1818 0.5351L23.1708 0.546179L12.6477 11.071H2.34615C1.85652 11.071 1.38695 11.2655 1.04073 11.6118C0.694505 11.958 0.5 12.4277 0.5 12.9174V46.1536C0.5 46.6433 0.694505 47.1129 1.04073 47.4592C1.38695 47.8055 1.85652 48 2.34615 48H46.6539C47.1435 48 47.6131 47.8055 47.9593 47.4592C48.3055 47.1129 48.5 46.6433 48.5 46.1536V12.9174C48.5 12.4277 48.3055 11.958 47.9593 11.6118C47.6131 11.2655 47.1435 11.071 46.6539 11.071H36.3523ZM24.5 4.46066L31.1092 11.071H17.8908L24.5 4.46066ZM44.8077 44.3071H4.19231V14.7639H44.8077V44.3071ZM15.2692 25.8426C14.29 25.8426 13.3508 25.4535 12.6584 24.7609C11.9659 24.0684 11.5769 23.1291 11.5769 22.1497C11.5769 21.1703 11.9659 20.2309 12.6584 19.5384C13.3508 18.8458 14.29 18.4568 15.2692 18.4568C16.2485 18.4568 17.1876 18.8458 17.8801 19.5384C18.5725 20.2309 18.9615 21.1703 18.9615 22.1497C18.9615 23.1291 18.5725 24.0684 17.8801 24.7609C17.1876 25.4535 16.2485 25.8426 15.2692 25.8426ZM41.1154 40.6142H13.4231L18.9615 29.5355L23.5769 38.7677L31.8846 22.1497L41.1154 40.6142Z" fill="#1A1919"/>
</svg>
