<svg width="16" height="18" viewBox="0 0 16 18" fill="none" xmlns="http://www.w3.org/2000/svg">
<g clip-path="url(#clip0_335_7662)">
<path d="M15.9643 6.6477C15.8767 6.36323 15.6526 6.15329 15.3798 6.1107L10.733 5.35922L9.22857 1.97295L8.62041 3.39071L9.98843 6.46969L14.4516 7.19228L11.2215 10.6911L11.9841 15.6199L8.0011 13.294L3.99443 15.6199L4.77934 10.6942L1.54923 7.19075L6.0096 6.46817C6.78477 4.70201 7.56133 2.93589 8.3365 1.16974C8.57587 1.05869 8.81385 0.947606 9.05322 0.835035L8.57587 0.625122C8.57587 0.625122 8.57587 0.623598 8.57587 0.622077L7.58221 0.190033C7.50288 0.352805 7.42355 0.514085 7.34423 0.676857L5.26504 5.3577L0.620978 6.10918C0.348207 6.15177 0.122753 6.36171 0.0364687 6.64618C-0.049816 6.93369 0.0197684 7.24856 0.215997 7.45849L3.58249 11.1095L2.7614 16.2619C2.7433 16.5601 2.85603 16.8643 3.08009 17.0407C3.30694 17.2157 3.60476 17.24 3.82325 17.097L7.99971 14.6722L12.1525 17.097C12.371 17.24 12.6953 17.2157 12.9193 17.0407C13.1462 16.8658 13.2589 16.5601 13.213 16.2619L12.4155 11.1095L15.7862 7.45849C15.9797 7.25008 16.0492 6.93521 15.9643 6.64618V6.6477Z" fill="#1A1919"/>
</g>
<defs>
<clipPath id="clip0_335_7662">
<rect width="16" height="17" fill="white" transform="translate(0 0.190033)"/>
</clipPath>
</defs>
</svg>
