<svg width="24" height="24" viewBox="0 0 24 24" fill="none" xmlns="http://www.w3.org/2000/svg">
    <path fill-rule="evenodd" clip-rule="evenodd" d="M6.59411 0.599609L14.1842 2.76048L12.2304 12.6579C12.2303 12.6584 12.2302 12.6589 12.2301 12.6594C12.1038 13.3121 11.8432 13.9313 11.4649 14.478C11.0864 15.025 10.5982 15.4874 10.0315 15.8358C9.46468 16.1841 8.83167 16.4108 8.17261 16.5015C7.76344 16.5578 7.34977 16.5609 6.94181 16.5115L5.50082 21.5644L7.32143 22.0835C7.71977 22.1971 7.95061 22.612 7.83703 23.0104C7.72345 23.4087 7.30846 23.6396 6.91012 23.526L4.41287 22.8139C4.39783 22.8106 4.38281 22.8068 4.3678 22.8025C4.35282 22.7983 4.33808 22.7936 4.32358 22.7885L1.82383 22.0757C1.4255 21.9621 1.19466 21.5471 1.30824 21.1488C1.42182 20.7505 1.83681 20.5196 2.23515 20.6332L4.05831 21.153L5.49914 16.1007C5.12554 15.9275 4.77484 15.7064 4.45614 15.4422C3.94392 15.0177 3.52555 14.4913 3.2276 13.8965C2.92964 13.3017 2.75861 12.6514 2.72536 11.987C2.69213 11.3231 2.79721 10.6595 3.03392 10.0383C3.0341 10.0378 3.03427 10.0373 3.03444 10.0369L6.59411 0.599609ZM6.7546 14.9566C6.71239 14.9352 6.66753 14.9175 6.62032 14.9041C6.57285 14.8905 6.52515 14.8819 6.47775 14.8778C6.08977 14.7488 5.72874 14.5487 5.4133 14.2873C5.06118 13.9955 4.77357 13.6336 4.56875 13.2247C4.36392 12.8158 4.24634 12.3688 4.22349 11.912C4.20063 11.4553 4.27298 10.9987 4.43596 10.5714L4.43694 10.5688L7.51058 2.42013L12.4451 3.82498L10.7583 12.3703L10.7577 12.3732C10.6709 12.8223 10.4917 13.2483 10.2315 13.6244C9.97123 14.0005 9.63564 14.3184 9.24602 14.5578C8.85639 14.7973 8.42123 14.9532 7.96816 15.0155C7.56307 15.0712 7.15158 15.0511 6.7546 14.9566Z" fill="#333333"/>
    <path fill-rule="evenodd" clip-rule="evenodd" d="M12.194 8.62774L5.18945 6.61345L5.604 5.17188L12.6086 7.18616L12.194 8.62774Z" fill="#333333"/>
    <path fill-rule="evenodd" clip-rule="evenodd" d="M17.4039 0.601562L19.0652 5.00146L19.1167 4.98666L19.2991 5.62089L20.9677 10.0401C21.3076 10.9411 21.3687 11.9236 21.1429 12.8597C20.9171 13.7958 20.4149 14.6424 19.7016 15.2893C19.3405 15.6167 18.9339 15.8853 18.4966 16.0881L19.9412 21.1539L22.4857 20.4284L22.897 21.8709L20.3526 22.5964L20.353 22.5977L18.9105 23.0091L18.9101 23.0077L16.3682 23.7325L15.9569 22.29L18.4987 21.5652L17.0539 16.4988C16.129 16.6106 15.1909 16.4509 14.3542 16.0382L13.6816 15.7064L14.3453 14.3612L15.0179 14.693C15.6116 14.9859 16.2796 15.0934 16.9352 15.0016C17.0413 14.9867 17.1463 14.9668 17.2498 14.9418L17.5134 14.8667C17.9486 14.7228 18.3511 14.489 18.6939 14.1781C19.1843 13.7334 19.5295 13.1515 19.6847 12.508C19.84 11.8645 19.798 11.1893 19.5644 10.57C19.5644 10.5699 19.5644 10.57 19.5644 10.57L18.1505 6.82533L15.2286 7.66567L14.814 6.2241L17.6189 5.41742L16.4871 2.41991L15.4406 2.71604L15.0322 1.27272L17.4039 0.601562Z" fill="#333333"/>
    </svg>
    