<svg width="17" height="17" viewBox="0 0 17 17" fill="none" xmlns="http://www.w3.org/2000/svg">
<g id="Group 6390">
<path id="Vector" d="M6.38114 6.27663C6.38114 5.73093 5.93915 5.28894 5.39345 5.28894C4.84775 5.28894 4.40576 5.73093 4.40576 6.27663C4.40576 6.82233 4.84775 7.26432 5.39345 7.26432C5.93915 7.26432 6.38114 6.82233 6.38114 6.27663Z" fill="#000"/>
<path id="Vector_2" d="M11.3197 5.28894C10.774 5.28894 10.332 5.73093 10.332 6.27663C10.332 6.82233 10.774 7.26432 11.3197 7.26432C11.8654 7.26432 12.3074 6.82233 12.3074 6.27663C12.3074 5.73093 11.8654 5.28894 11.3197 5.28894Z" fill="#000"/>
<path id="Vector_3" d="M8.3738 13.1666C11.2334 13.1666 13.5587 11.4212 13.5587 9.27795H12.0537C12.0537 10.8004 10.4019 12.0378 8.3738 12.0378C6.34574 12.0378 4.69207 10.799 4.69207 9.27795H3.18701C3.18701 11.4227 5.5142 13.1666 8.3738 13.1666Z" fill="#000"/>
<path id="Vector_4" d="M14.0006 0.773926H2.71266C1.46535 0.773926 0.455078 1.78419 0.455078 3.03151V14.3194C0.455078 15.5667 1.46535 16.577 2.71266 16.577H11.743V15.4482H2.71266C2.09041 15.4482 1.58387 14.9417 1.58387 14.3194V3.03151C1.58387 2.40926 2.09041 1.90272 2.71266 1.90272H14.0006C14.6228 1.90272 15.1294 2.40926 15.1294 3.03151V14.3194C15.1294 14.9417 14.6228 15.4482 14.0006 15.4482C13.3783 15.4482 13.5329 15.4482 12.8718 15.4482V16.577H14.0006C15.2479 16.577 16.2581 15.5667 16.2581 14.3194V3.03151C16.2581 1.78419 15.2479 0.773926 14.0006 0.773926Z" fill="#000"/>
</g>
</svg>
