<svg width="18" height="19" viewBox="0 0 18 19" fill="none" xmlns="http://www.w3.org/2000/svg">
<g clip-path="url(#clip0_331_5407)">
<path d="M9.00224 5.97256C6.95549 5.97256 5.28931 7.63946 5.28931 9.6871C5.28931 11.7347 6.95549 13.4016 9.00224 13.4016C11.049 13.4016 12.7152 11.7347 12.7152 9.6871C12.7152 7.63946 11.049 5.97256 9.00224 5.97256ZM9.00224 12.1634C7.63774 12.1634 6.52695 11.0522 6.52695 9.6871C6.52695 8.32201 7.63774 7.21074 9.00224 7.21074C10.3667 7.21074 11.4775 8.32201 11.4775 9.6871C11.4775 11.0522 10.3667 12.1634 9.00224 12.1634Z" fill="#1A1919"/>
<path d="M15.9409 8.50758C15.8713 8.07421 15.7537 7.64549 15.6005 7.22916L16.849 5.28058L15.3468 3.77774L14.2716 4.46183L15.0869 5.27748L14.5145 6.17361L14.0535 6.89175L14.3505 7.69347C14.4743 8.02933 14.5655 8.37757 14.6259 8.73045L14.7667 9.57241L15.5278 9.96553L16.4715 10.4546L15.8558 12.7545L14.7945 12.7065L13.9421 12.6663L13.3975 13.3225C13.2846 13.4618 13.1624 13.5918 13.034 13.7203C12.9055 13.8488 12.774 13.9695 12.6364 14.084L11.9804 14.6288L12.0206 15.4816L12.0686 16.5433L9.77121 17.1562L9.28234 16.2121L8.89093 15.4522L8.04934 15.3114C7.69815 15.2541 7.35161 15.1628 7.01281 15.0359L6.21143 14.7387L5.4936 15.1999L4.59785 15.7726L2.91311 14.0871L3.48861 13.1941L3.94964 12.4759L3.6526 11.6742C3.52884 11.3384 3.43756 10.9901 3.37722 10.6372L3.23644 9.79528L2.47529 9.40216H2.47065L1.52695 8.91308L2.14267 6.61317L3.20705 6.66424L4.05948 6.70449L4.60404 6.04824C4.71698 5.90895 4.83919 5.77895 4.9676 5.65049C5.096 5.52203 5.2275 5.4013 5.36519 5.28677L6.02114 4.74197L5.98092 3.88918L5.92987 2.82435L8.22879 2.20835L8.71766 3.15246L9.11062 3.91394L9.95222 4.05478C10.3034 4.11204 10.6499 4.20336 10.9887 4.33028L11.7901 4.62744L12.508 4.16622L13.4037 3.59356C13.7642 3.36759 14.1246 3.14162 14.4851 2.91566L13.4207 1.85082L12.9844 1.41128C12.9844 1.64189 12.9829 1.87404 12.9814 2.10465L11.4498 3.089C11.0336 2.93578 10.6051 2.8228 10.1719 2.74851L9.10907 0.690033L4.40138 1.95143L4.50967 4.26682C4.34259 4.40612 4.18015 4.55469 4.0208 4.71256C3.863 4.87043 3.71448 5.03294 3.57525 5.20164L1.26085 5.0933L0 9.80302L2.05759 10.8663C2.1272 11.2997 2.24478 11.7284 2.39794 12.1447L1.14946 14.0933L4.59476 17.5401L6.54714 16.2911C6.9633 16.4443 7.39184 16.5573 7.82501 16.6316L8.88784 18.69L13.5955 17.4286L13.4872 15.1132C13.6543 14.974 13.8168 14.8254 13.9761 14.6675C14.1355 14.5096 14.2824 14.3471 14.4217 14.1784L16.7361 14.2868L18 9.57551L15.9393 8.51067L15.9409 8.50758Z" fill="#1A1919"/>
</g>
<defs>
<clipPath id="clip0_331_5407">
<rect width="18" height="18" fill="white" transform="translate(0 0.690033)"/>
</clipPath>
</defs>
</svg>
