<svg width="21" height="20" viewBox="0 0 21 20" fill="none" xmlns="http://www.w3.org/2000/svg">
<path d="M18.0335 9.28333C18.1518 9.28333 18.2635 9.33083 18.3502 9.41917L19.4135 10.4825C19.4561 10.5244 19.4899 10.5743 19.513 10.6294C19.5361 10.6845 19.548 10.7436 19.548 10.8033C19.548 10.8631 19.5361 10.9222 19.513 10.9773C19.4899 11.0324 19.4561 11.0823 19.4135 11.1242L18.5802 11.9575L16.8752 10.2525L17.7085 9.41917C17.7954 9.33391 17.9118 9.28528 18.0335 9.28333ZM16.3852 10.7333L18.0902 12.4433L13.0518 17.5H11.3327V15.7808L16.3852 10.7333ZM10.4993 4.74L6.33268 8.49V15H9.66602V16.6667H4.66602V10H2.16602L10.4993 2.5L16.7152 8.09417L14.666 10.1433V8.49L10.4993 4.74Z" fill="#014541"/>
</svg>
