<svg width="16" height="16" viewBox="0 0 16 16" fill="none" xmlns="http://www.w3.org/2000/svg">
<g clip-path="url(#clip0_2268_41969)">
<path d="M3.80952 8C3.80952 10.3162 5.68381 12.1905 8 12.1905C10.3162 12.1905 12.1905 10.3162 12.1905 8C12.1905 5.68381 10.3162 3.80952 8 3.80952C5.68381 3.80952 3.80952 5.68381 3.80952 8ZM8 4.57143C9.89714 4.57143 11.4286 6.10286 11.4286 8C11.4286 9.89714 9.89714 11.4286 8 11.4286C6.10286 11.4286 4.57143 9.89714 4.57143 8C4.57143 6.11048 6.11048 4.57143 8 4.57143ZM8 2.28571C7.78667 2.28571 7.61905 2.1181 7.61905 1.90476V0.380952C7.61905 0.167619 7.78667 0 8 0C8.21333 0 8.38095 0.167619 8.38095 0.380952V1.90476C8.38095 2.1181 8.21333 2.28571 8 2.28571ZM8 13.7143C8.21333 13.7143 8.38095 13.8819 8.38095 14.0952V15.619C8.38095 15.8324 8.21333 16 8 16C7.78667 16 7.61905 15.8324 7.61905 15.619V14.0952C7.61905 13.8819 7.78667 13.7143 8 13.7143ZM13.6533 2.88L12.579 3.9619C12.4267 4.11429 12.1905 4.11429 12.0381 3.9619C11.8857 3.80952 11.8857 3.57333 12.0381 3.42095L13.1124 2.34667C13.2648 2.2019 13.5086 2.2019 13.6533 2.35429C13.7981 2.49905 13.7981 2.73524 13.6533 2.88ZM3.9619 12.0381C4.11429 12.1905 4.11429 12.4267 3.9619 12.579L2.88 13.661C2.73524 13.8133 2.49143 13.8133 2.33905 13.6686C2.18667 13.5238 2.18667 13.28 2.33143 13.1276C2.33143 13.1276 2.33143 13.1276 2.33905 13.12L3.41333 12.0381C3.5581 11.8857 3.8019 11.8857 3.95429 12.0381H3.9619ZM16 8C16 8.21333 15.8324 8.38095 15.619 8.38095H14.0952C13.8819 8.38095 13.7143 8.21333 13.7143 8C13.7143 7.78667 13.8819 7.61905 14.0952 7.61905H15.619C15.8324 7.61905 16 7.78667 16 8ZM2.28571 8C2.28571 8.21333 2.1181 8.38095 1.90476 8.38095H0.380952C0.167619 8.38095 0 8.21333 0 8C0 7.78667 0.167619 7.61905 0.380952 7.61905H1.90476C2.1181 7.61905 2.28571 7.78667 2.28571 8ZM12.579 12.0381L13.6533 13.12C13.7981 13.2724 13.7981 13.5162 13.6457 13.661C13.501 13.8057 13.2648 13.8057 13.12 13.661L12.0381 12.5867C11.8933 12.4343 11.8933 12.1905 12.0457 12.0457C12.1905 11.901 12.4267 11.901 12.5714 12.0457L12.579 12.0381ZM3.9619 3.42095C4.11429 3.57333 4.11429 3.80952 3.9619 3.9619C3.80952 4.11429 3.57333 4.11429 3.42095 3.9619L2.34667 2.88C2.19429 2.73524 2.19429 2.49143 2.33905 2.33905C2.48381 2.18667 2.72762 2.18667 2.88 2.33143C2.88 2.33143 2.88 2.33143 2.88762 2.33905L3.96952 3.41333L3.9619 3.42095Z" fill="#292929"/>
</g>
<defs>
<clipPath id="clip0_2268_41969">
<rect width="16" height="16" fill="white"/>
</clipPath>
</defs>
</svg>
