<svg width="49" height="49" viewBox="0 0 49 49" fill="none" xmlns="http://www.w3.org/2000/svg">
<g id="Camera" clip-path="url(#clip0_4146_19515)">
<path id="Vector" d="M44 11H37.1015L33.5 5H15.5L11.9 11H5C3.5 11 0.5 12.5 0.5 15.4535V39.5C0.5 41.9855 2.75 44 4.688 44H44.0945C46.064 44 48.5015 41.891 48.5015 39.548V15.5C48.5015 14 47 11 44 11ZM45.5 39.548C45.5 40.1405 44.5415 40.9685 44.0945 41.0015H4.697C4.349 40.973 3.5015 40.2965 3.5015 39.5015V15.455C3.5015 14.504 4.778 14.0255 5.0015 14.0015H13.5995L17.1995 8.0015H31.9025L34.58 12.5465L35.405 14.0015H44.0015C45.059 14.0015 45.4865 15.383 45.5015 15.5015V39.5495L45.5 39.548ZM24.5 15.5C18.701 15.5 14 20.201 14 26C14 31.799 18.701 36.5 24.5 36.5C30.299 36.5 35 31.799 35 26C35 20.201 30.299 15.5 24.5 15.5ZM24.5 33.5C20.3645 33.5 17 30.1355 17 26C17 21.8645 20.3645 18.5 24.5 18.5C28.6355 18.5 32 21.8645 32 26C32 30.1355 28.6355 33.5 24.5 33.5Z" fill="black"/>
</g>
<defs>
<clipPath id="clip0_4146_19515">
<rect width="48" height="48" fill="white" transform="translate(0.5 0.5)"/>
</clipPath>
</defs>
</svg>
