<svg width="21" height="21" viewBox="0 0 21 21" fill="none" xmlns="http://www.w3.org/2000/svg">
<g clip-path="url(#clip0_4660_6205)">
<path d="M11.284 0.522705C5.92713 0.522705 1.56807 4.91928 1.56807 10.3212C1.56807 11.139 1.67311 11.9418 1.86818 12.7221L3.13613 11.3266C3.09862 10.9964 3.06861 10.6588 3.06861 10.3212C3.06861 5.74457 6.75242 2.02324 11.284 2.02324C15.8157 2.02324 19.4995 5.74457 19.4995 10.3212C19.4995 15.5131 16.4309 18.6192 11.284 18.6192H2.2058L4.92927 15.6106L4.58415 15.1229C4.39658 14.8528 4.23152 14.5752 4.07397 14.2901L3.00859 15.4605C3.00859 15.4605 3.01609 15.4755 3.02359 15.483L0.240097 18.5441C-0.00749175 18.8217 -0.0675132 19.2194 0.0825404 19.557C0.232594 19.8946 0.570215 20.1122 0.937846 20.1122H11.284C17.2787 20.1122 21 16.3609 21 10.3137C21 4.91928 16.641 0.522705 11.284 0.522705Z" fill="black"/>
</g>
<defs>
<clipPath id="clip0_4660_6205">
<rect width="21" height="19.5895" fill="white" transform="translate(0 0.522705)"/>
</clipPath>
</defs>
</svg>
