<svg width="30" height="30" viewBox="0 0 30 30" fill="none" xmlns="http://www.w3.org/2000/svg">
<path d="M28.8171 1.12495C28.4128 0.742956 27.9015 0.528083 27.2951 0.456459C26.6886 0.384835 26.0346 0.516147 25.333 0.850392L2.18064 11.5462C1.65742 11.7969 1.24122 12.1192 0.967725 12.5251C0.682334 12.931 0.527746 13.3727 0.503964 13.8382C0.480181 14.3038 0.56342 14.7455 0.753681 15.1513C0.955833 15.5691 1.25311 15.9153 1.66931 16.1779C2.07361 16.4406 2.57305 16.5719 3.15572 16.5719L13.4417 16.6077V26.8857C13.4536 27.4707 13.5963 27.984 13.8698 28.3898C14.1433 28.7957 14.4881 29.1061 14.9043 29.2851C15.2254 29.4284 15.5702 29.5 15.927 29.5C16.0221 29.5 16.1291 29.5 16.2243 29.4881C16.688 29.4403 17.1399 29.2613 17.5442 28.9628C17.9485 28.6644 18.2815 28.2466 18.5431 27.7094L29.1739 4.57484C29.4949 3.8586 29.6139 3.20205 29.5425 2.61712C29.4712 2.00831 29.2214 1.50695 28.829 1.13689L28.8171 1.12495ZM16.5691 13.4204C16.2718 13.11 15.82 12.9549 15.2254 12.9549L7.53172 13.0026L24.9525 5.01652L16.9734 22.4928L17.021 14.7455C17.021 14.1605 16.8664 13.7188 16.5691 13.4085V13.4204Z" fill="white"/>
</svg>
