<svg width="25" height="25" viewBox="0 0 25 25" fill="none" xmlns="http://www.w3.org/2000/svg">
<path d="M2.30957 21.4564V19.4564L4.30957 19.4562V5.29095C4.30957 4.80766 4.65519 4.39353 5.13068 4.30708L14.6022 2.58498C14.9282 2.5257 15.2406 2.74194 15.2999 3.06797C15.3063 3.10338 15.3095 3.13931 15.3095 3.1753V4.4562L19.3095 4.45637C19.8618 4.45637 20.3095 4.90409 20.3095 5.45637V19.4562L22.3095 19.4564V21.4564H18.3095V6.45637L15.3095 6.4562V21.4564H2.30957ZM13.3095 4.8528L6.30957 6.12553V19.4564H13.3095V4.8528ZM12.3095 11.4564V13.4564H10.3096V11.4564H12.3095Z" fill="black"/>
</svg>
