<svg width="34" height="31" viewBox="0 0 34 31" fill="currentColor" stroke="currentColor" xmlns="http://www.w3.org/2000/svg">
<g clip-path="url(#clip0_903_19551)">
<path d="M8.71996 6.43C10.24 6.43 11.48 5.19 11.48 3.67V2.75C11.48 1.23 10.24 0 8.71996 0C7.19996 0 5.95996 1.23 5.95996 2.75V3.67C5.95996 5.19 7.19996 6.43 8.71996 6.43ZM7.79996 2.75C7.79996 2.24 8.20996 1.83 8.71996 1.83C9.22996 1.83 9.63996 2.24 9.63996 2.75V3.67C9.63996 4.18 9.22996 4.59 8.71996 4.59C8.20996 4.59 7.79996 4.18 7.79996 3.67V2.75Z" fill="currentColor"/>
<path d="M29.3798 4.58984H25.4398L7.88977 22.0398H6.17977L5.50977 12.0598C5.47977 11.5498 5.64977 11.0598 5.99977 10.6798C6.34977 10.2998 6.82977 10.0998 7.33977 10.0998H10.1098C10.6198 10.0998 11.0998 10.3098 11.4498 10.6798C11.7998 11.0598 11.9698 11.5398 11.9398 12.0598L11.6998 15.6598L13.6698 13.6998L13.7698 12.1798C13.8398 11.1698 13.4798 10.1698 12.7898 9.42984C12.0998 8.68984 11.1198 8.26984 10.1098 8.26984H7.33977C6.32977 8.26984 5.34977 8.68984 4.65977 9.42984C3.96977 10.1698 3.60977 11.1698 3.67977 12.1798L4.33977 22.0598C1.92977 22.1998 0.00976562 24.1798 0.00976562 26.6198V30.2898H2.57977L1.84977 28.4598V26.6198C1.84977 25.0998 3.08977 23.8598 4.60977 23.8598H8.65977L26.1998 6.42984H29.3898C30.9098 6.42984 32.1398 7.66984 32.1398 9.18984V10.9898L31.4298 12.7798H33.9798V9.19984C33.9798 6.66984 31.9198 4.60984 29.3898 4.60984L29.3798 4.58984Z" fill="currentColor"/>
</g>
<defs>
<clipPath id="clip0_903_19551">
<rect width="33.97" height="30.3" fill="white"/>
</clipPath>
</defs>
</svg>
