<svg width="22" height="24" viewBox="0 0 22 24" fill="currentColor" xmlns="http://www.w3.org/2000/svg">
<g clip-path="url(#clip0_903_19557)">
<path d="M0 0V24H19.4389L19.4265 22.4008L18.2816 22.8551H9.01633L8.56209 21.7226V17.1366H9.8937L10.043 14.853L10.3168 10.7524C10.3417 10.3915 10.267 10.0368 10.1302 9.70703C10.0306 9.47057 9.8937 9.24034 9.71325 9.04745C9.71325 9.04745 9.71325 9.04122 9.70703 9.035C9.27768 8.57454 8.66788 8.3132 8.03941 8.3132H5.67488C5.04641 8.3132 4.43661 8.57454 4.00726 9.035C3.57791 9.49546 3.3539 10.1177 3.39746 10.7462L3.82059 17.1304H5.15219V21.7164L4.70417 22.8488H1.14493V1.14493H20.5714L20.559 24H21.7164V0H0ZM4.89085 15.9979L4.53617 10.684C4.5175 10.3666 4.62328 10.0617 4.84107 9.82525C5.05885 9.5888 5.35753 9.46435 5.67488 9.46435H8.03941C8.35675 9.46435 8.65543 9.59502 8.87322 9.82525C9.091 10.0555 9.20301 10.3604 9.17812 10.684L8.82344 15.9979H7.41716V22.8551H6.29712V15.9979H4.89085Z" fill="currentColor"/>
<path d="M17.7093 7.10594L15.2327 5.13965H14.4798L11.9971 7.10594V8.54955L14.8532 6.17258L17.7093 8.54955V7.10594Z" fill="currentColor"/>
<path d="M11.9971 16.0166V17.4664L14.4798 19.4265H15.2327L17.7093 17.4664V16.0166L14.8532 18.3998L11.9971 16.0166Z" fill="currentColor"/>
<path d="M5.13965 4.89086V5.46333C5.13965 6.40914 5.91123 7.18072 6.85705 7.18072C7.80286 7.18072 8.57444 6.40914 8.57444 5.46333V4.89086C8.57444 3.94505 7.80286 3.17969 6.85705 3.17969C5.91123 3.17969 5.13965 3.95127 5.13965 4.89086ZM7.42951 4.89086V5.46333C7.42951 5.78067 7.17439 6.03579 6.85705 6.03579C6.5397 6.03579 6.28458 5.78067 6.28458 5.46333V4.89086C6.28458 4.57352 6.5397 4.3184 6.85705 4.3184C7.17439 4.3184 7.42951 4.57352 7.42951 4.89086Z" fill="currentColor"/>
</g>
<defs>
<clipPath id="clip0_903_19557">
<rect width="21.7101" height="24" fill="currentColor"/>
</clipPath>
</defs>
</svg>
