<svg width="38" height="38" viewBox="0 0 38 38" fill="none" xmlns="http://www.w3.org/2000/svg">
<path d="M11.8275 34.0258C6.65 31.5558 2.945 26.5367 2.375 20.5833H0C0.8075 30.3367 8.96167 38 18.9208 38C19.285 38 19.6175 37.9683 19.9658 37.9525L13.9333 31.9042L11.8275 34.0258ZM19.0792 0C18.715 0 18.3825 0.0316667 18.0342 0.0633333L24.0667 6.09583L26.1725 3.99C31.35 6.44417 35.055 11.4633 35.625 17.4167H38C37.1925 7.66333 29.0383 0 19.0792 0Z" fill="#BDBDBD"/>
<path d="M24 16H16V14C16 13.2 16.3 12.5 16.9 11.9C18.1 10.7 20 10.7 21.1 11.9C21.5 12.3 21.7 12.8 21.9 13.3C22 13.8 22.6 14.1 23.1 14C23.6 13.9 24 13.3 23.8 12.8C23.6 11.9 23.1 11.1 22.5 10.5C21.6 9.5 20.3 9 19 9C16.2 9 14 11.2 14 14V16C12.3 16 11 17.3 11 19V26C11 27.7 12.3 29 14 29H24C25.7 29 27 27.7 27 26V19C27 17.3 25.7 16 24 16Z" fill="#BDBDBD"/>
</svg>
