<svg width="38" height="38" viewBox="0 0 38 38" fill="none" xmlns="http://www.w3.org/2000/svg">
<path d="M11.8275 34.0258C6.65 31.5558 2.945 26.5367 2.375 20.5833H0C0.8075 30.3367 8.96167 38 18.9208 38C19.285 38 19.6175 37.9683 19.9658 37.9525L13.9333 31.9042L11.8275 34.0258ZM19.0792 0C18.715 0 18.3825 0.0316667 18.0342 0.0633333L24.0667 6.09583L26.1725 3.99C31.35 6.44417 35.055 11.4633 35.625 17.4167H38C37.1925 7.66333 29.0383 0 19.0792 0Z" fill="white"/>
<path d="M25 15.6667H24V13.7619C24 11.1333 21.76 9 19 9C16.24 9 14 11.1333 14 13.7619V15.6667H13C11.9 15.6667 11 16.5238 11 17.5714V27.0952C11 28.1429 11.9 29 13 29H25C26.1 29 27 28.1429 27 27.0952V17.5714C27 16.5238 26.1 15.6667 25 15.6667ZM22.1 15.6667H15.9V13.7619C15.9 12.1333 17.29 10.8095 19 10.8095C20.71 10.8095 22.1 12.1333 22.1 13.7619V15.6667Z" fill="white"/>
</svg>
