<svg width="20" height="20" viewBox="0 0 20 20" fill="none" xmlns="http://www.w3.org/2000/svg">
<path d="M10 0C4.47633 0 0 4.47633 0 10C0 15.5237 4.47633 20 10 20C15.5237 20 20 15.5237 20 10C20 4.47633 15.5237 0 10 0ZM10 18.5653C9.23601 18.5653 7.99319 16.7378 7.4193 13.5868H12.5807C12.0068 16.7396 10.764 18.5653 10 18.5653ZM7.21664 12.1521C7.14849 11.4796 7.10904 10.7622 7.10904 10C7.10904 9.23782 7.14849 8.52045 7.21664 7.84793H12.7816C12.8497 8.52045 12.8892 9.23782 12.8892 10C12.8892 10.7622 12.8497 11.4796 12.7816 12.1521H7.21664ZM1.43293 10C1.43293 9.25754 1.52798 8.5366 1.70732 7.84793H5.77475C5.70839 8.54198 5.67252 9.26113 5.67252 10C5.67252 10.7389 5.70839 11.458 5.77475 12.1521H1.70732C1.52798 11.4634 1.43293 10.7425 1.43293 10ZM9.99821 1.43472C10.7622 1.43472 12.005 3.2622 12.5789 6.41321H7.4175C7.99139 3.26041 9.23422 1.43472 9.99821 1.43472ZM14.2217 7.84793H18.2891C18.4684 8.5366 18.5635 9.25754 18.5635 10C18.5635 10.7425 18.4684 11.4634 18.2891 12.1521H14.2217C14.288 11.458 14.3239 10.7389 14.3239 10C14.3239 9.26113 14.288 8.54198 14.2217 7.84793ZM17.7726 6.41321H14.0352C13.7231 4.53731 13.1743 2.93399 12.4731 1.80056C14.826 2.51254 16.7539 4.21091 17.7744 6.41321H17.7726ZM7.52152 1.80056C6.8203 2.93399 6.27152 4.53731 5.95947 6.41321H2.22202C3.24247 4.21091 5.16858 2.51254 7.52331 1.80056H7.52152ZM2.22023 13.5868H5.95768C6.26973 15.4627 6.81851 17.066 7.51973 18.1994C5.16679 17.4875 3.23888 15.7891 2.21844 13.5868H2.22023ZM12.4713 18.1994C13.1725 17.066 13.7213 15.4627 14.0334 13.5868H17.7708C16.7504 15.7891 14.8242 17.4875 12.4695 18.1994H12.4713Z" fill="#292929"/>
</svg>
