<svg width="16" height="20" viewBox="0 0 16 20" fill="none" xmlns="http://www.w3.org/2000/svg">
<g clip-path="url(#clip0_865_18941)">
<path d="M15.7983 10.6328C15.8047 9.2965 15.1686 7.95374 14.1343 7.09926C13.2477 6.36042 12.0784 6.01349 10.9348 6.07131C8.94957 6.08416 3.3858 6.19981 2.92323 6.20623L9.12946 0H6.31545L0 6.49534V7.65821L6.30903 14.16H9.12303L2.92323 7.95374C5.57661 8.01799 8.36492 8.06296 10.9348 8.08866C11.1918 8.08866 11.4552 8.10151 11.7057 8.14648C12.8493 8.39062 13.7231 9.45712 13.6974 10.6328C13.6974 11.6736 13.6974 18.2011 13.7167 19.9936H15.779C15.779 19.9936 15.8047 11.6736 15.7983 10.6328Z" fill="#292929"/>
</g>
<defs>
<clipPath id="clip0_865_18941">
<rect width="15.7983" height="20" fill="white"/>
</clipPath>
</defs>
</svg>
