<svg width="16" height="20" viewBox="0 0 16 20" fill="none" xmlns="http://www.w3.org/2000/svg">
<path d="M-0.000412941 10.6328C-0.00683689 9.2965 0.629205 7.95374 1.66358 7.09926C2.55018 6.36042 3.71947 6.01349 4.86306 6.07131C6.84829 6.08416 12.4121 6.19981 12.8746 6.20623L6.6684 0H9.4824L15.7979 6.49534V7.65821L9.48883 14.16H6.67482L12.8746 7.95374C10.2212 8.01799 7.43293 8.06296 4.86306 8.08866C4.60608 8.08866 4.34266 8.10151 4.0921 8.14648C2.94851 8.39062 2.07476 9.45712 2.10046 10.6328C2.10046 11.6736 2.10045 18.2011 2.08118 19.9936H0.0188618C0.0188618 19.9936 -0.00683689 11.6736 -0.000412941 10.6328Z" fill="#292929"/>
</svg>
