<svg width="21" height="24" viewBox="0 0 21 24" fill="none" xmlns="http://www.w3.org/2000/svg">
<g clip-path="url(#clip0_903_19563)">
<path d="M14.6552 20.5597C14.6552 20.5597 14.8058 9.11454 14.8137 7.74334C14.8137 7.41044 14.7979 6.96659 14.7741 6.62577C14.7583 6.4831 14.6948 6.07095 14.6711 5.92035L14.5601 5.46064C14.5284 5.31005 14.4729 5.1436 14.4254 5.00886L14.2668 4.565C14.14 4.27967 14.0053 3.97848 13.8468 3.71692C13.6169 3.32062 13.3316 2.90054 13.0225 2.55972C12.7213 2.2189 12.3567 1.8543 11.9921 1.57689C9.47952 -0.412541 5.93659 -0.523505 3.2893 1.25985C3.107 1.39459 2.893 1.54519 2.71863 1.68786C2.59974 1.79882 2.29855 2.06038 2.18758 2.17134C2.02906 2.34572 1.85469 2.52801 1.7041 2.70239C1.60898 2.8292 1.36328 3.14624 1.27609 3.28099C1.1572 3.47914 1.01453 3.69314 0.903567 3.89129C0.832232 4.03396 0.65786 4.39856 0.594452 4.54122C0.53897 4.69182 0.396301 5.06434 0.348745 5.21494C0.285337 5.47649 0.15852 5.88072 0.126816 6.15021C0.015852 6.6971 0 7.41044 0 7.94149C0 8.29816 0.0317041 23.7539 0.0317041 23.7539H2.57596C2.59181 22.4303 2.62351 7.6403 2.63937 6.89525C2.65522 6.79221 2.68692 6.53858 2.7107 6.43554C2.73448 6.34043 2.80581 6.07887 2.82166 5.98376C2.86129 5.88072 2.94055 5.64294 2.98018 5.54783C3.01981 5.45272 3.13871 5.21494 3.17834 5.12775C3.23382 5.04056 3.36063 4.81071 3.41612 4.72352C3.4716 4.63634 3.63804 4.43026 3.69353 4.34307C3.82034 4.20833 3.97886 4.00225 4.12153 3.89129L4.35139 3.67729C4.43857 3.61388 4.64465 3.45536 4.72391 3.39195C4.80317 3.33647 5.04095 3.20173 5.12021 3.14624L5.39762 3.0115C6.71334 2.37742 8.33025 2.4012 9.63804 3.05113L9.78071 3.11454C9.8679 3.17002 10.0978 3.30476 10.1849 3.36025C10.3276 3.47121 10.5575 3.62181 10.6843 3.74862L10.9221 3.96262C10.9934 4.04188 11.1757 4.24003 11.247 4.31137C11.3342 4.43819 11.4452 4.565 11.5324 4.69182C11.5878 4.779 11.7305 5.00886 11.7781 5.09605C11.8177 5.19116 11.9366 5.42101 11.9841 5.52405C12.0159 5.61916 12.111 5.88072 12.1506 5.96791C12.1744 6.07095 12.2457 6.31665 12.2695 6.42762C12.2933 6.60992 12.3567 6.8794 12.3567 7.05377C12.3725 7.25985 12.3884 7.54519 12.3804 7.75126C12.4122 11.2704 12.4756 16.5491 12.539 20.5676L7.03831 14.9005V18.3563L12.6896 24.0075H14.4888L20.14 18.3563V14.9005L14.6394 20.5676L14.6552 20.5597Z" fill="black"/>
</g>
<defs>
<clipPath id="clip0_903_19563">
<rect width="20.1559" height="24" fill="white"/>
</clipPath>
</defs>
</svg>
