<svg width="9" height="20" viewBox="0 0 9 20" fill="none" xmlns="http://www.w3.org/2000/svg">
<g clip-path="url(#clip0_865_18921)">
<path d="M4.12199 3.68587C3.25068 3.68587 2.53987 2.97506 2.53987 2.10375V1.57638C2.53987 0.705073 3.25068 0 4.12199 0C4.9933 0 5.7041 0.705073 5.7041 1.57638V2.10375C5.7041 2.97506 4.9933 3.68587 4.12199 3.68587ZM4.64936 1.57638C4.64936 1.28404 4.41433 1.04901 4.12199 1.04901C3.82964 1.04901 3.59461 1.28404 3.59461 1.57638V2.10375C3.59461 2.3961 3.82964 2.63113 4.12199 2.63113C4.41433 2.63113 4.64936 2.3961 4.64936 2.10375V1.57638Z" fill="#162C51"/>
<path d="M1.94974 13.6826H1.93827L1.49116 6.98156C1.45103 6.4026 1.65739 5.82937 2.05292 5.40518C2.44845 4.98099 3.01022 4.74023 3.58918 4.74023H4.64965C5.22862 4.74023 5.79038 4.98099 6.18591 5.40518C6.58144 5.82937 6.7878 6.4026 6.74768 6.98156L6.44386 11.5789H5.38912L5.69866 6.91278C5.71586 6.62043 5.61841 6.33955 5.41778 6.12172C5.21715 5.90389 4.942 5.78925 4.64965 5.78925H3.58918C3.29683 5.78925 3.02168 5.90962 2.82105 6.12172C2.62042 6.33381 2.51724 6.6147 2.54017 6.91278L2.92423 12.6336H6.40374L7.5502 19.0538L8.14062 20.0054H6.65596L5.5267 13.6884H1.95547L1.94974 13.6826Z" fill="#162C51"/>
<path d="M0.0348611 18.6076L2.11569 16.1427L2.01824 14.7383H3.07871L3.19336 16.4924L1.49087 18.5159L1.16412 19.5534L0.0348611 18.6076Z" fill="#162C51"/>
</g>
<defs>
<clipPath id="clip0_865_18921">
<rect width="8.10547" height="20" fill="white" transform="matrix(-1 0 0 1 8.14062 0)"/>
</clipPath>
</defs>
</svg>
