<svg width="49" height="49" viewBox="0 0 49 49" fill="none" xmlns="http://www.w3.org/2000/svg">
<path fill-rule="evenodd" clip-rule="evenodd" d="M15.5087 2.03108C15.8461 1.87308 16.2444 1.92448 16.5305 2.16295L29.5465 13.0096C29.7654 13.192 29.8919 13.4622 29.8919 13.7471C29.8919 14.032 29.7654 14.3022 29.5465 14.4846L17.4155 24.5937L29.5465 34.7029C29.7654 34.8853 29.8919 35.1555 29.8919 35.4404C29.8919 35.7253 29.7654 35.9955 29.5465 36.1779L16.5305 47.0245C16.2444 47.263 15.8461 47.3144 15.5087 47.1564C15.1714 46.9984 14.9559 46.6595 14.9559 46.287V26.6434L3.51454 36.1779C3.10724 36.5173 2.50189 36.4622 2.16247 36.0549C1.82305 35.6476 1.87808 35.0423 2.28539 34.7029L14.4164 24.5937L2.28539 14.4846C1.87808 14.1452 1.82305 13.5398 2.16247 13.1325C2.50189 12.7252 3.10724 12.6702 3.51454 13.0096L14.9559 22.5441V2.90044C14.9559 2.52794 15.1714 2.18907 15.5087 2.03108ZM16.8759 26.6434L27.4323 35.4404L16.8759 44.2374V26.6434ZM16.8759 22.5441V4.95008L27.4323 13.7471L16.8759 22.5441ZM41.7007 11.8831C42.1311 11.5735 42.731 11.6714 43.0406 12.1018C45.57 15.6179 47.06 19.9332 47.06 24.5937C47.06 29.2543 45.57 33.5696 43.0406 37.0856C42.731 37.516 42.1311 37.6139 41.7007 37.3043C41.2703 36.9947 41.1724 36.3948 41.482 35.9644C43.7842 32.7642 45.14 28.8387 45.14 24.5937C45.14 20.3488 43.7842 16.4234 41.482 13.223C41.1724 12.7926 41.2703 12.1927 41.7007 11.8831ZM34.8907 16.9887C35.3255 16.6853 35.9239 16.792 36.2273 17.2268C37.684 19.3153 38.5384 21.8562 38.5384 24.5939C38.5384 27.3315 37.684 29.8726 36.2273 31.9611C35.924 32.396 35.3256 32.5026 34.8907 32.1993C34.4558 31.896 34.3492 31.2976 34.6525 30.8627C35.8918 29.086 36.6184 26.9261 36.6184 24.5939C36.6184 22.2615 35.8918 20.102 34.6525 18.3253C34.3492 17.8904 34.4558 17.292 34.8907 16.9887Z" fill="#292929"/>
</svg>
