<svg width="12" height="12" viewBox="0 0 12 12" fill="none" xmlns="http://www.w3.org/2000/svg">
<g id="pepicons-pencil:megaphone">
<g id="Group">
<path id="Vector" fill-rule="evenodd" clip-rule="evenodd" d="M3.34118 3.36346V6.48628L8.69137 7.94562V1.90413L3.34118 3.36346ZM2.63721 6.48628C2.63718 6.64075 2.68795 6.79095 2.78171 6.91371C2.87547 7.03647 3.007 7.12499 3.15603 7.16562L8.50622 8.62425C8.61061 8.6527 8.72014 8.65671 8.82633 8.63597C8.93251 8.61523 9.03248 8.5703 9.11849 8.50465C9.20449 8.43901 9.2742 8.35443 9.32222 8.25748C9.37023 8.16052 9.39525 8.05381 9.39534 7.94562V1.90413C9.39536 1.79588 9.37042 1.68908 9.32245 1.59204C9.27448 1.495 9.20478 1.41032 9.11877 1.3446C9.03275 1.27888 8.93274 1.23388 8.8265 1.2131C8.72026 1.19232 8.61066 1.19633 8.50622 1.22479L3.15603 2.68413C3.007 2.72476 2.87547 2.81327 2.78171 2.93604C2.68795 3.0588 2.63718 3.20899 2.63721 3.36346V6.48628Z" fill="#FDFDFD"/>
<path id="Vector_2" fill-rule="evenodd" clip-rule="evenodd" d="M1.26865 6.47336H2.70757V3.37588H1.26653C0.90264 3.81002 0.703382 4.35852 0.703768 4.925C0.704154 5.49148 0.904161 6.03971 1.26865 6.47336ZM2.70757 7.17733C2.89427 7.17733 3.07333 7.10316 3.20535 6.97114C3.33737 6.83912 3.41154 6.66006 3.41154 6.47336V3.37588C3.41154 3.18917 3.33737 3.01011 3.20535 2.87809C3.07333 2.74607 2.89427 2.67191 2.70757 2.67191H1.12574C1.07303 2.67186 1.02087 2.68258 0.972453 2.7034C0.924034 2.72422 0.880375 2.7547 0.844151 2.79299C-0.283612 3.98341 -0.278684 5.85738 0.842743 7.05343C0.879258 7.09249 0.923403 7.12364 0.972445 7.14495C1.02149 7.16627 1.07438 7.17729 1.12785 7.17733H2.70757Z" fill="#FDFDFD"/>
<path id="Vector_3" fill-rule="evenodd" clip-rule="evenodd" d="M3.95287 7.57878L2.1859 7.38167L1.49741 10.1342H3.35308L3.95287 7.57878ZM2.26333 6.68262C2.09408 6.66369 1.9237 6.70675 1.78378 6.80384C1.64385 6.90092 1.54386 7.04543 1.50234 7.2106L0.814558 9.96313C0.788555 10.0669 0.786558 10.1753 0.808718 10.28C0.830878 10.3847 0.876613 10.4829 0.942445 10.5673C1.00828 10.6517 1.09248 10.7199 1.18864 10.7668C1.2848 10.8138 1.3904 10.8382 1.49741 10.8382H3.35308C3.51192 10.8382 3.66611 10.7846 3.7906 10.6859C3.91508 10.5872 4.00253 10.4494 4.03875 10.2947L4.63853 7.73928C4.66135 7.64229 4.66332 7.54155 4.64431 7.44374C4.62529 7.34593 4.58573 7.25326 4.52824 7.17188C4.47074 7.0905 4.39663 7.02225 4.31079 6.97164C4.22495 6.92104 4.12935 6.88923 4.0303 6.87833L2.26333 6.68262ZM11.9408 2.1955C11.9925 2.27319 12.0112 2.36821 11.9929 2.45968C11.9745 2.55116 11.9206 2.63161 11.843 2.68336L10.787 3.38733C10.7486 3.41457 10.7051 3.43382 10.6591 3.44395C10.6131 3.45408 10.5656 3.45487 10.5193 3.44629C10.473 3.43771 10.4289 3.41992 10.3896 3.39398C10.3503 3.36804 10.3166 3.33448 10.2905 3.29528C10.2644 3.25608 10.2464 3.21205 10.2376 3.16578C10.2288 3.11951 10.2294 3.07195 10.2394 3.02592C10.2493 2.97989 10.2684 2.93632 10.2955 2.89779C10.3225 2.85927 10.3571 2.82656 10.397 2.80162L11.453 2.09765C11.5307 2.04598 11.6257 2.02725 11.7172 2.0456C11.8086 2.06395 11.8891 2.11787 11.9408 2.1955ZM10.24 4.9248C10.24 4.83145 10.2771 4.74192 10.3431 4.67591C10.4091 4.6099 10.4987 4.57282 10.592 4.57282H11.648C11.7413 4.57282 11.8309 4.6099 11.8969 4.67591C11.9629 4.74192 12 4.83145 12 4.9248C12 5.01816 11.9629 5.10769 11.8969 5.1737C11.8309 5.23971 11.7413 5.27679 11.648 5.27679H10.592C10.4987 5.27679 10.4091 5.23971 10.3431 5.1737C10.2771 5.10769 10.24 5.01816 10.24 4.9248ZM10.3224 6.49466C10.3522 6.45928 10.3887 6.43011 10.4298 6.40883C10.4708 6.38756 10.5157 6.37459 10.5618 6.37067C10.6079 6.36674 10.6543 6.37194 10.6984 6.38597C10.7425 6.4 10.7834 6.42258 10.8187 6.45242L11.7902 7.26833C11.8578 7.32947 11.899 7.41443 11.9052 7.50536C11.9114 7.59628 11.8821 7.68606 11.8235 7.75583C11.7649 7.82559 11.6814 7.86989 11.5908 7.87941C11.5002 7.88893 11.4094 7.86293 11.3375 7.80687L10.3661 6.99026C10.2946 6.9303 10.2499 6.84442 10.2417 6.75149C10.2335 6.65857 10.2625 6.56619 10.3224 6.49466Z" fill="#FDFDFD"/>
</g>
</g>
</svg>
