<svg width="16" height="16" viewBox="0 0 16 16" fill="none"
  xmlns="http://www.w3.org/2000/svg">
  <path d="M8.00002 2.39999C4.90677 2.39999 2.40002 4.90674 2.40002 8C2.40002 11.0933 4.90677 13.6 8.00002 13.6C11.0933 13.6 13.6 11.0933 13.6 8C13.6 4.90674 11.0933 2.39999 8.00002 2.39999ZM8.00002 12.7965C7.57219 12.7965 6.87621 11.7732 6.55483 10.0086H9.44522C9.12384 11.7742 8.42786 12.7965 8.00002 12.7965ZM6.44134 9.20517C6.40318 8.82855 6.38109 8.42683 6.38109 8C6.38109 7.57317 6.40318 7.17145 6.44134 6.79483H9.5577C9.59586 7.17145 9.61796 7.57317 9.61796 8C9.61796 8.42683 9.59586 8.82855 9.5577 9.20517H6.44134ZM3.20246 8C3.20246 7.58422 3.25569 7.18049 3.35612 6.79483H5.63388C5.59672 7.1835 5.57664 7.58623 5.57664 8C5.57664 8.41377 5.59672 8.8165 5.63388 9.20517H3.35612C3.25569 8.81951 3.20246 8.41578 3.20246 8ZM7.99902 3.20344C8.42685 3.20344 9.12284 4.22683 9.44421 5.99139H6.55383C6.8752 4.22582 7.57119 3.20344 7.99902 3.20344ZM10.3642 6.79483H12.6419C12.7423 7.18049 12.7956 7.58422 12.7956 8C12.7956 8.41578 12.7423 8.81951 12.6419 9.20517H10.3642C10.4013 8.8165 10.4214 8.41377 10.4214 8C10.4214 7.58623 10.4013 7.1835 10.3642 6.79483ZM12.3527 5.99139H10.2597C10.085 4.94089 9.77764 4.04303 9.38496 3.40831C10.7026 3.80702 11.7822 4.7581 12.3537 5.99139H12.3527ZM6.61208 3.40831C6.21939 4.04303 5.91208 4.94089 5.73733 5.99139H3.64436C4.21581 4.7581 5.29443 3.80702 6.61308 3.40831H6.61208ZM3.64335 10.0086H5.73632C5.91107 11.0591 6.21839 11.957 6.61107 12.5917C5.29342 12.193 4.2138 11.2419 3.64235 10.0086H3.64335ZM9.38396 12.5917C9.77664 11.957 10.084 11.0591 10.2587 10.0086H12.3517C11.7802 11.2419 10.7016 12.193 9.38295 12.5917H9.38396Z"/>
</svg>
