<svg width="20" height="20" viewBox="0 0 20 20" fill="none" xmlns="http://www.w3.org/2000/svg">
<g clip-path="url(#clip0_801_280)">
<path d="M12.8693 12.1663C12.853 12.1863 12.8368 12.2075 12.8193 12.2275L12.5492 12.5475L12.2291 12.8175C11.3277 13.58 10.1813 14 9.00107 14C6.24308 14 4.00018 11.7575 4.00018 9C4.00018 6.2425 6.24308 4 9.00107 4C11.7591 4 14.002 6.2425 14.002 9C14.002 9.68875 13.8569 10.365 13.5869 10.9887C13.4269 10.9887 13.2656 10.9888 13.1056 10.9875L13.4581 11.3425L14.167 12.0513C14.6971 11.1575 15.0009 10.115 15.0009 9.00125C15.0021 5.68625 12.3154 3 9.00107 3C5.68673 3 3 5.68625 3 9C3 12.3138 5.68673 15 9.00107 15C10.4776 15 11.8303 14.465 12.8755 13.58L16.2961 17L17 16.2963L12.8693 12.1663Z" />
</g>
<defs>
<clipPath id="clip0_801_280">
<rect width="14" height="14"  transform="translate(3 3)"/>
</clipPath>
</defs>
</svg>
