<svg width="15" height="24" viewBox="0 0 15 24" fill="none" xmlns="http://www.w3.org/2000/svg">
<path d="M8.21193 3.42847H6.50245V13.8246C5.02802 14.206 3.93823 15.5431 3.93823 17.1417C3.93823 19.036 5.46822 20.5703 7.35719 20.5703C9.24616 20.5703 10.7761 19.036 10.7761 17.1417C10.7761 15.5453 9.68635 14.206 8.21193 13.8246V3.42847ZM9.06667 17.1417C9.06667 18.0867 8.29954 18.856 7.35719 18.856C6.41484 18.856 5.64771 18.0867 5.64771 17.1417C5.64771 16.1967 6.41484 15.4274 7.35719 15.4274C8.29954 15.4274 9.06667 16.1967 9.06667 17.1417Z" />
<path d="M12.4856 12.5614V0H10.806V1.47429V2.8125L10.7761 13.2129L11.2077 13.6993C12.0454 14.6443 12.5048 15.8614 12.5048 17.1236C12.5048 19.9693 10.1949 22.2857 7.35714 22.2857C4.51941 22.2857 2.20948 19.9693 2.20948 17.1236C2.20948 15.8614 2.67104 14.6443 3.50654 13.6993L3.93819 13.2129V1.71429H8.25462C8.53455 1.995 8.81447 2.2757 9.09654 2.55856V1.71429V0H2.22871V12.5614C1.15388 13.7764 0.5 15.3729 0.5 17.1236C0.5 20.9207 3.57065 24 7.35714 24C11.1436 24 14.2143 20.9207 14.2143 17.1236C14.2143 15.3729 13.5604 13.7764 12.4856 12.5614Z" />
</svg>
