<svg width="24" height="24" viewBox="0 0 24 24" fill="none" xmlns="http://www.w3.org/2000/svg">
<path d="M21.3999 5H15V7H21.3999C21.7999 7 22 7.21 22 7.26V22H14V2.35C14 1.05 12.9499 0 11.6499 0H2.34998C1.04998 0 0 1.05 0 2.35V24H24V7.26C24 6.01 22.8299 5 21.3999 5ZM12 22H2V2.35C2 2.16 2.15998 2 2.34998 2H11.6499C11.8399 2 12 2.16 12 2.35V22Z" fill="#231F20"/>
<path d="M6 4H4V6H6V4Z" fill="#231F20"/>
<path d="M17 9H15V11H17V9Z" fill="#231F20"/>
<path d="M21 9H19V11H21V9Z" fill="#231F20"/>
<path d="M17 19H15V21H17V19Z" fill="#231F20"/>
<path d="M21 19H19V21H21V19Z" fill="#231F20"/>
<path d="M17 14H15V16H17V14Z" fill="#231F20"/>
<path d="M21 14H19V16H21V14Z" fill="#231F20"/>
<path d="M10 4H8V6H10V4Z" fill="#231F20"/>
<path d="M6 9H4V11H6V9Z" fill="#231F20"/>
<path d="M10 9H8V11H10V9Z" fill="#231F20"/>
<path d="M6 14H4V16H6V14Z" fill="#231F20"/>
<path d="M10 14H8V16H10V14Z" fill="#231F20"/>
<path d="M6 19H4V21H6V19Z" fill="#231F20"/>
<path d="M10 19H8V21H10V19Z" fill="#231F20"/>
</svg>
