<svg width="23" height="23" viewBox="0 0 23 23" fill="none" xmlns="http://www.w3.org/2000/svg">
<g clip-path="url(#clip0_1442_16601)">
<path fill-rule="evenodd" clip-rule="evenodd" d="M17.8024 0.813477H5.82459C3.05703 0.813477 0.813477 3.05703 0.813477 5.82459V17.8024C0.813477 20.5699 3.05703 22.8135 5.82459 22.8135H17.8024C20.5699 22.8135 22.8135 20.5699 22.8135 17.8024V5.82459C22.8135 3.05703 20.5699 0.813477 17.8024 0.813477Z" fill="#003753"/>
<path d="M11.603 6C8.37465 6 6.02344 8.20486 6.02344 11.2338C6.02344 13.9836 8.03468 15.9831 10.7812 15.9687C11.0926 15.9687 11.1921 15.9687 11.4897 15.9534V14.7636H11.4032C11.3608 14.9104 11.0779 14.9843 10.7241 14.9843C9.08053 14.9843 7.93434 13.4405 7.93434 11.2348C7.93434 8.66241 9.37897 7.00156 11.6022 7.00156C13.7821 7.00156 15.1281 8.648 15.1281 11.3248C15.1281 14.2214 13.3435 16.3092 11.0624 16.3389L11.0762 17C14.6869 17 17.0234 14.7654 17.0234 11.3257C17.026 8.14632 14.8452 6 11.603 6Z" fill="white"/>
</g>
<defs>
<clipPath id="clip0_1442_16601">
<rect width="21.6279" height="21.6279" fill="white" transform="translate(0.813477 0.813477)"/>
</clipPath>
</defs>
</svg>
