<svg width="22" height="24" viewBox="0 0 22 24" fill="none" xmlns="http://www.w3.org/2000/svg">
<path d="M11.5498 15C10.5115 15 9.49642 14.6921 8.63306 14.1152C7.76971 13.5383 7.0968 12.7184 6.69944 11.7591C6.30208 10.7998 6.19811 9.74418 6.40068 8.72578C6.60326 7.70738 7.10327 6.77192 7.8375 6.03769C8.57172 5.30347 9.50718 4.80345 10.5256 4.60088C11.544 4.39831 12.5996 4.50227 13.5589 4.89963C14.5182 5.29699 15.3381 5.9699 15.915 6.83326C16.4919 7.69662 16.7998 8.71165 16.7998 9.75C16.7982 11.1419 16.2446 12.4763 15.2604 13.4606C14.2761 14.4448 12.9417 14.9984 11.5498 15ZM11.5498 6.6C10.9268 6.6 10.3178 6.78475 9.79976 7.13087C9.28175 7.477 8.878 7.96896 8.63959 8.54455C8.40117 9.12014 8.33879 9.7535 8.46033 10.3645C8.58188 10.9756 8.88188 11.5369 9.32242 11.9774C9.76296 12.4179 10.3242 12.7179 10.9353 12.8395C11.5463 12.961 12.1797 12.8986 12.7553 12.6602C13.3308 12.4218 13.8228 12.0181 14.1689 11.5C14.5151 10.982 14.6998 10.373 14.6998 9.75C14.6989 8.91485 14.3667 8.11417 13.7762 7.52363C13.1856 6.93309 12.385 6.60092 11.5498 6.6Z" fill="black"/>
<path d="M11.5498 24L4.07289 15.4725C4.03043 15.4236 3.76426 15.0855 3.76426 15.0855C2.48692 13.4586 1.79682 11.4713 1.79981 9.42857C1.79981 6.92796 2.82704 4.52977 4.65552 2.76156C6.484 0.993365 8.96395 0 11.5498 0C14.1357 0 16.6156 0.993365 18.4441 2.76156C20.2726 4.52977 21.2998 6.92796 21.2998 9.42857C21.303 11.4705 20.6133 13.457 19.3367 15.0834L19.3354 15.0855C19.3354 15.0855 19.0694 15.4236 19.0298 15.469L11.5498 24ZM5.17907 14.0529C5.17996 14.0535 5.38595 14.317 5.4331 14.3738L11.5498 21.3496L17.6746 14.3639C17.7135 14.3166 17.9212 14.0511 17.9217 14.0505C18.9652 12.7211 19.5291 11.0975 19.5271 9.42857C19.5271 7.38262 18.6866 5.42046 17.1906 3.97375C15.6946 2.52704 13.6655 1.71429 11.5498 1.71429C9.4341 1.71429 7.40505 2.52704 5.90903 3.97375C4.413 5.42046 3.57254 7.38262 3.57254 9.42857C3.57058 11.0984 4.13492 12.7229 5.17907 14.0529Z" fill="black"/>
</svg>
