<svg width="24" height="24" viewBox="0 0 24 24" fill="none" xmlns="http://www.w3.org/2000/svg">
<path d="M6.48841 12.8372H5.75055V12.379H6.08486C6.29421 12.379 6.4638 12.2093 6.4638 12.0001C6.4638 11.7908 6.29416 11.6212 6.08486 11.6212H5.75055V11.163H6.48841C6.69775 11.163 6.86735 10.9932 6.86735 10.784C6.86735 10.5747 6.69771 10.405 6.48841 10.405H5.37161C5.16227 10.405 4.99268 10.5747 4.99268 10.784V13.2162C4.99268 13.4255 5.16232 13.5952 5.37161 13.5952H6.48841C6.69775 13.5952 6.86735 13.4255 6.86735 13.2162C6.86735 13.007 6.69775 12.8372 6.48841 12.8372Z" fill="black"/>
<path d="M8.24091 11.6212C8.11458 11.6212 8.01183 11.5184 8.01183 11.392C8.01183 11.2657 8.11458 11.1629 8.24091 11.1629H8.84897C9.05831 11.1629 9.22791 10.9932 9.22791 10.784C9.22791 10.5747 9.05831 10.405 8.84897 10.405H8.24091C7.69669 10.405 7.25391 10.8478 7.25391 11.3921C7.25391 11.9363 7.69669 12.3791 8.24091 12.3791C8.36728 12.3791 8.47003 12.4819 8.47003 12.6082C8.47003 12.7345 8.36728 12.8373 8.24091 12.8373H7.63289C7.42355 12.8373 7.25395 13.007 7.25395 13.2163C7.25395 13.4255 7.42359 13.5952 7.63289 13.5952H8.24091C8.78513 13.5952 9.22795 13.1524 9.22795 12.6082C9.22795 12.0639 8.78513 11.6212 8.24091 11.6212Z" fill="black"/>
<path d="M11.2369 12.8372H10.4991V12.379H10.8334C11.0428 12.379 11.2124 12.2093 11.2124 12.0001C11.2124 11.7908 11.0427 11.6212 10.8334 11.6212H10.4991V11.163H11.2369C11.4463 11.163 11.6159 10.9932 11.6159 10.784C11.6159 10.5747 11.4463 10.405 11.2369 10.405H10.1201C9.9108 10.405 9.74121 10.5747 9.74121 10.784V13.2162C9.74121 13.4255 9.9108 13.5952 10.1201 13.5952H11.2369C11.4463 13.5952 11.6159 13.4255 11.6159 13.2162C11.6159 13.007 11.4463 12.8372 11.2369 12.8372Z" fill="black"/>
<path d="M18.8131 12.8372H18.0753V12.379H18.4097C18.619 12.379 18.7886 12.2093 18.7886 12.0001C18.7886 11.7908 18.619 11.6212 18.4097 11.6212H18.0753V11.163H18.8131C19.0225 11.163 19.1921 10.9932 19.1921 10.784C19.1921 10.5747 19.0225 10.405 18.8131 10.405H17.6963C17.487 10.405 17.3174 10.5747 17.3174 10.784V13.2162C17.3174 13.4255 17.487 13.5952 17.6963 13.5952H18.8131C19.0225 13.5952 19.1921 13.4255 19.1921 13.2162C19.1921 13.007 19.0225 12.8372 18.8131 12.8372Z" fill="black"/>
<path d="M3.81305 12.3389C4.11094 12.1545 4.31045 11.8257 4.31045 11.4503C4.31045 10.8738 3.84146 10.4048 3.26499 10.4048H2.50491C2.29557 10.4048 2.12598 10.5745 2.12598 10.7837V13.216C2.12598 13.4253 2.29557 13.5949 2.50491 13.5949C2.71426 13.5949 2.88385 13.4252 2.88385 13.216V12.4958H3.03765L3.51718 13.3945C3.58538 13.5223 3.7164 13.5951 3.85187 13.5951C3.91201 13.5951 3.97309 13.5807 4.0299 13.5503C4.21454 13.4518 4.28434 13.2222 4.1858 13.0376L3.81305 12.3389ZM3.26499 11.7379H2.88385V11.1627H3.26499C3.42362 11.1627 3.55252 11.2917 3.55252 11.4502C3.55252 11.6089 3.42352 11.7379 3.26499 11.7379Z" fill="black"/>
<path d="M13.816 12.3389C14.1138 12.1545 14.3134 11.8257 14.3134 11.4503C14.3134 10.8738 13.8444 10.4048 13.2679 10.4048H12.5078C12.2985 10.4048 12.1289 10.5745 12.1289 10.7837V13.216C12.1289 13.4253 12.2985 13.5949 12.5078 13.5949C12.7172 13.5949 12.8868 13.4252 12.8868 13.216V12.4958H13.0406L13.5201 13.3945C13.5884 13.5223 13.7193 13.5951 13.8548 13.5951C13.9149 13.5951 13.976 13.5807 14.0329 13.5503C14.2175 13.4518 14.2873 13.2222 14.1888 13.0376L13.816 12.3389ZM13.2679 11.7379H12.8867V11.1627H13.2679C13.4265 11.1627 13.5554 11.2917 13.5554 11.4502C13.5555 11.6089 13.4265 11.7379 13.2679 11.7379Z" fill="black"/>
<path d="M16.8326 10.4293C16.6369 10.3554 16.4182 10.4541 16.3441 10.6499L15.7793 12.1443L15.2145 10.6499C15.1405 10.4541 14.9218 10.3554 14.726 10.4294C14.5302 10.5033 14.4315 10.722 14.5055 10.9178L15.4248 13.3501C15.4805 13.4974 15.6217 13.595 15.7793 13.595C15.937 13.595 16.0781 13.4975 16.1338 13.35L17.0531 10.9178C17.1271 10.722 17.0284 10.5033 16.8326 10.4293Z" fill="black"/>
<path d="M20.3783 10.4048H20.0767C19.8673 10.4048 19.6978 10.5745 19.6978 10.7838V13.216C19.6978 13.4253 19.8673 13.595 20.0767 13.595H20.3783C21.2031 13.595 21.8741 12.924 21.8741 12.0992V11.9005C21.8741 11.0758 21.2031 10.4048 20.3783 10.4048ZM21.1161 12.0993C21.1161 12.48 20.8263 12.7943 20.4557 12.8331V11.1667C20.8263 11.2055 21.1161 11.5198 21.1161 11.9005V12.0993Z" fill="black"/>
<path d="M23.4593 9.36222L23.3461 7.97749C23.3301 7.7808 23.1658 7.62939 22.9685 7.62939H1.03148C0.834184 7.62939 0.669887 7.7808 0.653809 7.97749L0.0012621 15.9607C-0.0073629 16.0662 0.0284965 16.1705 0.100309 16.2483C0.172075 16.3262 0.273043 16.3705 0.378981 16.3705H2.65284C2.86218 16.3705 3.03178 16.2008 3.03178 15.9915C3.03178 15.7823 2.86209 15.6126 2.65284 15.6126H0.790075L1.3807 8.38732H22.6192L22.704 9.42396C22.7211 9.63255 22.9034 9.78813 23.1126 9.77079C23.3211 9.75377 23.4764 9.57082 23.4593 9.36222Z" fill="black"/>
<path d="M23.9988 15.9607L23.55 10.4707C23.533 10.2621 23.35 10.1069 23.1415 10.1238C22.9329 10.1408 22.7776 10.3238 22.7947 10.5324L23.21 15.6127H3.91605C3.7067 15.6127 3.53711 15.7824 3.53711 15.9916C3.53711 16.2009 3.7067 16.3706 3.91605 16.3706H23.6212C23.7271 16.3706 23.8281 16.3263 23.8999 16.2485C23.9716 16.1707 24.0075 16.0663 23.9988 15.9607Z" fill="black"/>
</svg>
