<svg width="26" height="24" viewBox="0 0 26 24" fill="none" xmlns="http://www.w3.org/2000/svg">
<path d="M21.1158 11.5558C20.4226 11.5558 19.7717 11.7392 19.2076 12.0587L18.2021 10.724C19.479 9.79073 20.7907 9.36255 20.9039 9.32679C21.045 9.28193 21.1597 9.17819 21.2185 9.043C21.2774 8.90738 21.2749 8.7528 21.211 8.61963C19.4837 5.00234 16.8053 4.68966 16.6921 4.67815C16.4752 4.6567 16.2772 4.76891 16.183 4.9589C16.0882 5.14938 16.1216 5.37831 16.2662 5.53436C16.5839 5.87545 16.7155 6.24451 16.6682 6.66285C16.6477 6.84505 16.5946 7.03063 16.5171 7.21617C13.6029 6.26313 11.7441 7.62089 11.0877 8.23915C9.46062 7.66604 7.99765 7.37648 6.71522 7.37648C4.73851 7.37648 3.90522 8.07556 3.81647 8.1554C3.67188 8.28549 3.6135 8.48699 3.66683 8.67453C3.72022 8.86203 3.87529 9.0026 4.06675 9.03757C5.94644 9.37817 7.26051 10.0202 8.17701 10.7802L6.98941 12.1773C6.3826 11.7848 5.66054 11.5558 4.88559 11.5558C2.74333 11.5558 1.00049 13.2986 1.00049 15.4405C1.00049 17.5828 2.74333 19.3256 4.88564 19.3256C7.0279 19.3256 8.77079 17.5828 8.77079 15.4405C8.77079 14.4405 8.39071 13.5277 7.76759 12.8384L8.90607 11.4991C10.5611 13.4516 10.2236 15.7629 10.2 15.9102C10.175 16.0583 10.217 16.2094 10.3142 16.3241C10.4109 16.4388 10.5535 16.5046 10.7037 16.5046H15.2705C15.4196 16.5046 15.5617 16.4393 15.6584 16.3261C15.7557 16.2124 15.7981 16.0622 15.7751 15.9147C15.4602 13.9076 16.317 12.4241 17.4162 11.3779L18.3923 12.6737C17.6759 13.3787 17.2307 14.3585 17.2307 15.4405C17.2307 17.5827 18.9736 19.3256 21.1159 19.3256C23.2577 19.3256 25.0005 17.5827 25.0005 15.4405C25.0005 13.2986 23.2577 11.5558 21.1158 11.5558ZM15.9692 8.11612C15.4679 8.75858 14.8085 9.32826 14.3634 9.66338C13.6068 9.2786 12.8768 8.94211 12.1743 8.65386C12.8417 8.17313 14.114 7.5865 15.9692 8.11612ZM7.74947 15.4405C7.74947 17.0198 6.46493 18.3043 4.88559 18.3043C3.30634 18.3043 2.02171 17.0198 2.02171 15.4405C2.02171 13.8617 3.30634 12.5771 4.88559 12.5771C5.40835 12.5771 5.89834 12.7185 6.32064 12.9641L4.49664 15.1098L5.27459 15.7711L7.09868 13.6252C7.50516 14.1197 7.74947 14.7521 7.74947 15.4405ZM14.7004 15.4833H11.2507C11.2831 13.9829 10.8712 10.0489 5.91935 8.44663C6.15225 8.41617 6.41708 8.39775 6.71522 8.39775C8.08513 8.39775 10.4907 8.79967 14.1724 10.7135C14.3379 10.7999 14.5389 10.7894 14.6945 10.6826C14.8072 10.6063 17.4556 8.78763 17.6831 6.77854C17.7105 6.53863 17.7035 6.30579 17.6631 6.08185C18.3537 6.45385 19.2623 7.17596 20.0352 8.56575C18.5098 9.20111 14.4287 11.3005 14.7004 15.4833ZM21.1158 18.3043C19.5365 18.3043 18.252 17.0198 18.252 15.4405C18.252 14.6917 18.5413 14.0093 19.0137 13.4986L20.708 15.7477L21.5238 15.1333L19.8291 12.8836C20.2163 12.6881 20.6532 12.5771 21.1159 12.5771C22.6947 12.5771 23.9792 13.8617 23.9792 15.4405C23.9792 17.0198 22.6946 18.3043 21.1158 18.3043Z" fill="black" stroke="black" stroke-width="0.25"/>
</svg>
