<svg width="12" height="12" viewBox="0 0 12 12" fill="none" xmlns="http://www.w3.org/2000/svg">
<g id="Group">
<path id="Vector" d="M8.47186 1.71478H3.33008V2.57193H8.47186V1.71478Z" fill="#FDFDFD"/>
<path id="Vector_2" d="M4.17871 5.14324C4.17871 6.08824 4.948 6.85753 5.893 6.85753C6.838 6.85753 7.60728 6.08824 7.60728 5.14324C7.60728 4.19824 6.838 3.42896 5.893 3.42896C4.948 3.42896 4.17871 4.19824 4.17871 5.14324ZM6.76835 5.14324C6.76835 5.62538 6.37621 6.01862 5.893 6.01862C5.40978 6.01862 5.01764 5.62646 5.01764 5.14324C5.01764 4.66003 5.40978 4.26789 5.893 4.26789C6.37621 4.26789 6.76835 4.66003 6.76835 5.14324Z" fill="#FDFDFD"/>
<path id="Vector_3" d="M3.52614 10.2862C3.85721 9.29621 4.79256 8.5805 5.89292 8.5805C6.99328 8.5805 7.92864 9.29621 8.25971 10.2862H9.21114C8.85328 8.78514 7.50221 7.6655 5.89292 7.6655C4.28364 7.6655 2.93256 8.78514 2.57471 10.2862H3.52614Z" fill="#FDFDFD"/>
<path id="Vector_4" d="M9.98464 0H1.80107C1.22036 0 0.75 0.470363 0.75 1.05108V12H9.32143V11.1429H1.60714V1.05108C1.60714 0.943935 1.69393 0.857143 1.80107 0.857143H9.98357C10.0907 0.857143 10.1775 0.943935 10.1775 1.05108V11.5714C10.035 11.7139 9.89143 11.8575 9.74893 12H11.0346V1.05108C11.0346 0.470363 10.5643 0 9.98357 0H9.98464Z" fill="#FDFDFD"/>
</g>
</svg>
