<svg width="129" height="18" viewBox="0 0 129 18" fill="none" xmlns="http://www.w3.org/2000/svg">
<g clip-path="url(#clip0_3280_1610)">
<path d="M53.1107 9.2345V9.14966C54.4949 9.00086 55.2286 8.21248 55.2286 6.93071C55.2286 5.24823 53.9699 4.35281 51.6023 4.35281H45.8171V13.9204C45.8171 14.389 45.6494 14.7936 45.3984 14.8785V15.009H51.8533C54.1172 15.009 55.6268 13.752 55.6268 11.8346C55.6294 10.3818 54.7459 9.46553 53.1107 9.2345ZM48.1438 5.7625H51.4128C52.4615 5.7625 52.838 6.08098 52.838 6.82759V7.31707C52.838 8.21248 52.4397 8.57404 51.4128 8.57404H48.1438V5.7625ZM53.1965 11.9756C53.1965 13.1686 52.7765 13.5954 51.6241 13.5954H47.9555V13.5105C48.122 13.2965 48.1438 12.9558 48.1438 12.5512V9.95501H51.6228C52.7125 9.95501 53.1952 10.4249 53.1952 11.49L53.1965 11.9756Z" fill="#1A1919"/>
<path d="M8.30005 0.580292C3.52133 0.580292 0.0410156 3.77558 0.0410156 8.16518C0.0410156 12.1502 3.01811 15.0478 7.0836 15.027C7.54457 15.027 7.69183 15.027 8.13231 15.0048V13.2805H8.00426C7.94152 13.4933 7.52281 13.6003 6.99909 13.6003C4.5662 13.6003 2.86958 11.3631 2.86958 8.16649C2.86958 4.43865 5.00796 2.03174 8.29877 2.03174C11.5256 2.03174 13.518 4.41777 13.518 8.29701C13.518 12.4947 10.8764 15.5203 7.49976 15.5634L7.52025 16.5215C12.8649 16.5215 16.3235 13.2831 16.3235 8.29832C16.3273 3.69073 13.0993 0.580292 8.30005 0.580292Z" fill="#1A1919"/>
<path d="M26.4489 11.787H26.3657C26.303 11.5103 26.1096 11.1056 25.632 10.5731L20.0773 4.35089H17.793V4.48142C18.0235 4.56626 18.1912 4.95001 18.1912 5.4186V15.0071H20.2028V8.69742C20.2028 7.73936 20.1196 7.54748 19.9723 7.37649L20.0568 7.31254L26.4912 14.4915V15.0032H28.4618V4.35089H26.4489V11.787Z" fill="#1A1919"/>
<path d="M30.918 13.9185C30.918 14.3231 30.7285 14.7708 30.498 14.8765V15.0071H39.2795V13.5413H33.0539V13.4564C33.1589 13.3259 33.2434 13.0087 33.2434 12.6458V10.017H38.4203V8.54862H33.2434V5.82192H39.2795V4.35089H30.918V13.9185Z" fill="#1A1919"/>
<path d="M62.7713 4.35089H60.2987V4.48142C60.6342 4.58845 60.6342 4.86516 60.2987 5.61047L56.127 15.0084H58.3038L59.921 11.3223H63.61L65.2234 15.0084H67.5283L62.7713 4.35089ZM60.4447 10.0405L60.487 9.82778L61.2834 7.95211C61.6189 7.16896 61.7034 6.9079 61.6394 6.69514H61.7239L63.0236 9.82778L63.0645 10.0405H60.4447Z" fill="#1A1919"/>
<path d="M123.64 9.88652C123.347 9.6098 123.096 9.461 122.803 9.461V9.37616L128.36 4.35089H125.908L120.48 9.25216H120.375V4.35089H118.07V15.0045H120.375V9.69986C120.648 9.69986 120.836 9.80559 121.271 10.2324L126.323 15.0045H129.048L123.64 9.88652Z" fill="#1A1919"/>
<path d="M98.7618 9.46491V9.38007L104.315 4.35089H101.863L96.4352 9.25216H96.3302V4.35089H94.0254V15.0045H96.3302V9.69986C96.603 9.69986 96.7912 9.80559 97.2266 10.2324L102.278 15.0045H105.003L99.5993 9.88652C99.3061 9.61372 99.0551 9.46491 98.7618 9.46491Z" fill="#1A1919"/>
<path d="M110.434 4.01425H110.413C106.934 4.01425 104.586 6.27236 104.586 9.66083C104.586 13.0493 106.934 15.3074 110.413 15.3074H110.434C113.913 15.3074 116.261 13.048 116.261 9.66083C116.261 6.27367 113.915 4.01425 110.434 4.01425ZM113.745 9.91666C113.745 12.5154 112.53 14.0504 110.434 14.0504H110.413C108.317 14.0504 107.101 12.5154 107.101 9.91666V9.40499C107.101 6.80621 108.317 5.27122 110.413 5.27122H110.434C112.53 5.27122 113.745 6.80621 113.745 9.40499V9.91666Z" fill="#1A1919"/>
<path d="M77.3403 11.787H77.2558C77.1931 11.5103 76.9997 11.1056 76.5221 10.5731L70.9687 4.35089H68.6895V4.48142C68.9199 4.56626 69.0877 4.95001 69.0877 5.4186V15.0071H71.1006V8.69742C71.1006 7.73936 71.0161 7.54748 70.8701 7.37649L70.9533 7.31254L77.3877 14.4915V15.0032H79.3583V4.35089H77.3403V11.787Z" fill="#1A1919"/>
<path d="M89.3054 9.50809C89.6409 9.59293 89.7881 9.86965 89.7881 10.4218V12.5311C89.7881 13.0206 89.9162 13.3142 90.1864 13.4891L90.1441 13.5753C89.8898 13.5845 89.6372 13.6199 89.3899 13.681C88.7557 13.8204 88.1101 13.899 87.4615 13.916C84.9006 13.916 83.4165 12.4671 83.4165 9.97407V9.71302C83.4165 7.07116 84.9531 5.47221 87.4615 5.47221C88.8867 5.47221 90.1236 5.98388 91.381 7.07116V4.90573C90.152 4.33102 88.8136 4.03998 87.4615 4.05339C83.2897 4.05339 80.9004 6.14181 80.9004 9.82788C80.9004 13.279 83.3333 15.3035 87.4615 15.3035C88.5723 15.2921 89.6775 15.1417 90.7523 14.8558C91.3388 14.707 91.5488 14.7252 91.737 15.0046H91.8651V9.38017H89.3054V9.50809Z" fill="#1A1919"/>
</g>
<defs>
<clipPath id="clip0_3280_1610">
<rect width="128.918" height="16.8394" fill="white" transform="translate(0.0410156 0.580292)"/>
</clipPath>
</defs>
</svg>
