<svg width="50" height="50" viewBox="0 0 50 50" fill="none" xmlns="http://www.w3.org/2000/svg">
<circle cx="25" cy="25" r="25" fill="black"/>
<path d="M18.9992 12.4384C19.201 11.451 20.6118 11.451 20.8136 12.4384L22.0624 18.5482C22.1367 18.9116 22.4207 19.1957 22.7841 19.27L28.8939 20.5188C29.8813 20.7206 29.8813 22.1313 28.8939 22.3331L22.7841 23.5819C22.4207 23.6562 22.1367 23.9402 22.0624 24.3036L20.8136 30.4135C20.6118 31.4008 19.201 31.4008 18.9992 30.4135L17.7504 24.3036C17.6761 23.9402 17.3921 23.6562 17.0287 23.5819L10.9189 22.3331C9.93151 22.1313 9.93151 20.7206 10.9189 20.5188L17.0287 19.27C17.3921 19.1957 17.6761 18.9116 17.7504 18.5482L18.9992 12.4384Z" fill="#1E8DF2"/>
<path d="M31.9632 28.5126C32.165 27.5253 33.5757 27.5253 33.7775 28.5126L34.0835 30.0097C34.1578 30.3731 34.4418 30.6571 34.8053 30.7314L36.3024 31.0374C37.2897 31.2392 37.2897 32.65 36.3024 32.8518L34.8053 33.1578C34.4418 33.232 34.1578 33.5161 34.0835 33.8795L33.7775 35.3766C33.5757 36.3639 32.165 36.3639 31.9632 35.3766L31.6572 33.8795C31.5829 33.5161 31.2989 33.232 30.9355 33.1578L29.4384 32.8518C28.451 32.65 28.451 31.2392 29.4384 31.0374L30.9355 30.7314C31.2989 30.6571 31.5829 30.3731 31.6572 30.0097L31.9632 28.5126Z" fill="white"/>
</svg>
