<svg width="44" height="44" viewBox="0 0 44 44" fill="none" xmlns="http://www.w3.org/2000/svg">
<circle cx="22" cy="22" r="22" fill="url(#paint0_angular_801_287)"/>
<path opacity="0.9" d="M30.1922 13.5351H20.7983V11.9986C20.7983 11.1343 21.5009 10.4307 22.3639 10.4307C23.227 10.4307 23.9296 11.1343 23.9296 11.9986H25.4952C25.4952 10.27 24.0901 8.86279 22.3639 8.86279C20.6378 8.86279 19.2326 10.27 19.2326 11.9986V13.5351H17.6669V16.6709C18.1895 16.1477 18.7101 15.6263 19.2326 15.103H28.9358L31.7501 27.7893C31.6777 28.587 31.0064 29.2141 30.1903 29.2141H14.5356C13.7195 29.2141 13.0482 28.587 12.9758 27.7893L15.7921 15.103L16.1013 13.5351H14.5356L11.4043 27.6462C11.4043 29.3788 12.8056 30.782 14.5356 30.782H30.1922C31.9223 30.782 33.3236 29.3788 33.3236 27.6462L30.1922 13.5351Z" fill="white"/>
<defs>
<radialGradient id="paint0_angular_801_287" cx="0" cy="0" r="1" gradientUnits="userSpaceOnUse" gradientTransform="translate(20.9303 25.1334) rotate(-45) scale(106.92)">
<stop stop-color="#732121"/>
<stop offset="1" stop-color="#A54E4E"/>
</radialGradient>
</defs>
</svg>
