<svg width="80" height="80" viewBox="0 0 80 80" fill="none" xmlns="http://www.w3.org/2000/svg">
<circle cx="40" cy="39.5" r="35" fill="#1E8DF2"/>
<path fill-rule="evenodd" clip-rule="evenodd" d="M34.4051 27.5001C34.6651 29.1381 35.0511 30.6901 35.5551 31.6681C35.9511 32.4381 36.7271 33.4161 37.7911 34.4821C38.5211 35.2121 39.2952 35.8941 39.9992 36.4741C40.7032 35.8941 41.4792 35.2121 42.2072 34.4821C43.2712 33.4161 44.0472 32.4381 44.4432 31.6681C44.9472 30.6901 45.3312 29.1381 45.5932 27.5001H34.4051ZM33.0811 23.5001C31.3931 23.5001 30.0451 24.8941 30.2411 26.5721C30.4911 28.7241 30.9971 31.5521 31.9991 33.5001C33.3431 36.1101 36.4352 38.7861 38.3592 40.2861C39.3292 41.0461 40.6692 41.0461 41.6391 40.2861C43.5652 38.7861 46.6572 36.1101 47.9992 33.5001C49.0012 31.5541 49.5072 28.7241 49.7592 26.5721C49.9532 24.8921 48.6052 23.5001 46.9172 23.5001H33.0811Z" fill="white"/>
<path fill-rule="evenodd" clip-rule="evenodd" d="M45.5938 51.5C45.3338 49.862 44.9478 48.31 44.4438 47.332C44.0478 46.562 43.2718 45.582 42.2078 44.518C41.5037 43.8195 40.7669 43.1548 39.9998 42.526C39.2958 43.106 38.5198 43.788 37.7918 44.518C36.7278 45.582 35.9518 46.562 35.5558 47.332C35.0518 48.31 34.6678 49.862 34.4058 51.5H45.5938ZM46.9178 55.5C48.6058 55.5 49.9538 54.106 49.7578 52.43C49.5078 50.276 49.0018 47.446 47.9998 45.5C46.6558 42.89 43.5638 40.214 41.6398 38.714C41.1723 38.3461 40.5947 38.1461 39.9998 38.1461C39.4049 38.1461 38.8273 38.3461 38.3598 38.714C36.4338 40.214 33.3438 42.89 31.9998 45.5C30.9978 47.446 30.4918 50.276 30.2398 52.43C30.0458 54.106 31.3938 55.5 33.0818 55.5H46.9178Z" fill="white"/>
<path d="M34.0005 50.9999C34.0005 50.9999 38.0005 47.9999 40.0005 47.9999C42.0005 47.9999 46.0005 50.9999 46.0005 50.9999V51.9999H34.0005V50.9999Z" fill="white"/>
<path fill-rule="evenodd" clip-rule="evenodd" d="M28 24.5C28 23.9696 28.2107 23.4609 28.5858 23.0858C28.9609 22.7107 29.4696 22.5 30 22.5H50C50.5304 22.5 51.0391 22.7107 51.4142 23.0858C51.7893 23.4609 52 23.9696 52 24.5C52 25.0304 51.7893 25.5391 51.4142 25.9142C51.0391 26.2893 50.5304 26.5 50 26.5H30C29.4696 26.5 28.9609 26.2893 28.5858 25.9142C28.2107 25.5391 28 25.0304 28 24.5ZM28 54.5C28 53.9696 28.2107 53.4609 28.5858 53.0858C28.9609 52.7107 29.4696 52.5 30 52.5H50C50.5304 52.5 51.0391 52.7107 51.4142 53.0858C51.7893 53.4609 52 53.9696 52 54.5C52 55.0304 51.7893 55.5391 51.4142 55.9142C51.0391 56.2893 50.5304 56.5 50 56.5H30C29.4696 56.5 28.9609 56.2893 28.5858 55.9142C28.2107 55.5391 28 55.0304 28 54.5Z" fill="white"/>
</svg>
