<svg width="68" height="68" viewBox="0 0 68 68" fill="none" xmlns="http://www.w3.org/2000/svg">
<path d="M33.9998 0.666626C52.4098 0.666626 67.3332 15.59 67.3332 34C67.3332 52.41 52.4098 67.3333 33.9998 67.3333C15.5898 67.3333 0.666504 52.41 0.666504 34C0.666504 15.59 15.5898 0.666626 33.9998 0.666626ZM33.9998 44C33.1158 44 32.2679 44.3511 31.6428 44.9763C31.0177 45.6014 30.6665 46.4492 30.6665 47.3333C30.6665 48.2173 31.0177 49.0652 31.6428 49.6903C32.2679 50.3154 33.1158 50.6666 33.9998 50.6666C34.8839 50.6666 35.7317 50.3154 36.3569 49.6903C36.982 49.0652 37.3332 48.2173 37.3332 47.3333C37.3332 46.4492 36.982 45.6014 36.3569 44.9763C35.7317 44.3511 34.8839 44 33.9998 44ZM33.9998 14C33.1834 14.0001 32.3954 14.2998 31.7853 14.8423C31.1751 15.3849 30.7854 16.1325 30.6898 16.9433L30.6665 17.3333V37.3333C30.6674 38.1829 30.9928 39.0001 31.576 39.6179C32.1592 40.2356 32.9563 40.6074 33.8045 40.6572C34.6526 40.707 35.4878 40.431 36.1393 39.8857C36.7908 39.3404 37.2095 38.5669 37.3098 37.7233L37.3332 37.3333V17.3333C37.3332 16.4492 36.982 15.6014 36.3569 14.9763C35.7317 14.3511 34.8839 14 33.9998 14Z" fill="#FCAB00"/>
</svg>
