<?xml version="1.0" encoding="iso-8859-1"?>
<!-- Uploaded to: SVG Repo, www.svgrepo.com, Generator: SVG Repo Mixer Tools -->
<svg height="800px" width="800px" version="1.1" id="Layer_1" xmlns="http://www.w3.org/2000/svg" xmlns:xlink="http://www.w3.org/1999/xlink" 
	 viewBox="0 0 512 512" xml:space="preserve">
<g>
	<path style="fill:#FFA22B;" d="M412.603,293.491c13.787-5.967,27.746-14.124,40.876-25.245
		c59.605-50.481,47.207-115.44,47.207-115.44s-61.224-8.376-116.781,25.842c0.04-1.514,0.065-3.038,0.065-4.578
		c0-87.369-65.354-134.496-65.354-134.496s-65.353,47.125-65.353,134.496c0,1.796,0.038,3.568,0.092,5.33
		c-55.632-34.704-92.304-30.903-92.304-30.903s-36.523,68.866,23.081,119.348c13.205,11.184,27.224,19.388,41.05,25.395
		c-50.117,22.997-60.789,72.278-60.789,72.278s44.456,25.649,95.726,2.925c34.851-15.447,51.709-23.541,58.495-39.971
		c0.166-0.015-0.146,0.014,0,0c0.145,0.108,0,0,0,0s-0.134,0.1,0,0c0.154,0.015-0.174-0.017,0,0
		c6.791,16.433,23.663,24.531,58.5,39.971c51.271,22.725,95.726-2.925,95.726-2.925S462.25,316.595,412.603,293.491z"/>
	<path style="fill:#FFA22B;" d="M287.366,344.638c13.787-5.967,27.746-14.124,40.876-25.245
		c59.605-50.481,47.207-115.44,47.207-115.44s-61.224-8.376-116.781,25.842c0.04-1.514,0.065-3.038,0.065-4.578
		c0-87.369-65.354-134.496-65.354-134.496s-65.354,47.126-65.354,134.496c0,1.796,0.038,3.568,0.092,5.33
		c-55.632-34.704-116.903-26.595-116.903-26.595s-11.924,64.558,47.68,115.039c13.205,11.184,27.224,19.388,41.05,25.395
		c-50.117,22.997-60.789,72.278-60.789,72.278s44.456,25.649,95.726,2.925c34.851-15.447,51.709-23.541,58.495-39.971
		c0.166-0.015-0.146,0.014,0,0c0.145,0.108,0,0,0,0s-0.134,0.1,0,0c0.154,0.015-0.174-0.017,0,0
		c6.791,16.433,23.663,24.531,58.5,39.971c51.271,22.725,95.726-2.925,95.726-2.925S337.013,367.742,287.366,344.638z"/>
</g>
<path style="fill:#570029;" d="M434.205,294.091c9.226-5.259,17.88-11.3,25.865-18.063c63.417-53.712,51.185-122.244,50.633-125.135
	c-0.821-4.301-4.296-7.598-8.634-8.191c-2.419-0.333-55.045-7.114-108.329,18.911c-2.885-41.703-19.785-73.525-34.168-93.511
	c-17.109-23.774-34.267-36.278-34.989-36.799c-3.562-2.568-8.367-2.568-11.929,0c-0.722,0.521-17.879,13.024-34.989,36.799
	c-11.62,16.147-24.875,40.031-31.062,70.598c-4.045-7.376-8.254-13.876-12.266-19.452c-17.11-23.774-34.267-36.278-34.99-36.799
	c-3.561-2.568-8.367-2.568-11.928,0c-0.722,0.521-17.88,13.024-34.989,36.799c-14.453,20.082-31.448,52.121-34.209,94.121
	C64.904,186.979,12.295,193.522,9.876,193.843c-4.379,0.578-7.888,3.913-8.689,8.257c-0.531,2.873-12.27,70.987,51.118,124.674
	c8.017,6.79,16.702,12.859,25.957,18.146c-39.345,26.676-48.648,67.631-49.071,69.586c-0.938,4.333,1.03,8.775,4.87,10.991
	c1.999,1.152,49.583,27.956,104.954,3.415c18.659-8.271,33.293-14.766,44.168-22.326v65.84c0,5.631,4.565,10.197,10.197,10.197
	c5.632,0,10.197-4.566,10.197-10.197v-65.839c10.877,7.559,25.508,14.054,44.168,22.325c17.276,7.657,33.787,10.316,48.399,10.315
	c32.221-0.002,55.18-12.937,56.555-13.73c3.839-2.216,5.808-6.658,4.87-10.991c-0.42-1.94-9.649-42.581-48.603-69.269
	c1.877-1.07,3.724-2.181,5.554-3.315c10.609,14.629,29.797,23.138,58.462,35.843c17.276,7.657,33.787,10.316,48.399,10.315
	c32.22-0.002,55.179-12.937,56.555-13.73c3.839-2.216,5.808-6.658,4.87-10.99C482.387,361.42,473.158,320.779,434.205,294.091z
	 M335.301,411.212c-13.59,5.554-44.584,14.439-79.292-0.946c-32.966-14.613-46.817-21.614-52.432-32.851v-26.864l85.334-57.192
	c4.679-3.135,5.929-9.469,2.794-14.148c-3.137-4.68-9.471-5.93-14.149-2.793l-73.979,49.582V216.693
	c0-5.631-4.565-10.197-10.197-10.197c-5.632,0-10.197,4.566-10.197,10.197v109.475l-74.231-49.75
	c-4.679-3.135-11.013-1.884-14.148,2.793c-3.136,4.679-1.885,11.013,2.793,14.148l85.586,57.36v26.687
	c-5.61,11.243-19.458,18.244-52.432,32.859c-34.718,15.391-65.719,6.496-79.29,0.948c4.955-13.634,18.917-42.041,52.738-57.559
	c3.657-1.678,5.986-5.35,5.944-9.372s-2.444-7.646-6.135-9.248c-14.157-6.149-27.117-14.164-38.522-23.822
	c-22.666-19.197-37-42.681-42.608-69.803c-2.408-11.645-2.611-21.531-2.335-27.908c17.718-0.705,61.851,0.545,102.178,25.701
	c3.191,1.99,7.22,2.064,10.481,0.189c3.261-1.876,5.225-5.394,5.109-9.154c-0.059-1.922-0.087-3.516-0.087-5.016
	c0-33.794,10.2-65.233,30.318-93.444c9.409-13.194,18.923-22.58,24.837-27.838c5.919,5.262,15.431,14.646,24.839,27.838
	c20.118,28.211,30.318,59.65,30.318,93.444c0,1.449-0.024,2.884-0.062,4.309c-0.099,3.741,1.861,7.237,5.105,9.105
	c3.244,1.868,7.249,1.809,10.437-0.154c40.362-24.859,84.569-25.818,102.176-25.018c0.9,17.48-1.659,61.835-44.54,98.153
	c-11.339,9.603-24.237,17.567-38.335,23.667c-3.685,1.595-6.092,5.205-6.146,9.22c-0.055,4.016,2.253,7.689,5.894,9.384
	C316.533,369.458,330.379,397.664,335.301,411.212z M381.247,359.12c-29.014-12.86-43.218-19.827-50.036-28.973
	c1.221-0.976,2.431-1.964,3.622-2.973c63.418-53.712,51.185-122.244,50.633-125.135c-0.821-4.301-4.296-7.598-8.634-8.191
	c-2.419-0.334-55.045-7.114-108.328,18.911c-0.78-11.281-2.593-21.833-5.097-31.628c0.113-0.663,0.163-1.347,0.142-2.045
	c-0.059-1.922-0.087-3.516-0.087-5.016c0-33.794,10.2-65.233,30.318-93.444c9.409-13.194,18.923-22.58,24.837-27.838
	c5.919,5.262,15.431,14.646,24.838,27.838c20.118,28.211,30.318,59.65,30.318,93.444c0,1.449-0.024,2.884-0.062,4.309
	c-0.099,3.741,1.861,7.237,5.105,9.105c3.243,1.867,7.249,1.808,10.437-0.154c40.349-24.852,84.539-25.819,102.162-25.019
	c0.328,6.417,0.203,16.419-2.16,28.203c-5.461,27.231-19.715,50.766-42.365,69.951c-11.34,9.604-24.237,17.567-38.336,23.667
	c-3.685,1.595-6.092,5.205-6.146,9.22c-0.055,4.016,2.253,7.69,5.894,9.384c33.469,15.575,47.315,43.782,52.238,57.329
	C446.949,365.619,415.955,374.503,381.247,359.12z"/>
</svg>