<?xml version="1.0" encoding="iso-8859-1"?>
<!-- Uploaded to: SVG Repo, www.svgrepo.com, Generator: SVG Repo Mixer Tools -->
<svg height="800px" width="800px" version="1.1" id="Layer_1" xmlns="http://www.w3.org/2000/svg" xmlns:xlink="http://www.w3.org/1999/xlink" 
	 viewBox="0 0 511.844 511.844" xml:space="preserve">
<path style="fill:#EC5564;" d="M319.157,435.775c11.434-11.965,121.275-14.355,121.275-14.355s-20.916-16.01-17.619-33.505
	c3.279-17.511,89.004-37.895,89.004-37.895s-76.695-41.878-64.168-82.101c0,0-108.154,14.293-108.811,10.389
	c-0.672-3.906,103.594-103.969,103.594-103.969c-84.631,31.49-16.527-88.474-16.527-88.474
	c-7.81,4.515-119.869,68.198-88.379-16.433c0,0-100.062,104.266-103.968,103.609S243.945,64.23,243.945,64.23
	C203.722,76.742,161.798,0,161.798,0s-20.337,85.771-37.84,89.066c-17.51,3.28-33.505-17.635-33.505-17.635
	S88.062,181.287,76.09,192.706c-11.973,11.418-75.43,3.015-75.43,3.015s35.497,58.42-0.633,106.218l61.411,28.804l-8.864,23.462
	c0,0,80.482,17.744,83.903,21.103c3.413,3.374,21.088,83.896,21.088,83.896l23.516-8.825l28.843,61.465
	c47.79-36.129,106.265-1.515,106.265-1.515S307.739,447.739,319.157,435.775z"/>
<path style="fill:#424953;" d="M289.355,333.4v-0.031l-102.523-8.436l-8.436-102.53h-0.031c-0.484-5.858-5.631-10.231-11.496-9.747
	c-5.873,0.483-10.239,5.639-9.755,11.496c0.016,0.188,0.047,0.359,0.07,0.547l9.552,116.121l4.592-0.375l-0.374,4.576l116.12,9.561
	c0.188,0.016,0.344,0.047,0.531,0.062c5.873,0.484,11.027-3.875,11.496-9.748C299.601,339.023,295.228,333.884,289.355,333.4z"/>
<path style="fill:#646C77;" d="M273.327,238.459c-4.162-4.154-10.918-4.154-15.081,0c-0.148,0.156-0.289,0.328-0.43,0.484
	l-0.023-0.031L47.201,449.505l0,0l0,0c-4.162,4.17-4.162,10.918,0,15.089c4.163,4.171,10.911,4.155,15.082,0l0,0l0,0
	l210.591-210.592l-0.016-0.031c0.156-0.141,0.312-0.266,0.469-0.422C277.483,249.378,277.483,242.63,273.327,238.459z"/>
</svg>