<svg xmlns="http://www.w3.org/2000/svg" viewBox="0 0 28 41.25" fill="none" x="0px" y="0px"><path fill-rule="evenodd" clip-rule="evenodd" d="M4.39215 4.89212C-0.830869 10.1151 -0.830871 18.5833 4.39214 23.8063L13.1421 32.5563C13.5327 32.9469 14.1658 32.9469 14.5564 32.5563L23.3064 23.8063C28.5294 18.5833 28.5294 10.1151 23.3064 4.89212C18.0833 -0.3309 9.61516 -0.3309 4.39215 4.89212ZM8 14C8 10.6863 10.6863 8.00001 14 8.00001C17.3137 8.00001 20 10.6863 20 14C20 17.3137 17.3137 20 14 20C10.6863 20 8 17.3137 8 14Z" fill="#ff001c"/><text x="0" y="48" fill="#000000" font-size="5px" font-weight="bold" font-family="'Helvetica Neue', Helvetica, Arial-Unicode, Arial, Sans-serif">Created by HideMaru</text><text x="0" y="53" fill="#000000" font-size="5px" font-weight="bold" font-family="'Helvetica Neue', Helvetica, Arial-Unicode, Arial, Sans-serif">from the Noun Project</text></svg>