<svg width="44" height="44" viewBox="0 0 44 44" fill="none" xmlns="http://www.w3.org/2000/svg">
<circle cx="22" cy="22" r="22" fill="url(#paint0_angular_801_283)"/>
<path opacity="0.9" d="M33.3061 16.2257V16.1934H18.9248C19.3367 14.7908 20.6977 13.7574 22.3151 13.7574C23.2622 13.7574 24.1224 14.1132 24.7564 14.6899H26.7818C25.8973 13.2264 24.2274 12.2349 22.3151 12.2349C19.8032 12.2349 17.7071 13.9439 17.2649 16.1934H13.9533L13.9573 19.2364C14.4945 18.7302 15.0316 18.224 15.5707 17.7158H17.1821V28.4057H18.7975V17.7158H25.2592V28.4057H26.8747V17.7158H31.7088V29.9282H12.3439V16.2409H10.7285V31.4564H12.3439V31.4507H33.3222V16.2257H33.3061Z" fill="white"/>
<defs>
<radialGradient id="paint0_angular_801_283" cx="0" cy="0" r="1" gradientUnits="userSpaceOnUse" gradientTransform="translate(20.9303 25.1334) rotate(-45) scale(106.164)">
<stop offset="0.0001" stop-color="#06405E"/>
<stop offset="1" stop-color="#105886"/>
</radialGradient>
</defs>
</svg>
