<svg width="44" height="44" viewBox="0 0 44 44" fill="none" xmlns="http://www.w3.org/2000/svg">
<circle cx="22" cy="22" r="22" fill="url(#paint0_angular_801_290)"/>
<g clip-path="url(#clip0_801_290)">
<path opacity="0.9" d="M36.9569 22.0419C36.1042 21.0898 35.1858 20.2098 34.2097 19.4096L33.6334 20.2242L33.5988 20.2713L33.4167 20.535L32.7408 21.5804L34.292 21.3026C34.8337 21.7735 35.2626 22.2208 35.553 22.5269C34.0667 24.0715 29.023 28.8464 22.987 29.3314C24.4779 29.0748 25.8356 28.2486 26.816 27.0012C27.7963 25.7539 28.335 24.1673 28.335 22.5269C28.335 20.8865 27.7963 19.2999 26.816 18.0526C25.8356 16.8053 24.4779 15.979 22.987 15.7225C24.9239 15.9042 26.8161 16.4558 28.5767 17.3518L30.4573 16.8055L29.114 16.0615C26.8829 14.9175 24.4527 14.3042 21.986 14.2627C13.8138 14.2627 7.32721 21.7264 7.05423 22.0466L6.64258 22.5175L7.05423 22.9884C7.36621 23.3227 13.8442 30.7864 22.0251 30.7864C30.2059 30.7864 36.6839 23.3227 36.9569 23.0025L37.3685 22.5316L36.9569 22.0419ZM27.0731 22.5128C27.0748 23.5982 26.7802 24.6598 26.2266 25.5632C25.6729 26.4666 24.8851 27.1712 23.9629 27.5879C23.0406 28.0045 22.0254 28.1145 21.0456 27.9039C20.0658 27.6933 19.1655 27.1715 18.4586 26.4047C17.7518 25.6378 17.2701 24.6604 17.0746 23.5959C16.8792 22.5315 16.9786 21.428 17.3604 20.425C17.7423 19.422 18.3893 18.5647 19.2196 17.9615C20.0499 17.3583 21.0263 17.0363 22.0251 17.0363C23.3632 17.0388 24.6458 17.6175 25.592 18.6458C26.5382 19.6741 27.0708 21.068 27.0731 22.5222V22.5128ZM21.0414 15.7178C19.5477 15.9711 18.1864 16.7963 17.2032 18.0445C16.22 19.2926 15.6797 20.8816 15.6797 22.5246C15.6797 24.1676 16.22 25.7565 17.2032 27.0047C18.1864 28.2528 19.5477 29.078 21.0414 29.3314C15.0228 28.8605 9.97905 24.0762 8.47547 22.5269C9.97472 20.973 15.0141 16.1887 21.0414 15.7178Z" fill="#333335"/>
</g>
<defs>
<radialGradient id="paint0_angular_801_290" cx="0" cy="0" r="1" gradientUnits="userSpaceOnUse" gradientTransform="translate(20.9303 25.1334) rotate(-45) scale(105.163)">
<stop stop-color="#FCAB00"/>
<stop offset="1" stop-color="#F4DA5F"/>
</radialGradient>
<clipPath id="clip0_801_290">
<rect width="30.687" height="16.5237" fill="white" transform="translate(6.68164 14.2583)"/>
</clipPath>
</defs>
</svg>
