<svg width="132" height="17" viewBox="0 0 132 17" fill="none" xmlns="http://www.w3.org/2000/svg">
<g clip-path="url(#clip0_801_782)">
<path d="M54.1597 8.73682V8.65117C55.5723 8.50096 56.3211 7.70506 56.3211 6.41107C56.3211 4.71254 55.0365 3.80859 52.6203 3.80859H46.7164V13.4674C46.7164 13.9405 46.5452 14.3489 46.2891 14.4346V14.5664H52.8765C55.1868 14.5664 56.7275 13.2974 56.7275 11.3617C56.7301 9.89509 55.8284 8.97006 54.1597 8.73682ZM49.0908 5.23172H52.4269C53.4972 5.23172 53.8814 5.55324 53.8814 6.30697V6.80111C53.8814 7.70506 53.475 8.07006 52.4269 8.07006H49.0908V5.23172ZM54.2473 11.504C54.2473 12.7084 53.8186 13.1393 52.6426 13.1393H48.8987V13.0536C49.0686 12.8375 49.0908 12.4936 49.0908 12.0851V9.4642H52.6412C53.7533 9.4642 54.2459 9.93858 54.2459 11.0138L54.2473 11.504Z"/>
<path d="M8.42863 0C3.55178 0 0 3.22575 0 7.65721C0 11.6802 3.03823 14.6055 7.1872 14.5844C7.65764 14.5844 7.80792 14.5844 8.25744 14.562V12.8213H8.12677C8.06274 13.0361 7.63543 13.1441 7.10096 13.1441C4.61811 13.1441 2.88664 10.8856 2.88664 7.65853C2.88664 3.89515 5.06894 1.46529 8.42732 1.46529C11.7204 1.46529 13.7537 3.87406 13.7537 7.7903C13.7537 12.028 11.0578 15.0825 7.6119 15.126L7.63281 16.0932C13.0872 16.0932 16.6168 12.8239 16.6168 7.79161C16.6207 3.1401 13.3264 0 8.42863 0Z"/>
<path d="M26.9509 11.3131H26.866C26.8019 11.0338 26.6046 10.6253 26.1172 10.0877L20.4485 3.80615H18.1172V3.93792C18.3524 4.02357 18.5236 4.41098 18.5236 4.88404V14.5639H20.5765V8.19413C20.5765 7.22693 20.4916 7.03322 20.3413 6.8606L20.4275 6.79603L26.994 14.0434V14.56H29.0051V3.80615H26.9509V11.3131Z"/>
<path d="M31.5106 13.465C31.5106 13.8734 31.3172 14.3254 31.082 14.4322V14.5639H40.0438V13.0841H33.6903V12.9985C33.7975 12.8667 33.8837 12.5465 33.8837 12.1802V9.52633H39.167V8.0439H33.8837V5.29121H40.0438V3.80615H31.5106V13.465Z"/>
<path d="M64.0191 3.80615H61.4957V3.93792C61.8381 4.04598 61.8381 4.32533 61.4957 5.07774L57.2383 14.5652H59.4598L61.1102 10.844H64.875L66.5215 14.5652H68.8737L64.0191 3.80615ZM61.6447 9.55005L61.6878 9.33526L62.5006 7.44171C62.843 6.65109 62.9292 6.38754 62.8639 6.17276H62.9501L64.2765 9.33526L64.3183 9.55005H61.6447Z"/>
<path d="M126.138 9.39456C125.838 9.1152 125.582 8.96498 125.283 8.96498V8.87933L130.954 3.80615H128.452L122.912 8.75415H122.805V3.80615H120.453V14.5613H122.805V9.20613C123.084 9.20613 123.276 9.31286 123.72 9.74375L128.875 14.5613H131.656L126.138 9.39456Z"/>
<path d="M100.748 8.96894V8.88329L106.415 3.80615H103.913L98.3734 8.75415H98.2662V3.80615H95.9141V14.5613H98.2662V9.20613C98.5446 9.20613 98.7367 9.31286 99.181 9.74375L104.336 14.5613H107.117L101.602 9.39456C101.303 9.11916 101.047 8.96894 100.748 8.96894Z"/>
<path d="M112.659 3.4668H112.638C109.088 3.4668 106.691 5.74643 106.691 9.16721C106.691 12.588 109.088 14.8676 112.638 14.8676H112.659C116.21 14.8676 118.606 12.5867 118.606 9.16721C118.606 5.74775 116.212 3.4668 112.659 3.4668ZM116.039 9.42548C116.039 12.049 114.799 13.5987 112.659 13.5987H112.638C110.499 13.5987 109.258 12.049 109.258 9.42548V8.90893C109.258 6.28537 110.499 4.73575 112.638 4.73575H112.659C114.799 4.73575 116.039 6.28537 116.039 8.90893V9.42548Z"/>
<path d="M78.8871 11.3131H78.8009C78.7368 11.0338 78.5395 10.6253 78.0521 10.0877L72.3846 3.80615H70.0586V3.93792C70.2938 4.02357 70.465 4.41098 70.465 4.88404V14.5639H72.5192V8.19413C72.5192 7.22693 72.433 7.03322 72.284 6.8606L72.369 6.79603L78.9354 14.0434V14.56H80.9466V3.80615H78.8871V11.3131Z"/>
<path d="M91.0971 9.01301C91.4395 9.09866 91.5898 9.37802 91.5898 9.93541V12.0648C91.5898 12.559 91.7205 12.8555 91.9962 13.032L91.9531 13.119C91.6936 13.1282 91.4357 13.164 91.1834 13.2257C90.5361 13.3664 89.8773 13.4458 89.2154 13.4629C86.6019 13.4629 85.0873 12.0003 85.0873 9.48344V9.21989C85.0873 6.55285 86.6554 4.93866 89.2154 4.93866C90.6698 4.93866 91.9322 5.4552 93.2154 6.55285V4.36677C91.9611 3.78658 90.5953 3.49277 89.2154 3.50631C84.958 3.50631 82.5195 5.61464 82.5195 9.33585C82.5195 12.8199 85.0024 14.8636 89.2154 14.8636C90.349 14.8521 91.4769 14.7003 92.5738 14.4117C93.1723 14.2614 93.3866 14.2799 93.5787 14.5619H93.7094V8.88388H91.0971V9.01301Z"/>
</g>
<defs>
<clipPath id="clip0_801_782">
<rect width="131.565" height="17"/>
</clipPath>
</defs>
</svg>
