<svg width="24" height="24" viewBox="0 0 24 24" fill="none" xmlns="http://www.w3.org/2000/svg">
<g clip-path="url(#clip0_1349_265)">
<path d="M10.6826 12.4366V12.5616H10.8076H13.852H13.977V12.4366V8.07293V7.94793H13.852H10.8076H10.6826V8.07293V12.4366ZM4.74234 12.4366V11.902H6.06527V12.8425C6.06527 13.1325 5.96459 13.376 5.76066 13.5799C5.55673 13.7838 5.3133 13.8845 5.02323 13.8845H1.16703C0.876967 13.8845 0.633538 13.7838 0.42961 13.5799C0.225682 13.376 0.125 13.1325 0.125 12.8425V7.66703C0.125 7.37697 0.225682 7.13354 0.42961 6.92961C0.633538 6.72568 0.876968 6.625 1.16703 6.625H5.02323C5.3133 6.625 5.55673 6.72568 5.76066 6.92961C5.96459 7.13354 6.06527 7.37697 6.06527 7.66703V8.60755H4.74234V8.07293V7.94793H4.61734H1.57293H1.44793V8.07293V12.4366V12.5616H1.57293H4.61734H4.74234V12.4366ZM20.0423 16.5193H23.875V17.8422H18.5944V14.796C18.5944 14.5059 18.695 14.2625 18.899 14.0586C19.1029 13.8547 19.3463 13.754 19.6364 13.754H22.4271H22.5521V13.629V12.0306V11.9056H22.4271H18.5944V10.5827H22.833C23.123 10.5827 23.3665 10.6834 23.5704 10.8873C23.7743 11.0913 23.875 11.3347 23.875 11.6248V13.629C23.875 13.919 23.7743 14.1624 23.5704 14.3664C23.3665 14.5703 23.123 14.671 22.833 14.671H20.0423H19.9173V14.796V16.3943V16.5193H20.0423ZM10.4017 13.8845C10.1116 13.8845 9.86821 13.7838 9.66429 13.5799C9.46036 13.376 9.35968 13.1325 9.35968 12.8425V7.66703C9.35968 7.37697 9.46036 7.13354 9.66429 6.92961C9.86821 6.72568 10.1116 6.625 10.4017 6.625H14.2579C14.548 6.625 14.7914 6.72568 14.9953 6.92961C15.1993 7.13354 15.2999 7.37697 15.2999 7.66703V12.8425C15.2999 13.1325 15.1993 13.376 14.9953 13.5799C14.7914 13.7838 14.548 13.8845 14.2579 13.8845H10.4017Z" fill="black" stroke="black" stroke-width="0.25"/>
</g>
<defs>
<clipPath id="clip0_1349_265">
<rect width="24" height="24" fill="white"/>
</clipPath>
</defs>
</svg>
