<svg width="24" height="24" viewBox="0 0 24 24" fill="none" xmlns="http://www.w3.org/2000/svg">
<path d="M20.8426 18.1447C20.5099 18.9133 20.1161 19.6208 19.6598 20.2713C19.0378 21.158 18.5286 21.7719 18.1361 22.1127C17.5277 22.6722 16.8759 22.9587 16.1779 22.975C15.6768 22.975 15.0725 22.8324 14.3691 22.5432C13.6633 22.2553 13.0148 22.1127 12.4217 22.1127C11.7998 22.1127 11.1327 22.2553 10.4193 22.5432C9.70469 22.8324 9.12904 22.9832 8.68892 22.9981C8.01957 23.0266 7.35239 22.7319 6.68644 22.1127C6.26139 21.742 5.72974 21.1064 5.09285 20.2061C4.40951 19.2446 3.84772 18.1297 3.4076 16.8587C2.93624 15.4857 2.69995 14.1563 2.69995 12.8692C2.69995 11.3948 3.01853 10.1232 3.65665 9.0576C4.15815 8.20166 4.82533 7.52647 5.66035 7.03081C6.49537 6.53514 7.39761 6.28256 8.36925 6.2664C8.9009 6.2664 9.59809 6.43085 10.4645 6.75405C11.3284 7.07834 11.8832 7.24279 12.1264 7.24279C12.3082 7.24279 12.9245 7.0505 13.9692 6.66714C14.9571 6.31162 15.7909 6.16441 16.474 6.2224C18.3249 6.37178 19.7155 7.10142 20.6402 8.41595C18.9849 9.41896 18.166 10.8238 18.1823 12.626C18.1972 14.0297 18.7065 15.1979 19.7073 16.1254C20.1609 16.5558 20.6674 16.8885 21.231 17.1248C21.1087 17.4793 20.9797 17.8188 20.8426 18.1447ZM16.5975 1.44013C16.5975 2.54038 16.1956 3.56768 15.3944 4.51854C14.4275 5.64892 13.258 6.30211 11.9898 6.19904C11.9736 6.06705 11.9642 5.92812 11.9642 5.78214C11.9642 4.7259 12.424 3.59552 13.2406 2.67127C13.6483 2.20331 14.1667 1.81421 14.7955 1.50381C15.4229 1.19805 16.0163 1.02896 16.5744 1C16.5907 1.14709 16.5975 1.29418 16.5975 1.44011V1.44013Z" fill="#292929"/>
</svg>
