<svg width="21" height="21" viewBox="0 0 21 21" fill="none" xmlns="http://www.w3.org/2000/svg">
<path d="M10.693 0.523415L10.1313 0L9.56964 0.523415H9.56633L0 9.39606L1.12662 10.845L2.27478 10.0209V20.2609H4.84115V18.8356H3.50412V8.409L10.133 2.49571L16.7585 8.409V18.8356H7.49202L7.47214 13.0907C7.81841 12.6524 8.88539 11.497 10.4246 11.6418C11.6821 11.7596 12.4806 12.6579 12.7888 13.0763L12.7689 16.847V16.6604C12.5486 16.9013 12.3266 17.144 12.1062 17.3849H14.091L14.1175 12.6126L13.9983 12.4242C13.6984 11.9497 12.5618 10.3867 10.5389 10.1966C7.888 9.94845 6.33061 12.3192 6.266 12.4206L6.14505 12.609L6.1583 16.3906L6.16659 18.5929V18.8338V20.2591H18.0441V10.0191L19.1343 10.8431L20.2609 9.39425L10.6946 0.521602L10.693 0.523415Z" fill="#1A1919"/>
</svg>
