<svg width="12" height="12" viewBox="0 0 12 12" fill="none" xmlns="http://www.w3.org/2000/svg">
<g id="clarity:building-line" clip-path="url(#clip0_943_574)">
<path id="Vector" d="M6.6855 0H1.1815C0.956593 0 0.7409 0.0893426 0.58187 0.248373C0.422839 0.407404 0.333496 0.623096 0.333496 0.848V12H7.5335V0.848C7.5335 0.623096 7.44415 0.407404 7.28512 0.248373C7.12609 0.0893426 6.9104 0 6.6855 0ZM6.7335 11.2H5.5335V10H2.3335V11.2H1.1335V0.848C1.1335 0.841697 1.13474 0.835455 1.13715 0.829631C1.13956 0.823808 1.1431 0.818516 1.14755 0.814059C1.15201 0.809602 1.1573 0.806066 1.16313 0.803654C1.16895 0.801242 1.17519 0.8 1.1815 0.8H6.6855C6.6918 0.8 6.69804 0.801242 6.70387 0.803654C6.70969 0.806066 6.71498 0.809602 6.71944 0.814059C6.72389 0.818516 6.72743 0.823808 6.72984 0.829631C6.73225 0.835455 6.7335 0.841697 6.7335 0.848V11.2Z" fill="#FDFDFD"/>
<path id="Vector_2" d="M1.93311 2H2.73311V2.8H1.93311V2Z" fill="#FDFDFD"/>
<path id="Vector_3" d="M3.5332 2H4.3332V2.8H3.5332V2Z" fill="#FDFDFD"/>
<path id="Vector_4" d="M5.1333 2H5.9333V2.8H5.1333V2Z" fill="#FDFDFD"/>
<path id="Vector_5" d="M1.93311 4H2.73311V4.8H1.93311V4Z" fill="#FDFDFD"/>
<path id="Vector_6" d="M3.5332 4H4.3332V4.8H3.5332V4Z" fill="#FDFDFD"/>
<path id="Vector_7" d="M5.1333 4H5.9333V4.8H5.1333V4Z" fill="#FDFDFD"/>
<path id="Vector_8" d="M1.93311 6H2.73311V6.8H1.93311V6Z" fill="#FDFDFD"/>
<path id="Vector_9" d="M3.5332 6H4.3332V6.8H3.5332V6Z" fill="#FDFDFD"/>
<path id="Vector_10" d="M5.1333 6H5.9333V6.8H5.1333V6Z" fill="#FDFDFD"/>
<path id="Vector_11" d="M1.93311 8H2.73311V8.8H1.93311V8Z" fill="#FDFDFD"/>
<path id="Vector_12" d="M3.5332 8H4.3332V8.8H3.5332V8Z" fill="#FDFDFD"/>
<path id="Vector_13" d="M5.1333 8H5.9333V8.8H5.1333V8Z" fill="#FDFDFD"/>
<path id="Vector_14" d="M11.1331 2H7.93311V2.8H11.1331V11.2H7.93311V12H11.9331V2.8C11.9331 2.58783 11.8488 2.38434 11.6988 2.23431C11.5488 2.08429 11.3453 2 11.1331 2Z" fill="#FDFDFD"/>
<path id="Vector_15" d="M7.93311 4H8.73311V4.8H7.93311V4Z" fill="#FDFDFD"/>
<path id="Vector_16" d="M9.5332 4H10.3332V4.8H9.5332V4Z" fill="#FDFDFD"/>
<path id="Vector_17" d="M7.93311 6H8.73311V6.8H7.93311V6Z" fill="#FDFDFD"/>
<path id="Vector_18" d="M9.5332 6H10.3332V6.8H9.5332V6Z" fill="#FDFDFD"/>
<path id="Vector_19" d="M7.93311 8H8.73311V8.8H7.93311V8Z" fill="#FDFDFD"/>
<path id="Vector_20" d="M9.5332 8H10.3332V8.8H9.5332V8Z" fill="#FDFDFD"/>
</g>
<defs>
<clipPath id="clip0_943_574">
<rect width="12" height="12" fill="white"/>
</clipPath>
</defs>
</svg>
