<svg width="26" height="24" viewBox="0 0 26 24" fill="none" xmlns="http://www.w3.org/2000/svg">
<path d="M23.1592 4.00024H2.85152C2.36189 4.00024 1.89232 4.19475 1.5461 4.54097C1.19988 4.88719 1.00537 5.35677 1.00537 5.8464V18.7695C1.00537 19.2591 1.19988 19.7287 1.5461 20.0749C1.89232 20.4211 2.36189 20.6156 2.85152 20.6156H23.1592C23.6488 20.6156 24.1184 20.4211 24.4646 20.0749C24.8109 19.7287 25.0054 19.2591 25.0054 18.7695V5.8464C25.0054 5.35677 24.8109 4.88719 24.4646 4.54097C24.1184 4.19475 23.6488 4.00024 23.1592 4.00024Z" stroke="black" stroke-linecap="round" stroke-linejoin="round"/>
<path d="M4.69873 9.53735L7.46796 15.5374L10.2372 9.53735M13.468 9.53735V15.5374M17.1603 13.4835H18.5264C19.1273 13.4835 19.7052 13.2297 20.115 12.7912C20.4528 12.4309 20.6568 11.9656 20.6929 11.4731C20.729 10.9805 20.5951 10.4905 20.3135 10.0847C20.1949 9.91577 20.0373 9.77783 19.8542 9.68256C19.671 9.58729 19.4676 9.53749 19.2612 9.53735H17.1603V13.4835ZM17.1603 13.4835V15.5374" stroke="black" stroke-linecap="round" stroke-linejoin="round"/>
</svg>
