<svg width="16" height="16" viewBox="0 0 16 16" fill="none" xmlns="http://www.w3.org/2000/svg">
<g clip-path="url(#clip0_1116_6066)">
<path d="M2.30116 16.0014L2.30402 15.9971L2.29688 15.9985L2.30116 16.0014Z" fill="#292929"/>
<path d="M2.29297 16.0024L2.30011 15.9989L2.29475 15.9971L2.29297 16.0024Z" fill="black"/>
<path d="M13.7155 0H2.28592C1.02295 0 0 1.02487 0 2.29021V11.4697C0 12.6663 0.915796 13.6468 2.08447 13.7499C2.36878 13.1315 2.65309 12.5146 2.93598 11.8962C2.49451 12.0623 2.05447 12.2283 1.613 12.3929C1.32869 12.1839 1.14296 11.849 1.14296 11.4697V2.29021C1.14296 1.65897 1.65586 1.14511 2.28592 1.14511H13.7155C14.3456 1.14511 14.8585 1.65897 14.8585 2.29021V11.4697C14.8585 12.1009 14.3456 12.6148 13.7155 12.6148H11.3324L11.431 12.5776L7.99929 12.6005C6.79489 13.1043 5.5905 13.6082 4.38468 14.1134L4.95759 12.6148H3.86892L3.33887 13.7599H3.34744L2.85311 14.8105L2.30306 15.9971L7.99929 13.7599H13.7141C14.9771 13.7599 16 12.735 16 11.4697V2.29021C16 1.02487 14.9771 0 13.7141 0H13.7155Z" fill="black"/>
<path d="M6.82833 8.30761C6.78404 7.39582 7.08406 6.79463 7.92843 6.08181C8.52848 5.58082 8.73993 5.24731 8.73993 4.86799C8.73993 4.36701 8.37418 4.08932 7.59554 4.08932C6.87405 4.08932 6.11826 4.33409 5.5625 4.7907V3.47812C6.28542 3.06588 7.08407 2.85547 7.97272 2.85547C9.57286 2.85547 10.4387 3.52249 10.4387 4.76923C10.4387 5.50353 10.1386 6.182 9.21711 6.87336C8.50562 7.40727 8.30703 7.71931 8.27274 8.30904H6.82833V8.30761ZM6.57402 9.90932C6.57402 9.3654 6.98406 8.96318 7.55125 8.96318C8.11844 8.96318 8.53991 9.36397 8.53991 9.90932C8.53991 10.4547 8.12844 10.8555 7.55125 10.8555C6.97406 10.8555 6.57402 10.4547 6.57402 9.90932Z" fill="black"/>
</g>
<defs>
<clipPath id="clip0_1116_6066">
<rect width="16" height="16" fill="white"/>
</clipPath>
</defs>
</svg>
