<svg width="24" height="24" viewBox="0 0 24 24" fill="none" xmlns="http://www.w3.org/2000/svg">
<g clip-path="url(#clip0_1349_56)">
<path d="M12.0011 0.000244141C5.37269 0.000244141 0 5.37293 0 12.0013C0 18.6297 4.91548 23.528 11.1425 23.968V22.2466C5.87282 21.8087 1.7172 17.3826 1.7172 12.0013C1.7172 6.33027 6.33002 1.71744 12.0011 1.71744C17.6721 1.71744 22.2849 6.33027 22.2849 12.0013C22.2849 16.8782 18.8742 20.9694 14.3107 22.0212C13.8256 21.5361 13.3426 21.0531 12.8575 20.568V22.2466V23.968C19.0845 23.528 24 18.3399 24 12.0013C24 5.66271 18.6295 0.000244141 12.0011 0.000244141Z" fill="#292929"/>
<path d="M8.4528 16.3974C8.4528 15.9232 8.06839 15.5388 7.5942 15.5388C7.12 15.5388 6.7356 15.9232 6.7356 16.3974C6.7356 16.8716 7.12 17.256 7.5942 17.256C8.06839 17.256 8.4528 16.8716 8.4528 16.3974Z" fill="black"/>
<path d="M12.0011 14.1132C12.0011 13.639 11.6167 13.2546 11.1425 13.2546C10.6683 13.2546 10.2839 13.639 10.2839 14.1132C10.2839 14.5874 10.6683 14.9718 11.1425 14.9718C11.6167 14.9718 12.0011 14.5874 12.0011 14.1132Z" fill="black"/>
<path d="M12.8598 10.0393C12.8598 9.56507 12.4754 9.18066 12.0012 9.18066C11.527 9.18066 11.1426 9.56507 11.1426 10.0393C11.1426 10.5135 11.527 10.8979 12.0012 10.8979C12.4754 10.8979 12.8598 10.5135 12.8598 10.0393Z" fill="black"/>
<path d="M15.3798 5.76778C15.3798 5.29359 14.9954 4.90918 14.5212 4.90918C14.047 4.90918 13.6626 5.29359 13.6626 5.76778C13.6626 6.24197 14.047 6.62638 14.5212 6.62638C14.9954 6.62638 15.3798 6.24197 15.3798 5.76778Z" fill="black"/>
<path d="M9.71085 6.62642C9.71085 6.15223 9.32644 5.76782 8.85225 5.76782C8.37806 5.76782 7.99365 6.15223 7.99365 6.62642C7.99365 7.10061 8.37806 7.48502 8.85225 7.48502C9.32644 7.48502 9.71085 7.10061 9.71085 6.62642Z" fill="black"/>
<path d="M16.5131 14.1132C16.5131 13.639 16.1287 13.2546 15.6545 13.2546C15.1803 13.2546 14.7959 13.639 14.7959 14.1132C14.7959 14.5874 15.1803 14.9718 15.6545 14.9718C16.1287 14.9718 16.5131 14.5874 16.5131 14.1132Z" fill="black"/>
<path d="M19.9152 11.1254C19.9152 10.6513 19.5308 10.2668 19.0566 10.2668C18.5824 10.2668 18.198 10.6513 18.198 11.1254C18.198 11.5996 18.5824 11.984 19.0566 11.984C19.5308 11.984 19.9152 11.5996 19.9152 11.1254Z" fill="black"/>
<path d="M14.5771 17.7624C14.5771 17.2882 14.1927 16.9038 13.7185 16.9038C13.2443 16.9038 12.8599 17.2882 12.8599 17.7624C12.8599 18.2366 13.2443 18.621 13.7185 18.621C14.1927 18.621 14.5771 18.2366 14.5771 17.7624Z" fill="black"/>
<path d="M6.27018 10.2673C6.27018 9.7931 5.88577 9.40869 5.41158 9.40869C4.93739 9.40869 4.55298 9.7931 4.55298 10.2673C4.55298 10.7415 4.93739 11.1259 5.41158 11.1259C5.88577 11.1259 6.27018 10.7415 6.27018 10.2673Z" fill="black"/>
</g>
<defs>
<clipPath id="clip0_1349_56">
<rect width="24" height="24" fill="white"/>
</clipPath>
</defs>
</svg>
