<svg width="24" height="24" viewBox="0 0 24 24" fill="none" xmlns="http://www.w3.org/2000/svg">
<g clip-path="url(#clip0_2455_1384)">
<path d="M10.4044 4.7968C11.7299 4.7968 12.8044 3.72229 12.8044 2.39681C12.8044 1.07134 11.7299 -0.00317383 10.4044 -0.00317383C9.07891 -0.00317383 8.00439 1.07134 8.00439 2.39681C8.00439 3.72229 9.07891 4.7968 10.4044 4.7968Z" fill="black"/>
<path d="M19.9753 15.3621C19.9209 15.0901 19.7741 14.8454 19.5597 14.6695C19.3453 14.4936 19.0766 14.3974 18.7993 14.3973H13.8397L13.3249 10.7973H18.7993V8.3973H12.9829L12.7873 7.02691C12.7463 6.74107 12.6036 6.47961 12.3854 6.29049C12.1672 6.10137 11.8881 5.99728 11.5993 5.99731H10.3993C10.2275 5.99788 10.0578 6.03523 9.90162 6.10685C9.74544 6.17846 9.60641 6.28269 9.49386 6.41251C9.38132 6.54233 9.29787 6.69475 9.24914 6.85951C9.2004 7.02427 9.18751 7.19755 9.21132 7.36771L10.2637 14.7381C10.3479 15.3088 10.6339 15.8305 11.0698 16.2083C11.5058 16.5861 12.0628 16.7951 12.6397 16.7973H17.8153L18.8221 21.8324C18.9349 22.3928 19.4269 22.7972 19.9993 22.7972H23.5992V20.3972H20.9821L19.9753 15.3621Z" fill="black"/>
<path d="M14.6154 18.5977C13.7286 20.3689 11.9154 21.5977 9.80338 21.5977C8.3717 21.5961 6.99912 21.0266 5.98677 20.0143C4.97443 19.0019 4.40499 17.6294 4.40341 16.1977C4.40542 15.1225 4.72817 14.0723 5.33036 13.1815C5.93254 12.2908 6.78678 11.5999 7.78379 11.1973L7.43699 8.76733C4.28941 9.77173 2.00342 12.7225 2.00342 16.1977C2.00342 20.4985 5.5026 23.9977 9.80338 23.9977C11.1411 23.9958 12.4559 23.6497 13.6212 22.9928C14.7866 22.3358 15.7632 21.3901 16.4573 20.2465L16.1285 18.5977H14.6154Z" fill="black"/>
</g>
<defs>
<clipPath id="clip0_2455_1384">
<rect width="24" height="24" fill="white"/>
</clipPath>
</defs>
</svg>
