<svg width="43" height="42" viewBox="0 0 43 42" fill="none" xmlns="http://www.w3.org/2000/svg">
<path d="M21.5 0C15.9512 0.0669441 10.6486 2.30093 6.72478 6.22478C2.80093 10.1486 0.566944 15.4512 0.5 21C0.566944 26.5488 2.80093 31.8514 6.72478 35.7752C10.6486 39.6991 15.9512 41.9331 21.5 42C27.0488 41.9331 32.3514 39.6991 36.2752 35.7752C40.1991 31.8514 42.4331 26.5488 42.5 21C42.4331 15.4512 40.1991 10.1486 36.2752 6.22478C32.3514 2.30093 27.0488 0.0669441 21.5 0ZM33.5 22.5H23V33H20V22.5H9.5V19.5H20V9H23V19.5H33.5V22.5Z" fill="#292929"/>
</svg>
