<svg width="20" height="21" viewBox="0 0 20 21" fill="none" xmlns="http://www.w3.org/2000/svg">
<g id="Frame 1000004300">
<path id="Vector" d="M14.8035 20.7594C11.7868 20.7594 8.38676 19.1511 5.39509 16.3094C2.07009 13.1427 0.0117541 9.08439 0.0284208 5.71773C0.286754 2.71773 1.79511 1.45106 3.02011 0.901061C4.06178 0.434394 5.28678 0.767728 5.94512 1.69273L8.22844 5.05106C8.81178 5.90939 8.71179 7.04273 7.98679 7.81773L6.90342 8.97606C8.07009 11.1594 9.65342 12.7427 11.6451 13.6844L13.7618 11.3261L15.0368 12.4011L12.1284 15.6927L11.5701 15.4677C8.77845 14.3427 6.62011 12.2344 5.15344 9.19273L4.90345 8.67606L6.77011 6.67606C6.95344 6.47606 6.98676 6.18439 6.85342 5.98439L4.58678 2.64273C4.39511 2.37606 4.02845 2.27606 3.70345 2.41773C2.50345 2.95106 1.8451 4.05106 1.70343 5.78439C1.6951 8.64273 3.55344 12.2344 6.56178 15.0927C9.32844 17.7261 12.5285 19.2261 15.1701 19.0761C16.5201 19.0011 17.6701 18.2427 18.2451 17.0511C18.3868 16.7594 18.2868 16.4011 18.0118 16.2177L14.9534 14.1761L15.8784 12.7927L18.9368 14.8344C19.8951 15.4761 20.2451 16.7427 19.7451 17.7761C18.9034 19.5261 17.2201 20.6261 15.2618 20.7427C15.1201 20.7427 14.9701 20.7511 14.8201 20.7511L14.8035 20.7594Z" fill="#292929"/>
</g>
</svg>
