<svg width="22" height="30" viewBox="0 0 22 30" fill="none" xmlns="http://www.w3.org/2000/svg">
<g clip-path="url(#clip0_331_1525)">
<circle cx="11" cy="28" r="1" fill="url(#paint0_radial_331_1525)"/>
<path d="M22 11.254C22 5.03869 17.075 0 11 0C4.92496 0 0 5.03869 0 11.254C0 15.5526 2.35582 19.2865 5.81998 21.1843L7.62858 22.3182C8.20826 22.6788 8.69983 23.1628 9.0801 23.7416C9.0801 23.7416 10.3368 25.7153 10.4574 25.8197C10.7449 26.0617 10.9954 25.9953 10.9954 25.9953C10.9954 25.9953 11.2504 26.0617 11.5333 25.8197C11.6585 25.7153 12.9106 23.7416 12.9106 23.7416C13.2863 23.1675 13.7825 22.6788 14.3621 22.3182L16.1707 21.1843C19.6349 19.2912 21.9907 15.5526 21.9907 11.254H22Z" fill="url(#paint1_radial_331_1525)"/>
<path d="M11.0001 4.46924C9.61347 4.46924 8.49121 5.61741 8.49121 7.03603C8.49121 8.20792 9.26103 9.1853 10.3137 9.49369V15.7754C10.3137 16.2973 10.3786 16.9189 10.6244 17.3269C10.7543 17.5404 11.0001 17.6258 11.0001 17.6258C11.0001 17.6258 11.2458 17.5357 11.3757 17.3269C11.6215 16.9189 11.6864 16.2973 11.6864 15.7754V9.49369C12.7345 9.1853 13.5089 8.20792 13.5089 7.03603C13.5089 5.61741 12.3867 4.46924 11.0001 4.46924ZM10.1746 7.08822C9.72013 7.08822 9.35377 6.7134 9.35377 6.24844C9.35377 5.78347 9.72013 5.40865 10.1746 5.40865C10.6291 5.40865 10.9954 5.78347 10.9954 6.24844C10.9954 6.7134 10.6291 7.08822 10.1746 7.08822Z" fill="white"/>
<circle cx="11" cy="28" r="1" fill="url(#paint2_radial_331_1525)"/>
<path d="M22 11.254C22 5.03869 17.075 0 11 0C4.92496 0 0 5.03869 0 11.254C0 15.5526 2.35582 19.2865 5.81998 21.1843L7.62858 22.3182C8.20826 22.6788 8.69983 23.1628 9.0801 23.7416C9.0801 23.7416 10.3368 25.7153 10.4574 25.8197C10.7449 26.0617 10.9954 25.9953 10.9954 25.9953C10.9954 25.9953 11.2504 26.0617 11.5333 25.8197C11.6585 25.7153 12.9106 23.7416 12.9106 23.7416C13.2863 23.1675 13.7825 22.6788 14.3621 22.3182L16.1707 21.1843C19.6349 19.2912 21.9907 15.5526 21.9907 11.254H22Z" fill="url(#paint3_radial_331_1525)"/>
<path d="M11.0001 4.46924C9.61347 4.46924 8.49121 5.61741 8.49121 7.03603C8.49121 8.20792 9.26103 9.1853 10.3137 9.49369V15.7754C10.3137 16.2973 10.3786 16.9189 10.6244 17.3269C10.7543 17.5404 11.0001 17.6258 11.0001 17.6258C11.0001 17.6258 11.2458 17.5357 11.3757 17.3269C11.6215 16.9189 11.6864 16.2973 11.6864 15.7754V9.49369C12.7345 9.1853 13.5089 8.20792 13.5089 7.03603C13.5089 5.61741 12.3867 4.46924 11.0001 4.46924ZM10.1746 7.08822C9.72013 7.08822 9.35377 6.7134 9.35377 6.24844C9.35377 5.78347 9.72013 5.40865 10.1746 5.40865C10.6291 5.40865 10.9954 5.78347 10.9954 6.24844C10.9954 6.7134 10.6291 7.08822 10.1746 7.08822Z" fill="white"/>
</g>
<defs>
<radialGradient id="paint0_radial_331_1525" cx="0" cy="0" r="1" gradientUnits="userSpaceOnUse" gradientTransform="translate(10.9545 27.5384) rotate(88.2187) scale(1.46232 1.46192)">
<stop stop-color="#FFBABC"/>
<stop offset="0.5" stop-color="#F26B6F"/>
<stop offset="1" stop-color="#D10006"/>
</radialGradient>
<radialGradient id="paint1_radial_331_1525" cx="0" cy="0" r="1" gradientUnits="userSpaceOnUse" gradientTransform="translate(10.5 7) rotate(88.4928) scale(19.0102 16.0833)">
<stop stop-color="#FFBABC"/>
<stop offset="0.5" stop-color="#F26B6F"/>
<stop offset="1" stop-color="#D10006"/>
</radialGradient>
<radialGradient id="paint2_radial_331_1525" cx="0" cy="0" r="1" gradientUnits="userSpaceOnUse" gradientTransform="translate(10.9545 27.5384) rotate(88.2187) scale(1.46232 1.46192)">
<stop stop-color="#5D7EB6"/>
<stop offset="0.5" stop-color="#2F4365"/>
<stop offset="1" stop-color="#162C51"/>
</radialGradient>
<radialGradient id="paint3_radial_331_1525" cx="0" cy="0" r="1" gradientUnits="userSpaceOnUse" gradientTransform="translate(10.5 7) rotate(88.4928) scale(19.0102 16.0833)">
<stop stop-color="#5D7EB6"/>
<stop offset="0.5" stop-color="#2F4365"/>
<stop offset="1" stop-color="#162C51"/>
</radialGradient>
<clipPath id="clip0_331_1525">
<rect width="22" height="30" fill="white"/>
</clipPath>
</defs>
</svg>
