<svg width="25" height="25" viewBox="0 0 25 25" fill="none" xmlns="http://www.w3.org/2000/svg">
<path d="M12.4089 22.1797C10.9525 22.1797 9.73136 21.1783 9.3872 19.8288H21.0831L19.0375 17.0658V11.2907C19.0375 8.00074 16.0644 5.3252 12.4089 5.3252C8.75331 5.3252 5.78025 8.00269 5.78025 11.2907V16.9374L3.80469 19.8288H7.81219C8.18164 22.0358 10.0989 23.7255 12.4089 23.7255C14.0636 23.7255 15.5161 22.8583 16.3464 21.5574H14.2717C13.7505 21.9463 13.1069 22.1797 12.4089 22.1797ZM7.32608 17.4138V11.2907C7.32608 8.85241 9.60498 6.87102 12.4089 6.87102C15.2128 6.87102 17.4917 8.85435 17.4917 11.2907V17.5772L18.0147 18.283H6.73497L7.32803 17.4138H7.32608Z" />
<path d="M14.2303 2.04051H9.82227V3.77107H14.9984V1.27246C14.7417 1.52913 14.487 1.78384 14.2303 2.04051Z"/>
</svg>
