<svg width="24" height="20" viewBox="0 0 24 20" fill="none" xmlns="http://www.w3.org/2000/svg">
<path d="M17.3452 0H13.7915V1.75198C14 1.75198 14 1.75198 14.6598 1.75198H17.3387C18.2613 1.80673 18.9668 2.52723 18.9668 3.4711C18.9668 4.41498 18.2222 5.16176 17.2996 5.21432H0V6.9663H17.3018C19.1752 6.91155 20.6883 5.37419 20.6883 3.4711C20.6883 1.56802 19.2143 0.0613192 17.3474 0H17.3452Z" fill="#1A1919"/>
<path d="M20.8779 15.6582H17.3242V13.9062C18.0005 13.9062 17.5005 13.9062 18.1925 13.9062H20.8714C21.794 13.8515 22.4995 13.131 22.4995 12.1871C22.4995 11.2432 21.7549 10.4964 20.8323 10.4439H0.0571289V8.69189H20.8323C22.7057 8.74664 24.2188 10.284 24.2188 12.1871C24.2188 14.0902 22.7448 15.5969 20.8779 15.6582Z" fill="#1A1919"/>
<path d="M11.9922 19.0286H8.43851V17.2766C9.03596 17.2766 8.5642 17.2766 9.30685 17.2766H11.9857C12.9083 17.2218 13.6138 16.5013 13.6138 15.5574C13.6138 14.6136 12.8692 13.8668 11.9466 13.8142H0.050293V12.0623H11.9466C13.8201 12.117 15.3332 13.6544 15.3332 15.5574C15.3332 17.4605 13.8592 18.9672 11.9922 19.0286Z" fill="#1A1919"/>
</svg>
