<svg width="23" height="23" viewBox="0 0 23 23" fill="none" xmlns="http://www.w3.org/2000/svg">
<path d="M11.5135 1.4375C5.94837 1.4375 1.4375 5.94837 1.4375 11.5135C1.4375 17.0787 5.5645 21.1913 10.7926 21.5607V20.1153C6.36828 19.7477 2.87925 16.0316 2.87925 11.5135C2.87925 6.75214 6.75214 2.87925 11.5135 2.87925C16.2749 2.87925 20.1478 6.75214 20.1478 11.5135C20.1478 15.6081 17.2841 19.043 13.4527 19.9261C13.0454 19.5188 12.6399 19.1133 12.2326 18.706V20.1153V21.5607C17.4607 21.1913 21.5877 16.8354 21.5877 11.5135C21.5877 6.19166 17.0787 1.4375 11.5135 1.4375Z"/>
<path d="M16.4152 6.41699L9.73091 9.65191L6.61133 16.5831L13.2956 13.3482L16.4152 6.41699ZM12.1476 12.1588C11.9764 12.3354 11.7656 12.4237 11.5133 12.4237C11.261 12.4237 11.0483 12.3354 10.8771 12.157C10.7059 11.9785 10.6212 11.7605 10.6212 11.4992C10.6212 11.2378 10.7059 11.018 10.8771 10.8396C11.0483 10.6629 11.2592 10.5728 11.5115 10.5746C11.7638 10.5746 11.9764 10.6629 12.1476 10.8414C12.3188 11.0198 12.4036 11.2378 12.4036 11.4992C12.4036 11.7605 12.3188 11.9803 12.1476 12.1588Z"/>
</svg>
