<svg width="25" height="55" viewBox="0 0 25 55" fill="none" xmlns="http://www.w3.org/2000/svg">
<g clip-path="url(#clip0_300_1448)">
<path d="M21.5799 10.687L2.52026 10.687C2.16173 10.687 1.87109 10.9776 1.87109 11.3361L1.87109 53.0115C1.87109 53.3701 2.16173 53.6607 2.52026 53.6607H21.5799C21.9384 53.6607 22.2291 53.3701 22.2291 53.0115L22.2291 11.3361C22.2291 10.9776 21.9384 10.687 21.5799 10.687Z" fill="url(#paint0_linear_300_1448)"/>
<path d="M21.5835 10.6872C21.9415 10.6872 22.2327 10.9784 22.2327 11.3411L22.2327 53.0022C22.2327 53.365 21.9415 53.6562 21.5835 53.6562H2.51907C2.16107 53.6562 1.86991 53.365 1.86991 53.0022L1.86991 11.3411C1.86991 10.9784 2.16107 10.6872 2.51907 10.6872L21.5835 10.6872ZM21.5835 10.2051L2.51907 10.2051C1.89854 10.2051 1.39258 10.7158 1.39258 11.3459L1.39258 53.007C1.39258 53.6371 1.89854 54.1478 2.51907 54.1478H21.5835C22.204 54.1478 22.71 53.6371 22.71 53.007L22.71 11.3411C22.71 10.7111 22.204 10.2003 21.5835 10.2003V10.2051Z" fill="#31333E"/>
<path d="M1.86865 52.8067C1.86865 52.8067 5.21471 51.8664 12.3221 51.8664C19.4295 51.8664 22.2266 52.9881 22.2266 52.9881L21.7923 53.2793C21.5966 53.4129 21.3675 53.4798 21.1288 53.4798H3.09061C2.80421 53.4798 2.53214 53.3795 2.31734 53.1934L1.86865 52.8067Z" fill="#31333E"/>
<path d="M16.8253 2.10461L7.27881 2.10461V1.48885C7.27881 1.48885 8.98287 0.944702 12.0521 0.944702C15.1213 0.944702 16.8253 1.48885 16.8253 1.48885V2.10461Z" fill="#31333E"/>
<path d="M1.86963 52.9784C1.86963 52.9784 5.21569 52.038 12.3231 52.038C19.4305 52.038 22.2276 53.1597 22.2276 53.1597L21.7933 53.4509C21.5976 53.5846 21.3684 53.6514 21.1298 53.6514H3.09159C2.80519 53.6514 2.53311 53.5512 2.31832 53.365L1.86963 52.9784Z" fill="url(#paint1_linear_300_1448)"/>
<path d="M2.40901 17.0786H1.86963L1.86963 25.3936H2.08443C2.90066 25.3936 3.55937 24.7349 3.55937 23.9187L3.55937 18.2337C3.55937 17.5989 3.04385 17.0834 2.40901 17.0834V17.0786Z" fill="white"/>
<path d="M21.6884 17.0786C21.0536 17.0786 20.5381 17.5941 20.5381 18.229V23.9139C20.5381 24.7302 21.1968 25.3889 22.013 25.3889H22.2278V17.0739H21.6884V17.0786Z" fill="white"/>
<path d="M2.40901 26.9688H1.86963L1.86963 32.2862H2.08443C2.90066 32.2862 3.55937 31.8662 3.55937 31.3411L3.55937 27.7039C3.55937 27.2982 3.04385 26.9688 2.40901 26.9688Z" fill="white"/>
<path d="M20.5381 27.7039V31.3411C20.5381 31.8614 21.1968 32.2862 22.013 32.2862H22.2278V26.9688H21.6884C21.0536 26.9688 20.5381 27.2982 20.5381 27.7039Z" fill="white"/>
<path d="M2.40901 33.9091H1.86963L1.86963 39.2265H2.08443C2.90066 39.2265 3.55937 38.8065 3.55937 38.2814L3.55937 34.6442C3.55937 34.2385 3.04385 33.9091 2.40901 33.9091Z" fill="white"/>
<path d="M20.5371 34.6491V38.2864C20.5371 38.8067 21.1958 39.2315 22.012 39.2315H22.2268V33.9141H21.6875C21.0526 33.9141 20.5371 34.2434 20.5371 34.6491Z" fill="white"/>
<path d="M2.40901 40.8542H1.86963L1.86963 46.1717H2.08443C2.90066 46.1717 3.55937 45.7516 3.55937 45.2266L3.55937 41.5893C3.55937 41.1836 3.04385 40.8542 2.40901 40.8542Z" fill="white"/>
<path d="M20.5381 41.5893V45.2266C20.5381 45.7468 21.1968 46.1717 22.013 46.1717H22.2278V40.8542H21.6884C21.0536 40.8542 20.5381 41.1836 20.5381 41.5893Z" fill="white"/>
<path d="M1.84961 11.432L22.2458 11.432L21.6587 5.64681C21.5871 4.95468 21.1527 4.35802 20.5131 4.0764L18.852 3.35564C18.6277 3.26017 18.4224 3.13129 18.2362 2.97855L17.7207 2.55373C17.3866 2.27688 16.9666 2.12891 16.5322 2.12891L7.63004 2.12891C7.10975 2.12891 6.61333 2.3437 6.26011 2.72556L6.13123 2.86399C5.8687 3.14561 5.54412 3.36996 5.18135 3.51315L3.83052 4.04776C3.18135 4.30552 2.72312 4.89263 2.63243 5.57998L1.84961 11.4416V11.432Z" fill="url(#paint2_linear_300_1448)"/>
<path d="M16.5381 2.12869C16.9725 2.12869 17.3926 2.28144 17.7267 2.55352L18.2422 2.97834C18.4284 3.13108 18.6384 3.25996 18.858 3.35542L20.5191 4.07619C21.1539 4.35304 21.593 4.95447 21.6646 5.64659L22.2517 11.4318L1.85079 11.4318L2.63361 5.57022C2.7243 4.8781 3.18254 4.29099 3.8317 4.038L5.18254 3.5034C5.5453 3.3602 5.86989 3.14063 6.13242 2.85423L6.26129 2.71581C6.61452 2.33394 7.11094 2.11915 7.63122 2.11915L16.5381 2.11915M16.5381 1.65137L7.63122 1.65137C6.98206 1.65137 6.35676 1.92344 5.91285 2.396L5.78397 2.53442C5.56917 2.76354 5.30187 2.9497 5.00592 3.06426L3.65509 3.59886C2.84841 3.91867 2.10855 4.08573 1.99399 4.94492L1.37824 10.4151L1.30664 10.9545L22.7768 10.9545L22.7243 10.4294L22.1897 5.01652C22.1038 4.15733 21.5071 3.99027 20.71 3.64182L19.0489 2.92106C18.8675 2.83991 18.6957 2.73967 18.5429 2.61079L18.0274 2.18597C17.6074 1.8423 17.0775 1.65137 16.5334 1.65137H16.5381Z" fill="#181818"/>
<path d="M18.709 3.45587L20.8713 11.432L22.3653 10.5299L21.7782 4.63487C21.7782 4.63487 21.1911 3.53224 18.7138 3.45587H18.709Z" fill="url(#paint3_linear_300_1448)"/>
<path d="M5.38777 3.45569L3.22548 11.4318L1.73145 10.5297L2.31856 4.63469C2.31856 4.63469 2.90567 3.53206 5.383 3.45569H5.38777Z" fill="url(#paint4_linear_300_1448)"/>
<path d="M3.65869 11.4321L4.389 10.3151C4.69449 9.84734 5.19091 9.54662 5.74461 9.48934C7.03817 9.35569 9.57755 9.13135 12.0549 9.13135C14.5322 9.13135 17.0716 9.35569 18.3651 9.48934C18.9188 9.54662 19.4153 9.84734 19.7207 10.3151L20.4511 11.4321L3.65869 11.4321Z" fill="black"/>
<path d="M3.56412 11.5082L2.56173 10.6824L0.413762 10.4055C0.170325 10.3721 -0.0301522 10.5965 0.0319003 10.8351L0.136912 11.2456L2.67629 11.3363L3.56412 11.5129V11.5082Z" fill="url(#paint5_linear_300_1448)"/>
<path d="M0.180048 11.4318L3.41155 11.4796L2.68601 11.1263H0.0893555L0.180048 11.4318Z" fill="#231F20"/>
<path d="M20.4761 11.5082L21.4785 10.6824L23.6264 10.4055C23.8699 10.3721 24.0703 10.5965 24.0083 10.8351L23.9033 11.2456L21.3639 11.3363L20.4761 11.5129V11.5082Z" fill="url(#paint6_linear_300_1448)"/>
<path d="M23.8614 11.4316L20.6299 11.4793L21.3554 11.1261H23.9521L23.8614 11.4316Z" fill="#231F20"/>
<path d="M13.6166 17.9521H10.4758C10.0119 17.9521 9.63574 18.3282 9.63574 18.7922V23.0118C9.63574 23.4757 10.0119 23.8518 10.4758 23.8518H13.6166C14.0806 23.8518 14.4567 23.4757 14.4567 23.0118V18.7922C14.4567 18.3282 14.0806 17.9521 13.6166 17.9521Z" fill="url(#paint7_linear_300_1448)"/>
<path d="M13.6168 23.9759H10.476C9.9462 23.9759 9.5166 23.5464 9.5166 23.0165V18.797C9.5166 18.2671 9.9462 17.8375 10.476 17.8375H13.6168C14.1467 17.8375 14.5763 18.2671 14.5763 18.797V23.0165C14.5763 23.5464 14.1467 23.9759 13.6168 23.9759ZM10.476 18.0714C10.0798 18.0714 9.75527 18.396 9.75527 18.7922V23.0117C9.75527 23.4079 10.0798 23.7325 10.476 23.7325H13.6168C14.013 23.7325 14.3376 23.4079 14.3376 23.0117V18.7922C14.3376 18.396 14.013 18.0714 13.6168 18.0714H10.476Z" fill="url(#paint8_linear_300_1448)"/>
<path d="M13.6166 40.5631H10.4758C10.0119 40.5631 9.63574 40.9392 9.63574 41.4032V45.6228C9.63574 46.0867 10.0119 46.4629 10.4758 46.4629H13.6166C14.0806 46.4629 14.4567 46.0867 14.4567 45.6228V41.4032C14.4567 40.9392 14.0806 40.5631 13.6166 40.5631Z" fill="url(#paint9_linear_300_1448)"/>
<path d="M13.6159 46.5823H10.4751C9.94522 46.5823 9.51562 46.1527 9.51562 45.6229V41.4033C9.51562 40.8735 9.94522 40.4439 10.4751 40.4439H13.6159C14.1457 40.4439 14.5753 40.8735 14.5753 41.4033V45.6229C14.5753 46.1527 14.1457 46.5823 13.6159 46.5823ZM10.4751 40.6826C10.0789 40.6826 9.75429 41.0072 9.75429 41.4033V45.6229C9.75429 46.0191 10.0789 46.3437 10.4751 46.3437H13.6159C14.012 46.3437 14.3366 46.0191 14.3366 45.6229V41.4033C14.3366 41.0072 14.012 40.6826 13.6159 40.6826H10.4751Z" fill="url(#paint10_linear_300_1448)"/>
</g>
<defs>
<linearGradient id="paint0_linear_300_1448" x1="1.87109" y1="32.1714" x2="22.2339" y2="32.1714" gradientUnits="userSpaceOnUse">
<stop offset="0.03" stop-color="#152C50"/>
<stop offset="0.11" stop-color="#224782"/>
<stop offset="0.17" stop-color="#152C50"/>
<stop offset="0.86" stop-color="#152C50"/>
<stop offset="0.93" stop-color="#234782"/>
<stop offset="1" stop-color="#152C50"/>
</linearGradient>
<linearGradient id="paint1_linear_300_1448" x1="1.86963" y1="52.8447" x2="22.2324" y2="52.8447" gradientUnits="userSpaceOnUse">
<stop offset="0.03" stop-color="#152C50"/>
<stop offset="0.11" stop-color="#224782"/>
<stop offset="0.17" stop-color="#29579F"/>
<stop offset="0.86" stop-color="#29579F"/>
<stop offset="0.93" stop-color="#234782"/>
<stop offset="1" stop-color="#152C50"/>
</linearGradient>
<linearGradient id="paint2_linear_300_1448" x1="1.84961" y1="6.78284" x2="22.2458" y2="6.78284" gradientUnits="userSpaceOnUse">
<stop offset="0.03" stop-color="#152C50"/>
<stop offset="0.11" stop-color="#224782"/>
<stop offset="0.17" stop-color="#5781C2"/>
<stop offset="0.86" stop-color="#152C50"/>
<stop offset="0.93" stop-color="#234782"/>
<stop offset="1" stop-color="#152C50"/>
</linearGradient>
<linearGradient id="paint3_linear_300_1448" x1="18.709" y1="7.44633" x2="22.3653" y2="7.44633" gradientUnits="userSpaceOnUse">
<stop stop-color="#1C3864"/>
<stop offset="1" stop-color="#2458A1"/>
</linearGradient>
<linearGradient id="paint4_linear_300_1448" x1="5.39254" y1="0.944948" x2="1.73622" y2="0.944948" gradientUnits="userSpaceOnUse">
<stop stop-color="#1C3864"/>
<stop offset="1" stop-color="#2458A1"/>
</linearGradient>
<linearGradient id="paint5_linear_300_1448" x1="0.0223538" y1="10.9545" x2="3.56412" y2="10.9545" gradientUnits="userSpaceOnUse">
<stop stop-color="#C7C7C7"/>
<stop offset="1" stop-color="#EFEFF0"/>
</linearGradient>
<linearGradient id="paint6_linear_300_1448" x1="24.0226" y1="0.94492" x2="20.4808" y2="0.94492" gradientUnits="userSpaceOnUse">
<stop stop-color="#C7C7C7"/>
<stop offset="1" stop-color="#EFEFF0"/>
</linearGradient>
<linearGradient id="paint7_linear_300_1448" x1="9.63574" y1="20.902" x2="14.4567" y2="20.902" gradientUnits="userSpaceOnUse">
<stop offset="0.03" stop-color="#152C50"/>
<stop offset="0.11" stop-color="#224782"/>
<stop offset="0.17" stop-color="#5781C2"/>
<stop offset="0.86" stop-color="#152C50"/>
<stop offset="0.93" stop-color="#234782"/>
<stop offset="1" stop-color="#152C50"/>
</linearGradient>
<linearGradient id="paint8_linear_300_1448" x1="9.5166" y1="20.902" x2="14.5763" y2="20.902" gradientUnits="userSpaceOnUse">
<stop stop-color="#1C3864"/>
<stop offset="1" stop-color="#2458A1"/>
</linearGradient>
<linearGradient id="paint9_linear_300_1448" x1="9.63574" y1="43.513" x2="14.4567" y2="43.513" gradientUnits="userSpaceOnUse">
<stop offset="0.03" stop-color="#152C50"/>
<stop offset="0.11" stop-color="#224782"/>
<stop offset="0.17" stop-color="#5781C2"/>
<stop offset="0.86" stop-color="#152C50"/>
<stop offset="0.93" stop-color="#234782"/>
<stop offset="1" stop-color="#152C50"/>
</linearGradient>
<linearGradient id="paint10_linear_300_1448" x1="9.51562" y1="43.5131" x2="14.5753" y2="43.5131" gradientUnits="userSpaceOnUse">
<stop stop-color="#1C3864"/>
<stop offset="1" stop-color="#2458A1"/>
</linearGradient>
<clipPath id="clip0_300_1448">
<rect width="24" height="53.1981" fill="white" transform="translate(0.0224609 0.944946)"/>
</clipPath>
</defs>
</svg>
