<svg width="49" height="49" viewBox="0 0 49 49" fill="none" xmlns="http://www.w3.org/2000/svg">
<g clip-path="url(#clip0_3045_1675)">
<path d="M34.3875 7.35938H13.8203V10.7879H34.3875V7.35938Z" fill="black"/>
<path d="M17.2148 21.073C17.2148 24.853 20.292 27.9301 24.072 27.9301C27.852 27.9301 30.9291 24.853 30.9291 21.073C30.9291 17.293 27.852 14.2158 24.072 14.2158C20.292 14.2158 17.2148 17.293 17.2148 21.073ZM27.5734 21.073C27.5734 23.0015 26.0048 24.5745 24.072 24.5745C22.1391 24.5745 20.5706 23.0058 20.5706 21.073C20.5706 19.1401 22.1391 17.5716 24.072 17.5716C26.0048 17.5716 27.5734 19.1401 27.5734 21.073Z" fill="black"/>
<path d="M14.6045 41.6449C15.9288 37.6849 19.6703 34.8221 24.0717 34.8221C28.4731 34.8221 32.2145 37.6849 33.5388 41.6449H37.3445C35.9131 35.6407 30.5088 31.1621 24.0717 31.1621C17.6345 31.1621 12.2303 35.6407 10.7988 41.6449H14.6045Z" fill="black"/>
<path d="M40.4386 0.5H7.70429C5.38143 0.5 3.5 2.38145 3.5 4.70431V48.5H37.7857V45.0714H6.92857V4.70431C6.92857 4.27574 7.27571 3.92857 7.70429 3.92857H40.4343C40.8629 3.92857 41.21 4.27574 41.21 4.70431V46.7857C41.21 47.5 41.21 47.5 41.21 48.5H44.6386V4.70431C44.6386 2.38145 42.7571 0.5 40.4343 0.5H40.4386Z" fill="black"/>
</g>
<defs>
<clipPath id="clip0_3045_1675">
<rect width="48" height="48" fill="white" transform="translate(0.5 0.5)"/>
</clipPath>
</defs>
</svg>
