<svg width="24" height="24" viewBox="0 0 24 24" fill="none" xmlns="http://www.w3.org/2000/svg">
<g clip-path="url(#clip0_1349_233)">
<path d="M13.7025 2.66369L12.6703 4.1103L12.1606 4.80141C12.4595 4.75634 12.7584 4.70912 13.0573 4.66405C16.4119 9.1949 18.4226 13.0325 18.4226 14.9985C18.4226 19.0143 15.3497 22.2809 11.5714 22.2809C7.7932 22.2809 4.72031 19.0143 4.72031 14.9985C4.72031 12.8028 7.22765 8.27413 11.3112 3.05432L12.5972 1.24927C12.5692 1.21493 12.5413 1.17844 12.5133 1.1441C11.937 0.427237 11.5714 0.00012207 11.5714 0.00012207C11.5714 0.00012207 11.2059 0.427237 10.6296 1.1441C8.40176 3.92142 3 11.0536 3 15.0007C3 19.9694 6.84058 24.0001 11.5714 24.0001C16.3023 24.0001 20.1429 19.9694 20.1429 15.0007C20.1429 11.646 16.2399 5.98832 13.7003 2.66369H13.7025Z" fill="#292929"/>
</g>
<defs>
<clipPath id="clip0_1349_233">
<rect width="24" height="24" fill="white"/>
</clipPath>
</defs>
</svg>
