<svg width="24" height="24" viewBox="0 0 24 24" fill="none" xmlns="http://www.w3.org/2000/svg">
<path d="M11.9636 22.3475C10.4464 22.3475 9.17427 21.2771 8.81572 19.8346H21.0002L18.8692 16.8812V10.7082C18.8692 7.19147 15.7719 4.33154 11.9636 4.33154C8.15535 4.33154 5.05809 7.19355 5.05809 10.7082V16.744L3 19.8346H7.17492C7.5598 22.1937 9.55712 23.9999 11.9636 23.9999C13.6875 23.9999 15.2007 23.0729 16.0656 21.6824H13.9042C13.3613 22.0981 12.6908 22.3475 11.9636 22.3475ZM6.6685 17.2532V10.7082C6.6685 8.10183 9.0426 5.9839 11.9636 5.9839C14.8847 5.9839 17.2587 8.1039 17.2587 10.7082V17.4278L17.8037 18.1823H6.0527L6.67053 17.2532H6.6685Z" fill="#1D1F24"/>
<path d="M13.8598 0.820975H9.26758V2.6708H14.6599V0C14.3925 0.274355 14.1272 0.546621 13.8598 0.820975Z" fill="#1D1F24"/>
</svg>
