<svg width="25" height="24" viewBox="0 0 25 24" fill="none" xmlns="http://www.w3.org/2000/svg">
<g clip-path="url(#clip0_1179_519)">
<path d="M21.255 1C20.6742 1.00331 20.102 1.13845 19.5838 1.39476C19.0655 1.65108 18.6153 2.02154 18.2687 2.47692C17.0932 2.24616 15.8927 2.16005 14.6952 2.22059L14.8576 4.66178C15.7439 4.61778 16.6324 4.67101 17.5066 4.82046C17.5384 5.53711 17.785 6.22885 18.2157 6.8098C18.6465 7.39074 19.2424 7.8353 19.9295 8.08828C20.6167 8.34126 21.3647 8.39152 22.0808 8.23282C22.797 8.07411 23.4496 7.71344 23.9577 7.19557C24.4658 6.6777 24.807 6.02545 24.939 5.3198C25.0709 4.61415 24.9878 3.88618 24.6999 3.22627C24.4121 2.56636 23.9321 2.00358 23.3197 1.6078C22.7073 1.21202 21.9893 1.00067 21.255 1ZM21.255 5.88237C21.0079 5.88237 20.7663 5.81079 20.5609 5.67667C20.3554 5.54255 20.1952 5.35192 20.1007 5.12888C20.0061 4.90585 19.9813 4.66043 20.0296 4.42365C20.0778 4.18688 20.1968 3.96939 20.3715 3.79869C20.5463 3.62799 20.7689 3.51174 21.0113 3.46464C21.2537 3.41754 21.5049 3.44172 21.7332 3.5341C21.9615 3.62648 22.1567 3.78293 22.294 3.98366C22.4313 4.18438 22.5045 4.42037 22.5045 4.66178C22.5045 4.9855 22.3729 5.29596 22.1386 5.52487C21.9042 5.75378 21.5864 5.88237 21.255 5.88237ZM8.58517 6.93209L7.09828 4.96693C8.57049 3.90338 10.2372 3.1245 12.0088 2.67221L12.6335 5.04016C11.1732 5.41361 9.7992 6.05572 8.58517 6.93209ZM23.754 19.3089C23.7589 19.8978 23.6182 20.4792 23.344 21.0037C23.0698 21.5282 22.6701 21.9804 22.1789 22.3218C21.6876 22.6632 21.1193 22.8839 20.5222 22.9651C19.9251 23.0462 19.3167 22.9855 18.7487 22.788C18.1807 22.5905 17.6699 22.2621 17.2595 21.8306C16.8492 21.3992 16.5514 20.8774 16.3915 20.3095C16.2315 19.7417 16.2142 19.1445 16.3409 18.5687C16.4676 17.9929 16.7346 17.4555 17.1192 17.002C15.9482 15.8952 14.5557 15.0366 13.0292 14.48C11.5026 13.9234 9.87482 13.6808 8.24781 13.7674C7.97292 13.7796 7.71053 13.8162 7.43564 13.8651C7.31306 14.5189 7.01058 15.1279 6.56065 15.6266C6.11072 16.1253 5.53032 16.4949 4.88167 16.6959C4.23303 16.8968 3.54063 16.9215 2.87872 16.7673C2.21681 16.613 1.61037 16.2857 1.12443 15.8203C0.638488 15.355 0.291385 14.7692 0.120344 14.1258C-0.0506975 13.4824 -0.0392241 12.8057 0.153533 12.1682C0.346291 11.5306 0.71306 10.9564 1.21451 10.507C1.71595 10.0577 2.33316 9.75014 2.99994 9.61739C3.56089 8.5766 4.25354 7.60882 5.0616 6.73679L6.88586 8.3968C6.41933 8.90811 6.00112 9.45963 5.63637 10.0446C6.22317 10.3816 6.70649 10.8664 7.0358 11.4483C7.39815 11.375 7.74801 11.375 8.13535 11.3262C10.2153 11.218 12.2944 11.554 14.2279 12.3108C16.1614 13.0675 17.9028 14.2269 19.3308 15.7082C19.5534 15.668 19.7792 15.6475 20.0055 15.6471C20.9997 15.6471 21.9531 16.0329 22.6561 16.7196C23.3591 17.4064 23.754 18.3377 23.754 19.3089Z" fill="#676D75"/>
</g>
<defs>
<clipPath id="clip0_1179_519">
<rect width="24" height="24" fill="white" transform="translate(0.5)"/>
</clipPath>
</defs>
</svg>
