<svg width="25" height="24" viewBox="0 0 25 24" fill="none" xmlns="http://www.w3.org/2000/svg">
<g clip-path="url(#clip0_1179_8353)">
<path d="M21.505 1C20.9242 1.00331 20.352 1.13845 19.8338 1.39476C19.3155 1.65108 18.8653 2.02154 18.5187 2.47692C17.3432 2.24616 16.1427 2.16005 14.9452 2.22059L15.1076 4.66178C15.9939 4.61778 16.8824 4.67101 17.7566 4.82046C17.7884 5.53711 18.035 6.22885 18.4657 6.8098C18.8965 7.39074 19.4924 7.8353 20.1795 8.08828C20.8667 8.34126 21.6147 8.39152 22.3308 8.23282C23.047 8.07411 23.6996 7.71344 24.2077 7.19557C24.7158 6.6777 25.057 6.02545 25.189 5.3198C25.3209 4.61415 25.2378 3.88618 24.9499 3.22627C24.6621 2.56636 24.1821 2.00358 23.5697 1.6078C22.9573 1.21202 22.2393 1.00067 21.505 1ZM21.505 5.88237C21.2579 5.88237 21.0163 5.81079 20.8109 5.67667C20.6054 5.54255 20.4452 5.35192 20.3507 5.12888C20.2561 4.90585 20.2313 4.66043 20.2796 4.42365C20.3278 4.18688 20.4468 3.96939 20.6215 3.79869C20.7963 3.62799 21.0189 3.51174 21.2613 3.46464C21.5037 3.41754 21.7549 3.44172 21.9832 3.5341C22.2115 3.62648 22.4067 3.78293 22.544 3.98366C22.6813 4.18438 22.7545 4.42037 22.7545 4.66178C22.7545 4.9855 22.6229 5.29596 22.3886 5.52487C22.1542 5.75378 21.8364 5.88237 21.505 5.88237ZM8.83517 6.93209L7.34828 4.96693C8.82049 3.90338 10.4872 3.1245 12.2588 2.67221L12.8835 5.04016C11.4232 5.41361 10.0492 6.05572 8.83517 6.93209ZM24.004 19.3089C24.0089 19.8978 23.8682 20.4792 23.594 21.0037C23.3198 21.5282 22.9201 21.9804 22.4289 22.3218C21.9376 22.6632 21.3693 22.8839 20.7722 22.9651C20.1751 23.0462 19.5667 22.9855 18.9987 22.788C18.4307 22.5905 17.9199 22.2621 17.5095 21.8306C17.0992 21.3992 16.8014 20.8774 16.6415 20.3095C16.4815 19.7417 16.4642 19.1445 16.5909 18.5687C16.7176 17.9929 16.9846 17.4555 17.3692 17.002C16.1982 15.8952 14.8057 15.0366 13.2792 14.48C11.7526 13.9234 10.1248 13.6808 8.49781 13.7674C8.22292 13.7796 7.96053 13.8162 7.68564 13.8651C7.56306 14.5189 7.26058 15.1279 6.81065 15.6266C6.36072 16.1253 5.78032 16.4949 5.13167 16.6959C4.48303 16.8968 3.79063 16.9215 3.12872 16.7673C2.46681 16.613 1.86037 16.2857 1.37443 15.8203C0.888488 15.355 0.541385 14.7692 0.370344 14.1258C0.199303 13.4824 0.210776 12.8057 0.403533 12.1682C0.596291 11.5306 0.96306 10.9564 1.46451 10.507C1.96595 10.0577 2.58316 9.75014 3.24994 9.61739C3.81089 8.5766 4.50354 7.60882 5.3116 6.73679L7.13586 8.3968C6.66933 8.90811 6.25112 9.45963 5.88637 10.0446C6.47317 10.3816 6.95649 10.8664 7.2858 11.4483C7.64815 11.375 7.99801 11.375 8.38535 11.3262C10.4653 11.218 12.5444 11.554 14.4779 12.3108C16.4114 13.0675 18.1528 14.2269 19.5808 15.7082C19.8034 15.668 20.0292 15.6475 20.2555 15.6471C21.2497 15.6471 22.2031 16.0329 22.9061 16.7196C23.6091 17.4064 24.004 18.3377 24.004 19.3089Z" fill="#B0F0D5"/>
</g>
<defs>
<clipPath id="clip0_1179_8353">
<rect width="24" height="24" fill="white" transform="translate(0.75)"/>
</clipPath>
</defs>
</svg>
