<svg width="23" height="22" viewBox="0 0 23 22" fill="none" xmlns="http://www.w3.org/2000/svg">
<path fill-rule="evenodd" clip-rule="evenodd" d="M2.60714 17.2857C2.60714 17.9109 2.85548 18.5104 3.29753 18.9525C3.73958 19.3945 4.33913 19.6429 4.96429 19.6429H17.5357C18.1609 19.6429 18.7604 19.3945 19.2025 18.9525C19.6445 18.5104 19.8929 17.9109 19.8929 17.2857V4.71429C19.8929 4.08913 19.6445 3.48958 19.2025 3.04753C18.7604 2.60548 18.1609 2.35714 17.5357 2.35714H4.96429C4.33913 2.35714 3.73958 2.60548 3.29753 3.04753C2.85548 3.48958 2.60714 4.08913 2.60714 4.71429V17.2857ZM4.96429 22C3.71398 22 2.51488 21.5033 1.63078 20.6192C0.746682 19.7351 0.25 18.536 0.25 17.2857V4.71429C0.25 3.46398 0.746682 2.26488 1.63078 1.38078C2.51488 0.496682 3.71398 0 4.96429 0H17.5357C18.786 0 19.9851 0.496682 20.8692 1.38078C21.7533 2.26488 22.25 3.46398 22.25 4.71429V17.2857C22.25 18.536 21.7533 19.7351 20.8692 20.6192C19.9851 21.5033 18.786 22 17.5357 22H4.96429ZM12.8214 15.3214C12.8214 15.7382 12.6559 16.1379 12.3612 16.4326C12.0665 16.7273 11.6668 16.8929 11.25 16.8929C10.8332 16.8929 10.4335 16.7273 10.1388 16.4326C9.84413 16.1379 9.67857 15.7382 9.67857 15.3214C9.67857 14.9047 9.84413 14.505 10.1388 14.2103C10.4335 13.9156 10.8332 13.75 11.25 13.75C11.6668 13.75 12.0665 13.9156 12.3612 14.2103C12.6559 14.505 12.8214 14.9047 12.8214 15.3214ZM12.4286 6.28571C12.4286 5.97314 12.3044 5.67336 12.0834 5.45234C11.8623 5.23131 11.5626 5.10714 11.25 5.10714C10.9374 5.10714 10.6376 5.23131 10.4166 5.45234C10.1956 5.67336 10.0714 5.97314 10.0714 6.28571V11C10.0714 11.3126 10.1956 11.6123 10.4166 11.8334C10.6376 12.0544 10.9374 12.1786 11.25 12.1786C11.5626 12.1786 11.8623 12.0544 12.0834 11.8334C12.3044 11.6123 12.4286 11.3126 12.4286 11V6.28571Z" fill="#B0F0D5"/>
</svg>
