<svg width="23" height="22" viewBox="0 0 23 22" fill="none" xmlns="http://www.w3.org/2000/svg">
<path fill-rule="evenodd" clip-rule="evenodd" d="M2.85714 17.2857C2.85714 17.9109 3.10548 18.5104 3.54753 18.9525C3.98958 19.3945 4.58913 19.6429 5.21429 19.6429H17.7857C18.4109 19.6429 19.0104 19.3945 19.4525 18.9525C19.8945 18.5104 20.1429 17.9109 20.1429 17.2857V4.71429C20.1429 4.08913 19.8945 3.48958 19.4525 3.04753C19.0104 2.60548 18.4109 2.35714 17.7857 2.35714H5.21429C4.58913 2.35714 3.98958 2.60548 3.54753 3.04753C3.10548 3.48958 2.85714 4.08913 2.85714 4.71429V17.2857ZM5.21429 22C3.96398 22 2.76488 21.5033 1.88078 20.6192C0.996682 19.7351 0.5 18.536 0.5 17.2857V4.71429C0.5 3.46398 0.996682 2.26488 1.88078 1.38078C2.76488 0.496682 3.96398 0 5.21429 0H17.7857C19.036 0 20.2351 0.496682 21.1192 1.38078C22.0033 2.26488 22.5 3.46398 22.5 4.71429V17.2857C22.5 18.536 22.0033 19.7351 21.1192 20.6192C20.2351 21.5033 19.036 22 17.7857 22H5.21429ZM13.0714 15.3214C13.0714 15.7382 12.9059 16.1379 12.6112 16.4326C12.3165 16.7273 11.9168 16.8929 11.5 16.8929C11.0832 16.8929 10.6835 16.7273 10.3888 16.4326C10.0941 16.1379 9.92857 15.7382 9.92857 15.3214C9.92857 14.9047 10.0941 14.505 10.3888 14.2103C10.6835 13.9156 11.0832 13.75 11.5 13.75C11.9168 13.75 12.3165 13.9156 12.6112 14.2103C12.9059 14.505 13.0714 14.9047 13.0714 15.3214ZM12.6786 6.28571C12.6786 5.97314 12.5544 5.67336 12.3334 5.45234C12.1123 5.23131 11.8126 5.10714 11.5 5.10714C11.1874 5.10714 10.8876 5.23131 10.6666 5.45234C10.4456 5.67336 10.3214 5.97314 10.3214 6.28571V11C10.3214 11.3126 10.4456 11.6123 10.6666 11.8334C10.8876 12.0544 11.1874 12.1786 11.5 12.1786C11.8126 12.1786 12.1123 12.0544 12.3334 11.8334C12.5544 11.6123 12.6786 11.3126 12.6786 11V6.28571Z" fill="#676D75"/>
</svg>
