<svg width="24" height="24" viewBox="0 0 24 24" fill="none" xmlns="http://www.w3.org/2000/svg">
<g clip-path="url(#clip0_1179_5034)">
<path d="M12 0C5.37159 0 0 5.3716 0 12C0 18.6284 5.37159 24 12 24C18.6284 24 24 18.6284 24 12C24 5.3716 18.6284 0 12 0ZM12 22.2783C11.0832 22.2783 9.59182 20.0854 8.90316 16.3042H15.0968C14.4082 20.0875 12.9168 22.2783 12 22.2783ZM8.65997 14.5825C8.57819 13.7755 8.53085 12.9146 8.53085 12C8.53085 11.0854 8.57819 10.2245 8.65997 9.41751H15.3379C15.4197 10.2245 15.467 11.0854 15.467 12C15.467 12.9146 15.4197 13.7755 15.3379 14.5825H8.65997ZM1.71951 12C1.71951 11.1091 1.83357 10.2439 2.04878 9.41751H6.9297C6.85007 10.2504 6.80703 11.1134 6.80703 12C6.80703 12.8867 6.85007 13.7497 6.9297 14.5825H2.04878C1.83357 13.7561 1.71951 12.891 1.71951 12ZM11.9978 1.72167C12.9146 1.72167 14.406 3.91464 15.0947 7.69585H8.901C9.58967 3.91249 11.0811 1.72167 11.9978 1.72167ZM17.066 9.41751H21.9469C22.1621 10.2439 22.2762 11.1091 22.2762 12C22.2762 12.891 22.1621 13.7561 21.9469 14.5825H17.066C17.1456 13.7497 17.1887 12.8867 17.1887 12C17.1887 11.1134 17.1456 10.2504 17.066 9.41751ZM21.3271 7.69585H16.8422C16.4677 5.44477 15.8092 3.52079 14.9677 2.16067C17.7912 3.01505 20.1047 5.05309 21.3293 7.69585H21.3271ZM9.02583 2.16067C8.18436 3.52079 7.52583 5.44477 7.15136 7.69585H2.66643C3.89096 5.05309 6.20229 3.01505 9.02798 2.16067H9.02583ZM2.66428 16.3042H7.14921C7.52367 18.5553 8.18221 20.4792 9.02367 21.8393C6.20014 20.985 3.88666 18.9469 2.66212 16.3042H2.66428ZM14.9656 21.8393C15.807 20.4792 16.4656 18.5553 16.84 16.3042H21.325C20.1004 18.9469 17.7891 20.985 14.9634 21.8393H14.9656Z" fill="#292929"/>
</g>
<defs>
<clipPath id="clip0_1179_5034">
<rect width="24" height="24" fill="white"/>
</clipPath>
</defs>
</svg>
