<svg width="132" height="18" viewBox="0 0 132 18" fill="none" xmlns="http://www.w3.org/2000/svg">
<g clip-path="url(#clip0_948_9348)">
<path d="M54.1919 8.74279V8.65709C55.6054 8.50677 56.3546 7.71039 56.3546 6.4156C56.3546 4.71603 55.0693 3.81152 52.6516 3.81152H46.744V13.4763C46.744 13.9496 46.5727 14.3584 46.3164 14.4441V14.5759H52.9079C55.2196 14.5759 56.7613 13.3062 56.7613 11.3693C56.7639 9.90177 55.8617 8.97617 54.1919 8.74279ZM49.1198 5.23552H52.4581C53.529 5.23552 53.9134 5.55724 53.9134 6.31144V6.80588C53.9134 7.71039 53.5067 8.07562 52.4581 8.07562H49.1198V5.23552ZM54.2795 11.5117C54.2795 12.7168 53.8506 13.148 52.6738 13.148H48.9276V13.0623C49.0976 12.846 49.1198 12.5019 49.1198 12.0932V9.47061H52.6725C53.7852 9.47061 54.2782 9.94528 54.2782 11.0212L54.2795 11.5117Z" fill="#1A1724"/>
<path d="M8.43382 0.000488281C3.55397 0.000488281 0 3.22822 0 7.66241C0 11.6879 3.0401 14.615 7.19163 14.5939C7.66235 14.5939 7.81273 14.5939 8.26253 14.5715V12.8297H8.13177C8.0677 13.0446 7.64013 13.1527 7.10533 13.1527C4.62095 13.1527 2.88842 10.8928 2.88842 7.66373C2.88842 3.89803 5.07206 1.46668 8.43251 1.46668C11.7276 1.46668 13.7622 3.87694 13.7622 7.79558C13.7622 12.0359 11.0647 15.0923 7.61659 15.1358L7.63751 16.1036C13.0953 16.1036 16.6271 12.8323 16.6271 7.7969C16.631 3.14252 13.3346 0.000488281 8.43382 0.000488281Z" fill="#1A1724"/>
<path d="M26.9681 11.3207H26.8831C26.819 11.0412 26.6216 10.6324 26.1338 10.0945L20.4616 3.80908H18.1289V3.94093C18.3643 4.02664 18.5356 4.41428 18.5356 4.88763V14.5735H20.5898V8.19976C20.5898 7.23196 20.5048 7.03814 20.3544 6.86541L20.4407 6.8008L27.0112 14.0527V14.5695H29.0236V3.80908H26.9681V11.3207Z" fill="#1A1724"/>
<path d="M31.5304 13.4738C31.5304 13.8826 31.3369 14.3348 31.1016 14.4416V14.5735H40.0689V13.0928H33.7115V13.0071C33.8187 12.8752 33.905 12.5548 33.905 12.1883V9.53278H39.1915V8.04944H33.905V5.29505H40.0689V3.80908H31.5304V13.4738Z" fill="#1A1724"/>
<path d="M64.0584 3.80908H61.5335V3.94093C61.8761 4.04905 61.8761 4.32858 61.5335 5.08145L57.2734 14.5748H59.4963L61.1478 10.8513H64.9149L66.5624 14.5748H68.916L64.0584 3.80908ZM61.6826 9.55651L61.7257 9.34159L62.539 7.44688C62.8816 6.65577 62.9679 6.39206 62.9025 6.17714H62.9888L64.316 9.34159L64.3578 9.55651H61.6826Z" fill="#1A1724"/>
<path d="M126.215 9.40093C125.916 9.1214 125.66 8.97109 125.36 8.97109V8.88539L131.035 3.80908H128.531L122.988 8.76013H122.881V3.80908H120.527V14.5708H122.881V9.21238C123.159 9.21238 123.352 9.31918 123.796 9.75033L128.955 14.5708H131.737L126.215 9.40093Z" fill="#1A1724"/>
<path d="M100.809 8.97504V8.88934L106.48 3.80908H103.976L98.4335 8.76013H98.3263V3.80908H95.9727V14.5708H98.3263V9.21238C98.6048 9.21238 98.797 9.31918 99.2416 9.75033L104.4 14.5708H107.182L101.665 9.40093C101.365 9.12536 101.109 8.97504 100.809 8.97504Z" fill="#1A1724"/>
<path d="M112.729 3.46924H112.709C109.156 3.46924 106.758 5.75028 106.758 9.17316C106.758 12.596 109.156 14.8771 112.709 14.8771H112.729C116.282 14.8771 118.68 12.5947 118.68 9.17316C118.68 5.7516 116.285 3.46924 112.729 3.46924ZM116.111 9.43159C116.111 12.0568 114.87 13.6073 112.729 13.6073H112.709C110.568 13.6073 109.326 12.0568 109.326 9.43159V8.91473C109.326 6.28955 110.568 4.73897 112.709 4.73897H112.729C114.87 4.73897 116.111 6.28955 116.111 8.91473V9.43159Z" fill="#1A1724"/>
<path d="M78.9355 11.3207H78.8492C78.7851 11.0412 78.5877 10.6324 78.1 10.0945L72.429 3.80908H70.1016V3.94093C70.3369 4.02664 70.5082 4.41428 70.5082 4.88763V14.5735H72.5637V8.19976C72.5637 7.23196 72.4774 7.03814 72.3284 6.86541L72.4133 6.8008L78.9839 14.0527V14.5695H80.9962V3.80908H78.9355V11.3207Z" fill="#1A1724"/>
<path d="M91.1532 9.01885C91.4958 9.10455 91.6462 9.38408 91.6462 9.94181V12.0725C91.6462 12.567 91.7769 12.8637 92.0528 13.0403L92.0097 13.1274C91.75 13.1366 91.492 13.1724 91.2395 13.2342C90.5919 13.3749 89.9326 13.4544 89.2703 13.4715C86.6552 13.4715 85.1397 12.0079 85.1397 9.48956V9.22586C85.1397 6.55717 86.7088 4.94198 89.2703 4.94198C90.7256 4.94198 91.9887 5.45884 93.2728 6.55717V4.36974C92.0177 3.78919 90.651 3.4952 89.2703 3.50875C85.0102 3.50875 82.5703 5.61838 82.5703 9.34188C82.5703 12.828 85.0547 14.8731 89.2703 14.8731C90.4046 14.8616 91.5332 14.7097 92.6307 14.4208C93.2296 14.2705 93.4441 14.289 93.6363 14.5711H93.767V8.88963H91.1532V9.01885Z" fill="#1A1724"/>
</g>
<defs>
<clipPath id="clip0_948_9348">
<rect width="131.646" height="17.0105" fill="white"/>
</clipPath>
</defs>
</svg>
