<svg width="15" height="24" viewBox="0 0 15 24" fill="none" xmlns="http://www.w3.org/2000/svg">
<path d="M7.50913 7.68234C9.62673 7.68234 11.3503 5.95875 11.3503 3.84116C11.3503 1.72356 9.62673 0 7.50913 0C5.39154 0 3.66797 1.72356 3.66797 3.84116C3.66797 5.95875 5.39154 7.68234 7.50913 7.68234ZM7.50913 1.87984C8.58994 1.87984 9.47044 2.76035 9.47044 3.84116C9.47044 4.92196 8.58994 5.80247 7.50913 5.80247C6.42833 5.80247 5.54783 4.92196 5.54783 3.84116C5.54783 2.76035 6.42833 1.87984 7.50913 1.87984Z" fill="#1D1F24"/>
<path d="M7.50875 9.32861C3.64337 9.32861 0.5 12.472 0.5 16.3374V23.9999H2.38206V16.3374C2.38206 13.511 4.68236 11.2107 7.50875 11.2107C10.3351 11.2107 12.6354 13.511 12.6354 16.3374V21.0788C12.6354 21.6512 12.1688 22.1178 11.5965 22.1178H8.91755H4.89148C4.60091 21.8273 4.30815 21.5345 4.01758 21.2439V22.1244V23.9999H11.5987C13.21 23.9999 14.5197 22.6901 14.5197 21.0788V16.3374C14.5197 12.472 11.3763 9.32861 7.51095 9.32861H7.50875Z" fill="#1D1F24"/>
</svg>
