<svg width="24" height="24" viewBox="0 0 24 24" fill="none" xmlns="http://www.w3.org/2000/svg">
<g opacity="0.5">
<path d="M11.5091 7.68234C13.6267 7.68234 15.3503 5.95875 15.3503 3.84116C15.3503 1.72356 13.6267 0 11.5091 0C9.39154 0 7.66797 1.72356 7.66797 3.84116C7.66797 5.95875 9.39154 7.68234 11.5091 7.68234ZM11.5091 1.87984C12.5899 1.87984 13.4704 2.76035 13.4704 3.84116C13.4704 4.92196 12.5899 5.80247 11.5091 5.80247C10.4283 5.80247 9.54783 4.92196 9.54783 3.84116C9.54783 2.76035 10.4283 1.87984 11.5091 1.87984Z" fill="#1D1F24"/>
<path d="M11.5088 9.32874C7.64337 9.32874 4.5 12.4721 4.5 16.3375V24H6.38206V16.3375C6.38206 13.5111 8.68236 11.2108 11.5088 11.2108C14.3351 11.2108 16.6354 13.5111 16.6354 16.3375V21.079C16.6354 21.6513 16.1688 22.1179 15.5965 22.1179H12.9175H8.89148C8.60091 21.8274 8.30815 21.5346 8.01758 21.2441V22.1245V24H15.5987C17.21 24 18.5197 22.6903 18.5197 21.079V16.3375C18.5197 12.4721 15.3763 9.32874 11.511 9.32874H11.5088Z" fill="#1D1F24"/>
</g>
</svg>
