<svg width="16" height="16" viewBox="0 0 16 16" fill="none" xmlns="http://www.w3.org/2000/svg">
<g clip-path="url(#clip0_2169_7157)">
<path d="M2.30116 16.0014L2.30402 15.9971L2.29688 15.9985L2.30116 16.0014Z" fill="#292929"/>
<path d="M2.29199 16.0024L2.29914 15.9989L2.29378 15.9971L2.29199 16.0024Z" fill="#292929"/>
<path d="M13.7155 0H2.28592C1.02295 0 0 1.02487 0 2.29021V11.4697C0 12.6663 0.915796 13.6468 2.08447 13.7499C2.36878 13.1315 2.65309 12.5146 2.93598 11.8962C2.49451 12.0623 2.05447 12.2283 1.613 12.3929C1.32869 12.1839 1.14296 11.849 1.14296 11.4697V2.29021C1.14296 1.65897 1.65586 1.14511 2.28592 1.14511H13.7155C14.3456 1.14511 14.8585 1.65897 14.8585 2.29021V11.4697C14.8585 12.1009 14.3456 12.6148 13.7155 12.6148H11.3324L11.431 12.5776L7.99929 12.6005C6.79489 13.1043 5.5905 13.6082 4.38468 14.1134L4.95759 12.6148H3.86892L3.33887 13.7599H3.34744L2.85311 14.8105L2.30306 15.9971L7.99929 13.7599H13.7141C14.9771 13.7599 16 12.735 16 11.4697V2.29021C16 1.02487 14.9771 0 13.7141 0H13.7155Z" fill="black"/>
<path d="M6.8293 8.30773C6.78501 7.39594 7.08504 6.79476 7.9294 6.08193C8.52946 5.58094 8.7409 5.24743 8.7409 4.86811C8.7409 4.36713 8.37516 4.08944 7.59652 4.08944C6.87502 4.08944 6.11924 4.33421 5.56348 4.79082V3.47824C6.2864 3.066 7.08504 2.85559 7.97369 2.85559C9.57384 2.85559 10.4396 3.52262 10.4396 4.76935C10.4396 5.50365 10.1396 6.18212 9.21809 6.87348C8.5066 7.40739 8.30801 7.71943 8.27372 8.30916H6.8293V8.30773ZM6.575 9.90945C6.575 9.36552 6.98503 8.9633 7.55223 8.9633C8.11942 8.9633 8.54089 9.36409 8.54089 9.90945C8.54089 10.4548 8.12942 10.8556 7.55223 10.8556C6.97503 10.8556 6.575 10.4548 6.575 9.90945Z" fill="black"/>
</g>
<defs>
<clipPath id="clip0_2169_7157">
<rect width="16" height="16" fill="white"/>
</clipPath>
</defs>
</svg>
