<svg width="21" height="22" viewBox="0 0 21 22" fill="none" xmlns="http://www.w3.org/2000/svg">
<path fill-rule="evenodd" clip-rule="evenodd" d="M15.1717 2.74951C14.6664 2.74924 14.1681 2.87252 13.7167 3.10945C13.2653 3.34639 12.8734 3.69039 12.5723 4.11388C12.2713 4.53737 12.0695 5.02856 11.9832 5.54809C11.8969 6.06761 11.9285 6.60101 12.0754 7.10551L12.2622 7.75051L11.8066 8.22751L2.81643 17.607C2.63725 17.794 2.53658 18.0476 2.53658 18.312C2.53658 18.5764 2.63725 18.83 2.81643 19.017C2.99562 19.204 3.23865 19.309 3.49206 19.309C3.74547 19.309 3.9885 19.204 4.16768 19.017L13.1564 9.63451L13.6135 9.15751L14.2316 9.35251C14.8322 9.5434 15.473 9.54777 16.0759 9.36511C16.6788 9.18245 17.2177 8.82064 17.6269 8.32382C18.0362 7.82701 18.298 7.21666 18.3804 6.56723C18.4629 5.91781 18.3624 5.25738 18.0913 4.66651L15.9351 6.91801C15.8357 7.02551 15.7167 7.11127 15.5852 7.17029C15.4537 7.22932 15.3123 7.26042 15.1691 7.26179C15.0259 7.26316 14.884 7.23476 14.7514 7.17826C14.6189 7.12176 14.4985 7.03829 14.3972 6.93271C14.296 6.82713 14.2158 6.70156 14.1616 6.56333C14.1073 6.4251 14.08 6.27697 14.0811 6.1276C14.0823 5.97822 14.112 5.83058 14.1684 5.6933C14.2249 5.55602 14.3069 5.43184 14.4099 5.32801L16.5661 3.07801C16.1309 2.86036 15.6544 2.74908 15.1717 2.74951ZM9.78112 6.12451C9.78122 4.97116 10.1211 3.84571 10.7547 2.90065C11.3882 1.95559 12.2849 1.2366 13.3232 0.841083C14.3614 0.44557 15.4911 0.392656 16.5592 0.68951C17.6273 0.986363 18.5821 1.61863 19.2942 2.50066C20.0064 3.38269 20.4415 4.47184 20.5406 5.62054C20.6398 6.76925 20.3981 7.92199 19.8484 8.92258C19.2987 9.92317 18.4675 10.7233 17.4674 11.2144C16.4674 11.7056 15.3468 11.8641 14.2575 11.6685L13.4626 12.4995L14.8124 13.9095L15.488 13.2045L16.2499 12.4095L17.0117 13.2045L19.7071 16.017C20.0032 16.3167 20.2392 16.6748 20.4014 17.0706C20.5637 17.4664 20.6488 17.8919 20.652 18.3223C20.6551 18.7527 20.5762 19.1795 20.4198 19.5778C20.2634 19.9761 20.0327 20.338 19.741 20.6424C19.4493 20.9468 19.1025 21.1876 18.7208 21.3508C18.3391 21.514 17.93 21.5963 17.5175 21.593C17.105 21.5897 16.6973 21.5009 16.318 21.3316C15.9387 21.1623 15.5955 20.916 15.3083 20.607L12.613 17.7945L11.8511 16.9995L12.613 16.2045L13.2886 15.4995L11.9374 14.0895L5.69143 20.607C5.40424 20.916 5.06101 21.1623 4.68174 21.3316C4.30246 21.5009 3.8947 21.5897 3.4822 21.593C3.0697 21.5963 2.66069 21.514 2.27897 21.3508C1.89726 21.1876 1.55047 20.9468 1.25877 20.6424C0.967082 20.338 0.73632 19.9761 0.579916 19.5778C0.423512 19.1795 0.344592 18.7527 0.347747 18.3223C0.350903 17.8919 0.436071 17.4664 0.598296 17.0706C0.760521 16.6748 0.996562 16.3167 1.29268 16.017L7.53718 9.49951L4.03112 5.83951L3.14418 6.76501L2.41537 5.62351L0.97787 3.37351L0.487682 2.60551L1.11299 1.95451L1.83174 1.20451L2.45562 0.552011L3.19162 1.06351L5.34787 2.56351L6.44181 3.32401L5.55631 4.24951L9.06237 7.90951L9.85874 7.07851C9.80856 6.76318 9.7826 6.44416 9.78112 6.12451ZM16.2499 15.5895L18.1833 17.607C18.3625 17.794 18.4632 18.0476 18.4632 18.312C18.4632 18.5764 18.3625 18.83 18.1833 19.017C18.0041 19.204 17.7611 19.309 17.5077 19.309C17.2543 19.309 17.0112 19.204 16.8321 19.017L14.9001 16.9995L16.2499 15.5895Z" fill="#5F656D"/>
</svg>
