<svg width="24" height="24" viewBox="0 0 24 24" fill="none" xmlns="http://www.w3.org/2000/svg">
<path d="M5 20C4.45 20 3.979 19.8043 3.587 19.413C3.19567 19.021 3 18.55 3 18V4C3 3.45 3.19567 2.979 3.587 2.587C3.979 2.19567 4.45 2 5 2H19C19.55 2 20.021 2.19567 20.413 2.587C20.8043 2.979 21 3.45 21 4V9.675C20.6833 9.525 20.3583 9.4 20.025 9.3C19.6917 9.2 19.35 9.125 19 9.075V4H5V16.85C5.83333 16.05 6.77933 15.4 7.838 14.9C8.896 14.4 10.0417 14.1083 11.275 14.025C11.1917 14.3417 11.125 14.675 11.075 15.025C11.025 15.375 11 15.7167 11 16.05C10.25 16.1333 9.54167 16.3167 8.875 16.6C8.20833 16.8833 7.58333 17.2667 7 17.75V18H11.3C11.4167 18.3667 11.55 18.7167 11.7 19.05C11.85 19.3833 12.0333 19.7 12.25 20H5ZM12 12H12.25C12.6333 11.45 13.0877 10.9623 13.613 10.537C14.1377 10.1123 14.7167 9.775 15.35 9.525C15.4 9.35833 15.4377 9.19167 15.463 9.025C15.4877 8.85833 15.5 8.68333 15.5 8.5C15.5 7.53333 15.1583 6.70833 14.475 6.025C13.7917 5.34167 12.9667 5 12 5C11.0333 5 10.2083 5.34167 9.525 6.025C8.84167 6.70833 8.5 7.53333 8.5 8.5C8.5 9.46667 8.84167 10.2917 9.525 10.975C10.2083 11.6583 11.0333 12 12 12ZM12 10C11.5833 10 11.2293 9.854 10.938 9.562C10.646 9.27067 10.5 8.91667 10.5 8.5C10.5 8.08333 10.646 7.72933 10.938 7.438C11.2293 7.146 11.5833 7 12 7C12.4167 7 12.7707 7.146 13.062 7.438C13.354 7.72933 13.5 8.08333 13.5 8.5C13.5 8.91667 13.354 9.27067 13.062 9.562C12.7707 9.854 12.4167 10 12 10ZM17 21L16.7 19.5C16.5 19.4167 16.3127 19.3293 16.138 19.238C15.9627 19.146 15.7833 19.0333 15.6 18.9L14.15 19.35L13.15 17.65L14.3 16.65C14.2667 16.4167 14.25 16.2 14.25 16C14.25 15.8 14.2667 15.5833 14.3 15.35L13.15 14.35L14.15 12.65L15.6 13.1C15.7833 12.9667 15.9627 12.854 16.138 12.762C16.3127 12.6707 16.5 12.5833 16.7 12.5L17 11H19L19.3 12.5C19.5 12.5833 19.6877 12.675 19.863 12.775C20.0377 12.875 20.2167 13 20.4 13.15L21.85 12.65L22.85 14.4L21.7 15.4C21.7333 15.6 21.75 15.8083 21.75 16.025C21.75 16.2417 21.7333 16.45 21.7 16.65L22.85 17.65L21.85 19.35L20.4 18.9C20.2167 19.0333 20.0377 19.146 19.863 19.238C19.6877 19.3293 19.5 19.4167 19.3 19.5L19 21H17ZM18 18C18.55 18 19.021 17.8043 19.413 17.413C19.8043 17.021 20 16.55 20 16C20 15.45 19.8043 14.979 19.413 14.587C19.021 14.1957 18.55 14 18 14C17.45 14 16.979 14.1957 16.587 14.587C16.1957 14.979 16 15.45 16 16C16 16.55 16.1957 17.021 16.587 17.413C16.979 17.8043 17.45 18 18 18Z" fill="#A3AED0"/>
</svg>
