<svg width="24" height="24" viewBox="0 0 24 24" fill="none" xmlns="http://www.w3.org/2000/svg">
<g clip-path="url(#clip0_440_5442)">
<path d="M12.5 20C11.6667 20 10.9583 19.7083 10.375 19.125C9.79167 18.5417 9.5 17.8333 9.5 17H11.5C11.5 17.2833 11.596 17.521 11.788 17.713C11.98 17.905 12.2173 18.0007 12.5 18C12.7833 18 13.021 17.904 13.213 17.712C13.405 17.52 13.5007 17.2827 13.5 17C13.5 16.7167 13.404 16.4793 13.212 16.288C13.02 16.0967 12.7827 16.0007 12.5 16H3V14H12.5C13.3333 14 14.0417 14.2917 14.625 14.875C15.2083 15.4583 15.5 16.1667 15.5 17C15.5 17.8333 15.2083 18.5417 14.625 19.125C14.0417 19.7083 13.3333 20 12.5 20ZM3 10V8H16.5C16.9333 8 17.2917 7.85833 17.575 7.575C17.8583 7.29167 18 6.93333 18 6.5C18 6.06667 17.8583 5.70833 17.575 5.425C17.2917 5.14167 16.9333 5 16.5 5C16.0667 5 15.7083 5.14167 15.425 5.425C15.1417 5.70833 15 6.06667 15 6.5H13C13 5.51667 13.3377 4.68733 14.013 4.012C14.6883 3.33667 15.5173 2.99933 16.5 3C17.4833 3 18.3127 3.33767 18.988 4.013C19.6633 4.68833 20.0007 5.51733 20 6.5C20 7.48333 19.6627 8.31267 18.988 8.988C18.3133 9.66333 17.484 10.0007 16.5 10H3ZM19.5 18V16C19.9333 16 20.2917 15.8583 20.575 15.575C20.8583 15.2917 21 14.9333 21 14.5C21 14.0667 20.8583 13.7083 20.575 13.425C20.2917 13.1417 19.9333 13 19.5 13H3V11H19.5C20.4833 11 21.3127 11.3377 21.988 12.013C22.6633 12.6883 23.0007 13.5173 23 14.5C23 15.4833 22.6627 16.3127 21.988 16.988C21.3133 17.6633 20.484 18.0007 19.5 18Z" fill="#A3AED0"/>
</g>
<defs>
<clipPath id="clip0_440_5442">
<rect width="24" height="24" fill="white"/>
</clipPath>
</defs>
</svg>
