<svg width="25" height="24" viewBox="0 0 25 24" fill="none" xmlns="http://www.w3.org/2000/svg">
<g clip-path="url(#clip0_8260_22449)">
<path d="M19.3906 0.160939C19.0506 -0.0390611 18.6306 -0.049061 18.3306 0.110939L7.71063 5.01094H2.45063L2.16063 5.52094C0.510628 8.43094 0.510628 11.4409 2.15063 14.4909L2.43063 15.0209H3.95063L2.00063 21.5209C1.82063 22.1109 1.93063 22.7309 2.30063 23.2209C2.67063 23.7209 3.27063 24.0209 3.90063 24.0209H8.95063L10.9206 18.0209H8.92063L7.51063 22.0309L3.92063 22.0909L6.04063 15.0209H7.72063L18.3806 19.6309C18.5106 19.6809 18.6606 19.7109 18.8006 19.7109C19.0206 19.7109 19.2406 19.6409 19.4306 19.5209C19.7406 19.3109 19.9306 18.9609 19.9306 18.5909V1.13094C19.9306 0.740939 19.7206 0.370939 19.3806 0.160939H19.3906ZM6.93063 13.0109H3.65063C2.69063 10.9509 2.69063 8.97094 3.64063 7.01094H6.93063V13.0109ZM17.9306 17.2409L8.93063 13.3509V6.65094L17.9306 2.49094V17.2409Z" fill="#A3AED0"/>
<path d="M24.9297 9.50781H21.9297V11.5078H24.9297V9.50781Z" fill="#A3AED0"/>
<path d="M23.7393 2.9134L20.9219 5.02344L22.1208 6.62427L24.9382 4.51423L23.7393 2.9134Z" fill="#A3AED0"/>
<path d="M22.1205 14.399L20.9219 16L23.7397 18.1095L24.9383 16.5085L22.1205 14.399Z" fill="#A3AED0"/>
</g>
<defs>
<clipPath id="clip0_8260_22449">
<rect width="24.01" height="24.01" fill="white" transform="translate(0.929688)"/>
</clipPath>
</defs>
</svg>
