<svg width="24" height="24" viewBox="0 0 24 24" fill="none" xmlns="http://www.w3.org/2000/svg">
<path d="M4 19V17H6V10C6 8.58333 6.425 7.34567 7.275 6.287C8.125 5.229 9.2 4.53333 10.5 4.2V3.5C10.5 3.08333 10.646 2.72933 10.938 2.438C11.2293 2.146 11.5833 2 12 2C12.4167 2 12.7707 2.146 13.062 2.438C13.354 2.72933 13.5 3.08333 13.5 3.5V4.2C13.9167 4.3 14.3083 4.44167 14.675 4.625C15.0417 4.80833 15.3833 5.03333 15.7 5.3L14.988 6.012L14.275 6.725C13.9583 6.49167 13.6083 6.31267 13.225 6.188C12.8417 6.06267 12.4333 6 12 6C10.9 6 9.95833 6.39167 9.175 7.175C8.39167 7.95833 8 8.9 8 10V17H16V14H18V17H20V19H4ZM12 22C11.45 22 10.9793 21.8043 10.588 21.413C10.196 21.021 10 20.55 10 20H14C14 20.55 13.8043 21.021 13.413 21.413C13.021 21.8043 12.55 22 12 22ZM19 13V10H16V8H19V5H21V8H24V10H21V13H19Z" fill="#A3AED0"/>
</svg>
