<svg width="24" height="24" viewBox="0 0 24 24" fill="none" xmlns="http://www.w3.org/2000/svg">
<g clip-path="url(#clip0_440_5681)">
<path d="M6 19V20C6 20.2833 5.904 20.521 5.712 20.713C5.52 20.905 5.28267 21.0007 5 21H4C3.71667 21 3.47933 20.904 3.288 20.712C3.09667 20.52 3.00067 20.2827 3 20V12L5.1 6C5.2 5.7 5.37933 5.45833 5.638 5.275C5.89667 5.09167 6.184 5 6.5 5H17.5C17.8167 5 18.1043 5.09167 18.363 5.275C18.6217 5.45833 18.8007 5.7 18.9 6L21 12V20C21 20.2833 20.9043 20.521 20.713 20.713C20.5217 20.905 20.284 21.0007 20 21H19C18.7167 21 18.4793 20.904 18.288 20.712C18.0967 20.52 18.0007 20.2827 18 20V19H6ZM5.8 10H18.2L17.15 7H6.85L5.8 10ZM7.5 16C7.91667 16 8.271 15.8543 8.563 15.563C8.855 15.2717 9.00067 14.9173 9 14.5C9 14.0833 8.85433 13.7293 8.563 13.438C8.27167 13.1467 7.91733 13.0007 7.5 13C7.08333 13 6.72933 13.146 6.438 13.438C6.14667 13.73 6.00067 14.084 6 14.5C6 14.9167 6.146 15.271 6.438 15.563C6.73 15.855 7.084 16.0007 7.5 16ZM16.5 16C16.9167 16 17.271 15.8543 17.563 15.563C17.855 15.2717 18.0007 14.9173 18 14.5C18 14.0833 17.8543 13.7293 17.563 13.438C17.2717 13.1467 16.9173 13.0007 16.5 13C16.0833 13 15.7293 13.146 15.438 13.438C15.1467 13.73 15.0007 14.084 15 14.5C15 14.9167 15.146 15.271 15.438 15.563C15.73 15.855 16.084 16.0007 16.5 16Z" fill="#A3AED0"/>
</g>
<defs>
<clipPath id="clip0_440_5681">
<rect width="24" height="24" fill="white"/>
</clipPath>
</defs>
</svg>
