<svg width="24" height="24" viewBox="0 0 24 24" fill="none" xmlns="http://www.w3.org/2000/svg">
<g clip-path="url(#clip0_439_5606)">
<path d="M10.0001 19.0007V14.0007H14.0001V19.0007C14.0001 19.5507 14.4501 20.0007 15.0001 20.0007H18.0001C18.5501 20.0007 19.0001 19.5507 19.0001 19.0007V12.0007H20.7001C21.1601 12.0007 21.3801 11.4307 21.0301 11.1307L12.6701 3.6007C12.2901 3.2607 11.7101 3.2607 11.3301 3.6007L2.9701 11.1307C2.6301 11.4307 2.8401 12.0007 3.3001 12.0007H5.0001V19.0007C5.0001 19.5507 5.4501 20.0007 6.0001 20.0007H9.0001C9.5501 20.0007 10.0001 19.5507 10.0001 19.0007Z" fill="#A3AED0"/>
</g>
<defs>
<clipPath id="clip0_439_5606">
<rect width="24" height="24" fill="white"/>
</clipPath>
</defs>
</svg>
