<svg width="310" height="66" viewBox="0 0 310 66" fill="none" xmlns="http://www.w3.org/2000/svg">
<g clip-path="url(#clip0_530_7511)">
<path d="M127.615 20.5931V20.3912C130.93 20.0371 132.688 18.1611 132.688 15.111C132.688 11.1073 129.673 8.97656 124.002 8.97656H110.145V31.7437C110.145 32.8588 109.743 33.8217 109.142 34.0236V34.3342H124.603C130.026 34.3342 133.642 31.3431 133.642 26.7803C133.648 23.3233 131.531 21.1429 127.615 20.5931ZM115.718 12.3311H123.548C126.06 12.3311 126.962 13.0889 126.962 14.8656V16.0304C126.962 18.1611 126.008 19.0215 123.548 19.0215H115.718V12.3311ZM127.82 27.1158C127.82 29.9547 126.814 30.9704 124.054 30.9704H115.267V30.7685C115.666 30.2591 115.718 29.4484 115.718 28.4855V22.3076H124.051C126.661 22.3076 127.817 23.4258 127.817 25.9603L127.82 27.1158Z" fill="#1B1B1B"/>
<path d="M20.2821 0C8.8361 0 0.5 7.60355 0.5 18.0491C0.5 27.5318 7.63077 34.4272 17.3685 34.3775C18.4726 34.3775 18.8253 34.3775 19.8804 34.3247V30.2216H19.5737C19.4234 30.7279 18.4205 30.9826 17.1661 30.9826C11.3388 30.9826 7.275 25.6589 7.275 18.0522C7.275 9.18142 12.3969 3.4539 20.2791 3.4539C28.0079 3.4539 32.7801 9.13172 32.7801 18.3628C32.7801 28.3518 26.4529 35.5516 18.3653 35.6541L18.4143 37.9339C31.216 37.9339 39.4999 30.2279 39.4999 18.3659C39.5091 7.40166 31.7772 0 20.2821 0Z" fill="#1B1B1B"/>
<path d="M63.7571 26.6687H63.5577C63.4074 26.0102 62.9443 25.0473 61.8003 23.7801L48.4957 8.97363H43.0242V9.28424C43.5762 9.48613 43.978 10.3993 43.978 11.5144V34.3313H48.7963V19.3167C48.7963 17.0369 48.5969 16.5803 48.2442 16.1734L48.4466 16.0212L63.8583 33.1044V34.3219H68.5784V8.97363H63.7571V26.6687Z" fill="#1B1B1B"/>
<path d="M74.4545 31.7408C74.4545 32.7037 74.0005 33.7691 73.4485 34.0206V34.3313H94.482V30.8432H79.5702V30.6413C79.8217 30.3307 80.0241 29.5759 80.0241 28.7124V22.4569H92.424V18.9626H80.0241V12.4741H94.482V8.97363H74.4545V31.7408Z" fill="#1B1B1B"/>
<path d="M150.758 8.97363H144.836V9.28424C145.64 9.53893 145.64 10.1974 144.836 11.9709L134.844 34.3344H140.058L143.931 25.5629H152.767L156.632 34.3344H162.152L150.758 8.97363ZM145.186 22.5128L145.287 22.0065L147.195 17.5432C147.998 15.6795 148.201 15.0583 148.047 14.5521H148.25L151.363 22.0065L151.461 22.5128H145.186Z" fill="#1B1B1B"/>
<path d="M296.548 22.1463C295.846 21.4878 295.245 21.1337 294.542 21.1337V20.9318L307.853 8.97363H301.98L288.979 20.6368H288.727V8.97363H283.207V34.325H288.727V21.7021C289.381 21.7021 289.832 21.9537 290.874 22.9694L302.974 34.325H309.5L296.548 22.1463Z" fill="#1B1B1B"/>
<path d="M236.959 21.1431V20.9412L250.261 8.97363H244.388L231.387 20.6368H231.135V8.97363H225.615V34.325H231.135V21.7021C231.788 21.7021 232.239 21.9537 233.282 22.9694L245.381 34.325H251.908L238.965 22.1463C238.263 21.4971 237.662 21.1431 236.959 21.1431Z" fill="#1B1B1B"/>
<path d="M264.915 8.16943H264.866C256.533 8.16943 250.908 13.5429 250.908 21.6061C250.908 29.6694 256.533 35.0428 264.866 35.0428H264.915C273.248 35.0428 278.873 29.6663 278.873 21.6061C278.873 13.546 273.254 8.16943 264.915 8.16943ZM272.846 22.2149C272.846 28.399 269.936 32.0517 264.915 32.0517H264.866C259.845 32.0517 256.932 28.399 256.932 22.2149V20.9973C256.932 14.8132 259.845 11.1605 264.866 11.1605H264.915C269.936 11.1605 272.846 14.8132 272.846 20.9973V22.2149Z" fill="#1B1B1B"/>
<path d="M185.652 26.6687H185.449C185.299 26.0102 184.836 25.0473 183.692 23.7801L170.39 8.97363H164.931V9.28424C165.483 9.48613 165.885 10.3993 165.885 11.5144V34.3313H170.706V19.3167C170.706 17.0369 170.504 16.5803 170.154 16.1734L170.353 16.0212L185.765 33.1044V34.3219H190.485V8.97363H185.652V26.6687Z" fill="#1B1B1B"/>
<path d="M214.31 21.2458C215.113 21.4477 215.466 22.1062 215.466 23.42V28.4394C215.466 29.6041 215.773 30.303 216.42 30.7192L216.319 30.9242C215.71 30.946 215.104 31.0303 214.512 31.1758C212.993 31.5074 211.447 31.6945 209.893 31.7349C203.759 31.7349 200.205 28.2872 200.205 22.3547V21.7334C200.205 15.4468 203.885 11.642 209.893 11.642C213.307 11.642 216.27 12.8595 219.281 15.4468V10.2939C216.338 8.92635 213.132 8.23379 209.893 8.2657C199.901 8.2657 194.178 13.2353 194.178 22.0068C194.178 30.2191 200.005 35.0366 209.893 35.0366C212.554 35.0094 215.201 34.6516 217.775 33.9712C219.18 33.6171 219.683 33.6606 220.134 34.3253H220.441V20.9414H214.31V21.2458Z" fill="#1B1B1B"/>
<path d="M74.4546 47.1465H83.4041V48.9262H76.5555V53.0231H82.3214V54.8215H76.5555V58.8593H83.6096V60.6763H74.4546V47.1465Z" fill="#1B1B1B"/>
<path d="M84.3547 50.4451H86.6642L89.6637 58.1573L92.5774 50.4451H94.6077L90.5623 60.6794H88.5289L84.3547 50.4451Z" fill="#1B1B1B"/>
<path d="M95.4329 55.601C95.4329 52.3925 97.5031 50.2959 100.469 50.2959C103.435 50.2959 105.502 52.3925 105.502 55.601C105.502 58.8095 103.453 60.8284 100.469 60.8284C97.4295 60.8284 95.4329 58.7971 95.4329 55.601ZM103.269 55.601C103.269 53.228 102.153 52.0042 100.487 52.0042C98.8219 52.0042 97.6656 53.228 97.6656 55.601C97.6656 57.974 98.8035 59.086 100.487 59.086C102.171 59.086 103.284 57.9367 103.284 55.601H103.269Z" fill="#1B1B1B"/>
<path d="M107.719 46.1245H109.823V60.6794H107.719V46.1245Z" fill="#1B1B1B"/>
<path d="M111.363 50.4451H113.669L116.672 58.1573L119.582 50.4451H121.616L117.57 60.6794H115.552L111.363 50.4451Z" fill="#1B1B1B"/>
<path d="M123.155 47.9601C123.147 47.7745 123.175 47.5891 123.239 47.415C123.303 47.241 123.402 47.0819 123.528 46.9474C123.655 46.813 123.807 46.7059 123.976 46.6328C124.144 46.5597 124.326 46.522 124.509 46.522C124.693 46.522 124.874 46.5597 125.043 46.6328C125.212 46.7059 125.364 46.813 125.491 46.9474C125.617 47.0819 125.715 47.241 125.78 47.415C125.844 47.5891 125.872 47.7745 125.863 47.9601C125.847 48.3125 125.697 48.6449 125.445 48.8884C125.193 49.1319 124.858 49.2677 124.509 49.2677C124.161 49.2677 123.826 49.1319 123.574 48.8884C123.322 48.6449 123.172 48.3125 123.155 47.9601ZM123.447 50.4449H125.551V60.6793H123.447V50.4449Z" fill="#1B1B1B"/>
<path d="M128.078 50.445H130.185V52.0943C130.525 51.5321 131.005 51.0702 131.576 50.7546C132.148 50.439 132.791 50.2809 133.442 50.2959C136.043 50.2959 137.196 51.8738 137.196 54.5605V60.6794H135.089V54.9332C135.089 53.0416 134.359 52.0229 132.746 52.0229C131.133 52.0229 130.185 53.1534 130.185 55.1537V60.6794H128.078V50.445Z" fill="#1B1B1B"/>
<path d="M143.569 58.3996C142.177 58.3996 141.757 58.7102 141.757 59.1947C141.757 59.5674 142.103 59.8159 142.928 59.8159C143.625 59.8159 144.502 59.7445 145.434 59.7445C147.615 59.7445 149.004 60.5583 149.004 62.4685C149.004 64.6178 146.992 65.9907 143.483 65.9907C140.205 65.9907 139.07 64.8228 139.07 63.4313C139.07 62.1734 139.95 61.4497 141.251 61.0956C140.278 60.9123 139.766 60.3905 139.766 59.5208C139.766 58.6512 140.297 58.1293 141.251 57.8343C140.638 57.4998 140.131 56.9971 139.788 56.384C139.444 55.7709 139.278 55.0721 139.309 54.3679C139.309 51.8831 141.251 50.2866 143.631 50.2866C144.044 50.2878 144.456 50.3378 144.857 50.4357H149.032V52.1036H147.293C147.735 52.7729 147.965 53.5628 147.952 54.3679C147.952 56.9615 146.047 58.4058 143.634 58.4058L143.569 58.3996ZM143.238 61.5056C141.794 61.6516 141.208 62.2821 141.208 63.099C141.208 63.8227 141.938 64.3787 143.842 64.3787C146.038 64.3787 146.909 63.6177 146.909 62.6921C146.909 61.8938 146.379 61.431 144.802 61.431C144.28 61.4216 143.758 61.4433 143.238 61.4963V61.5056ZM145.894 54.3617C145.894 52.7093 145.014 51.821 143.64 51.821C142.266 51.821 141.352 52.7093 141.352 54.3617C141.352 56.0141 142.272 56.8994 143.64 56.8994C145.008 56.8994 145.894 56.0017 145.894 54.3586V54.3617Z" fill="#1B1B1B"/>
<path d="M158.107 47.1465H163.523C166.415 47.1465 168.157 48.2212 168.157 50.6314C168.157 52.2435 167.296 53.2095 165.94 53.6723C167.474 54.0978 168.449 55.0607 168.449 56.8218C168.449 59.5489 166.471 60.6795 163.505 60.6795H158.107V47.1465ZM160.192 48.8703V52.9672H163.416C165.225 52.9672 165.958 52.0354 165.958 50.8551C165.958 49.594 165.081 48.8703 163.361 48.8703H160.192ZM160.192 54.691V58.9183H163.471C165.247 58.9183 166.231 58.0642 166.231 56.7441C166.231 55.4241 165.37 54.6848 163.394 54.6848L160.192 54.691Z" fill="#1B1B1B"/>
<path d="M178.665 60.8284C177.512 60.8284 176.76 60.3811 176.653 59.0486C176.067 60.1792 174.859 60.8284 173.375 60.8284C171.452 60.8284 170.354 59.8252 170.354 58.2504C170.354 56.4893 171.507 55.5823 173.779 54.9704C175.736 54.4331 176.524 54.2095 176.524 53.4858C176.524 52.6689 175.975 52.0756 174.417 52.0756C173.102 52.0756 171.746 52.613 170.482 53.8026V51.7992C171.627 50.817 173.082 50.2835 174.583 50.2959C177.313 50.2959 178.57 51.5383 178.57 53.6162V57.9646C178.57 58.9275 178.877 59.1853 179.49 59.1853C179.651 59.187 179.812 59.1628 179.965 59.1139V60.5023C179.578 60.7509 179.122 60.8654 178.665 60.8284ZM176.561 56.5266V55.4146C176.23 55.8215 175.537 56.101 174.454 56.3775C173.01 56.7502 172.553 57.3248 172.553 58.0268C172.553 58.8064 173.12 59.2133 173.942 59.2133C174.289 59.2158 174.634 59.1478 174.955 59.0133C175.276 58.8787 175.567 58.6804 175.812 58.4299C176.056 58.1795 176.248 57.882 176.377 57.5551C176.505 57.2282 176.568 56.8784 176.561 56.5266Z" fill="#1B1B1B"/>
<path d="M181.708 50.445H183.811V52.0943C184.152 51.5321 184.631 51.0702 185.203 50.7546C185.774 50.439 186.418 50.2809 187.069 50.2959C189.669 50.2959 190.823 51.8738 190.823 54.5605V60.6794H188.719V54.9332C188.719 53.0416 187.986 52.0229 186.375 52.0229C184.765 52.0229 183.811 53.1534 183.811 55.1537V60.6794H181.708V50.445Z" fill="#1B1B1B"/>
<path d="M197.196 58.3996C195.803 58.3996 195.383 58.7102 195.383 59.1947C195.383 59.5674 195.73 59.8159 196.555 59.8159C197.251 59.8159 198.128 59.7445 199.063 59.7445C201.241 59.7445 202.633 60.5583 202.633 62.4685C202.633 64.6178 200.618 65.9907 197.113 65.9907C193.834 65.9907 192.699 64.8228 192.699 63.4313C192.699 62.1734 193.58 61.4497 194.88 61.0956C193.908 60.9123 193.396 60.3905 193.396 59.5208C193.396 58.6512 193.926 58.1293 194.88 57.8343C194.267 57.4998 193.76 56.9971 193.417 56.384C193.074 55.7709 192.908 55.0721 192.939 54.3679C192.939 51.8831 194.88 50.2866 197.26 50.2866C197.673 50.2882 198.085 50.3382 198.487 50.4357H202.655V52.1036H200.913C201.356 52.7726 201.587 53.5625 201.575 54.3679C201.575 56.9615 199.671 58.4058 197.254 58.4058L197.196 58.3996ZM196.864 61.5056C195.42 61.6516 194.834 62.2821 194.834 63.099C194.834 63.8227 195.567 64.3787 197.469 64.3787C199.668 64.3787 200.536 63.6177 200.536 62.6921C200.536 61.8938 200.005 61.431 198.432 61.431C197.908 61.4215 197.385 61.4433 196.864 61.4963V61.5056ZM199.52 54.3617C199.52 52.7093 198.64 51.821 197.269 51.821C195.898 51.821 194.978 52.7093 194.978 54.3617C194.978 56.0141 195.898 56.8994 197.269 56.8994C198.64 56.8994 199.52 56.0017 199.52 54.3586V54.3617Z" fill="#1B1B1B"/>
<path d="M204.538 46.1245H206.642V55.191L211.147 50.445H213.601L208.951 55.2283L213.84 60.6794H211.224L206.642 55.5078V60.6794H204.538V46.1245Z" fill="#1B1B1B"/>
<path d="M213.985 55.601C213.985 52.3925 216.055 50.2959 219.021 50.2959C221.986 50.2959 224.054 52.3925 224.054 55.601C224.054 58.8095 222.005 60.8284 219.021 60.8284C215.981 60.8284 213.985 58.7971 213.985 55.601ZM221.821 55.601C221.821 53.228 220.704 52.0042 219.039 52.0042C217.374 52.0042 216.217 53.228 216.217 55.601C216.217 57.974 217.355 59.086 219.039 59.086C220.723 59.086 221.821 57.9367 221.821 55.601Z" fill="#1B1B1B"/>
<path d="M226.252 46.1245H228.356V55.191L232.862 50.445H235.315L230.666 55.2283L235.552 60.6794H232.935L228.356 55.5078V60.6794H226.252V46.1245Z" fill="#1B1B1B"/>
</g>
<defs>
<clipPath id="clip0_530_7511">
<rect width="309" height="66" fill="white" transform="translate(0.5)"/>
</clipPath>
</defs>
</svg>
