<svg width="192" height="43" viewBox="0 0 192 43" fill="none" xmlns="http://www.w3.org/2000/svg">
<path d="M19.578 12.822C19.578 18.308 15.418 22.182 10.244 22.182C5.07 22.182 0.858 18.308 0.858 12.822C0.858 7.336 5.07 3.488 10.244 3.488C15.444 3.488 19.578 7.336 19.578 12.822ZM5.408 12.822C5.408 16.02 7.28 18.126 10.244 18.126C13.156 18.126 15.054 16.02 15.054 12.822C15.054 9.572 13.156 7.518 10.244 7.518C7.28 7.518 5.408 9.572 5.408 12.822ZM33.9335 3.748H38.3795V22H33.9335L26.4975 10.742V22H22.0515V3.748H26.4975L33.9335 15.058V3.748ZM52.7822 3.748V7.31H46.0482V11.002H52.0022V14.434H46.0482V18.438H52.7822V22H41.6022V3.748H52.7822ZM71.2404 16.436C71.2404 15.136 70.3304 14.382 68.8484 14.382H65.6244V18.412H68.9004C70.3824 18.412 71.2404 17.736 71.2404 16.436ZM70.7984 9.234C70.7984 7.986 69.9924 7.31 68.5364 7.31H65.6244V11.132H68.5364C69.9924 11.132 70.7984 10.482 70.7984 9.234ZM75.7384 17.034C75.7384 20.05 73.5284 22 69.6804 22H61.1784V3.748H69.3944C73.1124 3.748 75.3224 5.594 75.3224 8.48C75.3224 10.69 73.9964 12.12 72.2284 12.64C74.3604 13.082 75.7384 14.954 75.7384 17.034ZM90.7711 22L89.6791 18.776H82.8671L81.7751 22H77.1211L83.7251 3.748H88.8731L95.4771 22H90.7711ZM88.5351 15.344L86.2731 8.662L84.0371 15.344H88.5351ZM109.369 3.748H113.815V22H109.369L101.933 10.742V22H97.487V3.748H101.933L109.369 15.058V3.748ZM125.566 3.54C129.934 3.54 133.106 5.776 134.068 9.52H129.154C128.478 8.298 127.23 7.648 125.566 7.648C122.706 7.648 120.808 9.676 120.808 12.848C120.808 16.228 122.732 18.204 125.93 18.204C128.14 18.204 129.674 17.034 130.35 14.98H124.708V11.704H134.38V15.838C133.444 18.984 130.402 22.13 125.592 22.13C120.132 22.13 116.284 18.308 116.284 12.848C116.284 7.388 120.106 3.54 125.566 3.54ZM147.424 22L141.288 13.94V22H136.842V3.748H141.288V11.756L147.372 3.748H152.598L145.526 12.692L152.858 22H147.424ZM172.937 12.822C172.937 18.308 168.777 22.182 163.603 22.182C158.429 22.182 154.217 18.308 154.217 12.822C154.217 7.336 158.429 3.488 163.603 3.488C168.803 3.488 172.937 7.336 172.937 12.822ZM158.767 12.822C158.767 16.02 160.639 18.126 163.603 18.126C166.515 18.126 168.413 16.02 168.413 12.822C168.413 9.572 166.515 7.518 163.603 7.518C160.639 7.518 158.767 9.572 158.767 12.822ZM185.993 22L179.857 13.94V22H175.411V3.748H179.857V11.756L185.941 3.748H191.167L184.095 12.692L191.427 22H185.993Z" fill="#2B3674"/>
<path d="M6.698 40.119C5.59867 40.119 4.60133 39.864 3.706 39.354C2.81067 38.8327 2.10233 38.113 1.581 37.195C1.071 36.2657 0.816 35.2173 0.816 34.05C0.816 32.8827 1.071 31.84 1.581 30.922C2.10233 29.9927 2.81067 29.273 3.706 28.763C4.60133 28.2417 5.59867 27.981 6.698 27.981C7.80867 27.981 8.81167 28.2417 9.707 28.763C10.6023 29.273 11.305 29.9927 11.815 30.922C12.325 31.84 12.58 32.8827 12.58 34.05C12.58 35.2173 12.325 36.2657 11.815 37.195C11.305 38.113 10.6023 38.8327 9.707 39.354C8.81167 39.864 7.80867 40.119 6.698 40.119ZM6.698 39.082C7.582 39.082 8.37533 38.878 9.078 38.47C9.78067 38.062 10.336 37.4783 10.744 36.719C11.152 35.9483 11.356 35.0587 11.356 34.05C11.356 33.0413 11.152 32.1573 10.744 31.398C10.336 30.6387 9.78067 30.055 9.078 29.647C8.37533 29.239 7.582 29.035 6.698 29.035C5.814 29.035 5.02067 29.239 4.318 29.647C3.61533 30.055 3.06 30.6387 2.652 31.398C2.244 32.1573 2.04 33.0413 2.04 34.05C2.04 35.0587 2.244 35.9483 2.652 36.719C3.06 37.4783 3.61533 38.062 4.318 38.47C5.02067 38.878 5.814 39.082 6.698 39.082ZM22.3565 31.534C22.3565 32.554 22.0221 33.3757 21.3535 33.999C20.6848 34.6223 19.6818 34.934 18.3445 34.934H15.9475V40H14.7575V28.117H18.3445C19.6705 28.117 20.6678 28.4287 21.3365 29.052C22.0165 29.6753 22.3565 30.5027 22.3565 31.534ZM18.3445 33.914C20.2031 33.914 21.1325 33.1207 21.1325 31.534C21.1325 30.7407 20.9115 30.14 20.4695 29.732C20.0275 29.324 19.3191 29.12 18.3445 29.12H15.9475V33.914H18.3445ZM25.5432 29.086V33.523H30.0482V34.509H25.5432V39.014H30.5582V40H24.3532V28.1H30.5582V29.086H25.5432ZM39.227 40L36.286 35.036H34.093V40H32.903V28.117H36.473C37.799 28.117 38.802 28.4343 39.482 29.069C40.1733 29.7037 40.519 30.5367 40.519 31.568C40.519 32.4293 40.2696 33.166 39.771 33.778C39.2836 34.3787 38.5583 34.7697 37.595 34.951L40.655 40H39.227ZM34.093 34.067H36.49C37.4193 34.067 38.1163 33.8403 38.581 33.387C39.057 32.9337 39.295 32.3273 39.295 31.568C39.295 30.786 39.0683 30.1853 38.615 29.766C38.1616 29.3353 37.4476 29.12 36.473 29.12H34.093V34.067ZM49.7655 37.178H44.3595L43.3225 40H42.0645L46.3995 28.27H47.7425L52.0605 40H50.8025L49.7655 37.178ZM49.4085 36.192L47.0625 29.766L44.7165 36.192H49.4085ZM60.9234 28.117V29.103H57.6254V40H56.4354V29.103H53.1204V28.117H60.9234ZM63.9924 28.117V40H62.8024V28.117H63.9924ZM72.0251 40.119C70.9258 40.119 69.9285 39.864 69.0331 39.354C68.1378 38.8327 67.4295 38.113 66.9081 37.195C66.3981 36.2657 66.1431 35.2173 66.1431 34.05C66.1431 32.8827 66.3981 31.84 66.9081 30.922C67.4295 29.9927 68.1378 29.273 69.0331 28.763C69.9285 28.2417 70.9258 27.981 72.0251 27.981C73.1358 27.981 74.1388 28.2417 75.0341 28.763C75.9295 29.273 76.6321 29.9927 77.1421 30.922C77.6521 31.84 77.9071 32.8827 77.9071 34.05C77.9071 35.2173 77.6521 36.2657 77.1421 37.195C76.6321 38.113 75.9295 38.8327 75.0341 39.354C74.1388 39.864 73.1358 40.119 72.0251 40.119ZM72.0251 39.082C72.9091 39.082 73.7025 38.878 74.4051 38.47C75.1078 38.062 75.6631 37.4783 76.0711 36.719C76.4791 35.9483 76.6831 35.0587 76.6831 34.05C76.6831 33.0413 76.4791 32.1573 76.0711 31.398C75.6631 30.6387 75.1078 30.055 74.4051 29.647C73.7025 29.239 72.9091 29.035 72.0251 29.035C71.1411 29.035 70.3478 29.239 69.6451 29.647C68.9425 30.055 68.3871 30.6387 67.9791 31.398C67.5711 32.1573 67.3671 33.0413 67.3671 34.05C67.3671 35.0587 67.5711 35.9483 67.9791 36.719C68.3871 37.4783 68.9425 38.062 69.6451 38.47C70.3478 38.878 71.1411 39.082 72.0251 39.082ZM89.0436 40H87.8536L81.2746 30.004V40H80.0846V28.117H81.2746L87.8536 38.096V28.117H89.0436V40ZM95.3429 40.119C94.5609 40.119 93.8696 39.983 93.2689 39.711C92.6796 39.439 92.2149 39.0593 91.8749 38.572C91.5349 38.0847 91.3536 37.5407 91.3309 36.94H92.5889C92.6456 37.518 92.9006 38.028 93.3539 38.47C93.8072 38.9007 94.4702 39.116 95.3429 39.116C96.1476 39.116 96.7822 38.912 97.2469 38.504C97.7229 38.0847 97.9609 37.5577 97.9609 36.923C97.9609 36.413 97.8306 36.005 97.5699 35.699C97.3092 35.3817 96.9862 35.1493 96.6009 35.002C96.2156 34.8433 95.6829 34.6733 95.0029 34.492C94.2096 34.2767 93.5806 34.067 93.1159 33.863C92.6512 33.659 92.2546 33.3417 91.9259 32.911C91.5972 32.4803 91.4329 31.8967 91.4329 31.16C91.4329 30.548 91.5916 30.004 91.9089 29.528C92.2262 29.0407 92.6739 28.661 93.2519 28.389C93.8299 28.117 94.4929 27.981 95.2409 27.981C96.3402 27.981 97.2242 28.253 97.8929 28.797C98.5729 29.3297 98.9639 30.021 99.0659 30.871H97.7739C97.6946 30.3837 97.4282 29.953 96.9749 29.579C96.5216 29.1937 95.9096 29.001 95.1389 29.001C94.4249 29.001 93.8299 29.1937 93.3539 29.579C92.8779 29.953 92.6399 30.4687 92.6399 31.126C92.6399 31.6247 92.7702 32.027 93.0309 32.333C93.2916 32.639 93.6146 32.8713 93.9999 33.03C94.3966 33.1887 94.9292 33.3587 95.5979 33.54C96.3686 33.7553 96.9919 33.9707 97.4679 34.186C97.9439 34.39 98.3462 34.7073 98.6749 35.138C99.0036 35.5687 99.1679 36.1467 99.1679 36.872C99.1679 37.4273 99.0206 37.9543 98.7259 38.453C98.4312 38.9517 97.9949 39.354 97.4169 39.66C96.8389 39.966 96.1476 40.119 95.3429 40.119ZM111.691 33.863C112.36 33.9877 112.927 34.3277 113.391 34.883C113.856 35.4383 114.088 36.0843 114.088 36.821C114.088 37.4217 113.935 37.9657 113.629 38.453C113.335 38.929 112.898 39.3087 112.32 39.592C111.742 39.864 111.051 40 110.246 40H106.132V28.117H110.127C111.329 28.117 112.241 28.3947 112.864 28.95C113.499 29.5053 113.816 30.225 113.816 31.109C113.816 31.8457 113.618 32.4463 113.221 32.911C112.825 33.3643 112.315 33.6817 111.691 33.863ZM107.322 33.37H110.093C110.898 33.37 111.516 33.183 111.946 32.809C112.388 32.4237 112.609 31.8967 112.609 31.228C112.609 30.5707 112.388 30.055 111.946 29.681C111.516 29.307 110.881 29.12 110.042 29.12H107.322V33.37ZM110.161 38.997C111.023 38.997 111.691 38.793 112.167 38.385C112.655 37.977 112.898 37.416 112.898 36.702C112.898 35.988 112.643 35.4213 112.133 35.002C111.635 34.5713 110.96 34.356 110.11 34.356H107.322V38.997H110.161ZM121.614 40.119C120.515 40.119 119.517 39.864 118.622 39.354C117.727 38.8327 117.018 38.113 116.497 37.195C115.987 36.2657 115.732 35.2173 115.732 34.05C115.732 32.8827 115.987 31.84 116.497 30.922C117.018 29.9927 117.727 29.273 118.622 28.763C119.517 28.2417 120.515 27.981 121.614 27.981C122.725 27.981 123.728 28.2417 124.623 28.763C125.518 29.273 126.221 29.9927 126.731 30.922C127.241 31.84 127.496 32.8827 127.496 34.05C127.496 35.2173 127.241 36.2657 126.731 37.195C126.221 38.113 125.518 38.8327 124.623 39.354C123.728 39.864 122.725 40.119 121.614 40.119ZM121.614 39.082C122.498 39.082 123.291 38.878 123.994 38.47C124.697 38.062 125.252 37.4783 125.66 36.719C126.068 35.9483 126.272 35.0587 126.272 34.05C126.272 33.0413 126.068 32.1573 125.66 31.398C125.252 30.6387 124.697 30.055 123.994 29.647C123.291 29.239 122.498 29.035 121.614 29.035C120.73 29.035 119.937 29.239 119.234 29.647C118.531 30.055 117.976 30.6387 117.568 31.398C117.16 32.1573 116.956 33.0413 116.956 34.05C116.956 35.0587 117.16 35.9483 117.568 36.719C117.976 37.4783 118.531 38.062 119.234 38.47C119.937 38.878 120.73 39.082 121.614 39.082ZM136.558 37.178H131.152L130.115 40H128.857L133.192 28.27H134.535L138.853 40H137.595L136.558 37.178ZM136.201 36.192L133.855 29.766L131.509 36.192H136.201ZM147.087 40L144.146 35.036H141.953V40H140.763V28.117H144.333C145.659 28.117 146.662 28.4343 147.342 29.069C148.034 29.7037 148.379 30.5367 148.379 31.568C148.379 32.4293 148.13 33.166 147.631 33.778C147.144 34.3787 146.419 34.7697 145.455 34.951L148.515 40H147.087ZM141.953 34.067H144.35C145.28 34.067 145.977 33.8403 146.441 33.387C146.917 32.9337 147.155 32.3273 147.155 31.568C147.155 30.786 146.929 30.1853 146.475 29.766C146.022 29.3353 145.308 29.12 144.333 29.12H141.953V34.067ZM154.26 28.117C155.575 28.117 156.702 28.355 157.643 28.831C158.584 29.307 159.303 29.9927 159.802 30.888C160.301 31.7833 160.55 32.8487 160.55 34.084C160.55 35.308 160.301 36.3677 159.802 37.263C159.303 38.147 158.584 38.827 157.643 39.303C156.702 39.7677 155.575 40 154.26 40H150.741V28.117H154.26ZM154.26 39.014C155.915 39.014 157.173 38.5833 158.034 37.722C158.907 36.8493 159.343 35.6367 159.343 34.084C159.343 32.52 158.907 31.3017 158.034 30.429C157.173 29.545 155.915 29.103 154.26 29.103H151.931V39.014H154.26Z" fill="#2B3674"/>
</svg>
