<?xml version='1.0' encoding='iso-8859-1'?>
<!DOCTYPE svg PUBLIC '-//W3C//DTD SVG 1.1//EN' 'http://www.w3.org/Graphics/SVG/1.1/DTD/svg11.dtd'>
<!-- Uploaded to: SVG Repo, www.svgrepo.com, Generator: SVG Repo Mixer Tools -->
<svg fill="#A3AED0" height="24" version="1.1" xmlns="http://www.w3.org/2000/svg" viewBox="0 0 297 297" xmlns:xlink="http://www.w3.org/1999/xlink" enable-background="new 0 0 297 297">
  <g>
    <path d="m234.573,93.78c11.465,0 20.791-9.327 20.791-20.791s-9.327-20.791-20.791-20.791c-11.465,0-20.791,9.327-20.791,20.791s9.326,20.791 20.791,20.791zm0-27.395c3.641,0 6.603,2.962 6.603,6.603s-2.962,6.603-6.603,6.603c-3.641,0-6.603-2.962-6.603-6.603s2.962-6.603 6.603-6.603z"/>
    <path d="m297,94.113c0-34.422-28.004-62.427-62.427-62.427-32.139,0-58.675,24.415-62.055,55.671l-23.545,15.18v-63.284c0-4.44-3.6-8.04-8.04-8.04h-124.853c-4.44,0-8.04,3.6-8.04,8.04v210.454c-4.44,0-8.04,3.6-8.04,8.04 0,4.44 3.6,8.04 8.04,8.04h140.933c4.44,0 8.04-3.6 8.04-8.04 0-4.44-3.6-8.04-8.04-8.04v-72.592l39.057,23.223c-0.486,2.193-0.75,4.468-0.75,6.805 0,17.341 14.108,31.45 31.45,31.45s31.45-14.108 31.45-31.45c0-11.498-6.206-21.57-15.441-27.055l6.147-23.867c31.469-3.175 56.114-29.817 56.114-62.108zm-46.34,43.464c-5.014,1.862-10.433,2.883-16.087,2.883-5.654,0-11.073-1.021-16.087-2.883v-21.583c0-1.855 1.168-3.497 2.914-4.107l1.353-.416 8.773,4.172c1.927,0.916 4.166,0.916 6.093,0l8.773-4.172 1.353,.416c1.746,0.61 2.914,2.252 2.914,4.107v21.583zm-16.086-89.811c25.556,7.10543e-15 46.347,20.791 46.347,46.347 0,13.99-6.24,26.543-16.072,35.048v-13.167c0-7.994-5.095-15.062-12.678-17.588-0.054-0.018-0.107-0.035-0.162-0.052l-4.09-1.255c-1.695-0.52-3.525-0.387-5.127,0.375l-8.218,3.908-8.218-3.908c-1.603-0.762-3.432-0.895-5.127-0.375l-4.09,1.255c-0.054,0.017-0.108,0.034-0.162,0.052-7.583,2.526-12.678,9.594-12.678,17.588v13.167c-9.832-8.505-16.072-21.058-16.072-35.048 0-25.556 20.791-46.347 46.347-46.347zm-210.454,201.941v-202.414h108.774v202.414h-108.774zm194.611-27.193c-8.475,0-15.37-6.895-15.37-15.37s6.895-15.37 15.37-15.37c8.475,0 15.37,6.895 15.37,15.37s-6.895,15.37-15.37,15.37zm0-46.821c-9.226,0-17.536,3.994-23.294,10.343l-46.463-27.627v-36.741l24.321-15.68c4.929,25.484 25.399,45.484 51.123,49.713l-5.153,20.006c-0.179-0.003-0.355-0.014-0.534-0.014z"/>
    <path d="m62.9,78.033h-15.607c-4.44,0-8.04,3.6-8.04,8.04s3.6,8.04 8.04,8.04h15.607c4.44,0 8.04-3.6 8.04-8.04s-3.6-8.04-8.04-8.04z"/>
    <path d="m109.72,78.033h-15.607c-4.44,0-8.04,3.6-8.04,8.04s3.6,8.04 8.04,8.04h15.607c4.44,0 8.04-3.6 8.04-8.04s-3.6-8.04-8.04-8.04z"/>
    <path d="m62.9,109.247h-15.607c-4.44,0-8.04,3.6-8.04,8.04 0,4.44 3.6,8.04 8.04,8.04h15.607c4.44,0 8.04-3.6 8.04-8.04-0.001-4.441-3.6-8.04-8.04-8.04z"/>
    <path d="m109.72,109.247h-15.607c-4.44,0-8.04,3.6-8.04,8.04 0,4.44 3.6,8.04 8.04,8.04h15.607c4.44,0 8.04-3.6 8.04-8.04 1.42109e-14-4.441-3.6-8.04-8.04-8.04z"/>
    <path d="m62.9,140.46h-15.607c-4.44,0-8.04,3.6-8.04,8.04s3.6,8.04 8.04,8.04h15.607c4.44,0 8.04-3.6 8.04-8.04s-3.6-8.04-8.04-8.04z"/>
    <path d="m109.72,140.46h-15.607c-4.44,0-8.04,3.6-8.04,8.04s3.6,8.04 8.04,8.04h15.607c4.44,0 8.04-3.6 8.04-8.04s-3.6-8.04-8.04-8.04z"/>
    <path d="m62.9,171.674h-15.607c-4.44,0-8.04,3.6-8.04,8.04s3.6,8.04 8.04,8.04h15.607c4.44,0 8.04-3.6 8.04-8.04s-3.6-8.04-8.04-8.04z"/>
    <path d="m109.72,171.674h-15.607c-4.44,0-8.04,3.6-8.04,8.04s3.6,8.04 8.04,8.04h15.607c4.44,0 8.04-3.6 8.04-8.04s-3.6-8.04-8.04-8.04z"/>
  </g>
</svg>