<svg width="25" height="24" viewBox="0 0 25 24" fill="none" xmlns="http://www.w3.org/2000/svg">
<path d="M15.3318 5.29279C15.5193 5.48031 15.6246 5.73462 15.6246 5.99979C15.6246 6.26495 15.5193 6.51926 15.3318 6.70679L10.0388 11.9998L15.3318 17.2928C15.5139 17.4814 15.6147 17.734 15.6125 17.9962C15.6102 18.2584 15.505 18.5092 15.3196 18.6946C15.1342 18.88 14.8834 18.9852 14.6212 18.9875C14.359 18.9897 14.1064 18.8889 13.9178 18.7068L7.91779 12.7068C7.73032 12.5193 7.625 12.265 7.625 11.9998C7.625 11.7346 7.73032 11.4803 7.91779 11.2928L13.9178 5.29279C14.1053 5.10532 14.3596 5 14.6248 5C14.89 5 15.1443 5.10532 15.3318 5.29279Z" fill="#1B1B1B"/>
</svg>
