<svg width="24" height="24" viewBox="0 0 24 24" fill="none" xmlns="http://www.w3.org/2000/svg">
<path d="M17.7068 5.29279C17.8943 5.48031 17.9996 5.73462 17.9996 5.99979C17.9996 6.26495 17.8943 6.51926 17.7068 6.70679L12.4138 11.9998L17.7068 17.2928C17.8889 17.4814 17.9897 17.734 17.9875 17.9962C17.9852 18.2584 17.88 18.5092 17.6946 18.6946C17.5092 18.88 17.2584 18.9852 16.9962 18.9875C16.734 18.9897 16.4814 18.8889 16.2928 18.7068L10.2928 12.7068C10.1053 12.5193 10 12.265 10 11.9998C10 11.7346 10.1053 11.4803 10.2928 11.2928L16.2928 5.29279C16.4803 5.10532 16.7346 5 16.9998 5C17.265 5 17.5193 5.10532 17.7068 5.29279ZM11.7068 5.29279C11.8943 5.48031 11.9996 5.73462 11.9996 5.99979C11.9996 6.26495 11.8943 6.51926 11.7068 6.70679L6.41379 11.9998L11.7068 17.2928C11.8889 17.4814 11.9897 17.734 11.9875 17.9962C11.9852 18.2584 11.88 18.5092 11.6946 18.6946C11.5092 18.88 11.2584 18.9852 10.9962 18.9875C10.734 18.9897 10.4814 18.8889 10.2928 18.7068L4.29279 12.7068C4.10532 12.5193 4 12.265 4 11.9998C4 11.7346 4.10532 11.4803 4.29279 11.2928L10.2928 5.29279C10.4803 5.10532 10.7346 5 10.9998 5C11.265 5 11.5193 5.10532 11.7068 5.29279Z" fill="#1B1B1B"/>
</svg>
