<svg width="24" height="24" viewBox="0 0 24 24" fill="none" xmlns="http://www.w3.org/2000/svg">
<path d="M6.37439 8.14286C6.20865 8.14286 6.0497 8.21059 5.93251 8.33115C5.81532 8.45171 5.74948 8.61522 5.74948 8.78572V12.6429C5.74948 12.8134 5.81532 12.9769 5.93251 13.0974C6.0497 13.218 6.20865 13.2857 6.37439 13.2857H17.6228C17.7886 13.2857 17.9475 13.218 18.0647 13.0974C18.1819 12.9769 18.2477 12.8134 18.2477 12.6429V8.78572C18.2477 8.61522 18.1819 8.45171 18.0647 8.33115C17.9475 8.21059 17.7886 8.14286 17.6228 8.14286H6.37439ZM6.9993 12V9.42857H16.9979V12H6.9993ZM13.8733 14.5714C13.7076 14.5714 13.5487 14.6392 13.4315 14.7597C13.3143 14.8803 13.2484 15.0438 13.2484 15.2143V17.7857C13.2484 17.9562 13.3143 18.1197 13.4315 18.2403C13.5487 18.3608 13.7076 18.4286 13.8733 18.4286H17.6228C17.7886 18.4286 17.9475 18.3608 18.0647 18.2403C18.1819 18.1197 18.2477 17.9562 18.2477 17.7857V15.2143C18.2477 15.0438 18.1819 14.8803 18.0647 14.7597C17.9475 14.6392 17.7886 14.5714 17.6228 14.5714H13.8733ZM14.4983 17.1429V15.8571H16.9979V17.1429H14.4983ZM2 4.92857C2 4.41708 2.19752 3.92654 2.5491 3.56487C2.90068 3.20319 3.37753 3 3.87474 3H20.1225C20.5652 2.99932 20.9939 3.15986 21.3326 3.45317C21.6713 3.74648 21.8982 4.15364 21.973 4.60253C22.0479 5.05143 21.9659 5.51309 21.7415 5.90575C21.5172 6.2984 21.165 6.59672 20.7474 6.74786V20.3571C20.7474 20.5276 20.6815 20.6912 20.5643 20.8117C20.4472 20.9323 20.2882 21 20.1225 21H3.87474C3.709 21 3.55005 20.9323 3.43286 20.8117C3.31566 20.6912 3.24983 20.5276 3.24983 20.3571V6.74786C2.88415 6.61486 2.56758 6.36847 2.34374 6.04263C2.11989 5.7168 1.9998 5.32756 2 4.92857ZM3.87474 4.28572C3.709 4.28572 3.55005 4.35345 3.43286 4.474C3.31566 4.59456 3.24983 4.75808 3.24983 4.92857C3.24983 5.09907 3.31566 5.26258 3.43286 5.38314C3.55005 5.5037 3.709 5.57143 3.87474 5.57143H20.1225C20.2882 5.57143 20.4472 5.5037 20.5643 5.38314C20.6815 5.26258 20.7474 5.09907 20.7474 4.92857C20.7474 4.75808 20.6815 4.59456 20.5643 4.474C20.4472 4.35345 20.2882 4.28572 20.1225 4.28572H3.87474ZM4.49965 6.85714V19.7143H5.74948V15.2143C5.74948 15.0438 5.81532 14.8803 5.93251 14.7597C6.0497 14.6392 6.20865 14.5714 6.37439 14.5714H11.3737C11.5394 14.5714 11.6984 14.6392 11.8156 14.7597C11.9328 14.8803 11.9986 15.0438 11.9986 15.2143V19.7143H19.4976V6.85714H4.49965ZM6.9993 19.7143H10.7488V15.8571H6.9993V19.7143Z" fill="#A3AED0"/>
</svg>
