<svg width="24" height="24" viewBox="0 0 24 24" fill="none" xmlns="http://www.w3.org/2000/svg">
<path d="M17 15C16.3 15 15.7083 14.7583 15.225 14.275C14.7417 13.7917 14.5 13.2 14.5 12.5C14.5 11.8 14.7417 11.2083 15.225 10.725C15.7083 10.2417 16.3 10 17 10C17.7 10 18.2917 10.2417 18.775 10.725C19.2583 11.2083 19.5 11.8 19.5 12.5C19.5 13.2 19.2583 13.7917 18.775 14.275C18.2917 14.7583 17.7 15 17 15ZM12 20V18.6C12 18.2 12.104 17.8293 12.312 17.488C12.5207 17.146 12.8167 16.9 13.2 16.75C13.8 16.5 14.421 16.3127 15.063 16.188C15.7043 16.0627 16.35 16 17 16C17.65 16 18.296 16.0627 18.938 16.188C19.5793 16.3127 20.2 16.5 20.8 16.75C21.1833 16.9 21.4793 17.146 21.688 17.488C21.896 17.8293 22 18.2 22 18.6V20H12ZM10 12C8.9 12 7.95833 11.6083 7.175 10.825C6.39167 10.0417 6 9.1 6 8C6 6.9 6.39167 5.95833 7.175 5.175C7.95833 4.39167 8.9 4 10 4C11.1 4 12.0417 4.39167 12.825 5.175C13.6083 5.95833 14 6.9 14 8C14 9.1 13.6083 10.0417 12.825 10.825C12.0417 11.6083 11.1 12 10 12ZM2 20V17.2C2 16.6333 2.14167 16.1123 2.425 15.637C2.70833 15.1623 3.1 14.8 3.6 14.55C4.6 14.05 5.63767 13.6667 6.713 13.4C7.78767 13.1333 8.88333 13 10 13C10.5833 13 11.1667 13.05 11.75 13.15C12.3333 13.25 12.9167 13.3667 13.5 13.5L12.65 14.35L11.8 15.2C11.5 15.1167 11.2 15.0623 10.9 15.037C10.6 15.0123 10.3 15 10 15C9.03333 15 8.08767 15.1167 7.163 15.35C6.23767 15.5833 5.35 15.9167 4.5 16.35C4.33333 16.4333 4.20833 16.55 4.125 16.7C4.04167 16.85 4 17.0167 4 17.2V18H10V20H2ZM10 10C10.55 10 11.021 9.804 11.413 9.412C11.8043 9.02067 12 8.55 12 8C12 7.45 11.8043 6.97933 11.413 6.588C11.021 6.196 10.55 6 10 6C9.45 6 8.97933 6.196 8.588 6.588C8.196 6.97933 8 7.45 8 8C8 8.55 8.196 9.02067 8.588 9.412C8.97933 9.804 9.45 10 10 10Z" fill="#A3AED0"/>
</svg>
