<svg width="24" height="24" viewBox="0 0 24 24" fill="none" xmlns="http://www.w3.org/2000/svg">
<g id="Icon/app">
<path id="Vector" d="M18.8815 12.6055L18.2532 12.09V11.91L18.8662 11.3945C18.9888 11.2964 19.0195 11.1164 18.9428 10.9773L18.2915 9.76636C18.2646 9.71589 18.2256 9.67406 18.1784 9.64527C18.1312 9.61647 18.0776 9.60178 18.0233 9.60273C17.9849 9.60273 17.9466 9.61091 17.9083 9.62727L17.1803 9.93818C17.119 9.89727 17.096 9.88091 17.0347 9.84818L16.9198 9.02182C16.9109 8.94137 16.8749 8.86713 16.8185 8.81294C16.7621 8.75875 16.6891 8.7283 16.6133 8.72727H15.3029C15.1496 8.72727 15.0194 8.85 14.9964 9.00545L14.8891 9.83182C14.8661 9.84818 14.8354 9.85636 14.8125 9.87273L14.7435 9.92182L14.0155 9.61091C13.9467 9.58062 13.8699 9.57802 13.7995 9.6036C13.729 9.62918 13.6696 9.6812 13.6324 9.75L12.981 10.9609C12.9044 11.1 12.935 11.28 13.0576 11.3782L13.6707 11.8936V12.0818L13.0576 12.5973C12.9991 12.6446 12.9589 12.7133 12.9447 12.7903C12.9306 12.8673 12.9435 12.9471 12.981 13.0145L13.6324 14.2255C13.686 14.3318 13.7933 14.3891 13.9006 14.3891C13.9389 14.3891 13.9772 14.3809 14.0155 14.3645L14.7435 14.0618C14.8048 14.1027 14.8354 14.1191 14.8968 14.1518L15.0117 14.9782C15.0347 15.1418 15.165 15.2564 15.3182 15.2564H16.6286C16.7819 15.2564 16.9121 15.1336 16.9351 14.9782L17.0501 14.1518C17.073 14.1355 17.1037 14.1273 17.1267 14.1109L17.1957 14.0618L17.9236 14.3727C17.9925 14.403 18.0692 14.4056 18.1397 14.38C18.2102 14.3545 18.2695 14.3024 18.3068 14.2336L18.9581 13.0227C18.9956 12.9553 19.0086 12.8754 18.9944 12.7985C18.9803 12.7215 18.9401 12.6528 18.8815 12.6055ZM15.9619 13.2273C15.3259 13.2273 14.8125 12.6791 14.8125 12C14.8125 11.3209 15.3259 10.7727 15.9619 10.7727C16.5979 10.7727 17.1114 11.3209 17.1114 12C17.1114 12.6791 16.5979 13.2273 15.9619 13.2273ZM6 21V3H16.7282V7.90909H15.1956V7.09091H7.5326V16.9091H15.1956V16.0909H16.7282V21H6Z" fill="#4318FF"/>
</g>
</svg>
