<svg width="25" height="25" viewBox="0 0 25 25" fill="none" xmlns="http://www.w3.org/2000/svg">
<path d="M11.4941 14.8875V18.0625C11.4941 18.3458 11.5901 18.5832 11.7821 18.7745C11.9735 18.9665 12.2108 19.0625 12.4941 19.0625C12.7775 19.0625 13.0151 18.9665 13.2071 18.7745C13.3985 18.5832 13.4941 18.3458 13.4941 18.0625V14.8875L14.3941 15.7875C14.4941 15.8875 14.6068 15.9625 14.7321 16.0125C14.8568 16.0625 14.9818 16.0832 15.1071 16.0745C15.2318 16.0665 15.3525 16.0375 15.4691 15.9875C15.5858 15.9375 15.6941 15.8625 15.7941 15.7625C15.9775 15.5625 16.0735 15.3292 16.0821 15.0625C16.0901 14.7958 15.9941 14.5625 15.7941 14.3625L13.1941 11.7625C13.0941 11.6625 12.9858 11.5915 12.8691 11.5495C12.7525 11.5082 12.6275 11.4875 12.4941 11.4875C12.3608 11.4875 12.2358 11.5082 12.1191 11.5495C12.0025 11.5915 11.8941 11.6625 11.7941 11.7625L9.19414 14.3625C8.99414 14.5625 8.89847 14.7958 8.90714 15.0625C8.91514 15.3292 9.01914 15.5625 9.21914 15.7625C9.41914 15.9458 9.65247 16.0418 9.91914 16.0505C10.1858 16.0585 10.4191 15.9625 10.6191 15.7625L11.4941 14.8875ZM6.49414 22.0625C5.94414 22.0625 5.47347 21.8668 5.08214 21.4755C4.69014 21.0835 4.49414 20.6125 4.49414 20.0625V4.0625C4.49414 3.5125 4.69014 3.0415 5.08214 2.6495C5.47347 2.25817 5.94414 2.0625 6.49414 2.0625H13.6691C13.9358 2.0625 14.1901 2.1125 14.4321 2.2125C14.6735 2.3125 14.8858 2.45417 15.0691 2.6375L19.9191 7.4875C20.1025 7.67083 20.2441 7.88317 20.3441 8.1245C20.4441 8.3665 20.4941 8.62083 20.4941 8.8875V20.0625C20.4941 20.6125 20.2985 21.0835 19.9071 21.4755C19.5151 21.8668 19.0441 22.0625 18.4941 22.0625H6.49414ZM13.4941 8.0625V4.0625H6.49414V20.0625H18.4941V9.0625H14.4941C14.2108 9.0625 13.9735 8.9665 13.7821 8.7745C13.5901 8.58317 13.4941 8.34583 13.4941 8.0625Z" fill="#4318FF"/>
</svg>
