<svg width="24" height="24" viewBox="0 0 24 24" fill="none" xmlns="http://www.w3.org/2000/svg">
<path d="M12.1359 2.25091C6.65243 2.17684 2.17587 6.65341 2.24993 12.1368C2.32305 17.3958 6.60509 21.6778 11.864 21.7509C17.3484 21.8259 21.824 17.3493 21.749 11.8659C21.6768 6.60606 17.3948 2.32403 12.1359 2.25091ZM18.0618 17.5907C18.0431 17.6109 18.0202 17.6268 17.9948 17.6371C17.9693 17.6475 17.9418 17.6521 17.9144 17.6507C17.8869 17.6493 17.8601 17.6418 17.8358 17.6289C17.8116 17.6159 17.7905 17.5978 17.774 17.5757C17.3547 17.0272 16.8413 16.5575 16.2576 16.1887C15.0641 15.4228 13.552 15.0009 11.9999 15.0009C10.4479 15.0009 8.93571 15.4228 7.74227 16.1887C7.15862 16.5574 6.64516 17.0269 6.22587 17.5753C6.20939 17.5973 6.18828 17.6154 6.16402 17.6284C6.13976 17.6413 6.11294 17.6488 6.08548 17.6502C6.05801 17.6517 6.03057 17.647 6.00509 17.6367C5.97961 17.6263 5.95673 17.6105 5.93805 17.5903C4.56259 16.1055 3.78344 14.1653 3.74993 12.1415C3.67352 7.58012 7.41649 3.76216 11.9798 3.75091C16.5431 3.73966 20.2499 7.44512 20.2499 12.0009C20.2515 14.0734 19.4699 16.07 18.0618 17.5907Z" fill="#A3AED0"/>
<path d="M12 6.75C11.0756 6.75 10.2398 7.09641 9.6459 7.72594C9.05199 8.35547 8.75527 9.22594 8.82231 10.1602C8.95824 12 10.3837 13.5 12 13.5C13.6162 13.5 15.0389 12 15.1776 10.1606C15.247 9.23531 14.9526 8.37281 14.3489 7.73156C13.7526 7.09875 12.9182 6.75 12 6.75Z" fill="#A3AED0"/>
</svg>
